<svg xmlns="http://www.w3.org/2000/svg" width="57" height="74" fill="none"><path fill="#21558A" d="M23.5 19.882a4.98 4.98 0 0 0 4.974 4.973 4.98 4.98 0 0 0 4.973-4.973 4.98 4.98 0 0 0-4.973-4.973 4.98 4.98 0 0 0-4.973 4.973m6.78 0c0 .996-.81 1.806-1.806 1.806s-1.806-.81-1.806-1.806c0-.995.81-1.805 1.806-1.805.995 0 1.805.81 1.805 1.805"/><path fill="#21558A" d="M47.732 20.668 29.467 5.954a1.584 1.584 0 0 0-1.987 0L9.215 20.668a1.584 1.584 0 0 0 1.988 2.467l2.159-1.74V40.43c0 .874.709 1.583 1.583 1.583h27.057c.875 0 1.584-.709 1.584-1.583V21.396l2.159 1.739a1.58 1.58 0 0 0 2.227-.24 1.584 1.584 0 0 0-.24-2.227M31.51 38.846h-6.072v-8.71h6.072zm8.909 0h-5.742V28.552c0-.875-.71-1.584-1.584-1.584h-9.239c-.874 0-1.583.71-1.583 1.584v10.294h-5.742V18.844L28.474 9.22l11.945 9.623zM44.409 61.153l-2.143 1.883-.554-.558a1.583 1.583 0 1 0-2.25 2.23l1.604 1.617a1.58 1.58 0 0 0 2.17.075l3.263-2.867a1.584 1.584 0 0 0-2.09-2.38M44.409 53.72l-2.143 1.882-.554-.558a1.584 1.584 0 1 0-2.25 2.23l1.604 1.617a1.58 1.58 0 0 0 2.17.075l3.263-2.867a1.584 1.584 0 0 0-2.09-2.38M44.409 46.285l-2.143 1.883-.554-.558a1.584 1.584 0 0 0-2.25 2.23l1.604 1.617a1.58 1.58 0 0 0 2.17.075l3.263-2.867a1.584 1.584 0 0 0-2.09-2.38"/><path fill="#21558A" d="M50.974 0h-45A5.98 5.98 0 0 0 0 5.974v62.052A5.98 5.98 0 0 0 5.974 74h45a5.98 5.98 0 0 0 5.974-5.974V5.974A5.98 5.98 0 0 0 50.974 0m2.806 68.026a2.81 2.81 0 0 1-2.806 2.807h-45a2.81 2.81 0 0 1-2.807-2.807V5.974a2.81 2.81 0 0 1 2.807-2.807h45a2.81 2.81 0 0 1 2.806 2.807z"/><path fill="#5F9FE1" d="M31.863 50.07h-20.37a1.584 1.584 0 1 1 0-3.167h20.37a1.584 1.584 0 0 1 0 3.168M31.863 57.505h-20.37a1.584 1.584 0 1 1 0-3.168h20.37a1.584 1.584 0 0 1 0 3.168M31.863 64.939h-20.37a1.584 1.584 0 1 1 0-3.167h20.37a1.584 1.584 0 0 1 0 3.167"/></svg>