<svg xmlns="http://www.w3.org/2000/svg" width="74" height="74" fill="none"><path fill="#21558A" d="M23.41 35.059a5.714 5.714 0 0 0 5.708-5.708 1.59 1.59 0 1 0-3.18 0 2.53 2.53 0 0 1-2.528 2.528 2.53 2.53 0 0 1-2.528-2.528 1.59 1.59 0 1 0-3.18 0 5.714 5.714 0 0 0 5.708 5.708"/><path fill="#21558A" d="M66.636 40.723H51.978a4.705 4.705 0 0 0-4.7 4.699v.268l-2.641 5.635a17.7 17.7 0 0 0-4.766-5.5 17.3 17.3 0 0 0-9.17-3.48v-2.876a12.53 12.53 0 0 0 5.226-9.65 5.02 5.02 0 0 0 3.432-4.756 5.02 5.02 0 0 0-3.42-4.752v-5.247a5.933 5.933 0 0 0-5.927-5.926h-8.128a2.99 2.99 0 0 1-2.989-2.99 1.59 1.59 0 0 0-1.59-1.589h-1.82c-4.292 0-7.782 3.49-7.782 7.782a7.78 7.78 0 0 0 3.18 6.271v1.7a5.02 5.02 0 0 0-3.421 4.751 5.02 5.02 0 0 0 3.431 4.756 12.53 12.53 0 0 0 5.225 9.65v2.877C7.113 43.046 0 50.599 0 59.78v8.07c0 .878.712 1.59 1.59 1.59h46.329a1.59 1.59 0 0 0 1.439-.915l8.123-17.329h3.402c4.049 0 7.343-3.294 7.343-7.342v-1.543a1.59 1.59 0 0 0-1.59-1.59M15.484 7.737h.44a6.18 6.18 0 0 0 5.96 4.58h8.128a2.75 2.75 0 0 1 2.746 2.745v1.88H15.484a4.607 4.607 0 0 1-4.602-4.603 4.607 4.607 0 0 1 4.602-4.602m-1.422 21.55v-.805a1.59 1.59 0 0 0-1.59-1.59c-1.01 0-1.83-.82-1.83-1.83s.82-1.83 1.83-1.83a1.59 1.59 0 0 0 1.59-1.59v-1.651q.691.129 1.422.13h17.274v1.52c0 .878.712 1.59 1.59 1.59 1.01 0 1.83.821 1.83 1.83s-.82 1.831-1.83 1.831a1.59 1.59 0 0 0-1.59 1.59v.804c0 5.155-4.193 9.349-9.348 9.349-5.154 0-9.348-4.194-9.348-9.349m9.348 12.527c1.44 0 2.824-.244 4.112-.693v2.86a4.117 4.117 0 0 1-4.112 4.112 4.117 4.117 0 0 1-4.112-4.112v-2.86c1.289.45 2.672.693 4.112.693m23.498 24.447h-8.484v-6.48a1.59 1.59 0 0 0-3.18 0v6.48H11.577v-6.48a1.59 1.59 0 0 0-3.18 0v6.48H3.18v-6.48c0-7.484 5.775-13.645 13.102-14.26.709 3.284 3.636 5.752 7.128 5.752s6.42-2.469 7.128-5.752a14.16 14.16 0 0 1 7.415 2.839 14.42 14.42 0 0 1 5.09 7.317 1.59 1.59 0 0 0 2.962.22l3.628-7.74 4.723 2.214zm13.976-18.245h-4.06l-6.32-2.963a1.52 1.52 0 0 1 1.474-1.152h13.068a4.17 4.17 0 0 1-4.162 4.115"/><path fill="#000" d="m65.893 19.81-3.88-1.194-2.334-3.32a1.59 1.59 0 0 0-2.601 0l-2.335 3.32-3.879 1.195a1.59 1.59 0 0 0-.803 2.473l2.435 3.246-.062 4.059a1.59 1.59 0 0 0 2.104 1.529l3.84-1.314 3.84 1.314a1.59 1.59 0 0 0 2.105-1.53l-.063-4.058 2.436-3.246a1.59 1.59 0 0 0-.803-2.473m-4.502 4.247a1.6 1.6 0 0 0-.318.979l.036 2.341-2.216-.758a1.6 1.6 0 0 0-1.03 0l-2.215.758.036-2.341a1.6 1.6 0 0 0-.318-.979l-1.405-1.873 2.238-.69a1.6 1.6 0 0 0 .832-.604l1.347-1.916 1.347 1.916c.203.288.496.501.833.605l2.238.689z"/><path fill="#000" d="M68.074 6.816h-1.06v-.527a1.59 1.59 0 0 0-3.18 0v.527h-3.866v-.527a1.59 1.59 0 0 0-3.18 0v.527h-3.866v-.527a1.59 1.59 0 0 0-3.18 0v.527h-1.06a5.933 5.933 0 0 0-5.925 5.926v18.895a5.933 5.933 0 0 0 5.926 5.926h19.391A5.933 5.933 0 0 0 74 31.637V12.742a5.933 5.933 0 0 0-5.926-5.926m2.746 24.82a2.75 2.75 0 0 1-2.746 2.747H48.683a2.75 2.75 0 0 1-2.747-2.746V12.742a2.75 2.75 0 0 1 2.746-2.746h1.06v.527a1.59 1.59 0 1 0 3.18 0v-.527h3.867v.527a1.59 1.59 0 1 0 3.18 0v-.527h3.866v.527a1.59 1.59 0 1 0 3.18 0v-.527h1.06a2.75 2.75 0 0 1 2.745 2.746z"/></svg>