<svg xmlns="http://www.w3.org/2000/svg" width="74" height="74" fill="none"><g clip-path="url(#a)"><path fill="#21558A" d="M54.925 29.294c-2.271 0-4.43-.92-6.077-2.593-1.42-1.56.724-3.675 2.265-2.232a5.264 5.264 0 0 0 7.625 0c1.537-1.442 3.687.67 2.265 2.232-1.648 1.672-3.806 2.593-6.078 2.593"/><path fill="#000" d="M54.925 38.1c-10.517 0-19.074-8.557-19.074-19.075C36.899-6.28 72.956-6.272 74 19.025 74 29.543 65.443 38.1 54.925 38.1m0-34.97c-8.764 0-15.894 7.13-15.894 15.895.873 21.087 30.92 21.08 31.79 0 0-8.764-7.131-15.895-15.896-15.895"/><path fill="#21558A" d="M48.314 17.824c-1.104.024-1.916-1.188-1.468-2.199.524-1.298 2.412-1.296 2.936 0 .446 1.011-.364 2.222-1.468 2.198M61.537 17.823c-1.11.018-1.91-1.178-1.468-2.198.523-1.297 2.414-1.297 2.936 0 .444 1.018-.358 2.217-1.468 2.198M45.91 63.545c2.537-2.253 2.593-6.51.003-8.816 4.03-3.696 1.312-10.402-4.154-10.405h-8.753v-5.846c0-4.094-3.33-7.424-7.423-7.424a4.577 4.577 0 0 0-4.572 4.572v4.592c.034 3.608-2.528 6.78-6.077 7.349v-.568a1.59 1.59 0 0 0-1.59-1.59H1.59A1.59 1.59 0 0 0 0 46.999V72.36c0 .878.712 1.59 1.59 1.59h11.754a1.59 1.59 0 0 0 1.59-1.59v-1.38c2.062 1.46 5.241 2.97 9.577 2.97h17.338c5.479-.03 8.041-6.721 4.062-10.406m-34.156 7.226H3.18V48.588h8.574zm32.087-.826a2.8 2.8 0 0 1-1.992.826H24.51c-5.479 0-8.62-2.924-9.577-3.982V50.784c5.286-.569 9.322-5.245 9.257-10.566v-4.591c0-.768.624-1.393 1.392-1.393a4.25 4.25 0 0 1 4.244 4.244v7.435c0 .879.712 1.59 1.59 1.59h10.342c2.544-.001 3.877 3.019 2.082 4.81a2.8 2.8 0 0 1-1.992.826H37.44a1.59 1.59 0 0 0 0 3.18h4.408c1.513-.032 2.85 1.305 2.818 2.818a2.82 2.82 0 0 1-2.818 2.818H37.44a1.59 1.59 0 0 0 0 3.18h4.408c2.488-.01 3.763 3.058 1.992 4.81"/></g><defs><clipPath id="a"><path fill="#fff" d="M0 0h74v74H0z"/></clipPath></defs></svg>