<svg xmlns="http://www.w3.org/2000/svg" width="86" height="56" fill="none"><path fill="#000" d="M31.547 8.497c-.566.595-1.388 2.522-2.861 6.602-.284.793-.68 1.728-.85 2.068-.199.368-.765 1.813-1.275 3.23-1.049 2.947-4.279 11.362-4.675 12.212-.142.311-.595 1.53-1.02 2.691-.397 1.162-.85 2.239-.992 2.409-.142.141-.255.481-.255.765 0 .255-.425 1.473-.963 2.691-1.389 3.174-2.465 6.489-2.267 6.97.368.992 1.332 1.049 16.405 1.049 10.512 0 15.045-.085 15.555-.312.68-.312 1.558-1.813 1.983-3.372.17-.651.68-1.898 1.757-4.448.227-.482.397-1.077.397-1.303 0-.255.113-.51.255-.595.141-.085.34-.51.453-.935.085-.454.368-1.02.623-1.275.227-.255.34-.624.227-.794-.113-.198-.057-.453.113-.566.199-.114.369-.482.397-.794.028-.34.142-.623.255-.623s.227-.17.227-.397c0-.34 1.53-4.618 2.266-6.261.114-.312.51-1.332.879-2.267.34-.935.765-2.097.963-2.55.198-.482.51-1.303.708-1.842.17-.538.454-1.246.567-1.558.935-2.295 2.267-5.865 2.55-6.8.198-.623.51-1.388.68-1.7.595-.935.765-1.615.397-1.388-.199.141-.255.056-.142-.227.085-.255-.057-.652-.34-.907-.453-.396-2.21-.453-15.952-.453H32.171zm30.232 4.477c-.907 2.38-2.862 7.451-4.335 11.276a1908 1908 0 0 1-4.392 11.475 967 967 0 0 0-3.201 8.415l-1.474 3.882-15.668.085c-13.827.085-15.668.028-15.555-.34.085-.227 1.417-3.797 3.003-7.905 3.145-8.103 11.589-30.26 11.787-30.855.085-.255 3.513-.34 15.81-.34h15.697z"/><path fill="#000" d="M36.9 17.534c-2.21.652-3.486 1.389-5.1 3.032-3.797 3.825-4.732 9.888-2.296 14.875 1.02 2.04 3.23 4.25 5.242 5.185 4.193 1.983 9.463 1.133 12.92-2.097l1.417-1.331-1.049-.935c-.595-.51-1.19-.935-1.303-.964-.142 0-.538.369-.907.794-.368.425-1.331 1.161-2.181 1.615-1.304.736-1.785.85-3.769.85-1.983 0-2.465-.114-3.796-.85-2.89-1.587-4.335-4.279-4.364-8.217-.028-3.173.624-4.93 2.635-6.97 1.757-1.785 3.315-2.38 5.95-2.323 2.04.056 3.429.68 5.129 2.266l1.416 1.304.964-.935c.538-.539.991-1.077.991-1.19 0-.567-2.55-2.635-4.193-3.4-2.097-1.02-5.582-1.332-7.707-.709m7.338 1.587c.708.368 1.445.85 1.671 1.048.199.227.482.397.624.397.141 0 .396.255.566.567.454.85-.368 1.048-1.303.311-.425-.34-.652-.595-.51-.595s-.453-.34-1.303-.736c-.85-.397-2.295-.794-3.202-.879-1.813-.17-4.533.34-5.043.964-.17.198-.482.368-.652.368-.198 0-1.048.765-1.955 1.7-1.105 1.19-1.53 1.842-1.417 2.182.142.34.085.396-.198.226-.227-.141-.312-.113-.198.057s-.029.878-.255 1.615c-.34.963-.425 1.898-.312 3.372.227 2.861.34 3.4 1.077 4.873.623 1.247 2.805 3.882 2.805 3.4 0-.113.226-.028.51.227 1.841 1.671 7.31 1.813 9.208.198.283-.227.567-.397.623-.368.085.056.454-.255.822-.624.425-.425.878-.623 1.162-.538 1.048.425-1.02 2.21-3.769 3.258-1.36.51-2.04.567-4.08.454-1.388-.057-2.663-.255-2.833-.397-.198-.17-.68-.368-1.077-.453-.878-.227-3.116-1.899-3.116-2.352 0-.198-.199-.425-.425-.51-.255-.085-.85-1.02-1.36-2.068-.794-1.729-.907-2.239-.992-4.902-.057-2.72 0-3.145.708-4.873.879-2.125 3.485-5.327 4.307-5.327.283 0 .68-.198.878-.425.17-.227.425-.397.51-.368.114.028.397-.029.624-.142.226-.085.623-.227.85-.312s1.643-.113 3.116-.085c2.154.085 2.947.227 3.939.737M9.7 15.977c-2.04.198-1.983-.283-1.983 13.543-.028 14.366-.198 13.43 2.692 13.43 2.691 0 2.804-.226 2.918-5.355.028-2.266.113-4.448.142-4.816.056-.652.113-.652 3.23-.709 3.003-.028 3.23-.056 3.881-.736.737-.793 1.729-3.4 1.275-3.4-.17 0-.227-.114-.142-.255.312-.482-.878-.737-4.504-.878l-3.684-.142v-5.383h10.427l.793-.794c1.558-1.53 1.672-3.966.17-4.306-.765-.17-13.826-.34-15.215-.199M24.83 18.5l-.651 1.643-5.95.085-5.979.057v7.707000000000001l4.534-.114c2.493-.028 4.505-.028 4.448.057a95 95 0 0 1-.623 1.615l-.567 1.502H12.25V42.1H8.567V16.884H25.51zM64.497 16.035c-1.162.255-1.927.85-2.04 1.558-.057.311-.198.68-.34.85-.113.141-.425.991-.708 1.842-.284.85-.624 1.728-.794 1.898-.141.198-.17.368-.056.368.113 0 .085.17-.057.34-.17.199-.453.879-.652 1.502-.198.623-.453 1.247-.566 1.416-.085.142-.539 1.304-.992 2.55-.425 1.247-.907 2.38-1.02 2.522-.142.17-.255.567-.255.907s-.085.68-.198.737c-.142.028-.51.85-.85 1.785s-.879 2.408-1.219 3.258-.821 2.182-1.02 2.975c-.396 1.36-.368 1.445.199 1.898.425.368 1.105.51 2.266.51 2.012 0 2.862-.651 3.57-2.72.255-.765.567-1.53.709-1.7.141-.198.226-.453.198-.566-.028-.142.085-.596.255-1.049l.34-.765h8.443000000000001l1.077 2.749c1.417 3.768 1.728 4.051 4.052 4.051 2.096 0 2.436-.142 2.805-1.105.17-.481.113-.991-.255-1.728-.284-.595-.567-1.417-.652-1.87s-.283-.85-.453-.907c-.142-.056-.227-.198-.142-.312.057-.141-.113-.765-.425-1.388-.312-.651-.567-1.303-.567-1.473 0-.142-.113-.51-.255-.794-.368-.736-1.048-2.351-1.53-3.598-1.586-4.193-2.295-6.035-2.606-6.658-.199-.397-.624-1.53-.964-2.522-.821-2.408-1.615-3.91-2.238-4.221-.793-.425-2.125-.567-3.06-.34m5.752 8.5c5.61 14.251 6.63 16.858 6.8 17.198.113.283-.397.368-2.012.368-2.04 0-2.153-.028-2.323-.708-.085-.397-.652-1.955-1.247-3.457L70.39 35.16h-9.803l-1.275 3.456-1.275 3.485H56.11c-1.048 0-1.926-.056-1.926-.113s2.04-5.412 4.533-11.9 4.618-12.127 4.703-12.524c.17-.68.255-.708 2.04-.623l1.842.085z"/><path fill="#000" d="M64.44 24.08c-.51 1.559-1.36 3.967-1.87 5.327l-.935 2.493h3.825c3.485 0 3.797-.028 3.655-.51-.425-1.36-3.485-9.973-3.598-10.058-.085-.085-.567 1.162-1.077 2.748m1.644 1.842c0 .255.113.595.254.737.312.34 1.162 3.173 1.162 3.881 0 .454-.255.51-2.125.51H63.25l.17-.793c.113-.425.567-1.813 1.02-3.117.709-1.926.935-2.295 1.247-2.011.227.17.397.538.397.793"/></svg>