<svg xmlns="http://www.w3.org/2000/svg" width="248" height="211" fill="none"><path fill="url(#a)" d="m121.736 12.657 3.807 7.716 8.515 1.237-6.162 6.006 1.455 8.48-7.615-4.004-7.616 4.004 1.454-8.48-6.161-6.006 8.515-1.237z"/><path fill="url(#b)" d="m121.527 157.721-.418-115.914S143.085 40.183 151.01.644c0 0 1.746 47.121 1.611 50.913S121.527 157.72 121.527 157.72"/><path fill="url(#c)" d="M118.716 54.106s-13.802-2.97-23.34-42.407c0 0 1.306 48.553 1.387 52.464s23.508 94.232 23.508 94.232z"/><path fill="url(#d)" d="M129.35 36.738a.64.64 0 0 1-.299-.074l-7.316-3.846-7.316 3.846a.644.644 0 0 1-.934-.678l1.397-8.147-5.919-5.77a.643.643 0 0 1 .356-1.097l8.181-1.188 3.658-7.412a.64.64 0 0 1 1.153 0l3.658 7.412 8.18 1.188a.644.644 0 0 1 .357 1.098l-5.92 5.77 1.398 8.146a.644.644 0 0 1-.634.752m-18.556-14.68 5.228 5.095a.64.64 0 0 1 .185.57l-1.234 7.196 6.462-3.398c.188-.1.411-.1.599 0l6.462 3.398-1.235-7.196a.65.65 0 0 1 .186-.57l5.228-5.096-7.225-1.05a.64.64 0 0 1-.484-.351l-3.231-6.546-3.232 6.546a.64.64 0 0 1-.484.352z"/><path fill="url(#e)" d="M121.526 158.363a.642.642 0 0 1-.643-.641l-.419-115.913a.645.645 0 0 1 .595-.645c.215-.016 21.597-2.118 29.319-40.648a.65.65 0 0 1 .682-.515c.326.027.58.291.591.618.072 1.925 1.746 47.188 1.612 50.959-.137 3.831-29.855 102.144-31.121 106.328a.64.64 0 0 1-.616.457m.226-115.988.402 111.043c10.948-36.255 29.722-99.062 29.823-101.885.106-2.99-.985-33.664-1.429-45.884-7.933 31.948-25.283 36.191-28.796 36.726"/><path fill="url(#f)" d="M120.269 159.036a.645.645 0 0 1-.622-.482c-.957-3.69-23.446-90.438-23.528-94.38-.08-3.864-1.374-51.975-1.387-52.46a.64.64 0 0 1 .558-.655.64.64 0 0 1 .71.486c4.86 20.093 10.831 30.433 14.984 35.569 4.474 5.532 7.838 6.353 7.872 6.36a.65.65 0 0 1 .504.62l1.553 104.289a.64.64 0 0 1-.644.653M96.17 17.353c.347 12.939 1.172 43.732 1.236 46.794.06 2.874 13.807 56.681 22.141 88.888l-1.467-98.452c-2.491-.884-13.433-6.43-21.91-37.23"/><path fill="url(#g)" d="m141.972 164.307-21.8 5.104-20.385-5.104 6.985-11.009h27.936z"/><path fill="url(#h)" d="M120.172 170.053a.6.6 0 0 1-.156-.019l-20.386-5.103a.644.644 0 0 1-.386-.968l6.984-11.01a.64.64 0 0 1 .543-.299h27.937c.216 0 .418.109.537.289l7.264 11.01a.642.642 0 0 1-.39.981l-21.799 5.103a1 1 0 0 1-.148.016m-19.364-6.154 19.369 4.849 20.749-4.857-6.564-9.95h-27.237z"/><path fill="url(#i)" d="M89.771 202.73c2.683-2.221 5.734-3.868 8.859-5.157a47 47 0 0 1 3.573-1.305c-3.191-1.699-5.525-4.244-7.918-7.015-.89-.796-7.532-8.874-7.456-8.878 4.133-.921 7.738-1.664 11.98-.918 2.657.458 4.912 1.521 7.2 2.96 1.881 1.179 3.78 2.607 5.937 4.088 1.478 1.014 3.026 2.021 4.713 2.552 1.685.532 3.548.547 5.052-.394.188-.117.392-.253.609-.191.186.054.332.242.443.437 2.093 3.593-.1 10.7-2.125 12.882-5.419 6.093-10.846 8.844-18.666 8.127-6.86-.723-11.214-.962-17.62.258-.604.12 1.734-3.636 1.91-3.878 1.085-1.309 2.224-2.503 3.509-3.568"/><path fill="url(#j)" d="M58.094 189.655c2.867-1.153 5.924-1.69 8.953-1.892a42 42 0 0 1 3.419-.085c-2.379-2.433-3.827-5.365-5.285-8.525-.585-.958-4.59-10.112-4.533-10.103 3.875.461 7.235.918 10.786 2.867 2.225 1.211 3.946 2.825 5.598 4.77 1.358 1.594 2.668 3.407 4.18 5.336 1.036 1.321 2.129 2.653 3.45 3.608 1.319.955 2.909 1.507 4.414 1.125.187-.048.394-.107.564.01.145.1.226.307.274.508.927 3.721-2.62 9.268-4.864 10.591-6.07 3.754-11.373 4.614-17.986 1.706-5.786-2.637-9.543-4.139-15.447-4.975-.559-.075 2.36-2.687 2.571-2.848 1.255-.828 2.531-1.539 3.905-2.093"/><path fill="url(#k)" d="M33.008 168.349c2.805-.13 5.645.349 8.386 1.114 1.018.284 2.043.615 3.062.989-1.572-2.904-2.213-5.972-2.818-9.255-.305-1.031-1.89-10.512-1.846-10.494 3.367 1.66 6.282 3.145 9.033 6.013 1.724 1.787 2.905 3.768 3.944 6.015.854 1.843 1.613 3.86 2.52 6.038.62 1.492 1.287 3.007 2.24 4.258.95 1.249 2.228 2.222 3.644 2.344.177.015.373.026.496.181.106.132.129.339.125.53-.043 3.56-4.447 7.374-6.728 7.865-6.214 1.476-11.087.639-16.296-3.977-4.539-4.125-7.548-6.638-12.603-9.236-.48-.243 2.686-1.663 2.91-1.74 1.295-.346 2.587-.582 3.93-.645"/><path fill="url(#l)" d="M15.397 141.108c2.494.799 4.897 2.16 7.16 3.744a45 45 0 0 1 2.5 1.89c-.771-3.136-.68-6.128-.516-9.313-.05-1.028.57-10.209.606-10.188 2.611 2.639 4.882 4.963 6.721 8.475 1.156 2.191 1.789 4.373 2.236 6.743.37 1.945.615 4.012.955 6.266.234 1.544.502 3.122 1.081 4.551.578 1.426 1.507 2.707 2.746 3.267.155.07.327.142.403.32.065.153.041.344-.005.515-.817 3.173-5.582 5.191-7.718 4.911-5.853-.647-9.993-2.938-13.6-8.781-3.118-5.188-5.228-8.448-9.089-12.465-.367-.378 2.713-.636 2.926-.633 1.214.108 2.398.316 3.594.698"/><path fill="url(#m)" d="M6.142 110.206c1.937 1.582 3.682 3.657 5.275 5.883a54 54 0 0 1 1.737 2.586c.026-3.157.77-5.901 1.624-8.809.183-.963 2.793-9.342 2.825-9.321 1.607 3.369 3.034 6.317 3.853 10.206.518 2.429.596 4.665.474 7.005-.098 1.921-.328 3.908-.514 6.093-.127 1.497-.23 3.034-.028 4.535.201 1.499.744 2.976 1.716 3.897.122.115.258.238.287.426.025.161-.037.328-.114.468-1.4 2.624-6.03 2.897-7.839 1.939-4.988-2.519-8.092-5.975-9.899-12.561-1.523-5.825-2.584-9.559-4.905-14.6-.222-.477 2.442.319 2.622.394 1.001.509 1.957 1.102 2.886 1.859"/><path fill="url(#n)" d="M6.129 77.896c1.134 2.173 2.001 4.751 2.735 7.413.271.99.529 2.01.769 3.052.819-2.99 2.14-5.357 3.604-7.855.39-.848 4.78-8.048 4.813-8.03.357 3.816.74 7.152.428 11.161-.188 2.505-.672 4.664-1.341 6.846-.547 1.791-1.216 3.595-1.89 5.594-.46 1.37-.908 2.782-1.086 4.261-.18 1.476-.06 3.045.556 4.236.077.15.165.311.147.496a.7.7 0 0 1-.203.399c-1.79 1.976-5.793.665-7.095-.842-3.622-4.045-5.385-8.329-5.195-15.175.246-6.036.384-9.962-.053-15.582-.043-.533 1.871 1.131 1.998 1.265.662.828 1.268 1.72 1.813 2.76"/><path fill="url(#o)" d="M16.24 46.41c.085 2.522-.143 5.356-.459 8.221a146 146 0 0 1-.4 3.257c1.609-2.664 3.433-4.561 5.425-6.558.573-.696 6.533-6.463 6.573-6.452-1.14 3.95-1.998 7.416-3.553 11.295-.962 2.424-2.017 4.395-3.214 6.315-.98 1.578-2.05 3.119-3.172 4.842-.767 1.18-1.534 2.402-2.097 3.776-.563 1.372-.906 2.93-.733 4.289.02.17.048.355-.017.528a.65.65 0 0 1-.274.316c-1.988 1.293-4.873-1.33-5.487-3.222-1.754-5.13-1.877-9.858.508-16.482 2.188-5.82 3.677-9.647 5.467-15.35.168-.54 1.005 1.728 1.055 1.901.199 1.035.335 2.116.377 3.324"/><path fill="url(#p)" d="M37.359 17.962c-1.208 2.578-2.751 5.383-4.305 8.188a765 765 0 0 1-1.771 3.174c2.394-2.203 4.647-3.582 7.089-5.03.733-.52 8.055-4.726 8.106-4.722-2.883 3.735-5.182 7.052-8.088 10.558a54.4 54.4 0 0 1-5.142 5.463c-1.395 1.3-2.83 2.526-4.363 3.909-1.049.947-2.108 1.932-3.06 3.13-.951 1.196-1.793 2.644-2.154 4.058-.045.176-.091.37-.204.522a.62.62 0 0 1-.324.225c-1.996.64-3.274-2.91-3.02-4.99.612-5.678 2.432-10.419 7.21-16.337 4.304-5.18 7.294-8.604 11.653-13.842.412-.499-.156 2.033-.205 2.223a38 38 0 0 1-1.422 3.471"/><path fill="url(#q)" d="M84.326 210.8a.69.69 0 0 1-.581-.315c-.562-.88 1.988-4.515 2.014-4.551 1.227-1.48 2.402-2.674 3.615-3.68v-.001c2.484-2.055 5.433-3.773 9.018-5.252.762-.314 1.538-.61 2.32-.885-2.677-1.704-4.786-4.012-6.875-6.43-.597-.56-2.815-3.202-4.1-4.747-3.635-4.371-3.635-4.371-3.496-4.768l.114-.324.337-.076c3.789-.845 7.707-1.718 12.223-.924 2.456.425 4.746 1.364 7.422 3.047 1.227.77 2.456 1.639 3.756 2.56.709.501 1.439 1.019 2.202 1.542 1.417.973 2.937 1.965 4.548 2.472.995.315 2.908.688 4.537-.328.25-.157.632-.398 1.11-.26.319.091.584.329.809.726 2.278 3.912-.134 11.37-2.21 13.608-5.808 6.53-11.55 9.018-19.177 8.322-7.326-.773-11.369-.908-17.446.25a1 1 0 0 1-.14.014m8.774-2.097c2.87 0 5.681.258 8.934.601 7.279.664 12.54-1.628 18.139-7.923 1.901-2.05 3.999-8.814 2.052-12.158a1 1 0 0 0-.068-.107l-.099.06c-1.542.964-3.519 1.128-5.588.474-1.773-.559-3.382-1.607-4.877-2.633a163 163 0 0 1-2.216-1.552c-1.286-.91-2.501-1.77-3.7-2.521-2.533-1.593-4.684-2.48-6.976-2.875-3.904-.685-7.409-.041-10.784.699 1.608 1.989 6.085 7.405 6.778 8.025l.055.057c2.407 2.787 4.651 5.228 7.74 6.872l1.295.689-1.397.447c-1.186.38-2.372.814-3.525 1.288-3.468 1.431-6.314 3.086-8.7 5.062-1.153.956-2.274 2.096-3.427 3.486-.2.282-1.096 1.763-1.571 2.706a45.6 45.6 0 0 1 7.935-.697"/><path fill="url(#r)" d="M74.563 201.921c-2.52 0-5.056-.598-7.75-1.782-5.48-2.497-9.239-4.073-15.284-4.928a.68.68 0 0 1-.58-.506c-.254-.959 2.83-3.425 2.862-3.448 1.432-.946 2.745-1.65 4.05-2.176 2.657-1.068 5.649-1.702 9.143-1.936a42 42 0 0 1 2.067-.085c-1.878-2.242-3.137-4.796-4.44-7.618-.385-.661-1.735-3.672-2.514-5.43-2.207-4.977-2.207-4.977-1.983-5.309l.212-.312.375.044c3.551.423 7.222.86 11.011 2.939 2.057 1.12 3.838 2.635 5.771 4.912.9 1.056 1.771 2.197 2.694 3.406.483.633.98 1.285 1.501 1.949.993 1.266 2.067 2.578 3.326 3.488.769.559 2.3 1.432 3.898 1.027.249-.064.673-.172 1.068.101.255.176.428.462.525.874 1.014 4.069-2.837 9.902-5.152 11.268-3.814 2.359-7.29 3.522-10.8 3.522m-21.976-7.804c5.704.909 9.584 2.545 14.733 4.891 6.103 2.684 11.147 2.201 17.402-1.669 2.088-1.231 5.447-6.476 4.59-9.915q-.012-.049-.023-.083l-.04.01c-1.568.397-3.319-.036-4.95-1.218-1.39-1.004-2.529-2.392-3.575-3.727-.524-.67-1.025-1.325-1.511-1.962-.913-1.196-1.775-2.325-2.653-3.356-1.831-2.155-3.503-3.582-5.423-4.628-3.216-1.764-6.407-2.284-9.512-2.668 1.004 2.335 3.632 8.299 4.083 9.038l.034.064c1.467 3.179 2.868 6.002 5.165 8.351l1.053 1.077-1.506-.024a40 40 0 0 0-3.368.083c-3.362.225-6.228.83-8.763 1.849-1.227.495-2.469 1.161-3.796 2.036a29 29 0 0 0-1.94 1.851"/><path fill="url(#s)" d="M49.954 185.223c-4.287 0-7.936-1.543-11.599-4.789-4.313-3.92-7.301-6.489-12.475-9.148a.69.69 0 0 1-.384-.666c.067-.96 3.342-2.198 3.375-2.21 1.491-.4 2.82-.618 4.105-.678 2.602-.116 5.41.25 8.582 1.136q.84.233 1.676.508c-1.123-2.529-1.671-5.159-2.202-8.035-.194-.7-.743-3.832-1.057-5.658-.89-5.179-.89-5.179-.599-5.439l.312-.279.375.185c3.092 1.523 6.29 3.099 9.206 6.14 1.593 1.651 2.846 3.559 4.059 6.183.575 1.241 1.103 2.551 1.663 3.938.278.689.563 1.397.865 2.122.595 1.431 1.253 2.927 2.162 4.121.958 1.259 2.096 2.006 3.205 2.102.236.02.642.054.927.413.183.23.267.533.259.929-.048 3.994-4.774 7.929-7.216 8.456-1.863.442-3.598.669-5.239.669m-22.746-14.639c4.85 2.594 7.929 5.251 11.975 8.928 4.784 4.239 9.346 5.352 15.737 3.834 2.044-.442 6.213-4.081 6.25-7.27v-.083l-.032-.003c-1.483-.128-2.933-1.046-4.105-2.588-.997-1.31-1.692-2.889-2.319-4.394-.304-.73-.591-1.442-.87-2.135-.555-1.372-1.077-2.668-1.64-3.882-1.152-2.493-2.333-4.296-3.827-5.844-2.319-2.418-4.663-3.785-7.796-5.359.41 2.527 1.42 8.461 1.649 9.234l.015.063c.61 3.307 1.239 6.272 2.755 9.072l.78 1.442-1.539-.566a40 40 0 0 0-3.015-.975c-3.043-.849-5.72-1.208-8.19-1.09-1.196.056-2.44.26-3.803.624-.226.087-1.321.597-2.025.992"/><path fill="url(#t)" d="M31.972 162.933q-.26 0-.488-.03c-6.35-.702-10.556-3.414-14.046-9.069-2.985-4.966-5.079-8.272-9.009-12.361a.69.69 0 0 1-.146-.765c.369-.856 3.474-.917 3.527-.917 1.406.125 2.624.362 3.772.728v.001c2.305.737 4.702 1.989 7.327 3.826q.605.425 1.206.877c-.415-2.582-.336-5.098-.195-7.825-.03-.561.156-3.676.27-5.477.318-5.024.318-5.024.64-5.213l.415-.244.34.343c2.526 2.552 4.912 4.964 6.829 8.623 1.067 2.023 1.776 4.156 2.296 6.916.25 1.32.444 2.687.648 4.134.099.7.2 1.418.312 2.154.233 1.547.49 3.049 1.042 4.41.588 1.451 1.45 2.493 2.427 2.936.203.092.55.248.717.641q.165.392.024.919c-.87 3.374-5.42 5.393-7.908 5.393M9.918 141.242c3.643 3.9 5.705 7.169 8.578 11.947 3.307 5.359 7.115 7.819 13.137 8.485 1.882.239 6.33-1.659 7.05-4.45a1 1 0 0 0 .019-.083l-.054-.025c-1.288-.582-2.375-1.86-3.083-3.608-.602-1.484-.883-3.13-1.12-4.689q-.166-1.112-.313-2.167c-.202-1.432-.392-2.784-.638-4.077-.497-2.634-1.168-4.66-2.175-6.57-1.594-3.042-3.56-5.215-5.665-7.366-.18 2.548-.533 8.003-.496 8.76-.167 3.271-.244 6.174.498 9.195l.44 1.791-1.431-1.162a44 44 0 0 0-2.466-1.864c-2.521-1.764-4.809-2.962-6.993-3.661-1.06-.338-2.191-.558-3.46-.672a20 20 0 0 0-1.828.216m-.598-.63.003.003z"/><path fill="url(#u)" d="M18.048 136.244c-1.152 0-2.208-.217-2.9-.583-5.484-2.769-8.444-6.52-10.206-12.944-1.48-5.657-2.544-9.451-4.871-14.506a.69.69 0 0 1 .121-.786c.637-.663 3.274.34 3.3.35a16.6 16.6 0 0 1 3.04 1.952c1.769 1.445 3.532 3.409 5.388 6.002q.36.504.714 1.025c.233-2.424.844-4.661 1.55-7.063.096-.526.96-3.375 1.465-5.021 1.404-4.569 1.404-4.569 1.716-4.698l.542-.223.341.714c1.607 3.365 2.994 6.27 3.813 10.161.478 2.24.628 4.451.486 7.164-.066 1.293-.19 2.605-.321 3.994q-.1 1.03-.194 2.12c-.127 1.498-.225 2.963-.03 4.399.207 1.54.749 2.794 1.528 3.53.164.156.413.392.473.781.043.27-.02.561-.183.86-1.065 1.997-3.591 2.772-5.772 2.772M1.574 108.527c2.111 4.74 3.152 8.468 4.564 13.869 1.657 6.039 4.433 9.566 9.58 12.164 1.577.836 5.808.58 7.013-1.677a1 1 0 0 0 .033-.069l-.072-.07c-.997-.944-1.674-2.459-1.919-4.278-.21-1.559-.103-3.162.025-4.67q.095-1.094.194-2.131c.13-1.375.253-2.675.318-3.941.136-2.601-.006-4.712-.461-6.843-.69-3.279-1.815-5.865-3.139-8.665-.759 2.411-2.195 7.077-2.325 7.766-.874 2.988-1.59 5.66-1.614 8.699l-.018 2.11-1.125-1.785a54 54 0 0 0-1.716-2.556c-1.79-2.503-3.48-4.387-5.163-5.764a15.4 15.4 0 0 0-2.776-1.788c-.175-.062-.845-.25-1.4-.371"/><path fill="url(#v)" d="M12.077 107.09h-.068c-1.805-.021-3.917-.905-4.914-2.056-3.978-4.445-5.53-8.967-5.345-15.598.253-6.24.376-10.032-.051-15.517a.7.7 0 0 1 .407-.712c.827-.366 2.64 1.485 2.66 1.504.775.966 1.389 1.902 1.91 2.898 1.021 1.958 1.905 4.352 2.784 7.537q.13.475.256.961c.797-2.1 1.835-3.95 2.985-5.913.008-.024 4.635-8.13 5.15-8.304l.74-.248.167 1.767c.322 3.377.626 6.566.336 10.28-.174 2.312-.596 4.465-1.367 6.978a98 98 0 0 1-1.194 3.572q-.346.989-.701 2.037c-.46 1.371-.888 2.72-1.058 4.137-.186 1.53-.011 2.907.491 3.879.104.202.248.481.213.84-.025.267-.147.523-.363.757-.71.785-1.761 1.201-3.038 1.201M3.009 74.845c.342 5.021.218 8.748-.021 14.633-.174 6.274 1.286 10.546 5.038 14.737.671.777 2.386 1.618 3.998 1.636.652.013 1.568-.124 2.176-.797a.3.3 0 0 0 .05-.066c-.011.024-.05-.06-.075-.11-.625-1.208-.846-2.84-.631-4.613.184-1.533.652-3.006 1.114-4.384.238-.705.476-1.385.706-2.05a97 97 0 0 0 1.179-3.527c.743-2.422 1.15-4.492 1.316-6.711.26-3.318.039-6.117-.255-9.241-1.317 2.15-3.56 5.881-3.805 6.414-1.499 2.564-2.78 4.877-3.57 7.76l-.648 2.367-.553-2.392a77 77 0 0 0-.763-3.027c-.854-3.097-1.708-5.414-2.687-7.291a16.3 16.3 0 0 0-1.748-2.66c-.099-.095-.465-.403-.821-.677"/><path fill="url(#w)" d="M13.142 77.204a3.6 3.6 0 0 1-1.185-.216c-1.76-.622-3.27-2.41-3.715-3.78-1.924-5.627-1.776-10.52.515-16.883l.727-1.932c1.83-4.853 3.152-8.358 4.732-13.393.12-.386.44-.525.673-.517.834.01 1.453 2.029 1.568 2.433a22 22 0 0 1 .4 3.474c.095 2.792-.197 5.908-.461 8.31l-.08.7c1.24-1.646 2.59-3.042 4.05-4.508.314-.384 2.325-2.358 3.493-3.497 3.31-3.227 3.31-3.224 3.692-3.111l.593.172-.172.594q-.34 1.186-.66 2.326c-.853 3.032-1.658 5.896-2.913 9.027-.888 2.24-1.895 4.219-3.263 6.413a109 109 0 0 1-1.945 2.986c-.402.604-.813 1.222-1.233 1.865-.735 1.13-1.5 2.345-2.044 3.673-.59 1.438-.835 2.85-.692 3.976.028.216.066.514-.051.825-.094.25-.27.46-.52.62a2.7 2.7 0 0 1-1.509.443m1.87-34.622c-1.425 4.44-2.683 7.775-4.37 12.248l-.724 1.923c-2.182 6.063-2.328 10.72-.502 16.064.35 1.073 1.617 2.53 2.954 3.003.626.222 1.167.188 1.61-.1.04-.047.025-.154.016-.227-.172-1.355.103-2.99.773-4.622.585-1.427 1.384-2.699 2.152-3.879.42-.647.835-1.269 1.24-1.877.677-1.015 1.316-1.975 1.924-2.953 1.327-2.13 2.302-4.046 3.164-6.217 1.23-3.07 2.028-5.904 2.872-8.903l.044-.16c-1.809 1.747-4.535 4.421-4.882 4.842-2.042 2.05-3.825 3.92-5.372 6.485L14.37 60.76l.397-2.954c.147-1.099.28-2.183.398-3.244.26-2.36.546-5.417.456-8.13a21 21 0 0 0-.368-3.23 11 11 0 0 0-.24-.621m.386-1.213v.002z"/><path fill="url(#x)" d="M22.67 48.136c-.496 0-.977-.183-1.414-.545-1.296-1.072-1.951-3.564-1.75-5.22.668-6.19 2.796-11.017 7.343-16.65 2.183-2.626 4.059-4.84 5.874-6.98 1.785-2.104 3.63-4.28 5.785-6.869.282-.34.639-.329.861-.217.291.149.69.352.01 2.99a39 39 0 0 1-1.46 3.581c-1.177 2.513-2.655 5.212-4.324 8.225q-.082.149-.164.295c1.474-1.091 2.963-2 4.623-2.985.027-.022 7.96-4.806 8.462-4.806h.005l1.151.083-.706.913c-1.064 1.379-2.056 2.71-3.016 3.999-1.668 2.24-3.245 4.355-5.085 6.576a55 55 0 0 1-5.198 5.522c-.85.793-1.702 1.545-2.604 2.343-.576.51-1.163 1.029-1.765 1.572-1.005.907-2.064 1.89-2.99 3.056-1.01 1.268-1.734 2.627-2.04 3.825-.057.224-.126.496-.306.739-.16.213-.38.367-.638.448q-.328.105-.655.105m15.559-33.997c-1.647 1.968-3.123 3.71-4.561 5.404-1.813 2.138-3.688 4.348-5.861 6.963-4.378 5.426-6.428 10.065-7.07 16.008-.156 1.282.383 3.356 1.308 4.122.395.326.706.277.908.213.05-.052.086-.187.111-.287.355-1.39 1.16-2.912 2.276-4.315.985-1.239 2.087-2.262 3.13-3.204.605-.547 1.195-1.068 1.774-1.58.896-.792 1.741-1.54 2.581-2.322a54 54 0 0 0 5.087-5.403c1.822-2.198 3.389-4.301 5.047-6.528q.592-.795 1.203-1.61c-2.182 1.255-5.015 2.903-5.432 3.2-2.596 1.543-4.733 2.87-7.028 4.98l-2.864 2.634 1.905-3.393c.6-1.069 1.192-2.13 1.77-3.17 1.658-2.993 3.124-5.671 4.285-8.15.525-1.12.981-2.238 1.399-3.417z"/><path fill="url(#y)" d="M158.23 202.73c-2.683-2.221-5.734-3.868-8.859-5.157a47 47 0 0 0-3.573-1.305c3.191-1.699 5.525-4.244 7.918-7.015.891-.796 7.533-8.874 7.456-8.878-4.133-.921-7.738-1.664-11.981-.918-2.655.458-4.911 1.521-7.199 2.96-1.881 1.179-3.78 2.607-5.937 4.088-1.478 1.014-3.026 2.021-4.713 2.552-1.685.532-3.548.547-5.052-.394-.188-.117-.392-.253-.609-.191-.186.054-.332.242-.442.437-2.093 3.593.1 10.7 2.125 12.882 5.419 6.093 10.845 8.844 18.666 8.127 6.859-.723 11.213-.962 17.619.258.604.12-1.733-3.636-1.909-3.878-1.086-1.309-2.225-2.503-3.51-3.568"/><path fill="url(#z)" d="M189.907 189.655c-2.869-1.153-5.924-1.69-8.953-1.892a42 42 0 0 0-3.42-.085c2.379-2.433 3.827-5.365 5.286-8.525.585-.958 4.59-10.112 4.532-10.103-3.874.461-7.235.918-10.786 2.867-2.224 1.211-3.945 2.825-5.598 4.77-1.358 1.594-2.668 3.407-4.179 5.336-1.036 1.321-2.129 2.653-3.451 3.608-1.319.955-2.908 1.507-4.413 1.125-.188-.048-.394-.107-.564.01-.146.1-.226.307-.274.508-.928 3.721 2.62 9.268 4.864 10.591 6.07 3.754 11.373 4.614 17.986 1.706 5.786-2.637 9.543-4.139 15.447-4.975.559-.075-2.36-2.687-2.571-2.848-1.256-.828-2.532-1.539-3.906-2.093"/><path fill="url(#A)" d="M214.992 168.348c-2.805-.13-5.645.349-8.386 1.114a41 41 0 0 0-3.062.989c1.572-2.904 2.212-5.972 2.818-9.255.305-1.031 1.89-10.512 1.846-10.494-3.367 1.66-6.282 3.145-9.033 6.013-1.724 1.787-2.905 3.768-3.944 6.015-.854 1.843-1.613 3.86-2.519 6.038-.621 1.492-1.288 3.007-2.241 4.258-.95 1.249-2.228 2.222-3.644 2.344-.177.015-.373.026-.496.181-.106.132-.129.339-.124.53.041 3.56 4.446 7.374 6.727 7.865 6.214 1.476 11.088.639 16.296-3.977 4.539-4.125 7.548-6.638 12.603-9.236.48-.243-2.686-1.663-2.909-1.74-1.296-.346-2.587-.581-3.932-.645"/><path fill="url(#B)" d="M232.605 141.108c-2.495.799-4.898 2.16-7.16 3.744q-1.262.886-2.501 1.89c.771-3.136.681-6.128.516-9.313.05-1.028-.571-10.209-.606-10.188-2.611 2.639-4.882 4.963-6.721 8.475-1.156 2.191-1.789 4.373-2.236 6.743-.369 1.945-.614 4.012-.955 6.266-.234 1.544-.502 3.122-1.081 4.551-.578 1.426-1.507 2.707-2.745 3.267-.155.07-.327.142-.403.32-.065.153-.042.344.004.515.818 3.173 5.582 5.191 7.719 4.911 5.853-.647 9.993-2.938 13.6-8.781 3.117-5.188 5.228-8.448 9.088-12.465.367-.378-2.713-.636-2.926-.633-1.213.108-2.397.316-3.593.698"/><path fill="url(#C)" d="M241.858 110.206c-1.937 1.582-3.682 3.657-5.275 5.883a54 54 0 0 0-1.736 2.586c-.026-3.157-.77-5.901-1.625-8.809-.182-.963-2.793-9.342-2.824-9.321-1.608 3.369-3.035 6.317-3.853 10.206-.519 2.429-.597 4.665-.475 7.005.098 1.921.329 3.908.514 6.093.127 1.497.231 3.034.028 4.535-.201 1.499-.744 2.976-1.716 3.897-.121.115-.258.238-.287.426-.024.161.037.328.114.468 1.4 2.624 6.03 2.897 7.839 1.939 4.989-2.519 8.092-5.975 9.9-12.561 1.522-5.825 2.584-9.559 4.905-14.6.222-.477-2.441.319-2.622.394a16 16 0 0 0-2.887 1.859"/><path fill="url(#D)" d="M241.872 77.896c-1.134 2.173-2.002 4.751-2.735 7.413-.272.99-.529 2.01-.77 3.052-.819-2.99-2.141-5.357-3.604-7.855-.39-.848-4.78-8.048-4.813-8.03-.358 3.816-.741 7.152-.428 11.161.187 2.505.671 4.664 1.342 6.846.547 1.791 1.216 3.595 1.889 5.594.46 1.37.908 2.782 1.087 4.261.178 1.476.059 3.045-.557 4.236-.077.15-.164.311-.147.496a.7.7 0 0 0 .204.399c1.789 1.976 5.792.665 7.094-.842 3.622-4.045 5.386-8.329 5.196-15.175-.246-6.036-.385-9.962.052-15.582.043-.533-1.871 1.131-1.997 1.265a17 17 0 0 0-1.813 2.76"/><path fill="url(#E)" d="M231.761 46.41c-.085 2.522.143 5.356.459 8.221.118 1.065.252 2.154.4 3.257-1.608-2.664-3.433-4.561-5.425-6.558-.573-.696-6.533-6.463-6.573-6.452 1.14 3.95 1.998 7.416 3.553 11.295.962 2.424 2.017 4.395 3.213 6.315.981 1.578 2.05 3.119 3.172 4.842.768 1.18 1.535 2.402 2.098 3.776.563 1.372.905 2.93.733 4.289-.021.17-.048.355.017.528a.65.65 0 0 0 .274.316c1.988 1.293 4.873-1.33 5.486-3.222 1.754-5.13 1.877-9.858-.508-16.482-2.188-5.82-3.677-9.647-5.467-15.35-.168-.54-1.005 1.728-1.055 1.901a21.5 21.5 0 0 0-.377 3.324"/><path fill="url(#F)" d="M210.642 17.962c1.208 2.578 2.751 5.383 4.304 8.188a712 712 0 0 0 1.772 3.174c-2.395-2.203-4.647-3.582-7.089-5.03-.733-.52-8.056-4.726-8.107-4.722 2.884 3.735 5.182 7.052 8.089 10.558a54 54 0 0 0 5.142 5.463c1.395 1.3 2.83 2.526 4.363 3.909 1.049.947 2.108 1.932 3.06 3.13.951 1.196 1.794 2.644 2.154 4.058.045.176.092.37.204.522a.62.62 0 0 0 .324.225c1.996.64 3.274-2.91 3.021-4.99-.613-5.678-2.433-10.419-7.21-16.337-4.304-5.18-7.294-8.604-11.654-13.842-.412-.499.157 2.033.206 2.223.39 1.103.844 2.236 1.421 3.471"/><path fill="url(#G)" d="M163.672 210.8a.7.7 0 0 1-.144-.015c-6.075-1.156-10.114-1.021-17.434-.25-7.638.703-13.377-1.792-19.194-8.33-2.069-2.23-4.48-9.687-2.197-13.606.221-.391.486-.628.807-.72.472-.138.858.104 1.088.248 1.65 1.031 3.563.657 4.557.342 1.612-.509 3.131-1.5 4.549-2.473a179 179 0 0 0 2.208-1.547c1.298-.918 2.524-1.786 3.75-2.555 2.677-1.682 4.966-2.622 7.424-3.046 4.513-.793 8.431.079 12.221.924l.336.074.114.325c.14.397.14.397-3.495 4.768-1.285 1.545-3.502 4.187-4.101 4.747-2.088 2.418-4.198 4.727-6.874 6.43a48 48 0 0 1 2.32.885c3.585 1.479 6.535 3.197 9.018 5.253h.001c1.212 1.006 2.387 2.2 3.59 3.65.051.067 2.596 3.708 2.037 4.582a.69.69 0 0 1-.581.314m-37.832-21.685a1 1 0 0 0-.063.101c-1.952 3.351.146 10.116 2.04 12.156 5.608 6.305 10.864 8.603 18.155 7.931 6.075-.64 10.616-.982 16.861.097-.478-.944-1.377-2.432-1.596-2.738-1.127-1.357-2.249-2.498-3.402-3.454-2.385-1.976-5.231-3.631-8.699-5.061a47 47 0 0 0-3.526-1.289l-1.396-.447 1.294-.689c3.09-1.643 5.334-4.085 7.74-6.872l.056-.056c.692-.62 5.169-6.037 6.777-8.026-3.375-.739-6.88-1.388-10.782-.699-2.292.396-4.444 1.282-6.977 2.875-1.197.75-2.41 1.608-3.693 2.517-.715.507-1.453 1.028-2.223 1.556-1.495 1.026-3.102 2.074-4.877 2.634-2.069.652-4.046.49-5.566-.461z"/><path fill="url(#H)" d="M173.439 201.919c-3.514 0-6.992-1.164-10.813-3.527-2.303-1.359-6.155-7.192-5.14-11.268.096-.405.268-.692.524-.867.394-.274.819-.165 1.047-.107 1.617.412 3.148-.464 3.919-1.02 1.259-.911 2.334-2.223 3.326-3.489.521-.665 1.018-1.316 1.501-1.949.923-1.209 1.794-2.351 2.694-3.407 1.934-2.276 3.715-3.791 5.774-4.912 3.786-2.078 7.458-2.515 11.009-2.938l.375-.045.211.313c.225.332.225.332-1.982 5.309-.779 1.758-2.129 4.769-2.515 5.43-1.302 2.822-2.56 5.374-4.44 7.618a40 40 0 0 1 2.067.085c3.494.234 6.486.867 9.144 1.936 1.304.526 2.617 1.229 4.015 2.15.067.049 3.155 2.503 2.897 3.474a.68.68 0 0 1-.583.505c-6.043.855-9.802 2.431-15.273 4.925-2.698 1.185-5.237 1.784-7.757 1.784M158.71 187.34l-.02.076c-.859 3.446 2.5 8.691 4.576 9.916 6.266 3.877 11.311 4.358 17.422 1.672 5.142-2.343 9.023-3.98 14.724-4.888-.634-.679-1.717-1.674-1.977-1.878-1.29-.849-2.532-1.514-3.759-2.009-2.535-1.019-5.401-1.624-8.763-1.849a40 40 0 0 0-3.368-.083l-1.506.024 1.052-1.077c2.298-2.35 3.7-5.173 5.166-8.351l.034-.064c.451-.739 3.079-6.703 4.083-9.038-3.105.384-6.297.905-9.51 2.668-1.922 1.046-3.594 2.473-5.425 4.628-.878 1.031-1.74 2.16-2.653 3.356-.486.637-.986 1.292-1.511 1.962-1.047 1.335-2.186 2.723-3.575 3.727-1.632 1.182-3.382 1.616-4.928 1.223zm37.588 6.643h-.006z"/><path fill="url(#I)" d="M198.044 185.22c-1.644 0-3.382-.227-5.251-.671-2.429-.523-7.155-4.459-7.203-8.46-.008-.389.076-.693.259-.922.285-.36.691-.394.909-.412 1.126-.097 2.265-.843 3.223-2.104.909-1.194 1.566-2.69 2.162-4.12.302-.727.588-1.437.868-2.127.558-1.385 1.087-2.693 1.661-3.934 1.213-2.623 2.465-4.531 4.06-6.184 2.916-3.039 6.113-4.614 9.204-6.139l.376-.185.312.28c.29.261.29.261-.599 5.439-.314 1.826-.863 4.958-1.057 5.658-.532 2.877-1.081 5.508-2.203 8.034a44 44 0 0 1 1.676-.508c3.173-.885 5.982-1.252 8.582-1.136 1.285.061 2.614.279 4.063.666.075.024 3.351 1.263 3.418 2.223a.69.69 0 0 1-.387.667c-5.171 2.658-8.159 5.227-12.467 9.142-3.666 3.249-7.317 4.793-11.606 4.793m-11.216-9.228v.076c.038 3.196 4.207 6.836 6.239 7.274 6.403 1.52 10.965.409 15.756-3.836 4.041-3.673 7.12-6.33 11.967-8.923-.706-.395-1.811-.909-2.07-1.005-1.317-.35-2.561-.554-3.756-.61-2.473-.118-5.148.241-8.19 1.091-1.009.282-2.023.61-3.015.974l-1.539.566.78-1.442c1.514-2.797 2.144-5.764 2.754-9.072l.016-.063c.229-.776 1.238-6.708 1.649-9.234-3.133 1.573-5.477 2.94-7.795 5.357-1.496 1.55-2.677 3.353-3.829 5.846-.561 1.212-1.083 2.507-1.637 3.876-.279.695-.567 1.408-.872 2.14-.627 1.505-1.321 3.083-2.32 4.395-1.172 1.541-2.623 2.46-4.083 2.585zm34.725-5.809-.004.002z"/><path fill="url(#J)" d="M216.019 162.933c-2.477 0-7.031-2.019-7.902-5.401-.093-.344-.085-.653.024-.911.169-.395.515-.551.701-.635.995-.45 1.857-1.492 2.445-2.943.552-1.362.808-2.863 1.043-4.41.112-.737.212-1.455.311-2.155.204-1.446.397-2.813.648-4.135.52-2.759 1.229-4.892 2.297-6.916 1.915-3.657 4.302-6.069 6.829-8.622l.338-.342.416.243c.322.19.322.19.64 5.212.113 1.801.3 4.916.27 5.54.141 2.676.219 5.182-.195 7.763q.6-.452 1.206-.876c2.625-1.838 5.02-3.089 7.326-3.827l.001-.001c1.146-.366 2.365-.603 3.725-.725.085-.018 3.203.055 3.574.915a.69.69 0 0 1-.148.766c-3.93 4.09-6.024 7.396-9.003 12.353-3.494 5.661-7.699 8.374-14.062 9.078q-.226.029-.484.029m-6.722-5.793q.005.03.018.077c.721 2.798 5.154 4.696 7.04 4.458 6.034-.668 9.841-3.127 13.154-8.493 2.783-4.631 4.929-8.034 8.573-11.939-.672-.115-1.61-.21-1.883-.214a16 16 0 0 0-3.405.668c-2.185.7-4.473 1.897-6.994 3.662a44 44 0 0 0-2.465 1.863l-1.433 1.163.441-1.791c.742-3.021.665-5.924.498-9.133.036-.807-.315-6.272-.496-8.822-2.104 2.15-4.071 4.322-5.663 7.364-1.008 1.912-1.68 3.938-2.177 6.571-.245 1.293-.436 2.645-.638 4.077-.099.704-.2 1.426-.312 2.167-.237 1.56-.518 3.205-1.121 4.69-.707 1.747-1.795 3.025-3.064 3.599zm29.38-16.526-.003.003z"/><path fill="url(#K)" d="M229.956 136.244c-2.18 0-4.711-.775-5.78-2.778-.161-.293-.222-.582-.18-.855.062-.392.313-.628.463-.769.79-.749 1.333-2.002 1.539-3.541.194-1.437.096-2.901-.031-4.4q-.094-1.094-.194-2.127c-.131-1.386-.255-2.696-.321-3.987-.141-2.714.009-4.924.488-7.165.818-3.888 2.203-6.791 3.808-10.154l.344-.722.545.227c.311.13.311.13 1.713 4.697.505 1.646 1.369 4.493 1.481 5.08.693 2.353 1.301 4.581 1.535 7.004q.354-.523.714-1.025c1.856-2.594 3.618-4.557 5.387-6.003a16.7 16.7 0 0 1 2.996-1.932c.07-.031 2.705-1.033 3.344-.37a.695.695 0 0 1 .12.789c-2.324 5.049-3.389 8.844-4.866 14.496-1.765 6.431-4.726 10.182-10.219 12.956-.688.364-1.739.579-2.886.579m-4.721-3.431q.01.025.03.063c1.208 2.265 5.439 2.52 7.007 1.689 5.156-2.604 7.932-6.13 9.592-12.178 1.41-5.396 2.45-9.124 4.561-13.861-.56.123-1.243.317-1.453.395-.993.509-1.9 1.094-2.722 1.764-1.683 1.376-3.372 3.261-5.163 5.764a54 54 0 0 0-1.717 2.557l-1.125 1.782-.018-2.108c-.025-3.041-.739-5.713-1.599-8.64-.142-.737-1.581-5.412-2.34-7.826-1.323 2.801-2.447 5.387-3.137 8.664-.455 2.132-.598 4.242-.462 6.845.065 1.264.187 2.562.317 3.934q.1 1.04.195 2.138c.128 1.509.235 3.111.025 4.671-.245 1.818-.921 3.331-1.905 4.263-.03.03-.063.06-.086.084"/><path fill="url(#L)" d="M235.922 107.089c-1.277 0-2.328-.415-3.042-1.204a1.3 1.3 0 0 1-.361-.753c-.034-.364.111-.644.207-.829.509-.983.684-2.361.498-3.89-.17-1.418-.598-2.766-1.059-4.138q-.355-1.048-.701-2.037c-.43-1.234-.835-2.4-1.193-3.573-.772-2.512-1.194-4.665-1.367-6.98-.29-3.71.014-6.9.335-10.276l.167-1.767.74.248c.515.173 5.143 8.28 5.178 8.358 1.129 1.922 2.162 3.76 2.957 5.86q.127-.488.257-.962c.879-3.184 1.763-5.579 2.784-7.537a17.5 17.5 0 0 1 1.879-2.86c.05-.057 1.863-1.906 2.691-1.542.272.12.432.4.407.713-.428 5.492-.305 9.282-.051 15.507.185 6.64-1.367 11.161-5.353 15.614-.989 1.143-3.101 2.027-4.906 2.048zm-2.162-2.078q.01.01.036.039c.611.676 1.524.81 2.179.8 1.612-.019 3.327-.859 3.99-1.628 3.76-4.199 5.219-8.47 5.045-14.753-.239-5.872-.363-9.597-.02-14.622-.363.28-.74.6-.861.719a16.4 16.4 0 0 0-1.709 2.617c-.979 1.877-1.833 4.194-2.687 7.291a79 79 0 0 0-.763 3.027l-.553 2.392-.648-2.368c-.789-2.883-2.071-5.195-3.541-7.705-.266-.573-2.515-4.315-3.834-6.468-.293 3.124-.514 5.922-.255 9.239.167 2.221.573 4.29 1.317 6.712.351 1.151.753 2.306 1.178 3.528.231.665.468 1.345.705 2.05.464 1.378.931 2.851 1.116 4.384.215 1.773-.006 3.405-.621 4.595-.028.053-.06.113-.074.151"/><path fill="url(#M)" d="M234.86 77.202c-.548 0-1.06-.148-1.516-.445a1.24 1.24 0 0 1-.515-.618c-.117-.31-.079-.608-.054-.806.146-1.146-.101-2.557-.689-3.993-.544-1.329-1.308-2.543-2.044-3.674-.42-.646-.834-1.265-1.238-1.871-.681-1.023-1.324-1.988-1.942-2.981-1.366-2.194-2.373-4.172-3.263-6.413-1.253-3.128-2.058-5.992-2.911-9.024-.214-.761-.431-1.535-.66-2.328l-.172-.593.593-.173c.386-.113.387-.11 3.692 3.111 1.168 1.14 3.179 3.113 3.532 3.541 1.433 1.434 2.774 2.821 4.011 4.464l-.08-.7c-.264-2.402-.556-5.517-.461-8.31.039-1.15.166-2.268.387-3.42.129-.459.748-2.478 1.581-2.488.215-.014.554.132.674.52 1.577 5.027 2.898 8.528 4.725 13.375l.731 1.94c2.294 6.37 2.441 11.264.514 16.9-.441 1.36-1.953 3.148-3.712 3.77a3.6 3.6 0 0 1-1.183.216M221.836 46.88l.045.162c.844 3 1.64 5.832 2.87 8.9.861 2.172 1.838 4.089 3.164 6.218a109 109 0 0 0 1.921 2.948c.407.61.822 1.234 1.245 1.883.768 1.18 1.566 2.451 2.151 3.88.669 1.63.944 3.263.776 4.6a1 1 0 0 0-.018.236c.472.298 1.014.334 1.64.112 1.337-.473 2.605-1.93 2.951-2.995 1.83-5.352 1.684-10.01-.501-16.08l-.728-1.93c-1.684-4.468-2.939-7.797-4.363-12.231a9 9 0 0 0-.254.676 21 21 0 0 0-.354 3.172c-.091 2.714.196 5.771.456 8.131.118 1.06.251 2.144.398 3.243l.396 2.953-1.54-2.551c-1.549-2.565-3.332-4.435-5.333-6.441-.375-.45-3.11-3.134-4.922-4.886m10.767-5.51.001.002z"/><path fill="url(#N)" d="M225.331 48.134a2.2 2.2 0 0 1-.663-.107 1.25 1.25 0 0 1-.632-.447c-.179-.242-.249-.514-.299-.712-.313-1.224-1.036-2.583-2.046-3.851-.927-1.166-1.985-2.15-2.99-3.056-.599-.54-1.183-1.056-1.755-1.563-.905-.8-1.76-1.557-2.615-2.353a55 55 0 0 1-5.198-5.522c-1.842-2.222-3.42-4.34-5.091-6.583-.958-1.286-1.948-2.614-3.01-3.99l-.706-.915 1.152-.082h.004c.5 0 8.435 4.784 8.505 4.834 1.632.967 3.11 1.868 4.581 2.957l-.163-.295c-1.669-3.013-3.147-5.712-4.324-8.225a39 39 0 0 1-1.445-3.53c-.696-2.689-.296-2.892-.005-3.04.22-.113.579-.123.861.218 2.15 2.582 3.993 4.755 5.775 6.857 1.818 2.143 3.698 4.36 5.878 6.983 4.553 5.64 6.681 10.467 7.349 16.667.2 1.647-.455 4.14-1.751 5.21-.436.362-.916.545-1.412.545m-21.493-26.537q.61.814 1.197 1.604c1.661 2.23 3.23 4.335 5.052 6.534a54 54 0 0 0 5.087 5.404c.843.786 1.693 1.538 2.592 2.333.576.509 1.162 1.027 1.764 1.57 1.043.942 2.144 1.965 3.13 3.205 1.115 1.402 1.921 2.925 2.269 4.29.032.123.066.259.101.305.217.07.529.12.923-.206.926-.766 1.465-2.84 1.31-4.115-.642-5.95-2.692-10.59-7.077-16.022-2.171-2.612-4.049-4.826-5.865-6.968-1.433-1.69-2.906-3.427-4.546-5.386q.026.12.045.191a38 38 0 0 0 1.383 3.366c1.161 2.477 2.627 5.156 4.285 8.15.578 1.04 1.17 2.1 1.77 3.17l1.904 3.39-2.863-2.631c-2.297-2.112-4.433-3.439-6.986-4.954-.445-.315-3.289-1.972-5.475-3.23"/><defs><linearGradient id="a" x1="109.413" x2="134.058" y1="24.377" y2="24.377" gradientUnits="userSpaceOnUse"><stop stop-color="#A57D24"/><stop offset=".211" stop-color="#D8BE62"/><stop offset=".328" stop-color="#F1DD80"/><stop offset=".524" stop-color="#FBF2A8"/><stop offset=".73" stop-color="#F1DD80"/><stop offset="1" stop-color="#A57D24"/></linearGradient><linearGradient id="b" x1="121.109" x2="152.628" y1="79.183" y2="79.183" gradientUnits="userSpaceOnUse"><stop stop-color="#A57D24"/><stop offset=".211" stop-color="#D8BE62"/><stop offset=".328" stop-color="#F1DD80"/><stop offset=".524" stop-color="#FBF2A8"/><stop offset=".73" stop-color="#F1DD80"/><stop offset="1" stop-color="#A57D24"/></linearGradient><linearGradient id="c" x1="95.375" x2="120.27" y1="85.047" y2="85.047" gradientUnits="userSpaceOnUse"><stop stop-color="#A57D24"/><stop offset=".211" stop-color="#D8BE62"/><stop offset=".328" stop-color="#F1DD80"/><stop offset=".524" stop-color="#FBF2A8"/><stop offset=".73" stop-color="#F1DD80"/><stop offset="1" stop-color="#A57D24"/></linearGradient><linearGradient id="d" x1="112.687" x2="130.846" y1="17.41" y2="35.504" gradientUnits="userSpaceOnUse"><stop stop-color="#A57D24"/><stop offset=".211" stop-color="#D8BE62"/><stop offset=".328" stop-color="#F1DD80"/><stop offset=".524" stop-color="#FBF2A8"/><stop offset=".73" stop-color="#F1DD80"/><stop offset="1" stop-color="#A57D24"/></linearGradient><linearGradient id="e" x1="104.055" x2="168.71" y1="46.854" y2="111.279" gradientUnits="userSpaceOnUse"><stop stop-color="#A57D24"/><stop offset=".211" stop-color="#D8BE62"/><stop offset=".328" stop-color="#F1DD80"/><stop offset=".524" stop-color="#FBF2A8"/><stop offset=".73" stop-color="#F1DD80"/><stop offset="1" stop-color="#A57D24"/></linearGradient><linearGradient id="f" x1="64.601" x2="151.352" y1="41.669" y2="128.111" gradientUnits="userSpaceOnUse"><stop stop-color="#A57D24"/><stop offset=".211" stop-color="#D8BE62"/><stop offset=".328" stop-color="#F1DD80"/><stop offset=".524" stop-color="#FBF2A8"/><stop offset=".73" stop-color="#F1DD80"/><stop offset="1" stop-color="#A57D24"/></linearGradient><linearGradient id="g" x1="99.787" x2="141.972" y1="161.354" y2="161.354" gradientUnits="userSpaceOnUse"><stop stop-color="#A57D24"/><stop offset=".211" stop-color="#D8BE62"/><stop offset=".328" stop-color="#F1DD80"/><stop offset=".524" stop-color="#FBF2A8"/><stop offset=".73" stop-color="#F1DD80"/><stop offset="1" stop-color="#A57D24"/></linearGradient><linearGradient id="h" x1="108.813" x2="132.892" y1="150.337" y2="174.331" gradientUnits="userSpaceOnUse"><stop stop-color="#A57D24"/><stop offset=".211" stop-color="#D8BE62"/><stop offset=".328" stop-color="#F1DD80"/><stop offset=".524" stop-color="#FBF2A8"/><stop offset=".73" stop-color="#F1DD80"/><stop offset="1" stop-color="#A57D24"/></linearGradient><linearGradient id="i" x1="84.253" x2="123.611" y1="194.665" y2="194.665" gradientUnits="userSpaceOnUse"><stop stop-color="#A57D24"/><stop offset=".211" stop-color="#D8BE62"/><stop offset=".328" stop-color="#F1DD80"/><stop offset=".524" stop-color="#FBF2A8"/><stop offset=".73" stop-color="#F1DD80"/><stop offset="1" stop-color="#A57D24"/></linearGradient><linearGradient id="j" x1="51.546" x2="90.065" y1="185.179" y2="185.179" gradientUnits="userSpaceOnUse"><stop stop-color="#A57D24"/><stop offset=".211" stop-color="#D8BE62"/><stop offset=".328" stop-color="#F1DD80"/><stop offset=".524" stop-color="#FBF2A8"/><stop offset=".73" stop-color="#F1DD80"/><stop offset="1" stop-color="#A57D24"/></linearGradient><linearGradient id="k" x1="26.116" x2="61.793" y1="167.658" y2="167.658" gradientUnits="userSpaceOnUse"><stop stop-color="#A57D24"/><stop offset=".211" stop-color="#D8BE62"/><stop offset=".328" stop-color="#F1DD80"/><stop offset=".524" stop-color="#FBF2A8"/><stop offset=".73" stop-color="#F1DD80"/><stop offset="1" stop-color="#A57D24"/></linearGradient><linearGradient id="l" x1="8.848" x2="39.33" y1="144.778" y2="144.778" gradientUnits="userSpaceOnUse"><stop stop-color="#A57D24"/><stop offset=".211" stop-color="#D8BE62"/><stop offset=".328" stop-color="#F1DD80"/><stop offset=".524" stop-color="#FBF2A8"/><stop offset=".73" stop-color="#F1DD80"/><stop offset="1" stop-color="#A57D24"/></linearGradient><linearGradient id="m" x1=".622" x2="23.398" y1="118.082" y2="118.082" gradientUnits="userSpaceOnUse"><stop stop-color="#A57D24"/><stop offset=".211" stop-color="#D8BE62"/><stop offset=".328" stop-color="#F1DD80"/><stop offset=".524" stop-color="#FBF2A8"/><stop offset=".73" stop-color="#F1DD80"/><stop offset="1" stop-color="#A57D24"/></linearGradient><linearGradient id="n" x1="2.317" x2="18.593" y1="89.473" y2="89.473" gradientUnits="userSpaceOnUse"><stop stop-color="#A57D24"/><stop offset=".211" stop-color="#D8BE62"/><stop offset=".328" stop-color="#F1DD80"/><stop offset=".524" stop-color="#FBF2A8"/><stop offset=".73" stop-color="#F1DD80"/><stop offset="1" stop-color="#A57D24"/></linearGradient><linearGradient id="o" x1="7.531" x2="27.378" y1="58.843" y2="58.843" gradientUnits="userSpaceOnUse"><stop stop-color="#A57D24"/><stop offset=".211" stop-color="#D8BE62"/><stop offset=".328" stop-color="#F1DD80"/><stop offset=".524" stop-color="#FBF2A8"/><stop offset=".73" stop-color="#F1DD80"/><stop offset="1" stop-color="#A57D24"/></linearGradient><linearGradient id="p" x1="20.09" x2="46.478" y1="29.858" y2="29.858" gradientUnits="userSpaceOnUse"><stop stop-color="#A57D24"/><stop offset=".211" stop-color="#D8BE62"/><stop offset=".328" stop-color="#F1DD80"/><stop offset=".524" stop-color="#FBF2A8"/><stop offset=".73" stop-color="#F1DD80"/><stop offset="1" stop-color="#A57D24"/></linearGradient><linearGradient id="q" x1="84.053" x2="114.906" y1="210.816" y2="180.072" gradientUnits="userSpaceOnUse"><stop stop-color="#A57D24"/><stop offset=".211" stop-color="#D8BE62"/><stop offset=".328" stop-color="#F1DD80"/><stop offset=".524" stop-color="#FBF2A8"/><stop offset=".73" stop-color="#F1DD80"/><stop offset="1" stop-color="#A57D24"/></linearGradient><linearGradient id="r" x1="56.26" x2="80.152" y1="200.166" y2="176.358" gradientUnits="userSpaceOnUse"><stop stop-color="#A57D24"/><stop offset=".211" stop-color="#D8BE62"/><stop offset=".328" stop-color="#F1DD80"/><stop offset=".524" stop-color="#FBF2A8"/><stop offset=".73" stop-color="#F1DD80"/><stop offset="1" stop-color="#A57D24"/></linearGradient><linearGradient id="s" x1="35.016" x2="54.28" y1="180.507" y2="161.311" gradientUnits="userSpaceOnUse"><stop stop-color="#A57D24"/><stop offset=".211" stop-color="#D8BE62"/><stop offset=".328" stop-color="#F1DD80"/><stop offset=".524" stop-color="#FBF2A8"/><stop offset=".73" stop-color="#F1DD80"/><stop offset="1" stop-color="#A57D24"/></linearGradient><linearGradient id="t" x1="18.189" x2="36.26" y1="155.524" y2="137.518" gradientUnits="userSpaceOnUse"><stop stop-color="#A57D24"/><stop offset=".211" stop-color="#D8BE62"/><stop offset=".328" stop-color="#F1DD80"/><stop offset=".524" stop-color="#FBF2A8"/><stop offset=".73" stop-color="#F1DD80"/><stop offset="1" stop-color="#A57D24"/></linearGradient><linearGradient id="u" x1="5.277" x2="25.404" y1="127.329" y2="107.273" gradientUnits="userSpaceOnUse"><stop stop-color="#A57D24"/><stop offset=".211" stop-color="#D8BE62"/><stop offset=".328" stop-color="#F1DD80"/><stop offset=".524" stop-color="#FBF2A8"/><stop offset=".73" stop-color="#F1DD80"/><stop offset="1" stop-color="#A57D24"/></linearGradient><linearGradient id="v" x1=".117" x2="22.588" y1="98.043" y2="75.651" gradientUnits="userSpaceOnUse"><stop stop-color="#A57D24"/><stop offset=".211" stop-color="#D8BE62"/><stop offset=".328" stop-color="#F1DD80"/><stop offset=".524" stop-color="#FBF2A8"/><stop offset=".73" stop-color="#F1DD80"/><stop offset="1" stop-color="#A57D24"/></linearGradient><linearGradient id="w" x1="3.778" x2="28.543" y1="69.534" y2="44.858" gradientUnits="userSpaceOnUse"><stop stop-color="#A57D24"/><stop offset=".211" stop-color="#D8BE62"/><stop offset=".328" stop-color="#F1DD80"/><stop offset=".524" stop-color="#FBF2A8"/><stop offset=".73" stop-color="#F1DD80"/><stop offset="1" stop-color="#A57D24"/></linearGradient><linearGradient id="x" x1="17.339" x2="44.881" y1="43.679" y2="16.235" gradientUnits="userSpaceOnUse"><stop stop-color="#A57D24"/><stop offset=".211" stop-color="#D8BE62"/><stop offset=".328" stop-color="#F1DD80"/><stop offset=".524" stop-color="#FBF2A8"/><stop offset=".73" stop-color="#F1DD80"/><stop offset="1" stop-color="#A57D24"/></linearGradient><linearGradient id="y" x1="124.39" x2="163.748" y1="194.665" y2="194.665" gradientUnits="userSpaceOnUse"><stop stop-color="#A57D24"/><stop offset=".211" stop-color="#D8BE62"/><stop offset=".328" stop-color="#F1DD80"/><stop offset=".524" stop-color="#FBF2A8"/><stop offset=".73" stop-color="#F1DD80"/><stop offset="1" stop-color="#A57D24"/></linearGradient><linearGradient id="z" x1="157.935" x2="196.455" y1="185.179" y2="185.179" gradientUnits="userSpaceOnUse"><stop stop-color="#A57D24"/><stop offset=".211" stop-color="#D8BE62"/><stop offset=".328" stop-color="#F1DD80"/><stop offset=".524" stop-color="#FBF2A8"/><stop offset=".73" stop-color="#F1DD80"/><stop offset="1" stop-color="#A57D24"/></linearGradient><linearGradient id="A" x1="186.208" x2="221.885" y1="167.657" y2="167.657" gradientUnits="userSpaceOnUse"><stop stop-color="#A57D24"/><stop offset=".211" stop-color="#D8BE62"/><stop offset=".328" stop-color="#F1DD80"/><stop offset=".524" stop-color="#FBF2A8"/><stop offset=".73" stop-color="#F1DD80"/><stop offset="1" stop-color="#A57D24"/></linearGradient><linearGradient id="B" x1="208.672" x2="239.154" y1="144.778" y2="144.778" gradientUnits="userSpaceOnUse"><stop stop-color="#A57D24"/><stop offset=".211" stop-color="#D8BE62"/><stop offset=".328" stop-color="#F1DD80"/><stop offset=".524" stop-color="#FBF2A8"/><stop offset=".73" stop-color="#F1DD80"/><stop offset="1" stop-color="#A57D24"/></linearGradient><linearGradient id="C" x1="224.603" x2="247.379" y1="118.082" y2="118.082" gradientUnits="userSpaceOnUse"><stop stop-color="#A57D24"/><stop offset=".211" stop-color="#D8BE62"/><stop offset=".328" stop-color="#F1DD80"/><stop offset=".524" stop-color="#FBF2A8"/><stop offset=".73" stop-color="#F1DD80"/><stop offset="1" stop-color="#A57D24"/></linearGradient><linearGradient id="D" x1="229.407" x2="245.683" y1="89.473" y2="89.473" gradientUnits="userSpaceOnUse"><stop stop-color="#A57D24"/><stop offset=".211" stop-color="#D8BE62"/><stop offset=".328" stop-color="#F1DD80"/><stop offset=".524" stop-color="#FBF2A8"/><stop offset=".73" stop-color="#F1DD80"/><stop offset="1" stop-color="#A57D24"/></linearGradient><linearGradient id="E" x1="220.622" x2="240.47" y1="58.843" y2="58.843" gradientUnits="userSpaceOnUse"><stop stop-color="#A57D24"/><stop offset=".211" stop-color="#D8BE62"/><stop offset=".328" stop-color="#F1DD80"/><stop offset=".524" stop-color="#FBF2A8"/><stop offset=".73" stop-color="#F1DD80"/><stop offset="1" stop-color="#A57D24"/></linearGradient><linearGradient id="F" x1="201.522" x2="227.91" y1="29.858" y2="29.858" gradientUnits="userSpaceOnUse"><stop stop-color="#A57D24"/><stop offset=".211" stop-color="#D8BE62"/><stop offset=".328" stop-color="#F1DD80"/><stop offset=".524" stop-color="#FBF2A8"/><stop offset=".73" stop-color="#F1DD80"/><stop offset="1" stop-color="#A57D24"/></linearGradient><linearGradient id="G" x1="134.295" x2="162.954" y1="209.719" y2="181.162" gradientUnits="userSpaceOnUse"><stop stop-color="#A57D24"/><stop offset=".211" stop-color="#D8BE62"/><stop offset=".328" stop-color="#F1DD80"/><stop offset=".524" stop-color="#FBF2A8"/><stop offset=".73" stop-color="#F1DD80"/><stop offset="1" stop-color="#A57D24"/></linearGradient><linearGradient id="H" x1="166.047" x2="193.723" y1="202.057" y2="174.48" gradientUnits="userSpaceOnUse"><stop stop-color="#A57D24"/><stop offset=".211" stop-color="#D8BE62"/><stop offset=".328" stop-color="#F1DD80"/><stop offset=".524" stop-color="#FBF2A8"/><stop offset=".73" stop-color="#F1DD80"/><stop offset="1" stop-color="#A57D24"/></linearGradient><linearGradient id="I" x1="190.485" x2="216.377" y1="183.82" y2="158.019" gradientUnits="userSpaceOnUse"><stop stop-color="#A57D24"/><stop offset=".211" stop-color="#D8BE62"/><stop offset=".328" stop-color="#F1DD80"/><stop offset=".524" stop-color="#FBF2A8"/><stop offset=".73" stop-color="#F1DD80"/><stop offset="1" stop-color="#A57D24"/></linearGradient><linearGradient id="J" x1="208.446" x2="233.255" y1="158.892" y2="134.171" gradientUnits="userSpaceOnUse"><stop stop-color="#A57D24"/><stop offset=".211" stop-color="#D8BE62"/><stop offset=".328" stop-color="#F1DD80"/><stop offset=".524" stop-color="#FBF2A8"/><stop offset=".73" stop-color="#F1DD80"/><stop offset="1" stop-color="#A57D24"/></linearGradient><linearGradient id="K" x1="220.235" x2="245.241" y1="129.765" y2="104.849" gradientUnits="userSpaceOnUse"><stop stop-color="#A57D24"/><stop offset=".211" stop-color="#D8BE62"/><stop offset=".328" stop-color="#F1DD80"/><stop offset=".524" stop-color="#FBF2A8"/><stop offset=".73" stop-color="#F1DD80"/><stop offset="1" stop-color="#A57D24"/></linearGradient><linearGradient id="L" x1="225.275" x2="248.179" y1="98.258" y2="75.436" gradientUnits="userSpaceOnUse"><stop stop-color="#A57D24"/><stop offset=".211" stop-color="#D8BE62"/><stop offset=".328" stop-color="#F1DD80"/><stop offset=".524" stop-color="#FBF2A8"/><stop offset=".73" stop-color="#F1DD80"/><stop offset="1" stop-color="#A57D24"/></linearGradient><linearGradient id="M" x1="222.821" x2="241.01" y1="66.246" y2="48.122" gradientUnits="userSpaceOnUse"><stop stop-color="#A57D24"/><stop offset=".211" stop-color="#D8BE62"/><stop offset=".328" stop-color="#F1DD80"/><stop offset=".524" stop-color="#FBF2A8"/><stop offset=".73" stop-color="#F1DD80"/><stop offset="1" stop-color="#A57D24"/></linearGradient><linearGradient id="N" x1="211.673" x2="222.241" y1="35.191" y2="24.661" gradientUnits="userSpaceOnUse"><stop stop-color="#A57D24"/><stop offset=".211" stop-color="#D8BE62"/><stop offset=".328" stop-color="#F1DD80"/><stop offset=".524" stop-color="#FBF2A8"/><stop offset=".73" stop-color="#F1DD80"/><stop offset="1" stop-color="#A57D24"/></linearGradient></defs></svg>