<svg xmlns="http://www.w3.org/2000/svg" width="70" height="70" fill="none"><path fill="#fff" d="M47.95 32.62c-.42 0-.77 0-1.19.07V20.86h1.19c.49 0 .91-.28 1.12-.77.14-.49 0-.98-.35-1.33L34.58 7.07c-.42-.35-1.05-.35-1.54 0L18.97 18.83c-.35.35-.49.84-.35 1.33s.63.77 1.12.77h1.19V35c0 .63.56 1.19 1.19 1.19h16.1c-1.96 1.61-3.5 3.71-4.48 6.09a6.3 6.3 0 0 0-3.99-1.4c-3.57 0-6.44 2.87-6.44 6.44 0 1.54.56 3.01 1.47 4.13h-3.85v-8.19c0-.63-.56-1.19-1.19-1.19H7.98c-.63 0-1.19.56-1.19 1.19v18.76c0 .63.56 1.19 1.19 1.19H31.5c.63 0 1.19-.56 1.19-1.19v-8.96c.28-.14.49-.28.77-.42 1.96 6.16 7.77 10.57 14.56 10.57 8.4 0 15.26-6.86 15.26-15.26-.07-8.47-6.93-15.33-15.33-15.33M33.81 9.45l10.85 9.03h-21.7zm-3.5 24.36h-2.38v-5.88c0-.63.56-1.19 1.19-1.19s1.19.56 1.19 1.19zm2.31 0v-5.88c0-1.96-1.61-3.5-3.5-3.5-1.96 0-3.5 1.61-3.5 3.5v5.88h-2.38V20.86h21.14v12.18c-.84.21-1.61.42-2.31.77zm-7 13.51c0-2.24 1.82-4.13 4.13-4.13 2.24 0 4.13 1.82 4.13 4.13 0 2.24-1.82 4.13-4.13 4.13s-4.13-1.82-4.13-4.13m-7.07 4.13H9.1v-2.38h9.38v2.38zM9.1 53.83h9.38v2.38H9.1zm0-9.45h9.38v2.38H9.1zm0 14.14h9.38v2.38H9.1zm21.21 2.38h-9.45v-2.38h9.38v2.38zm0-7.07v2.38h-9.45v-2.38zm17.64 7.07c-6.23 0-11.41-4.41-12.67-10.29.56-.98.91-2.1.91-3.29 0-1.05-.28-2.03-.7-2.87C37.03 38.99 42 35 47.95 35c7.14 0 12.95 5.81 12.95 12.95S55.09 60.9 47.95 60.9m4.55-18.27-7.07 11.83c-.21.35-.63.56-.98.56-.21 0-.42-.07-.63-.14-.56-.35-.77-1.05-.42-1.61l7.07-11.76c.35-.56 1.05-.77 1.61-.42.56.28.7 1.05.42 1.54m-6.93 1.75c0-1.96-1.61-3.5-3.5-3.5s-3.5 1.61-3.5 3.5 1.61 3.5 3.5 3.5 3.5-1.54 3.5-3.5m-3.5 1.19c-.63 0-1.19-.56-1.19-1.19s.56-1.19 1.19-1.19 1.19.56 1.19 1.19-.56 1.19-1.19 1.19m11.76 2.38c-1.96 0-3.5 1.61-3.5 3.5 0 1.96 1.61 3.5 3.5 3.5s3.5-1.61 3.5-3.5c0-1.96-1.54-3.5-3.5-3.5m0 4.69c-.63 0-1.19-.56-1.19-1.19s.56-1.19 1.19-1.19 1.19.56 1.19 1.19c0 .7-.56 1.19-1.19 1.19M40.88 24.43h-4.69c-.63 0-1.19.56-1.19 1.19v4.69c0 .63.56 1.19 1.19 1.19h4.69c.63 0 1.19-.56 1.19-1.19v-4.69c0-.7-.56-1.19-1.19-1.19m-1.19 4.69h-2.38v-2.38h2.38z"/></svg>