<svg xmlns="http://www.w3.org/2000/svg" width="70" height="70" fill="none"><path fill="currentColor" d="M42.656 49.219a3.285 3.285 0 0 0-3.281 3.281 3.285 3.285 0 0 0 3.281 3.281 3.285 3.285 0 0 0 3.282-3.281 3.285 3.285 0 0 0-3.282-3.281m0 4.375a1.094 1.094 0 1 1 .001-2.189 1.094 1.094 0 0 1 0 2.189M7.658 62.344h8.75v-8.75h-8.75zm2.188-6.563h4.375v4.375H9.846z"/><path fill="currentColor" d="M68.906 12.672 57.328 1.094H25.156v8.75H14.22v1.094a5.475 5.475 0 0 1-5.469 5.468 5.475 5.475 0 0 1-5.469-5.468 5.475 5.475 0 0 1 5.469-5.47 5.49 5.49 0 0 1 4.738 2.736l1.892-1.096a7.68 7.68 0 0 0-6.63-3.827c-4.22 0-7.656 3.436-7.656 7.656 0 4.221 3.435 7.657 7.656 7.657 3.851 0 7.046-2.857 7.579-6.563h8.827v15.313H14.22v1.093a5.475 5.475 0 0 1-5.469 5.47 5.475 5.475 0 0 1-5.469-5.47A5.475 5.475 0 0 1 8.75 22.97a5.49 5.49 0 0 1 4.738 2.735l1.892-1.096a7.68 7.68 0 0 0-6.63-3.827c-4.22 0-7.656 3.436-7.656 7.657 0 4.22 3.435 7.656 7.656 7.656 3.851 0 7.046-2.857 7.579-6.563h8.827v6.996l-4.374-2.83L1.095 46.434v2.784h2.187v19.687h52.5v-8.75h13.124zm-6.562 1.547v4.375H31.719V7.656H55.78v6.563zm-4.375-2.188V4.828l7.203 7.203zm2.099 39.71a3.26 3.26 0 0 0-1.474-2.035L52 45.648a5.45 5.45 0 0 1 4.876-2.992 5.475 5.475 0 0 1 5.469 5.469c0 1.783-.87 3.353-2.194 4.353a3.3 3.3 0 0 0-.082-.737m-2.621-.174c.253.156.423.39.492.678a1.08 1.08 0 0 1-.133.828 1.114 1.114 0 0 1-1.504.358l-13.646-8.397-13.645 8.398a1.115 1.115 0 0 1-1.505-.357 1.08 1.08 0 0 1-.133-.828c.07-.288.239-.524.491-.678l14.22-8.75c.344-.212.8-.212 1.142 0zm-26.383-4.536h-9.188v-10.02l12.416 8.033zm-11.375-10.02v10.02H4.202zM5.469 49.218h22.04l-.79.485a3.26 3.26 0 0 0-1.473 2.035 3.26 3.26 0 0 0 .102 1.854h-6.753v8.75h8.75V55.57c.348.123.71.21 1.094.21.375 0 .742-.07 1.092-.196V66.72H5.47zm19.688 6.562v4.375h-4.375v-4.375zM47.031 66.72h-8.75v-6.563h8.75zm2.188 0v-8.75H36.094v8.75h-4.375V54.334l10.937-6.732 10.938 6.731V66.72zm6.562-8.75v-2.383c.35.123.718.195 1.093.195 4.22 0 7.657-3.435 7.657-7.656 0-4.22-3.435-7.656-7.656-7.656a7.63 7.63 0 0 0-6.737 4.032l-5.766-3.547a3.33 3.33 0 0 0-3.434 0l-4.583 2.82-9.011-5.83V3.28H55.78V5.47h-26.25V20.78h35V14.22h2.188v43.75z"/><path fill="currentColor" d="m7.656 29.079-1.414-1.415-1.547 1.547 2.961 2.96 5.148-5.148-1.546-1.546zM7.656 11.579l-1.414-1.415-1.547 1.547 2.961 2.96 5.148-5.148-1.546-1.546zM29.531 29.531h6.563V22.97H29.53zm2.188-4.375h2.187v2.188H31.72zM38.281 22.969h2.188v2.187H38.28zM42.656 22.969h21.875v2.187H42.656zM38.281 27.344h26.25v2.187h-26.25zM29.531 38.281h6.563V31.72H29.53zm2.188-4.375h2.187v2.188H31.72zM62.344 36.094h2.187v2.187h-2.187zM38.281 36.094h21.875v2.187H38.281zM38.281 31.719h26.25v2.187h-26.25z"/></svg>