<svg xmlns="http://www.w3.org/2000/svg" width="70" height="70" fill="none"><path fill="currentColor" d="M68.64 44.57H1.36c-1.814.072-1.813 2.663 0 2.735h6.755C12.85 59.029 21.532 66.44 34.646 69.953c.232.063.476.063.708 0C48.47 66.44 57.153 59.03 61.886 47.305h6.754c1.814-.073 1.813-2.663 0-2.735M52.86 47.305a30 30 0 0 1-1.15 2.008C48.046 55.161 42.578 59.156 35 61.518c-7.578-2.362-13.047-6.357-16.711-12.205q-.603-.96-1.15-2.008zM35 67.216c-11.641-3.206-19.483-9.73-23.92-19.911h3.004a34 34 0 0 0 1.887 3.46c4.095 6.534 10.19 10.947 18.635 13.492.257.078.531.078.789 0 8.444-2.545 14.54-6.958 18.634-13.492a34 34 0 0 0 1.887-3.46h3.004C54.484 57.485 46.642 64.01 35 67.216M1.36 25.43h67.28c1.814-.073 1.813-2.663 0-2.735H66.34c.074-1.973.11-4.04.11-6.289 0-.755-.612-1.367-1.367-1.367-7.54 0-13.674-6.133-13.674-13.672C51.41.612 50.797 0 50.042 0H19.958c-.755 0-1.368.612-1.368 1.367 0 7.539-6.134 13.672-13.674 13.672-.755 0-1.368.612-1.368 1.367 0 2.251.036 4.32.11 6.29H1.36c-1.814.071-1.813 2.662 0 2.734m4.928-7.713c7.958-.662 14.321-7.026 14.98-14.983h27.463c.66 7.957 7.023 14.321 14.981 14.983a157 157 0 0 1-.108 4.978h-2.731q.03-.759.05-1.537a1.37 1.37 0 0 0-1-1.354c-6.425-1.794-11.52-6.903-13.295-13.332a1.37 1.37 0 0 0-1.318-1.003h-4.157c-1.814.072-1.813 2.662 0 2.734h3.142c2.152 6.533 7.337 11.74 13.862 13.919l-.021.573H11.864l-.021-.573c6.525-2.18 11.71-7.386 13.862-13.919h3.141c1.814-.072 1.813-2.663 0-2.734H24.69c-.615 0-1.154.41-1.318 1.003-1.776 6.43-6.87 11.538-13.296 13.332a1.37 1.37 0 0 0-.999 1.354q.02.778.05 1.537H6.395c-.06-1.58-.096-3.224-.107-4.978"/><path fill="currentColor" d="M35 8.203c1.814-.072 1.812-2.663 0-2.734h-.002c-1.814.072-1.811 2.663.001 2.734M29.896 32.085q.645 0 1.106.273.47.273.721.84.26.567.259 1.449V38h-1.477v-3.087q0-.833-.238-1.267-.231-.434-.875-.434-.35 0-.658.189a1.35 1.35 0 0 0-.497.567q-.182.37-.182.945V38h-1.386v-3.087q0-.833-.287-1.267-.28-.434-.84-.434-.357 0-.658.182-.3.182-.483.56-.182.378-.182.959V38h-1.484v-5.747h1.484v.861q.077-.217.343-.455.273-.238.679-.406t.889-.168q.526 0 .868.196.35.19.553.476.21.287.308.574.098-.287.378-.574.287-.287.714-.476.428-.196.945-.196m6.376 6.083q-.903 0-1.61-.392a2.94 2.94 0 0 1-1.1-1.078 3.03 3.03 0 0 1-.398-1.554q0-.868.399-1.561a2.9 2.9 0 0 1 1.099-1.092q.707-.406 1.61-.406t1.596.406q.693.399 1.085 1.092.399.693.399 1.561 0 .869-.4 1.554a2.9 2.9 0 0 1-1.084 1.078q-.693.392-1.596.392m0-1.26q.504 0 .875-.231a1.56 1.56 0 0 0 .574-.63 2 2 0 0 0 .203-.91q0-.51-.203-.91a1.6 1.6 0 0 0-.574-.644 1.6 1.6 0 0 0-.875-.238q-.504 0-.882.238a1.65 1.65 0 0 0-.581.644 2 2 0 0 0-.203.91q0 .51.203.91.21.399.58.63.38.231.883.231m7.782-4.823q.58 0 1.127.238.546.238.896.763.357.518.357 1.351V38h-1.505v-3.29q0-.777-.371-1.141-.364-.37-.945-.371-.385 0-.735.217t-.574.588a1.66 1.66 0 0 0-.217.854V38h-1.498v-5.747h1.498v.966q.063-.238.336-.497.28-.266.707-.448.426-.189.924-.189m3.387.168h1.078v-2.359h1.484v2.359h1.421v1.26h-1.42v2.457q0 .462.153.693a.52.52 0 0 0 .455.231q.246 0 .385-.091a1 1 0 0 0 .175-.126l.553 1.085q-.042.042-.245.14a2.94 2.94 0 0 1-1.26.266q-.727 0-1.218-.434-.483-.434-.483-1.358v-2.863h-1.078zm8.748-.168q.574 0 1.12.238.545.238.896.763.357.518.357 1.351V38h-1.505v-3.29q0-.777-.357-1.141-.35-.37-.931-.371-.385 0-.742.217t-.588.588q-.224.37-.224.854V38H52.71v-9.632h1.505v4.851q.063-.238.336-.497.28-.266.707-.448.427-.189.93-.189m6.192 0a4.2 4.2 0 0 1 1.603.308q.295.126.406.21l-.546.924q-.14-.12-.504-.273a2 2 0 0 0-.805-.154q-.447 0-.756.161-.308.16-.308.483 0 .315.322.504.33.189.89.315.46.105.881.294.42.181.686.525.273.336.273.903 0 .54-.23.903-.224.358-.603.574a2.7 2.7 0 0 1-.84.308 4.4 4.4 0 0 1-.917.098q-.567 0-1.015-.112a3.7 3.7 0 0 1-.735-.259 2.6 2.6 0 0 1-.42-.259l.546-1.036q.183.175.595.371.414.189.924.189.546 0 .875-.21.33-.21.33-.56a.57.57 0 0 0-.162-.42 1.1 1.1 0 0 0-.427-.259 5 5 0 0 0-.609-.175 6 6 0 0 1-.637-.196 2.6 2.6 0 0 1-.58-.322 1.5 1.5 0 0 1-.428-.504 1.5 1.5 0 0 1-.16-.707q0-.518.328-.882.33-.364.868-.553.54-.189 1.155-.189M6.741 30.608l-1.56.868v-1.421l2.26-1.295h.777V38H6.741zm6.293 7.56q-.882 0-1.596-.357a3 3 0 0 1-1.14-.966q-.42-.616-.42-1.386 0-.679.23-1.148.232-.476.616-.791.393-.323.861-.504a3 3 0 0 1-.644-.427 2.1 2.1 0 0 1-.483-.658q-.181-.4-.182-.959 0-.714.364-1.246.373-.54.994-.833.63-.3 1.393-.301.771 0 1.386.301.616.294.973.833.364.532.364 1.246 0 .84-.378 1.309a2.7 2.7 0 0 1-.91.735q.47.182.854.504.393.315.623.791.239.469.238 1.148 0 .77-.42 1.386-.42.609-1.134.966a3.5 3.5 0 0 1-1.589.357m-.007-1.309a1.6 1.6 0 0 0 .805-.203q.365-.21.581-.567.217-.364.217-.805 0-.448-.217-.805a1.61 1.61 0 0 0-1.386-.777q-.447 0-.819.21-.363.21-.58.567-.21.357-.21.805 0 .441.21.798.216.357.58.567.371.21.82.21m.007-4.326q.378 0 .686-.189a1.4 1.4 0 0 0 .497-.504q.19-.315.19-.693t-.19-.686a1.4 1.4 0 0 0-.504-.497 1.3 1.3 0 0 0-.686-.189q-.37 0-.693.189a1.4 1.4 0 0 0-.504.497 1.3 1.3 0 0 0-.182.686 1.36 1.36 0 0 0 .686 1.197q.322.189.7.189"/></svg>