<svg xmlns="http://www.w3.org/2000/svg" width="70" height="70" fill="none"><path fill="currentColor" fill-rule="evenodd" d="M36.524 54.817c0 .529-.43.957-.957.957h-2.974a.957.957 0 1 1 0-1.914h2.974c.528 0 .957.429.957.957m1.73-42.497h2.974a.957.957 0 1 0 0-1.913h-2.973a.956.956 0 1 0 0 1.913m-23.07 26.046c.529 0 .956-.43.956-.958v-2.973a.956.956 0 1 0-1.913 0v2.973c0 .528.427.958.957.958m0-23.072c.529 0 .956-.43.956-.956V12.32h2.017a.957.957 0 1 0 0-1.914h-2.973a.956.956 0 0 0-.957.957v2.974c0 .527.427.956.957.956M43.257 53.86h-2.973a.957.957 0 1 0 0 1.914h2.973a.957.957 0 1 0 0-1.914M30.564 12.32h2.974a.957.957 0 1 0 0-1.913h-2.974a.956.956 0 1 0 0 1.913m-15.38 10.665c.529 0 .956-.43.956-.958v-2.973a.956.956 0 1 0-1.913 0v2.973c0 .528.427.958.957.958m0 7.69c.529 0 .956-.43.956-.957v-2.974a.956.956 0 1 0-1.913 0v2.974c0 .528.427.957.957.957m7.69-18.354h2.973a.957.957 0 1 0 0-1.914h-2.973a.957.957 0 1 0 0 1.914m35.764 38.566a.957.957 0 0 0-.957.957v2.016h-2.016a.957.957 0 1 0 0 1.914h2.973a.957.957 0 0 0 .957-.957v-2.973a.96.96 0 0 0-.957-.957m-7.69 2.973h-2.974a.957.957 0 1 0 0 1.914h2.974a.957.957 0 1 0 0-1.914m7.69-10.664c-.53 0-.957.43-.957.957v2.974a.956.956 0 1 0 1.914 0v-2.974a.96.96 0 0 0-.957-.957m0-23.07c-.53 0-.957.428-.957.956v2.973a.956.956 0 1 0 1.914 0v-2.973a.96.96 0 0 0-.957-.957m0 15.38c-.53 0-.957.429-.957.957v2.973a.957.957 0 1 0 1.914 0v-2.973a.96.96 0 0 0-.957-.958m0-7.691c-.53 0-.957.43-.957.957v2.974a.956.956 0 1 0 1.914 0v-2.973a.96.96 0 0 0-.957-.958M57.023 4.957a12.48 12.48 0 0 1-11.468 0V18.43a12.48 12.48 0 0 0 11.468 0 12.5 12.5 0 0 1 6.528-1.37V3.587a12.5 12.5 0 0 0-6.528 1.37m9.955-3.446c-.832 0-1.513.68-1.513 1.512v29.32h3.025V3.024c0-.832-.68-1.512-1.512-1.512M39.667 35.714v.626a.731.731 0 1 0 1.461 0v-.626a.731.731 0 1 0-1.462 0m-6.242-4.515a.73.73 0 0 0 .732-.732v-.625a.732.732 0 0 0-1.463 0v.626c0 .403.328.73.731.73m-1.013-8.873H45.55v21.529H28.272V26.466zm7.985 10.742a2.65 2.65 0 0 0-2.645 2.646v.626a2.65 2.65 0 0 0 2.645 2.645 2.65 2.65 0 0 0 2.645-2.645v-.626a2.65 2.65 0 0 0-2.645-2.646m-1.544-5.253-5.54 9.594a.96.96 0 0 0 .827 1.437c.331 0 .654-.173.83-.48l5.54-9.593a.957.957 0 1 0-1.657-.958m-5.428-.619a2.65 2.65 0 0 0-2.646 2.645v.627a2.65 2.65 0 0 0 2.646 2.645 2.65 2.65 0 0 0 2.645-2.645v-.626a2.65 2.65 0 0 0-2.645-2.646m-8.701 27.621c0 5.261-4.28 9.541-9.54 9.541-5.261 0-9.54-4.28-9.54-9.541s4.278-9.54 9.54-9.54c5.26 0 9.54 4.28 9.54 9.54m-7.036-.181c-.764-.448-1.564-.638-2.338-.823-.262-.062-.51-.122-.755-.19-.747-.208-1.154-.439-1.361-.77-.271-.432.008-.799.14-.936.413-.43 1.386-.65 2.315-.523.746.102 1.34.407 1.55.796a.957.957 0 1 0 1.685-.908c-.487-.9-1.494-1.535-2.785-1.755v-.947a.957.957 0 1 0-1.913 0v.94c-.907.151-1.709.525-2.232 1.072-.894.93-1.045 2.217-.383 3.275.61.977 1.639 1.368 2.47 1.6.28.078.558.144.826.208.666.159 1.295.309 1.812.613.575.337.622.646.588.929-.04.327-.256.62-.579.78-1.183.589-3.311.215-3.794-.667a.956.956 0 0 0-1.679.92c.556 1.014 1.712 1.63 2.97 1.853v.953a.957.957 0 1 0 1.914 0v-.916a4.8 4.8 0 0 0 1.443-.43 2.93 2.93 0 0 0 1.625-2.262c.14-1.155-.399-2.154-1.518-2.813m11.167.181c0 7.53-6.141 13.673-13.671 13.673S1.511 62.348 1.511 54.817s6.141-13.672 13.672-13.672c7.53 0 13.672 6.142 13.672 13.672m-2.217 0c0-6.317-5.138-11.455-11.455-11.455-6.316 0-11.454 5.138-11.454 11.455 0 6.316 5.138 11.456 11.454 11.456s11.455-5.14 11.455-11.456" clip-rule="evenodd"/></svg>