<svg xmlns="http://www.w3.org/2000/svg" width="70" height="70" fill="none"><path fill="#fff" d="M68.64 44.57H1.36c-1.814.072-1.813 2.663 0 2.735h6.755C12.85 59.029 21.532 66.44 34.646 69.953c.232.063.476.063.708 0C48.47 66.44 57.153 59.03 61.886 47.305h6.754c1.814-.073 1.813-2.663 0-2.735M52.86 47.305a30 30 0 0 1-1.15 2.008C48.046 55.161 42.578 59.156 35 61.518c-7.578-2.362-13.047-6.357-16.711-12.205q-.603-.96-1.15-2.008zM35 67.216c-11.641-3.206-19.483-9.73-23.92-19.911h3.004a34 34 0 0 0 1.887 3.46c4.095 6.534 10.19 10.947 18.635 13.492.257.078.531.078.789 0 8.444-2.545 14.54-6.958 18.634-13.492a34 34 0 0 0 1.887-3.46h3.004C54.484 57.485 46.642 64.01 35 67.216M1.36 25.43h67.28c1.814-.073 1.813-2.663 0-2.735H66.34c.074-1.973.11-4.04.11-6.289 0-.755-.612-1.367-1.367-1.367-7.54 0-13.674-6.133-13.674-13.672C51.41.612 50.797 0 50.042 0H19.958c-.755 0-1.368.612-1.368 1.367 0 7.539-6.134 13.672-13.674 13.672-.755 0-1.368.612-1.368 1.367 0 2.251.036 4.32.11 6.29H1.36c-1.814.071-1.813 2.662 0 2.734m4.928-7.713c7.958-.662 14.321-7.026 14.98-14.983h27.463c.66 7.957 7.023 14.321 14.981 14.983a157 157 0 0 1-.108 4.978h-2.731q.03-.759.05-1.537a1.37 1.37 0 0 0-1-1.354c-6.425-1.794-11.52-6.903-13.295-13.332a1.37 1.37 0 0 0-1.318-1.003h-4.157c-1.814.072-1.813 2.662 0 2.734h3.142c2.152 6.533 7.337 11.74 13.862 13.919l-.021.573H11.864l-.021-.573c6.525-2.18 11.71-7.386 13.862-13.919h3.141c1.814-.072 1.813-2.663 0-2.734H24.69c-.615 0-1.154.41-1.318 1.003-1.776 6.43-6.87 11.538-13.296 13.332a1.37 1.37 0 0 0-.999 1.354q.02.778.05 1.537H6.395c-.06-1.58-.096-3.224-.107-4.978"/><path fill="#fff" d="M35 8.203c1.814-.072 1.812-2.663 0-2.734h-.002c-1.814.072-1.811 2.663.001 2.734M30.896 32.085q.645 0 1.106.273.47.273.721.84.26.567.259 1.449V38h-1.477v-3.087q0-.833-.238-1.267-.231-.434-.875-.434-.35 0-.658.189a1.35 1.35 0 0 0-.497.567q-.182.37-.182.945V38h-1.386v-3.087q0-.833-.287-1.267-.28-.434-.84-.434-.357 0-.658.182-.3.182-.483.56-.182.378-.182.959V38h-1.484v-5.747h1.484v.861q.077-.217.343-.455.273-.238.679-.406t.889-.168q.526 0 .868.196.35.19.553.476.21.287.308.574.098-.287.378-.574.287-.287.714-.476.428-.196.945-.196m6.376 6.083q-.903 0-1.61-.392a2.94 2.94 0 0 1-1.1-1.078 3.03 3.03 0 0 1-.398-1.554q0-.868.399-1.561a2.9 2.9 0 0 1 1.099-1.092q.707-.406 1.61-.406t1.596.406q.693.399 1.085 1.092.399.693.399 1.561 0 .869-.4 1.554a2.9 2.9 0 0 1-1.084 1.078q-.693.392-1.596.392m0-1.26q.504 0 .875-.231a1.56 1.56 0 0 0 .574-.63 2 2 0 0 0 .203-.91q0-.51-.203-.91a1.6 1.6 0 0 0-.574-.644 1.6 1.6 0 0 0-.875-.238q-.504 0-.882.238a1.65 1.65 0 0 0-.581.644 2 2 0 0 0-.203.91q0 .51.203.91.21.399.58.63.38.231.883.231m7.782-4.823q.58 0 1.127.238.546.238.896.763.357.518.357 1.351V38h-1.505v-3.29q0-.777-.371-1.141-.364-.37-.945-.371-.385 0-.735.217t-.574.588a1.66 1.66 0 0 0-.217.854V38h-1.498v-5.747h1.498v.966q.063-.238.336-.497.28-.266.707-.448.426-.189.924-.189m3.387.168h1.078v-2.359h1.484v2.359h1.421v1.26h-1.42v2.457q0 .462.153.693a.52.52 0 0 0 .455.231q.246 0 .385-.091a1 1 0 0 0 .175-.126l.553 1.085q-.042.042-.245.14a2.94 2.94 0 0 1-1.26.266q-.727 0-1.218-.434-.483-.434-.483-1.358v-2.863h-1.078zm8.748-.168q.574 0 1.12.238.545.238.896.763.357.518.357 1.351V38h-1.505v-3.29q0-.777-.357-1.141-.35-.37-.931-.371-.385 0-.742.217t-.588.588q-.224.37-.224.854V38H53.71v-9.632h1.505v4.851q.063-.238.336-.497.28-.266.707-.448.427-.189.93-.189m6.192 0a4.2 4.2 0 0 1 1.603.308q.294.126.406.21l-.546.924q-.14-.12-.504-.273a2 2 0 0 0-.805-.154q-.447 0-.756.161-.308.16-.308.483 0 .315.322.504.33.189.89.315.46.105.881.294.42.181.686.525.273.336.273.903 0 .54-.23.903-.224.358-.603.574a2.7 2.7 0 0 1-.84.308 4.4 4.4 0 0 1-.917.098q-.567 0-1.015-.112a3.7 3.7 0 0 1-.735-.259 2.6 2.6 0 0 1-.42-.259l.546-1.036q.183.175.595.371.414.189.924.189.546 0 .875-.21.33-.21.33-.56a.57.57 0 0 0-.162-.42 1.1 1.1 0 0 0-.427-.259 5 5 0 0 0-.609-.175 6 6 0 0 1-.637-.196 2.6 2.6 0 0 1-.58-.322 1.5 1.5 0 0 1-.428-.504 1.5 1.5 0 0 1-.16-.707q0-.518.328-.882.33-.364.868-.553.54-.189 1.155-.189M2.895 33.387q0-1.225.294-2.128.302-.903.812-1.491.512-.595 1.148-.882a3.1 3.1 0 0 1 2.64 0q.643.287 1.147.882.504.588.798 1.491t.294 2.128q0 1.267-.294 2.17t-.798 1.484a3.24 3.24 0 0 1-1.148.854 3.33 3.33 0 0 1-2.639 0 3.3 3.3 0 0 1-1.148-.854q-.51-.58-.812-1.484-.294-.903-.294-2.17m1.491 0q0 1.162.273 1.939.28.77.75 1.148.476.37 1.056.371.596 0 1.057-.378.47-.378.742-1.148.273-.77.273-1.932 0-1.14-.273-1.911-.273-.77-.742-1.162a1.57 1.57 0 0 0-1.057-.399q-.581 0-1.057.399-.468.392-.749 1.169-.273.77-.273 1.904m6.88-3.038q.05-.203.246-.497.203-.294.553-.581.35-.286.875-.483.532-.195 1.239-.196.881 0 1.526.329.652.322 1 .889.35.567.35 1.295 0 .51-.202.931-.195.42-.511.693-.308.266-.658.336.378.042.763.315.392.266.65.742.267.47.267 1.113 0 .84-.413 1.505-.406.664-1.134 1.05-.72.378-1.666.378-.945 0-1.61-.322-.665-.33-1.064-.805-.392-.476-.532-.917l1.35-.679q.099.3.33.637.238.33.616.56.385.231.896.231.56 0 .952-.224t.595-.602.203-.847q0-.518-.245-.847a1.47 1.47 0 0 0-.644-.49 2.25 2.25 0 0 0-.861-.161h-.182V32.61h.238q.405 0 .749-.168.35-.168.56-.483t.21-.756q0-.58-.392-.987-.385-.405-1.162-.406-.435 0-.75.14a1.6 1.6 0 0 0-.503.329q-.196.19-.294.371a1.3 1.3 0 0 0-.12.273z"/></svg>