<svg xmlns="http://www.w3.org/2000/svg" width="100" height="100" fill="none"><path fill="currentColor" d="M23.458 9.667a2.063 2.063 0 0 0-2.083 2.083v11.834c0 .25.042.5.167.75s.25.5.458.666c.167.167.417.334.625.417s.417.125.667.125h11.916a2.063 2.063 0 0 0 2.084-2.083 2.063 2.063 0 0 0-2.084-2.084h-6.125c6.042-4.458 13.25-6.875 20.875-6.875 19.5 0 35.375 15.875 35.375 35.417 0 4.25-.708 8.333-2.166 12.125a2.067 2.067 0 0 0 1.208 2.667q.375.125.75.125c.833 0 1.625-.5 1.958-1.334 1.625-4.291 2.417-8.875 2.417-13.625 0-21.833-17.75-39.583-39.542-39.583-9 0-17.5 3-24.458 8.5v-7.167a2.063 2.063 0 0 0-2.083-2.083zM15.459 35.25a2.104 2.104 0 0 0-2.667 1.25A40 40 0 0 0 10.46 49.96c0 21.791 17.75 39.541 39.542 39.541 8.916 0 17.416-3 24.333-8.458v7.208c0 1.167.917 2.084 2.083 2.084a2.063 2.063 0 0 0 2.084-2.084V76.46a1.7 1.7 0 0 0-.167-.792 2.12 2.12 0 0 0-1.125-1.125 1.8 1.8 0 0 0-.792-.167H64.626a2.063 2.063 0 0 0-2.084 2.084c0 1.166.917 2.083 2.084 2.083h6.083c-6 4.375-13.167 6.792-20.75 6.792-19.5 0-35.375-15.875-35.375-35.375 0-4.125.708-8.167 2.083-12.042.375-1.083-.166-2.292-1.25-2.667z"/><path fill="currentColor" d="m39.256 61.842 1.273 3.071c1.968-.655 5.175-1.58 6.138-1.58 1.397 0 2.437.347 3.64.747 1.292.432 2.757.92 4.694.92 1.961 0 5.13-1.535 5.745-1.842l-1.492-2.981c-1.202.6-3.385 1.49-4.253 1.49-1.397 0-2.437-.347-3.64-.747-1.292-.432-2.757-.92-4.694-.92-.381 0-.876.062-1.428.165.932-1.915 1.428-4.23 1.428-6.832h5V50h-5.623c-.07-.178-.14-.36-.208-.528C45.406 48.42 45 47.425 45 45c0-2.282.868-5 5-5 3.706 0 5.035 3.712 5.086 3.86l3.16-1.055c-.083-.25-2.115-6.138-8.246-6.138-6.145 0-8.334 4.305-8.334 8.333 0 2.485.39 3.917.797 5h-4.13v3.333h5c0 4.112-1.487 7.214-4.078 8.509"/></svg>