<svg xmlns="http://www.w3.org/2000/svg" width="70" height="70" fill="none"><g fill="currentColor" clip-path="url(#a)"><path d="M63.157 54.429a11.2 11.2 0 0 0 2.142-6.54 1.167 1.167 0 0 0-1.11-1.222c-.64-.02-1.18.47-1.221 1.11a8.93 8.93 0 0 1-1.642 5.203C59.05 55.854 54.731 56 53.887 56a1.167 1.167 0 1 0 0 2.333c1.032 0 6.325-.187 9.27-3.904"/><path d="M69.025 39.4c-2.875-12.217-9.266-19.295-13.881-22.992 5.788.436 7.65 2.844 7.706 2.917a1.167 1.167 0 0 0 1.931-1.308c-.084-.126-1.704-2.44-6.416-3.5a5.35 5.35 0 0 0 1.952-4.017 5.99 5.99 0 0 0-4.462-5.434q.154-1.265.157-2.54A2.333 2.333 0 0 0 52.767.38a6.7 6.7 0 0 0-1.624 1.042 3 3 0 0 1-2.181.91 3 3 0 0 1-2.179-.91 5.367 5.367 0 0 0-7.282 0 3 3 0 0 1-2.184.91 3 3 0 0 1-2.177-.91 6.7 6.7 0 0 0-1.62-1.04 2.333 2.333 0 0 0-3.24 2.144c0 2.903.575 8.08 4.209 11.557a32 32 0 0 0-5.322 4.05v-8.8c0-2.66-3.763-4.667-8.75-4.667-4.988 0-8.75 2.006-8.75 4.666v11.754c-4.092.409-7 2.246-7 4.58V55.34C1.848 56.098 0 57.633 0 59.5v5.833C0 67.993 3.763 70 8.75 70c4.46 0 7.933-1.607 8.618-3.85a13.1 13.1 0 0 0 6.549 1.517c4.987 0 8.75-2.007 8.75-4.667V47.833c0-2.66-3.763-4.666-8.75-4.666q-.878 0-1.75.087V25.667c0-2.555-3.474-4.501-8.167-4.652v-8.451A13.3 13.3 0 0 0 20.417 14a13.3 13.3 0 0 0 6.416-1.436v7.956a38 38 0 0 0-2.303 2.835 1.167 1.167 0 0 0 1.881 1.378 35 35 0 0 1 2.406-2.916l.026-.03a30.7 30.7 0 0 1 7.744-6.206 7.4 7.4 0 0 0 1.8.598l-3.008 2.807a1.167 1.167 0 0 0 1.594 1.706l4.666-4.353h.373v3.5a1.167 1.167 0 1 0 2.333 0v-3.506h.372l4.667 4.353a1.167 1.167 0 0 0 1.593-1.706l-3.027-2.818a7.4 7.4 0 0 0 1.788-.601c3.084 1.668 13.22 8.26 17.016 24.373 1.651 7.014 1.056 12.38-1.767 15.943-3.612 4.556-9.88 4.79-11.099 4.79H37.333a1.167 1.167 0 1 0 0 2.333h16.555c1.984 0 8.756-.41 12.927-5.674 3.288-4.152 4.032-10.183 2.21-17.927M8.75 57.166c3.858 0 6.417 1.4 6.417 2.333s-2.559 2.333-6.417 2.333-6.417-1.4-6.417-2.333 2.559-2.333 6.417-2.333m0 10.5c-3.858 0-6.417-1.4-6.417-2.334V62.73a13.3 13.3 0 0 0 6.417 1.437 13.3 13.3 0 0 0 6.417-1.437v2.603c0 .934-2.559 2.334-6.417 2.334m15.167-2.334c-3.859 0-6.417-1.4-6.417-2.333V51.064a13.3 13.3 0 0 0 6.417 1.436 13.3 13.3 0 0 0 6.416-1.436V63c0 .933-2.558 2.333-6.416 2.333m6.416-17.5c0 .934-2.558 2.334-6.416 2.334s-6.417-1.4-6.417-2.334c0-.933 2.558-2.333 6.417-2.333s6.416 1.4 6.416 2.333m-15.166 0v8.436a13.3 13.3 0 0 0-6.417-1.436q-.877 0-1.75.088V28.897a13.3 13.3 0 0 0 6.417 1.436 13.3 13.3 0 0 0 6.416-1.436v14.777c-2.818.757-4.666 2.293-4.666 4.16m4.666-22.166c0 .933-2.558 2.333-6.416 2.333S7 26.6 7 25.667s2.559-2.334 6.417-2.334 6.416 1.4 6.416 2.334m.584-14c-3.859 0-6.417-1.4-6.417-2.334C14 8.4 16.558 7 20.417 7s6.416 1.4 6.416 2.333-2.558 2.334-6.416 2.334M57.983 10.5c0 1.912-2.07 3.481-4.666 3.5a6 6 0 0 1-1.29-.148A13.8 13.8 0 0 0 55.433 7.4a3.575 3.575 0 0 1 2.55 3.1M33.68 3.243a5.27 5.27 0 0 0 3.638 1.424c1.351.01 2.654-.5 3.64-1.424a3.07 3.07 0 0 1 4.363 0 5.26 5.26 0 0 0 3.642 1.424c1.35.01 2.655-.5 3.64-1.424a5 5 0 0 1 1.07-.718c0 2.166-.402 7.522-4.161 10.459a5 5 0 0 1-2.928 1.002 25.2 25.2 0 0 0 2.38-5.508 1.167 1.167 0 1 0-2.248-.625A21.4 21.4 0 0 1 43.772 14h-1.2a21.6 21.6 0 0 1-2.943-6.147 1.167 1.167 0 1 0-2.248.626 25.3 25.3 0 0 0 2.384 5.513 5 5 0 0 1-2.99-1.007c-3.758-2.935-4.16-8.292-4.16-10.451.386.185.744.424 1.064.71"/><path d="M63.157 54.429a11.2 11.2 0 0 0 2.142-6.54 1.167 1.167 0 0 0-1.11-1.222 1.18 1.18 0 0 0-1.221 1.11 8.93 8.93 0 0 1-1.642 5.203C59.05 55.854 54.731 56 53.887 56a1.167 1.167 0 1 0 0 2.333c1.032 0 6.325-.187 9.27-3.904M34.553 42.105l.764 1.843C36.498 43.555 38.422 43 39 43c.838 0 1.462.208 2.184.448.775.259 1.654.552 2.816.552 1.177 0 3.078-.921 3.447-1.105l-.895-1.789c-.721.36-2.031.894-2.552.894-.838 0-1.462-.208-2.184-.448C41.041 41.293 40.162 41 39 41c-.229 0-.526.037-.857.099C38.702 39.95 39 38.561 39 37h3v-2h-3.374c-.042-.107-.084-.216-.125-.317C38.243 34.052 38 33.455 38 32c0-1.369.521-3 3-3 2.224 0 3.021 2.227 3.052 2.316l1.896-.633C45.898 30.533 44.679 27 41 27c-3.687 0-5 2.583-5 5 0 1.491.234 2.35.478 3H34v2h3c0 2.467-.892 4.328-2.447 5.105"/></g><defs><clipPath id="a"><path fill="#fff" d="M0 0h70v70H0z"/></clipPath></defs></svg>