<svg xmlns="http://www.w3.org/2000/svg" width="70" height="70" fill="none"><path fill="currentColor" d="M68.64 44.57H1.36c-1.814.072-1.813 2.663 0 2.735h6.755C12.85 59.029 21.532 66.44 34.646 69.953c.232.063.476.063.708 0C48.47 66.44 57.153 59.03 61.886 47.305h6.754c1.814-.073 1.813-2.663 0-2.735M52.86 47.305a30 30 0 0 1-1.15 2.008C48.046 55.161 42.578 59.156 35 61.518c-7.578-2.362-13.047-6.357-16.711-12.205q-.603-.96-1.15-2.008zM35 67.216c-11.641-3.206-19.483-9.73-23.92-19.911h3.004a34 34 0 0 0 1.887 3.46c4.095 6.534 10.19 10.947 18.635 13.492.257.078.531.078.789 0 8.444-2.545 14.54-6.958 18.634-13.492a34 34 0 0 0 1.887-3.46h3.004C54.484 57.485 46.642 64.01 35 67.216M1.36 25.43h67.28c1.814-.073 1.813-2.663 0-2.735H66.34c.074-1.973.11-4.04.11-6.289 0-.755-.612-1.367-1.367-1.367-7.54 0-13.674-6.133-13.674-13.672C51.41.612 50.797 0 50.042 0H19.958c-.755 0-1.368.612-1.368 1.367 0 7.539-6.134 13.672-13.674 13.672-.755 0-1.368.612-1.368 1.367 0 2.251.036 4.32.11 6.29H1.36c-1.814.071-1.813 2.662 0 2.734m4.928-7.713c7.958-.662 14.321-7.026 14.98-14.983h27.463c.66 7.957 7.023 14.321 14.981 14.983a157 157 0 0 1-.108 4.978h-2.731q.03-.759.05-1.537a1.37 1.37 0 0 0-1-1.354c-6.425-1.794-11.52-6.903-13.295-13.332a1.37 1.37 0 0 0-1.318-1.003h-4.157c-1.814.072-1.813 2.662 0 2.734h3.142c2.152 6.533 7.337 11.74 13.862 13.919l-.021.573H11.864l-.021-.573c6.525-2.18 11.71-7.386 13.862-13.919h3.141c1.814-.072 1.813-2.663 0-2.734H24.69c-.615 0-1.154.41-1.318 1.003-1.776 6.43-6.87 11.538-13.296 13.332a1.37 1.37 0 0 0-.999 1.354q.02.778.05 1.537H6.395c-.06-1.58-.096-3.224-.107-4.978"/><path fill="currentColor" d="M35 8.203c1.814-.072 1.812-2.663 0-2.734h-.002c-1.814.072-1.811 2.663.001 2.734M16.413 34.387q0-1.225.294-2.128.3-.903.812-1.491a3.3 3.3 0 0 1 1.148-.882 3.1 3.1 0 0 1 2.639 0q.645.287 1.148.882.504.588.798 1.491t.294 2.128q0 1.267-.294 2.17t-.798 1.484a3.24 3.24 0 0 1-1.148.854 3.33 3.33 0 0 1-2.639 0 3.3 3.3 0 0 1-1.148-.854q-.51-.58-.812-1.484-.294-.903-.294-2.17m1.491 0q0 1.162.273 1.939.28.77.749 1.148.476.37 1.057.371.595 0 1.057-.378.47-.378.742-1.148.273-.77.273-1.932 0-1.14-.273-1.911-.273-.77-.742-1.162a1.57 1.57 0 0 0-1.057-.399q-.581 0-1.057.399-.469.392-.749 1.169-.273.77-.273 1.904m8.316 4.781q-.427 0-.735-.301a1.02 1.02 0 0 1-.302-.742q0-.435.302-.742.308-.308.735-.308.44 0 .742.308.308.308.308.742 0 .435-.308.742-.301.3-.742.301M30.19 39l2.982-3.577q-.133.14-.455.273-.322.126-.805.126-.756 0-1.435-.378a3 3 0 0 1-1.092-1.078q-.413-.693-.413-1.61t.448-1.631q.448-.715 1.197-1.12a3.4 3.4 0 0 1 1.66-.413q.922 0 1.665.399.75.399 1.19 1.134.441.735.441 1.729 0 1.057-.357 1.792a7 7 0 0 1-.833 1.316L31.933 39zm2.072-4.389q.525 0 .952-.252.434-.252.693-.686.26-.435.26-.952a1.8 1.8 0 0 0-.26-.952 1.9 1.9 0 0 0-.693-.686 1.8 1.8 0 0 0-.952-.259q-.518 0-.952.259a1.93 1.93 0 0 0-.686.686 1.84 1.84 0 0 0-.252.952q0 .518.252.952.259.434.686.686.435.252.952.252M37.942 39l2.982-3.577q-.133.14-.455.273-.322.126-.805.126-.756 0-1.435-.378a3 3 0 0 1-1.092-1.078q-.413-.693-.413-1.61t.448-1.631q.448-.715 1.197-1.12a3.4 3.4 0 0 1 1.659-.413 3.46 3.46 0 0 1 1.666.399q.75.399 1.19 1.134.441.735.441 1.729 0 1.057-.357 1.792a7 7 0 0 1-.833 1.316L39.685 39zm2.072-4.389q.525 0 .952-.252.434-.252.693-.686.26-.435.259-.952a1.8 1.8 0 0 0-.259-.952 1.9 1.9 0 0 0-.693-.686 1.8 1.8 0 0 0-.952-.259q-.518 0-.952.259a1.93 1.93 0 0 0-.686.686 1.84 1.84 0 0 0-.252.952q0 .518.252.952.259.434.686.686.435.252.952.252m11.518-4.851h1.036L46.94 39h-1.036zm-7.035 2.037q0-.553.273-.994a2 2 0 0 1 .763-.707 2.3 2.3 0 0 1 1.106-.266q.61 0 1.085.266.483.259.763.707.28.44.28.994 0 .54-.273.987a2 2 0 0 1-.749.714 2.3 2.3 0 0 1-1.106.259q-.637 0-1.12-.259a2 2 0 0 1-.756-.714 1.9 1.9 0 0 1-.266-.987m1.064 0q0 .49.294.784.294.287.777.287.462 0 .763-.28.3-.287.301-.791 0-.483-.308-.784-.3-.3-.756-.301-.47 0-.77.301-.3.3-.301.784m4.137 5.173q0-.56.273-1.001a2 2 0 0 1 .763-.707q.482-.26 1.106-.259.61 0 1.085.259.483.259.763.707.28.441.28 1.001 0 .532-.273.98a2 2 0 0 1-.756.714 2.2 2.2 0 0 1-1.099.266q-.637 0-1.12-.266a2 2 0 0 1-.756-.714 1.9 1.9 0 0 1-.266-.98m1.064 0q0 .49.294.784.294.287.777.287.462 0 .763-.287.3-.287.301-.784 0-.49-.308-.791-.3-.3-.756-.301-.47 0-.77.301-.3.3-.301.791"/></svg>