<svg xmlns="http://www.w3.org/2000/svg" width="500" height="500" fill="none"><g clip-path="url(#a)"><path fill="#fff" d="M500 0H0v500h500z"/><path fill="#21558A" fill-opacity=".2" d="M223.14 384.389c91.476 0 165.632-74.156 165.632-165.632S314.616 53.125 223.14 53.125 57.508 127.281 57.508 218.757s74.156 165.632 165.632 165.632"/><path fill="#fff" d="M247.051 280.015s-46.17 56.03-62.5 54.57-27.52-28.77-27.52-28.77.56-.3 1.51-.87c4.78-2.82 19.48-12.16 22.92-22.13 3.33-5.41 27.55-44.68 34.92-54.7 7.93-10.77 17.26-11.19 17.26-11.19 5.26 8.65 11.9 15.23 20.13 16.47 1.13.17 2.23.28 3.28.33.5 3.52 3.81 21.48 19.94 30.67 0 0 .62-12.51 8.89-13.62 0 0 8.76-4.8 15.99 2.22 0 0 11.46-12.3 0-46.84l-8.18-7.4-.01-.01-3.75-8.92s41.85-2.09 51.53 6.88c9.68 8.96 71.6 90.9 71.6 90.9l-90.07 69.93s-54.61-54.16-75.94-77.52"/><path fill="#6C6C6C" d="M301.871 206.155c11.46 34.54 0 46.84 0 46.84-7.23-7.02-15.99-2.22-15.99-2.22l11.68-42.82-3.87-9.2z"/><path fill="#6C6C6C" d="m273.771 242.785 12.11 7.99c-8.27 1.11-8.89 13.62-8.89 13.62-16.13-9.19-19.44-27.15-19.94-30.67 1.02.05 2.01.04 2.95-.02z"/><path fill="#2E303D" d="m246.772 279.565-15.115-18.655c-.405-.5-1.109.211-.707.707l15.115 18.655c.405.5 1.109-.212.707-.707M242.356 280.789l-10.7-4.593c-.585-.251-1.095.61-.505.863l10.7 4.593c.585.252 1.095-.609.505-.863M321.972 309.31l-13.605-22.505-13.54-22.398-7.673-12.692c-.333-.55-1.198-.048-.863.505l13.605 22.505 13.54 22.398 7.673 12.692c.332.55 1.197.048.863-.505"/><path fill="#FF9971" d="M182.191 279.125c-.05 1.23-.3 2.46-.73 3.69-3.44 9.97-18.14 19.31-22.92 22.13l-1.51-5.53s-7.75 1.74-13.42-3.17c-.15.29-.39.55-.67.73-.8.49-1.81.49-2.75.41-4.25-.38-8.39-2.01-11.76-4.64-1.99-1.55-3.78-3.56-4.33-6.02-.53-2.33.36-5.1 2.43-6.24-.08-.37-.13-.75-.15-1.13-.09-2.17 1.05-4.25 2.6-5.77 1.43-1.42 3.2-2.43 4.97-3.39.02-.09.04-.17.06-.25.43-1.54 1.53-2.82 2.81-3.77 1.16-.86 2.48-1.48 3.8-2.08-6.41-3.3-12.56-6.96-11.94-8.6 1.25-3.33 14.38-2.15 27.66 2.5 13.27 4.66 17.61 11.6 17.61 11.6 4.13-1.83 8.65-1.47 8.24 9.53"/><path fill="#2E303D" d="m177.326 280.997-9.283 3.983-4.699 2.016c-1.288.552-2.855 1.452-4.3 1.005-1.556-.482-1.572-2.224-.976-3.472s1.528-2.387 2.389-3.461a39.7 39.7 0 0 1 5.722-5.791 39.4 39.4 0 0 1 7.955-5.067c.58-.279.073-1.142-.505-.863a40.3 40.3 0 0 0-14.133 11.333c-1.469 1.869-4.239 5.165-2.032 7.506 1.006 1.067 2.625 1.072 3.932.667 1.624-.503 3.186-1.308 4.745-1.977l11.69-5.016c.589-.252.081-1.114-.505-.863M152.932 271.013l-11.639-6.949c-.554-.331-1.057.534-.505.864l11.639 6.949c.554.331 1.057-.534.505-.864M154.743 289.747c-.107-.946-.535-1.82-.898-2.688l-1.198-2.866-5.509-13.182c-.244-.585-1.212-.328-.964.266l4.455 10.66 2.251 5.388c.455 1.09 1.857 3.957-.165 4.421-1.418.325-3.073-1.092-4.149-1.849a35 35 0 0 1-3.545-2.859 36.6 36.6 0 0 1-5.852-6.874 36.3 36.3 0 0 1-4.348-9.21c-.189-.613-1.155-.352-.964.266a37.57 37.57 0 0 0 10.457 16.525 37 37 0 0 0 3.747 3.016c1.245.876 2.736 2.044 4.339 2.019 1.636-.027 2.513-1.526 2.343-3.033M146.338 290.271c-.383-.507-1.252-.009-.863.505.677.896.745 2.115-.049 2.97-.788.848-1.957.856-2.964.412-1.026-.452-1.922-1.215-2.796-1.902a76.738 76.738 0 0 1-12.254-12.108c-.404-.501-1.108.211-.707.707a77 77 0 0 0 8.729 9.16 73 73 0 0 0 4.778 3.912c1.448 1.084 3.34 2.117 5.12 1.143 1.728-.945 2.186-3.237 1.006-4.799"/><path fill="#FF9971" d="m297.561 207.955-11.679 42.82-12.111-7.99c12.46-17.7 10.03-38.72 10.03-38.72s-1.94 28.31-23.8 29.64c-.94.06-1.93.07-2.95.02-1.05-.05-2.15-.16-3.28-.33-8.23-1.24-14.87-7.82-20.13-16.47-10.45-17.18-15.5-42.48-16.87-50.25 12.31-1.61 24.27-6.78 35.95-11.44 3.61-1.44 7.42-2.87 11.29-2.44 3.96.43 7.51 2.79 10.17 5.76 2.33 2.61 4.07 5.67 5.71 8.76.46-2.82 2.37-11.28 8.77-8.84.74.28 1.401.73 1.971 1.3 5.309 5.36 3.359 22-2.661 25.39l1.96 4.66 3.75 8.92.01.01z"/><path fill="#2E303D" d="M283.802 204.065s2.43 21.02-10.03 38.72l-13.77-9.08c21.86-1.33 23.8-29.64 23.8-29.64M289.552 144.654c-.59-3.76-1.51-7.67-4.02-10.53-2.249-2.553-6.136-3.91-9.186-2.653.874-3.357.451-7.028-1.273-10.06-1.779-3.128-4.832-5.489-8.316-6.396-8.479-2.208-16.223 3.372-23.108 7.445-3.68 2.177-7.521 3.921-11.695 4.908a38.3 38.3 0 0 1-12.447.849 38 38 0 0 1-6.25-1.152c-2.047-.549-4.088-1.183-6.212-1.35-3.529-.278-7.124 1.058-8.544 4.507-1.323 3.213-.643 6.963.644 10.07a20.9 20.9 0 0 0 3.762 5.951c-3.845-.4-7.908 1.566-9.834 4.94-2.18 3.82-1.41 9.08 1.77 12.12 2.75 2.63 6.73 3.47 10.52 3.75 3.84.29 7.64.12 11.41-.38 12.31-1.61 24.27-6.78 35.95-11.44 3.61-1.44 7.42-2.87 11.29-2.44 3.96.43 7.51 2.79 10.17 5.76 2.33 2.61 4.07 5.67 5.71 8.76.46-2.82 2.37-11.28 8.77-8.84.74.28 1.4.73 1.97 1.3a89 89 0 0 0-1.081-15.119m-21.23-24.529c-4.78-1.72-10.14-.6-14.8 1.42-4.66 2.01-8.92 4.87-13.6 6.82-8.55 3.54-18.39 3.85-27.13.84-3.24-1.12-6.78-2.68-9.93-1.34-2.442 1.039-3.8 3.6-4.061 6.288-.001-.603.029-1.206.13-1.801.271-1.6.976-3.128 2.253-4.169 1.383-1.128 3.237-1.516 4.984-1.505 2.061.013 4.065.596 6.037 1.138 1.921.528 3.85.968 5.826 1.232 7.667 1.024 15.604-.281 22.525-3.74 7.096-3.547 13.586-9.487 21.902-9.752 3.719-.118 7.299 1.178 9.896 3.878 2.62 2.724 3.839 6.558 3.331 10.301-.018.129-.054.255-.076.383.186-4.265-3.14-8.489-7.287-9.993"/><path fill="#fff" d="M268.513 204.405s5.56 10.16-2.92 16.06c-8.48 5.91-14.46-2.48-14.46-2.48z"/><path fill="#F9785A" d="m239.603 185.995 11.53 22.94s-9.38 5.28-11.53 2.22c-2.16-3.06 0-25.16 0-25.16"/><path fill="#2E303D" d="M235.357 191.174c.885 2.994-.084 5.919-2.164 6.533s-4.483-1.314-5.367-4.308.084-5.919 2.164-6.534c2.08-.614 4.483 1.315 5.367 4.309M259.691 182.966c.884 2.994-.084 5.919-2.164 6.533s-4.483-1.314-5.367-4.308.084-5.919 2.164-6.533 4.482 1.314 5.367 4.308M230.301 179.06c-1.895.452-3.725 1.192-5.427 2.136-.916.508-1.232 1.894-.643 2.755.637.931 1.774 1.187 2.755.643a20 20 0 0 1 1.293-.646 19.7 19.7 0 0 1 3.155-1.051c1.019-.243 1.691-1.5 1.351-2.485-.368-1.071-1.392-1.613-2.484-1.352M258.801 172.334c-.419-.361-.859-.49-1.407-.543a15.34 15.34 0 0 0-7.2 1.063c-.506.207-.92.466-1.19.962-.234.431-.324 1.051-.161 1.522.324.94 1.448 1.775 2.485 1.351a14.3 14.3 0 0 1 2.887-.825 14.3 14.3 0 0 1 3.253-.074c.482.047 1.104-.293 1.421-.63.329-.35.574-.919.543-1.407-.034-.522-.221-1.066-.631-1.419M276.077 114.651c-.254-.589-1.116-.081-.863.505a33.6 33.6 0 0 1 2.732 13.654c-.007.644.993.644 1 0a34.8 34.8 0 0 0-2.869-14.159M280.658 123.274l-1.28 5.275c-.152.625.812.892.964.266l1.28-5.275c.152-.625-.812-.892-.964-.266"/><path fill="#8E8E8E" d="M273.861 419.442v6.39h-89.22l-68.01-36.97v-5.75l69.31 36.33z"/><path fill="#B7B7B7" d="M273.861 419.442h-87.92l-69.31-36.33h87.92z"/><path fill="#8E8E8E" d="M195.247 416.648H184.42l-8.535-4.474h10.827zM183.803 410.67h-10.827l-8.535-4.473h10.827zM174.124 404.927h-10.827l-8.535-4.474h10.827zM162.68 398.949h-10.827l-8.535-4.474h10.827zM208.312 415.779h-10.827l-8.536-4.474h10.827zM198.632 410.036h-10.827l-8.535-4.474h10.827zM187.19 404.058h-10.827l-8.535-4.474h10.826zM210.674 408.97h-10.826l-8.536-4.474h10.828zM200.995 403.226h-10.827l-8.535-4.474h10.827zM189.552 397.249h-10.827l-8.536-4.474h10.827zM250.557 417.188H239.73l-8.535-4.473h10.827zM239.116 411.211h-10.827l-8.535-4.474h10.827zM229.434 405.467h-10.827l-8.535-4.474h10.827zM217.994 399.49h-10.827l-8.536-4.474h10.827zM263.626 416.319h-10.827l-8.535-4.473h10.827zM253.944 410.576h-10.827l-8.535-4.474h10.827zM242.503 404.598h-10.827l-8.535-4.474h10.827z"/><path fill="#D5E0E0" d="M330.03 450.146h-87.92l-44.891-23.578h87.92z"/><path fill="#21558A" d="M269.055 447.315h-25.588l-13.065-6.862h25.588z"/><path fill="#B7B7B7" d="M277.044 446.883a1 1 0 0 1-.464-.114l-30.341-15.936a1 1 0 1 1 .93-1.772l30.341 15.935a1 1 0 0 1-.466 1.887M287.251 446.296a1 1 0 0 1-.464-.114l-30.341-15.936a1 1 0 1 1 .93-1.772l30.341 15.936a1 1 0 0 1-.466 1.886M301.128 447.177a1 1 0 0 1-.464-.114l-30.341-15.935a1 1 0 0 1 .929-1.772l30.341 15.936a1 1 0 0 1-.465 1.885M311.335 446.589a1 1 0 0 1-.464-.114L280.53 430.54a1 1 0 1 1 .93-1.772l30.341 15.936a1 1 0 0 1-.466 1.885"/><path fill="#fff" d="m189.006 186.88-17.801 2.76a35.2 35.2 0 0 1-16.51 11.335c-18.591 6.053-38.569-4.11-44.622-22.701s4.11-38.568 22.701-44.622c18.581-6.05 38.558 4.113 44.612 22.704a35.3 35.3 0 0 1 1.367 16.122z"/><path fill="#21558A" fill-opacity=".5" d="m171.863 155.956-33.147 33.147-18.021-18.032 8.737-8.737 9.284 9.283 24.399-24.399z"/><path fill="#FF9971" d="m379.11 265.677-22.58 25.34-5.77 15.57-1.18-14.6-2.37-17.79.24-3.29 1.35-18.59c-3.75.35-7.4.25-10.83-.37-13.5-2.4-23.8-12.71-25.09-35.02-.79-13.59.89-23.83 3.16-31.21 3.33-10.84 7.96-15.49 7.96-15.49s16.89 28.29 39.27 31.42c0 0 4.1-9.67 10.49-6.82 6.4 2.85 6.4 22.09-3.74 24.61-1.33 13.31.61 26.95 5.61 39.36.96 2.37 2.07 4.75 3.48 6.88"/><path fill="#F9785A" d="M357.03 227.807a9.05 9.05 0 0 0 9.05-9.05 9.05 9.05 0 1 0-9.05 9.05"/><path fill="#2E303D" d="m360.07 250.087-11.98 11.96.71-9.73c3.68-.33 7.47-1.1 11.27-2.23"/><path fill="#2E303D" d="m348.091 262.047-.64 8.86s-12.98 5.82-18.93 19.57c-1.29-4.18-1.15-8.75-.22-13.04 1.05-4.8 3.03-9.33 5.03-13.8 1.71-3.83 3.45-7.68 4.64-11.69 3.43.62 7.08.72 10.83.37z"/><path fill="#F9785A" d="m326.64 205.947 5.15 21.69s-8.97 2.71-10.15.55c-1.18-2.15 5-22.24 5-22.24"/><path fill="#2E303D" d="M452.855 270.401c-2.681-10.967-9.19-20.457-16.605-28.786-6.002-6.743-12.673-12.842-19-19.272-1.981-3.228-3.836-6.529-5.49-9.946-6.2-12.79-9.45-26.86-15.83-39.55-6.39-12.7-17.1-24.52-31.14-26.71-20.62-3.22-40.3 15.06-60.81 11.21-.81 10.43 3.49 21.15 11.29 28.13l.77.24c2.857-9.3 6.662-14.033 7.688-15.193 1.234 6.141 5.499 11.192 9.718 15.653 4.934 5.217 10.488 10.066 17.234 12.758 2.911 1.162 6.005 1.881 9.132 2.008 1.138.293 2.288.54 3.458.704 0 0 4.1-9.67 10.49-6.82 6.4 2.85 6.4 22.09-3.74 24.61-1.33 13.31.61 26.95 5.61 39.36.96 2.37 2.07 4.75 3.48 6.88.87 1.33 1.86 2.56 3.01 3.64v.01c.41.38.84.75 1.3 1.1 8.79 6.71 21.74 2.69 32.09 6.58 9.58 3.6 15.52 13.68 17.08 23.8 1.57 10.12-.47 20.41-2.49 30.45l.18.06c.2-.6.39-1.21.58-1.81 13.435-4.756 21.394-19.322 22.032-33.653 1.933-8.339 1.998-17.131-.037-25.453m-109.833-76.903c-2.812-2.049-5.376-4.425-7.801-6.915-2.375-2.438-4.709-4.965-6.66-7.762-1.469-2.106-2.707-4.4-3.449-6.85 3.45 5.223 14.677 20.81 29.502 27.186-4.169-1.069-8.103-3.117-11.592-5.659m109.787 97.324c-.972-14.487-7.982-28.007-16.068-40.135-5.508-8.253-11.6-16.161-17.019-24.458 3.855 3.814 7.771 7.571 11.529 11.47 7.94 8.238 15.459 17.437 19.282 28.375 2.764 7.911 3.447 16.466 2.276 24.748M322.868 206.136c0 3.122-1.758 5.652-3.927 5.652s-3.927-2.531-3.927-5.652 1.758-5.652 3.927-5.652 3.927 2.53 3.927 5.652"/><path fill="#2E303D" d="M343.219 205.325c0 3.122-1.758 5.653-3.927 5.653s-3.927-2.531-3.927-5.653 1.758-5.652 3.927-5.652 3.927 2.53 3.927 5.652M321.45 193.086c-1.945-.103-3.91.087-5.81.511-1.022.228-1.718 1.468-1.397 2.46.347 1.073 1.365 1.641 2.46 1.397.471-.105.947-.183 1.423-.254a20 20 0 0 1 3.323-.114c1.047.056 2.047-.96 2-2-.05-1.132-.878-1.941-1.999-2M345.379 194.877c-.3-.465-.685-.713-1.195-.919a15.35 15.35 0 0 0-7.206-1.021c-.544.055-1.015.186-1.414.586-.347.347-.608.916-.586 1.414.044.993.885 2.113 2 2a14.3 14.3 0 0 1 3.003.027c1.076.168 2.129.443 3.14.851.449.181 1.142.032 1.541-.202.415-.243.81-.719.919-1.195.116-.512.091-1.087-.202-1.541"/><path fill="#000" d="M346.894 234.977c1.45 3.583.087 7.514-3.045 8.781-3.131 1.267-6.845-.61-8.295-4.193s-.087-7.514 3.045-8.781 6.846.611 8.295 4.193"/><path fill="#fff" d="M347.98 229.997s2.99 8.55-5.63 11.4c-7.02 2.32-9.97-2.29-10.76-3.87z"/><path fill="#21558A" d="m430.101 331.257.18.06c-2.78 8.63-5.94 17.29-9.13 25.46v.01c-9.86 25.24-20.02 45.83-20.33 46.44-9.74-13.45-27.88-22.38-33.77-25.03-1.21-.54-1.9-.82-1.9-.82l-3.71 11.12c.31.29.63.58.93.86l-33.63 4.48v-13.86s-.83-1.8-2.06-4.66c-1.68-3.9-4.11-9.78-6.14-15.7-2.23-6.5-3.98-13.05-3.77-17.08.56-10.38 23.3-50.41 23.3-50.41.03 5.77 1.31 10.43 1.31 10.43.1-.62.33-1.28.67-1.95.1.43 3.32 13.71 9.33 23.77l12.8-21.82c.53 1.37 1.05 2.9 1.52 4.58 0 0 14.2-22.96 16.42-37.81.41.38.84.75 1.3 1.1 8.79 6.71 21.74 2.69 32.09 6.58 9.58 3.6 15.52 13.68 17.08 23.8 1.57 10.12-.47 20.41-2.49 30.45"/><path fill="#21558A" d="m421.15 356.787 5.99 52.65h-26.98l2.24-3.89a35 35 0 0 0-1.58-2.32c.31-.61 10.47-21.2 20.33-46.44"/><path fill="#21558A" d="M400.821 403.227c.56.76 1.09 1.53 1.58 2.32l-2.24 3.89-11.29 19.65s-3.97-18.67-26.5-39.73c-.3-.28-.62-.57-.93-.86l3.71-11.12s.69.28 1.9.82c5.89 2.65 24.03 11.58 33.77 25.03"/><path fill="#FF9971" d="M388.87 429.087s-25.83.46-98.04-3.71c0 0-16.87 11.68-23.72 10.94-6.86-.74-20.39-13.44-23.73-18.72-3.33-5.28 5.38-13.16 5.38-13.16s.09-3.98 5.56-6.3c2.44-1.03 9.13-.89 15.81-.42 8.32.6 16.62 1.72 16.62 1.72l20.09-2.68 21.9-2.92 33.63-4.48c22.53 21.06 26.5 39.73 26.5 39.73"/><path fill="#fff" d="M382.121 269.317v.01c-2.22 14.85-16.42 37.81-16.42 37.81-.47-1.68-.99-3.21-1.52-4.58-3.43-8.88-7.65-11.54-7.65-11.54l22.58-25.34c.87 1.33 1.86 2.56 3.01 3.64"/><path fill="#D7F2ED" d="m364.181 302.557-12.8 21.82c-6.01-10.06-9.23-23.34-9.33-23.77v-.01c2.01-4.06 7.53-8.61 7.53-8.61l1.18 14.6 5.77-15.57s4.22 2.66 7.65 11.54"/><path fill="#fff" d="M340.031 355.237h15.6l.62 31.96h-23.07l-.47-31.96zm10.72 18.08v-15.01h-12.54v15.01z"/><path fill="#21558A" d="M350.751 358.307h-12.54v15.01h12.54z"/><path fill="#fff" d="m347.211 274.197 2.37 17.79s-5.52 4.55-7.53 8.61v.01c-.34.67-.57 1.33-.67 1.95 0 0-1.28-4.66-1.31-10.43-.03-6.13 1.34-13.53 7.14-17.93"/><path fill="#B7B7B7" d="m344.051 350.367 3.85 4.87h-7.87z"/><path fill="#21558A" d="M328.52 290.477c5.95-13.75 18.93-19.57 18.93-19.57l-.24 3.29c-5.8 4.4-7.17 11.8-7.14 17.93 0 0-22.74 40.03-23.3 50.41-.21 4.03 1.54 10.58 3.77 17.08l-1.36.34-9.76-4.74.31-.63s12.42-44.02 17.42-60.42c.39-1.29.85-2.52 1.37-3.69"/><path fill="#FF9971" d="M328.74 379.977v13.86l-21.899 2.92-66.653-.138c-11.279 4.85-17.112 5.11-21.472 2.94-1.78.12-8.455.858-10.235.968-.17 1.92-.76 3.63-2.35 3.63-3.61 0-7.64-8.06-7.64-8.06s-1.11 8.06-4.73 6.12c-3.61-1.95-2.64-12.98-2.64-12.98s-8.2 8.04-9.31 5.01c-1.11-3.04 4.31-17.47 17.79-18.72s43.92 4.17 43.92 4.17l60.369-10.1 22.79 5.72c1.23 2.86 2.06 4.66 2.06 4.66"/><path fill="#21558A" d="m326.681 375.317-22.79-5.72c-1.4-11.21 2.32-15.94 2.32-15.94l3.21 1.56 11.12 4.4c2.03 5.92 4.46 11.8 6.14 15.7"/><path fill="#ED694F" d="M280.805 375.2c1.43.98 1.82 2.94.95 4.44-7.05-.91-8.73-4.12-8.73-4.12.58-.98 1.73-2.14 2.86-2.2 1.38-.06 3.18.69 4.92 1.88"/><path fill="#000" d="m281.755 379.64-4.26 7.35c-5.61-.81-8.61-4.52-8.61-4.52l4.14-6.95s1.68 3.21 8.73 4.12"/><path fill="#21558A" d="m277.496 386.99-6.64 11.46-11.34-.24 9.37-15.74s3 3.71 8.61 4.52"/><path fill="#2E303D" d="m386.754 308.063-8.233 25.927-8.196 25.808-4.645 14.629c-.195.615.77.878.964.266l8.233-25.927 8.196-25.808 4.645-14.629c.196-.615-.77-.878-.964-.266M420.655 358.208a471 471 0 0 0-19.773 45.049c-.228.603.738.863.964.266a467 467 0 0 1 19.672-44.81c.289-.574-.574-1.081-.863-.505M338.709 293.286c-4.756 8.816-9.627 17.581-14.243 26.471-4.165 8.02-7.843 16.625-7.811 25.822.017 4.781 1.057 9.563 3.429 13.741.318.56 1.183.056.865-.505-4.317-7.602-3.927-16.864-1.44-24.994 1.342-4.385 3.26-8.564 5.346-12.64 2.179-4.257 4.497-8.444 6.767-12.653l7.951-14.738c.305-.565-.558-1.071-.864-.504M364.133 303.724l-16.209 36.664-3.949 8.932a193 193 0 0 1-2.553-36.891q.151-5.497.613-10.976c.054-.641-.947-.638-1 0a193.7 193.7 0 0 0 2.215 49.604.5.5 0 0 0 .057.253.39.39 0 0 0 .305.276c.201.079.43.04.544-.218l.011-.025a.5.5 0 0 0 .071-.16l16.127-36.479 4.631-10.475c.258-.583-.603-1.093-.863-.505M328.034 394.075l-21.266 2.085c-.635.062-.641 1.063 0 1l21.266-2.085c.635-.062.642-1.062 0-1M229.15 395.932a86 86 0 0 1-20.498 3.861c-.601.038-1.223.109-1.819-.014-.456-.095-.965-.312-.934-.862.039-.682.907-1.32 1.356-1.746a54.4 54.4 0 0 1 6.578-5.328 55.7 55.7 0 0 1 8.323-4.722c.584-.269.076-1.131-.505-.864a56 56 0 0 0-15.34 10.433c-.841.807-1.942 2.002-1.135 3.217.579.871 1.813.97 2.759.931 3.382-.14 6.774-.578 10.107-1.156a87 87 0 0 0 11.374-2.783c.611-.196.35-1.162-.266-.967M198.999 395.97a24 24 0 0 1-.048-13.54c.18-.619-.785-.884-.964-.266a25 25 0 0 0 .048 14.072c.183.616 1.148.354.964-.266M195.235 380.814c-.256-.153-.521-.034-.684.179a19.6 19.6 0 0 0-3.692 8.305c-.117.629.847.899.964.266a18.95 18.95 0 0 1 3.591-8.066c.166-.216.033-.557-.179-.684"/><path fill="#2E303D" d="M349.173 291.955c-2.888 2.86-5.6 5.893-8.121 9.082-.395.5.308 1.212.707.707a101 101 0 0 1 8.121-9.082c.458-.453-.249-1.16-.707-.707M365.856 306.109a40.5 40.5 0 0 0-8.61-15.425c-.43-.481-1.135.228-.707.707a39.35 39.35 0 0 1 8.353 14.984c.182.615 1.148.353.964-.266M351.559 307.42c-.027-.641-1.028-.645-1 0l.569 13.299c.027.641 1.028.645 1 0zM355.178 309.971c-.276-.569-1.022-.88-1.614-.648a1.5 1.5 0 0 0-.48.308c-.017.014-.039.02-.054.038-.029.033-.042.076-.068.111-.047.058-.107.105-.142.172-.019.036-.019.077-.035.114-.014.033-.02.067-.031.101-.04.123-.068.245-.072.374 0 .014-.008.027-.008.041 0 .036.017.068.019.104.007.082-.003.164.02.244.009.032.032.057.043.088.021.059.053.111.081.167.046.089.092.174.157.251.014.017.02.039.035.056.034.037.083.057.122.089.05.043.088.099.145.134.022.014.051.014.074.027.064.033.134.049.202.072.083.027.16.064.248.074a1.24 1.24 0 0 0 .904-.197c.264-.19.46-.45.548-.766a1.34 1.34 0 0 0-.094-.954"/><path fill="#8E8E8E" d="m100.131 398.487-2.97 24.48 51.15-3.15v10.2l-74.5 8.34-20.2-15.39 23.04-54.53 8.28-19.6 20.57 5.38-2.58 21.31zM127.461 213.457l34.57 180.14h-14.83l-34.75-180.14z"/><path fill="#B7B7B7" d="m148.312 419.817-51.15 3.15 2.97-24.48zM112.451 213.457l34.75 180.14-44.28-18.07 2.58-21.31-20.57-5.38-8.28 19.6-3.67-1.56-40.04-153.42z"/><path fill="#2E303D" d="M139.904 353.569a3827 3827 0 0 0-12.14-67.731 3842.524 3842.524 0 0 0-14.188-71.535c-.131-.63-1.095-.363-.964.266a3813.305 3813.305 0 0 1 19.665 101.236 3827 3827 0 0 1 11.58 67.655l.684 4.235c.102.634 1.066.365.964-.266a3834 3834 0 0 0-5.601-33.86M99.325 353.789a1479 1479 0 0 1-19.69 64.51 1505 1505 0 0 1-6.092 18.044c-.21.61.756.872.964.266q5.506-15.972 10.647-32.066a1475 1475 0 0 0 15.135-50.487c.174-.622-.79-.887-.964-.267"/></g><defs><clipPath id="a"><path fill="#fff" d="M0 0h500v500H0z"/></clipPath></defs></svg>