<svg xmlns="http://www.w3.org/2000/svg" width="36" height="36" fill="none"><path fill="#000" d="M30.875 12.35H7.125c-.633 0-1.108-.634-1.108-1.267s.475-1.267 1.266-1.267h23.75c.634 0 1.267.475 1.267 1.267s-.792 1.267-1.425 1.267M22.958 20.267H7.125c-.633 0-1.267-.475-1.267-1.267s.475-1.267 1.267-1.267h15.833c.634 0 1.267.475 1.267 1.267s-.633 1.267-1.267 1.267M13.458 28.184H7.125c-.633 0-1.267-.475-1.267-1.267s.475-1.267 1.267-1.267h6.333c.634 0 1.267.475 1.267 1.267s-.633 1.267-1.267 1.267"/></svg>