<svg xmlns="http://www.w3.org/2000/svg" width="500" height="500" fill="none"><path fill="#21558A" d="M66.14 205.47s-16 68.58 28.65 128.33 122.64 83 185.27 103.45 121.31-3.16 143.32-55.8-22.45-81-32.25-149.75-2-88.56-47.7-140.91-139.55-51.1-203 2.65-74.29 112.03-74.29 112.03"/><path fill="#fff" d="M66.14 205.47s-16 68.58 28.65 128.33 122.64 83 185.27 103.45 121.31-3.16 143.32-55.8-22.45-81-32.25-149.75-2-88.56-47.7-140.91-139.55-51.1-203 2.65-74.29 112.03-74.29 112.03" opacity=".7"/><path fill="#263238" d="M239.5 447c99.687 0 180.5-8.283 180.5-18.5S339.187 410 239.5 410 59 418.283 59 428.5 139.813 447 239.5 447"/><path fill="#21558A" d="M384 257.87c-.06 0 .65-3.52.72-3.73.82-2.51 3.87-6.89 6.82-6.88a3.49 3.49 0 0 1 3.36 4c-.21 2.08-2.08 3.85-3.76 4.87-1.97 1.17-7.14 1.74-7.14 1.74"/><path fill="#21558A" d="M378.29 234.2c2.78 1 4.16 6.14 4.07 8.78 0 .23-.53 3.78-.58 3.75.22.81.45 1.68.69 2.64.41 1.77.87 3.78 1.22 6 .398 2.387.658 4.794.78 7.21a45.5 45.5 0 0 1-.27 8.1.4.4 0 0 1 0 .1c.37-.79 1.46-2.95 1.56-3.11 1.45-2.2 5.54-5.62 8.39-4.83a3.5 3.5 0 0 1 2.146 1.872 3.5 3.5 0 0 1 .044 2.848c-.75 1.94-3 3.16-4.91 3.7-2.14.61-6.9-.11-7.28-.17a63 63 0 0 1-1.76 8.07 104 104 0 0 1-1.43 4.63c.33-.67.64-1.26.69-1.34 1.45-2.21 5.54-5.62 8.39-4.84a3.5 3.5 0 0 1 2.2 4.72c-.76 1.95-3 3.16-4.92 3.7s-6 0-7.07-.14c-.21.59-.4 1.18-.6 1.77-1 2.82-2 5.64-2.85 8.42-.31 1-.58 2-.86 2.94.3-.59.56-1.09.61-1.16 1.45-2.2 5.54-5.62 8.39-4.83a3.49 3.49 0 0 1 2.151 1.87 3.5 3.5 0 0 1 .039 2.85c-.75 1.94-3 3.16-4.91 3.7s-5.6.06-6.89-.12c-.25 1-.5 2-.7 3-.12.68-.28 1.32-.36 2s-.19 1.36-.28 2c-.14 1.3-.28 2.63-.38 3.89-.08.88-.13 1.72-.19 2.56.3-1 .92-2.89 1-3a13.57 13.57 0 0 1 4.53-5.15q.155-.36.38-.68a3.5 3.5 0 0 1 2.392-1.544 3.5 3.5 0 0 1 2.748.744c2.24 1.93 1.68 7.23.65 9.66-.06.15-.89 1.63-1.43 2.55.4-.49.78-1 1.2-1.48.82-1 1.67-2 2.58-3.05l1.38-1.5c.45-.51 1-1 1.49-1.49a75 75 0 0 1 3.73-3.33c-.88-.72-4-3.32-4.85-5.09s-1.52-4.25-.6-6.12a3.5 3.5 0 0 1 5-1.58c2.5 1.57 2.75 6.9 2.1 9.46 0 .15-.71 1.94-1.1 2.91.78-.64 1.55-1.29 2.36-1.92 2.34-1.8 4.76-3.56 7.17-5.32.74-.54 1.46-1.08 2.19-1.63-.31-.25-4-3.27-5-5.25-.88-1.76-1.51-4.25-.59-6.12a3.49 3.49 0 0 1 5-1.57c2.5 1.57 2.76 6.89 2.11 9.45-.05.19-1 2.75-1.3 3.39 1.61-1.19 3.2-2.4 4.72-3.66a60 60 0 0 0 5.85-5.44c-.15-.12-4.06-3.25-5.07-5.28-.89-1.76-1.52-4.25-.6-6.12a3.492 3.492 0 0 1 5-1.58c2.51 1.57 2.76 6.9 2.11 9.46 0 .16-.78 2.12-1.15 3l.14.09a46 46 0 0 0 4.8-6.44c.79-1.25 1.47-2.49 2.11-3.71-.79-.51-4.36-2.87-5.48-4.6s-2-4.06-1.26-6a3.5 3.5 0 0 1 1.91-2.116 3.5 3.5 0 0 1 2.85.006c2.66 1.29 3.49 6.55 3.13 9.17 0 .14-.38 1.56-.66 2.59.28-.55.58-1.12.83-1.65 1-2 1.74-3.92 2.41-5.61.37-1 .68-1.84 1-2.67-.51-.9-2.53-4.56-2.73-6.57s.12-4.52 1.66-5.93a3.5 3.5 0 0 1 5.19.32c1.77 2.37.08 7.43-1.44 9.58-.13.19-2.53 2.86-2.56 2.81-.26.8-.55 1.65-.88 2.58-.63 1.71-1.36 3.63-2.29 5.67a62 62 0 0 1-3.32 6.44 45.4 45.4 0 0 1-4.7 6.61.2.2 0 0 1-.07.07c.74-.45 2.84-1.65 3-1.73 2.42-1 7.72-1.62 9.66.6a3.5 3.5 0 0 1 .763 2.747 3.5 3.5 0 0 1-1.533 2.403c-1.71 1.2-4.27 1-6.14.37-2.12-.67-5.7-3.9-6-4.16a62 62 0 0 1-5.92 5.77c-1.22 1-2.48 2.06-3.75 3.07.65-.37 1.23-.7 1.32-.74 2.42-1 7.72-1.63 9.66.6a3.49 3.49 0 0 1-.77 5.14c-1.7 1.21-4.26 1-6.14.38s-5-3.3-5.83-4l-1.47 1.14c-2.37 1.82-4.75 3.62-7 5.46-.8.65-1.57 1.31-2.34 2l1.15-.64c2.42-1 7.72-1.63 9.66.6a3.5 3.5 0 0 1 .758 2.746 3.5 3.5 0 0 1-1.528 2.404c-1.7 1.2-4.26 1-6.14.37s-4.71-3-5.68-3.89c-.77.7-1.54 1.41-2.25 2.13-.47.5-1 .95-1.41 1.47l-1.35 1.53c-.83 1-1.68 2-2.46 3-.55.69-1.06 1.36-1.57 2 .79-.65 2.36-1.9 2.51-2 2.23-1.4 7.38-2.78 9.64-.87a3.493 3.493 0 0 1 0 5.2c-1.5 1.45-4.06 1.6-6 1.3-2.14-.34-6-2.86-6.51-3.18-.84 1.11-1.66 2.2-2.41 3.25-2.61 3.61-4.65 6.71-6 8.9-.05.08-.1.15-.14.23l-1.81-.88.28-.43c1.46-2.19 3.59-5.28 6.3-8.86.86-1.14 1.8-2.34 2.77-3.56a37 37 0 0 1-2.81-3.47c-2.07.81-6.39.85-6.95.85-.09 1.39-.17 2.75-.22 4-.19 4.45-.17 8.17-.13 10.76v.3l-2-1c0-2.58.1-6.07.36-10.19.09-1.42.21-2.94.35-4.49-.55-.14-5.05-1.29-6.75-2.65-1.54-1.23-3.16-3.22-3.1-5.31a3.5 3.5 0 0 1 .293-1.428 3.49 3.49 0 0 1 2.107-1.922 3.5 3.5 0 0 1 1.45-.16c2.93.38 5.39 5.11 5.87 7.7 0 .16.15 1.85.21 2.92.06-.63.11-1.25.18-1.9.13-1.29.3-2.58.47-4l.33-2c.1-.67.28-1.37.42-2.07.36-1.6.8-3.21 1.27-4.82-1.13-.12-5.14-.59-6.85-1.58s-3.61-2.71-3.87-4.78a3.5 3.5 0 0 1 1.863-3.672 3.5 3.5 0 0 1 1.407-.378c2.95-.07 6.1 4.23 7 6.73.05.15.47 2 .69 3 .29-1 .58-1.93.91-2.9.95-2.79 2-5.59 3-8.39.32-.86.62-1.71.93-2.57-.4 0-5.18-.49-7.1-1.6-1.71-1-3.61-2.71-3.87-4.78a3.49 3.49 0 0 1 3.27-4.05c2.95-.07 6.1 4.23 7 6.72.06.19.67 2.87.79 3.55.68-1.88 1.34-3.77 1.92-5.66a63 63 0 0 0 1.88-7.76c-.19 0-5.18-.48-7.15-1.61-1.71-1-3.61-2.71-3.87-4.78a3.5 3.5 0 0 1 1.863-3.672 3.5 3.5 0 0 1 1.407-.378c2.95-.07 6.1 4.23 7 6.73.06.16.52 2.2.72 3.17h.17c.384-2.648.531-5.325.44-8 0-1.48-.14-2.89-.28-4.26-.94 0-5.22 0-7.11-.81s-3.89-2.3-4.37-4.33a3.48 3.48 0 0 1 .422-2.815 3.486 3.486 0 0 1 2.378-1.565c2.93-.39 6.53 3.54 7.67 5.92.06.13.55 1.51.88 2.53-.07-.62-.13-1.26-.21-1.85-.3-2.21-.71-4.22-1.09-6-.22-1-.45-1.92-.66-2.76-.93-.47-4.63-2.41-5.9-4s-2.4-3.83-1.89-5.86a3.49 3.49 0 0 1 4.17-2.47"/><path fill="#21558A" d="M431.71 279.75c-2.32-.1-6.93-2.47-6.93-2.47s2.48-2.56 2.66-2.71c2.06-1.64 7-3.61 9.48-2a3.5 3.5 0 0 1 .61 5.17c-1.32 1.64-3.85 2.09-5.82 2.01"/><g fill="#fff" opacity=".5"><path d="M384 257.87c-.06 0 .65-3.52.72-3.73.82-2.51 3.87-6.89 6.82-6.88a3.49 3.49 0 0 1 3.36 4c-.21 2.08-2.08 3.85-3.76 4.87-1.97 1.17-7.14 1.74-7.14 1.74"/><path d="M378.29 234.2c2.78 1 4.16 6.14 4.07 8.78 0 .23-.53 3.78-.58 3.75.22.81.45 1.68.69 2.64.41 1.77.87 3.78 1.22 6 .398 2.387.658 4.794.78 7.21a45.5 45.5 0 0 1-.27 8.1.4.4 0 0 1 0 .1c.37-.79 1.46-2.95 1.56-3.11 1.45-2.2 5.54-5.62 8.39-4.83a3.5 3.5 0 0 1 2.146 1.872 3.5 3.5 0 0 1 .044 2.848c-.75 1.94-3 3.16-4.91 3.7-2.14.61-6.9-.11-7.28-.17a63 63 0 0 1-1.76 8.07 104 104 0 0 1-1.43 4.63c.33-.67.64-1.26.69-1.34 1.45-2.21 5.54-5.62 8.39-4.84a3.5 3.5 0 0 1 2.2 4.72c-.76 1.95-3 3.16-4.92 3.7s-6 0-7.07-.14c-.21.59-.4 1.18-.6 1.77-1 2.82-2 5.64-2.85 8.42-.31 1-.58 2-.86 2.94.3-.59.56-1.09.61-1.16 1.45-2.2 5.54-5.62 8.39-4.83a3.49 3.49 0 0 1 2.151 1.87 3.5 3.5 0 0 1 .039 2.85c-.75 1.94-3 3.16-4.91 3.7s-5.6.06-6.89-.12c-.25 1-.5 2-.7 3-.12.68-.28 1.32-.36 2s-.19 1.36-.28 2c-.14 1.3-.28 2.63-.38 3.89-.08.88-.13 1.72-.19 2.56.3-1 .92-2.89 1-3a13.57 13.57 0 0 1 4.53-5.15q.155-.36.38-.68a3.5 3.5 0 0 1 2.392-1.544 3.5 3.5 0 0 1 2.748.744c2.24 1.93 1.68 7.23.65 9.66-.06.15-.89 1.63-1.43 2.55.4-.49.78-1 1.2-1.48.82-1 1.67-2 2.58-3.05l1.38-1.5c.45-.51 1-1 1.49-1.49a75 75 0 0 1 3.73-3.33c-.88-.72-4-3.32-4.85-5.09s-1.52-4.25-.6-6.12a3.5 3.5 0 0 1 5-1.58c2.5 1.57 2.75 6.9 2.1 9.46 0 .15-.71 1.94-1.1 2.91.78-.64 1.55-1.29 2.36-1.92 2.34-1.8 4.76-3.56 7.17-5.32.74-.54 1.46-1.08 2.19-1.63-.31-.25-4-3.27-5-5.25-.88-1.76-1.51-4.25-.59-6.12a3.49 3.49 0 0 1 5-1.57c2.5 1.57 2.76 6.89 2.11 9.45-.05.19-1 2.75-1.3 3.39 1.61-1.19 3.2-2.4 4.72-3.66a60 60 0 0 0 5.85-5.44c-.15-.12-4.06-3.25-5.07-5.28-.89-1.76-1.52-4.25-.6-6.12a3.492 3.492 0 0 1 5-1.58c2.51 1.57 2.76 6.9 2.11 9.46 0 .16-.78 2.12-1.15 3l.14.09a46 46 0 0 0 4.8-6.44c.79-1.25 1.47-2.49 2.11-3.71-.79-.51-4.36-2.87-5.48-4.6s-2-4.06-1.26-6a3.5 3.5 0 0 1 1.91-2.116 3.5 3.5 0 0 1 2.85.006c2.66 1.29 3.49 6.55 3.13 9.17 0 .14-.38 1.56-.66 2.59.28-.55.58-1.12.83-1.65 1-2 1.74-3.92 2.41-5.61.37-1 .68-1.84 1-2.67-.51-.9-2.53-4.56-2.73-6.57s.12-4.52 1.66-5.93a3.5 3.5 0 0 1 5.19.32c1.77 2.37.08 7.43-1.44 9.58-.13.19-2.53 2.86-2.56 2.81-.26.8-.55 1.65-.88 2.58-.63 1.71-1.36 3.63-2.29 5.67a62 62 0 0 1-3.32 6.44 45.4 45.4 0 0 1-4.7 6.61.2.2 0 0 1-.07.07c.74-.45 2.84-1.65 3-1.73 2.42-1 7.72-1.62 9.66.6a3.5 3.5 0 0 1 .763 2.747 3.5 3.5 0 0 1-1.533 2.403c-1.71 1.2-4.27 1-6.14.37-2.12-.67-5.7-3.9-6-4.16a62 62 0 0 1-5.92 5.77c-1.22 1-2.48 2.06-3.75 3.07.65-.37 1.23-.7 1.32-.74 2.42-1 7.72-1.63 9.66.6a3.49 3.49 0 0 1-.77 5.14c-1.7 1.21-4.26 1-6.14.38s-5-3.3-5.83-4l-1.47 1.14c-2.37 1.82-4.75 3.62-7 5.46-.8.65-1.57 1.31-2.34 2l1.15-.64c2.42-1 7.72-1.63 9.66.6a3.5 3.5 0 0 1 .758 2.746 3.5 3.5 0 0 1-1.528 2.404c-1.7 1.2-4.26 1-6.14.37s-4.71-3-5.68-3.89c-.77.7-1.54 1.41-2.25 2.13-.47.5-1 .95-1.41 1.47l-1.35 1.53c-.83 1-1.68 2-2.46 3-.55.69-1.06 1.36-1.57 2 .79-.65 2.36-1.9 2.51-2 2.23-1.4 7.38-2.78 9.64-.87a3.493 3.493 0 0 1 0 5.2c-1.5 1.45-4.06 1.6-6 1.3-2.14-.34-6-2.86-6.51-3.18-.84 1.11-1.66 2.2-2.41 3.25-2.61 3.61-4.65 6.71-6 8.9-.05.08-.1.15-.14.23l-1.81-.88.28-.43c1.46-2.19 3.59-5.28 6.3-8.86.86-1.14 1.8-2.34 2.77-3.56a37 37 0 0 1-2.81-3.47c-2.07.81-6.39.85-6.95.85-.09 1.39-.17 2.75-.22 4-.19 4.45-.17 8.17-.13 10.76v.3l-2-1c0-2.58.1-6.07.36-10.19.09-1.42.21-2.94.35-4.49-.55-.14-5.05-1.29-6.75-2.65-1.54-1.23-3.16-3.22-3.1-5.31a3.5 3.5 0 0 1 .293-1.428 3.49 3.49 0 0 1 2.107-1.922 3.5 3.5 0 0 1 1.45-.16c2.93.38 5.39 5.11 5.87 7.7 0 .16.15 1.85.21 2.92.06-.63.11-1.25.18-1.9.13-1.29.3-2.58.47-4l.33-2c.1-.67.28-1.37.42-2.07.36-1.6.8-3.21 1.27-4.82-1.13-.12-5.14-.59-6.85-1.58s-3.61-2.71-3.87-4.78a3.5 3.5 0 0 1 1.863-3.672 3.5 3.5 0 0 1 1.407-.378c2.95-.07 6.1 4.23 7 6.73.05.15.47 2 .69 3 .29-1 .58-1.93.91-2.9.95-2.79 2-5.59 3-8.39.32-.86.62-1.71.93-2.57-.4 0-5.18-.49-7.1-1.6-1.71-1-3.61-2.71-3.87-4.78a3.49 3.49 0 0 1 3.27-4.05c2.95-.07 6.1 4.23 7 6.72.06.19.67 2.87.79 3.55.68-1.88 1.34-3.77 1.92-5.66a63 63 0 0 0 1.88-7.76c-.19 0-5.18-.48-7.15-1.61-1.71-1-3.61-2.71-3.87-4.78a3.5 3.5 0 0 1 1.863-3.672 3.5 3.5 0 0 1 1.407-.378c2.95-.07 6.1 4.23 7 6.73.06.16.52 2.2.72 3.17h.17c.384-2.648.531-5.325.44-8 0-1.48-.14-2.89-.28-4.26-.94 0-5.22 0-7.11-.81s-3.89-2.3-4.37-4.33a3.48 3.48 0 0 1 .422-2.815 3.486 3.486 0 0 1 2.378-1.565c2.93-.39 6.53 3.54 7.67 5.92.06.13.55 1.51.88 2.53-.07-.62-.13-1.26-.21-1.85-.3-2.21-.71-4.22-1.09-6-.22-1-.45-1.92-.66-2.76-.93-.47-4.63-2.41-5.9-4s-2.4-3.83-1.89-5.86a3.49 3.49 0 0 1 4.17-2.47"/><path d="M431.71 279.75c-2.32-.1-6.93-2.47-6.93-2.47s2.48-2.56 2.66-2.71c2.06-1.64 7-3.61 9.48-2a3.5 3.5 0 0 1 .61 5.17c-1.32 1.64-3.85 2.09-5.82 2.01"/></g><path fill="#21558A" d="M404.74 337.57s-14-33.78-21.85-32.31 13.45 53.85 13.45 53.85-24.66-46.51-41.47-46.51 6.13 51.4 27.46 68.54c0 0-33.62-36.23-53.24-28.39s39.23 44.54 39.23 44.54-34.18-10.77-30.26-2.44 14.57 9.79 14.57 9.79l-38.67 2h134.49l-30.26-2.94s31.38-15.67 23-22-26.9 7.34-26.9 7.34 31.94-35.24 25.78-48.46-33.63 24-33.63 24 22.42-47.48 17.94-55.8-19.64 28.79-19.64 28.79"/><path fill="#fff" d="M404.74 337.57s-14-33.78-21.85-32.31 13.45 53.85 13.45 53.85-24.66-46.51-41.47-46.51 6.13 51.4 27.46 68.54c0 0-33.62-36.23-53.24-28.39s39.23 44.54 39.23 44.54-34.18-10.77-30.26-2.44 14.57 9.79 14.57 9.79l-38.67 2h134.49l-30.26-2.94s31.38-15.67 23-22-26.9 7.34-26.9 7.34 31.94-35.24 25.78-48.46-33.63 24-33.63 24 22.42-47.48 17.94-55.8-19.64 28.79-19.64 28.79" opacity=".4"/><path stroke="#263238" stroke-linecap="round" stroke-linejoin="round" d="M409.23 339.35c-12.33 36.42-12.33 62.2-12.33 62.2s14.57.56 29.7-10.65"/><path stroke="#263238" stroke-linecap="round" stroke-linejoin="round" d="M403.06 359A218.4 218.4 0 0 0 393 327"/><path stroke="#263238" stroke-linecap="round" stroke-linejoin="round" d="M366.64 337.67 398 384.18s21.29-17.93 28.58-28M397.46 395.39S364.4 379.7 351 370.73"/><path fill="#fff" stroke="#263238" stroke-linecap="round" stroke-linejoin="round" d="m385.12 233.83-7.29 20-4.92.73 3.46 13.49s5.29-6.57 6.93-8.94 17.7-28.02 17.7-28.02zM327.89 409.72s-12.21 10.94-13.31 14.77 8.93 1.45 13.86-1.83a64.5 64.5 0 0 0 7.29-5.47l.54 1.46s2.92-.36 3.47-2.18-1.1-6.2-1.1-6.2zM361.06 406.62s12.43 13.31 13.52 17.14-8.93 1.45-13.85-1.83a65 65 0 0 1-7.29-5.46l-.55 1.45s-2.92-.36-3.46-2.18 1.09-6.2 1.09-6.2z"/><path fill="#21558A" d="M321.14 244.22s-3.46 23-4 34.63 2.92 58.33 2.92 71.63 10 55 10 55l-2.74 2.19-.18 2.91 8 2.55c4 1.28 4.74 1.1 4.74 1.1s-.91-8.57-.91-27.71 3.1-54.13 3.28-69.63 5.83-30.25 5.83-30.25l2.37-2s9.55 49.62 9.55 53.45-8.93 64-9.48 65.43-1.28 2.19-1.28 4.2v5.65l13.49-5.29a17.4 17.4 0 0 0-.54-4.56 9.3 9.3 0 0 1-.55-3.46c0-.55 19.5-51.76 19.5-57.6a88.6 88.6 0 0 0-1.14-12.39l-2.19-52.13s2.55-5.47 1.46-10.21-7.11-18.77-8.2-19.68-38.81 6.01-49.93-3.83"/><mask id="a" width="65" height="171" x="317" y="244" maskUnits="userSpaceOnUse" style="mask-type:luminance"><path fill="#fff" d="M321.14 244.22s-3.46 23-4 34.63 2.92 58.33 2.92 71.63 10 55 10 55l-2.74 2.19-.18 2.91 8 2.55c4 1.28 4.74 1.1 4.74 1.1s-.91-8.57-.91-27.71 3.1-54.13 3.28-69.63 5.83-30.25 5.83-30.25l2.37-2s9.55 49.62 9.55 53.45-8.93 64-9.48 65.43-1.28 2.19-1.28 4.2v5.65l13.49-5.29a17.4 17.4 0 0 0-.54-4.56 9.3 9.3 0 0 1-.55-3.46c0-.55 19.5-51.76 19.5-57.6a88.6 88.6 0 0 0-1.14-12.39l-2.19-52.13s2.55-5.47 1.46-10.21-7.11-18.77-8.2-19.68-38.81 6.01-49.93-3.83"/></mask><g fill="#000" mask="url(#a)" opacity=".2"><path d="M365.76 336.4c0-5.5 3.47-62.38 3.47-62.38l-18.74 10.66c1.31 6.88 9.48 49.89 9.48 53.41 0 3.83-8.93 64-9.48 65.43s-1.28 2.19-1.28 4.2v5.65l13.49-5.29c.022-1.537-.16-3.07-.54-4.56a9.3 9.3 0 0 1-.55-3.46c0-.44 12.62-33.66 17.55-49.68-15.36 3.35-13.4-8.6-13.4-13.98M342.33 354.67l-1.54-7.76c.07-1.17.15-2.33.22-3.48l-.67 1.22-16.67-84 26.82-4.42c-10.51.25-29.35-12-29.35-12l-4.14 29.1 1.33 56.67 1.75 21.86c.06 1.26.17 2.71.35 4.29l.57 7.18c.12.732.371 1.437.74 2.08 2.85 17.28 8.34 40.12 8.34 40.12l-2.74 2.19-.18 2.91 8 2.55c4 1.28 4.74 1.1 4.74 1.1s-.91-8.57-.91-27.71c0-7.18.43-16.61 1-26.39a40.5 40.5 0 0 0 2.34-5.51"/></g><path stroke="#263238" stroke-linecap="round" stroke-linejoin="round" d="M321.14 244.22s-3.46 23-4 34.63 2.92 58.33 2.92 71.63 10 55 10 55l-2.74 2.19-.18 2.91 8 2.55c4 1.28 4.74 1.1 4.74 1.1s-.91-8.57-.91-27.71 3.1-54.13 3.28-69.63 5.83-30.25 5.83-30.25l2.37-2s9.55 49.62 9.55 53.45-8.93 64-9.48 65.43-1.28 2.19-1.28 4.2v5.65l13.49-5.29a17.4 17.4 0 0 0-.54-4.56 9.3 9.3 0 0 1-.55-3.46c0-.55 19.5-51.76 19.5-57.6a88.6 88.6 0 0 0-1.14-12.39l-2.19-52.13s2.55-5.47 1.46-10.21-7.11-18.77-8.2-19.68-38.81 6.01-49.93-3.83M350.49 284.68l17.86-10.75M355.78 283.41l9.29-3.65M347.94 255.7l.18 19.14"/><path stroke="#263238" stroke-linecap="round" stroke-linejoin="round" d="m350.49 256.25.91 15.86-2 2.18M362.89 254.79l1.45 13.85M365.07 253.33l3.47 7.29M332.99 254.79l-6.38 21.69M333.54 256.07v16.04"/><path fill="#fff" d="M266.83 141.05s-7.66-9.48-7.66-11.3 57.6-25.7 58.51-25.7 16.41 10.75 16.59 11.67 1.09 5.83 1.09 6.56-2.73 2.18-2.73 2.18-3.47 3.29-4.38 3.29h-.91a14.8 14.8 0 0 1-3.64 1.09 3.1 3.1 0 0 1-2-1.09s-5.1 1.27-4.74.36 6.2-4.56 6.2-4.56-6.74-4.19-8-6.92a37.6 37.6 0 0 1-2-5.47L277.58 137z"/><mask id="b" width="77" height="38" x="259" y="104" maskUnits="userSpaceOnUse" style="mask-type:luminance"><path fill="#fff" d="M266.83 141.05s-7.66-9.48-7.66-11.3 57.6-25.7 58.51-25.7 16.41 10.75 16.59 11.67 1.09 5.83 1.09 6.56-2.73 2.18-2.73 2.18-3.47 3.29-4.38 3.29h-.91a14.8 14.8 0 0 1-3.64 1.09 3.1 3.1 0 0 1-2-1.09s-5.1 1.27-4.74.36 6.2-4.56 6.2-4.56-6.74-4.19-8-6.92a37.6 37.6 0 0 1-2-5.47L277.58 137z"/></mask><g mask="url(#b)"><path fill="#000" d="M312.31 106.12c-14.46 5.83-53.14 22.14-53.14 23.63 0 1.82 7.66 11.3 7.66 11.3l10.75-4 35.49-25.84z" opacity=".2"/></g><path stroke="#263238" stroke-linecap="round" stroke-linejoin="round" d="M266.83 141.05s-7.66-9.48-7.66-11.3 57.6-25.7 58.51-25.7 16.41 10.75 16.59 11.67 1.09 5.83 1.09 6.56-2.73 2.18-2.73 2.18-3.47 3.29-4.38 3.29h-.91a14.8 14.8 0 0 1-3.64 1.09 3.1 3.1 0 0 1-2-1.09s-5.1 1.27-4.74.36 6.2-4.56 6.2-4.56-6.74-4.19-8-6.92a37.6 37.6 0 0 1-2-5.47L277.58 137z"/><path stroke="#263238" stroke-linecap="round" stroke-linejoin="round" d="M321.69 127.75s3.85-.81 4.22-1.63 1.12-3.22.53-4.72M327.34 127.75s2-1.11 2.24-2.83a30.4 30.4 0 0 0-.52-5.91M332.63 124.46a5.84 5.84 0 0 0 .24-3.66c-.52-2-.9-4.11-.9-4.11"/><path fill="#fff" d="M337.55 160.55S331.9 157.82 325 154s-10.39-3.1-13.12-3.1-26.8-12.39-26.8-12.39l-10.78 10.93s42.83 31.35 43.56 33.72 2.37 52.13 1.64 56-2 5.47-1.27 6.93 10 9.66 26.25 9.48 27.7-4.74 28.79-6.93 1.1-3.1.37-4.74-1.46-3.64-1.46-3.64l5.82-39.42 5.84 29.89s2.91 1.64 9.11.55 8.93-2.74 8.93-2.74-9.84-45.2-11.85-50.85-3.28-5.11-9.66-7.47-23.15-7.66-23.15-7.66z"/><mask id="c" width="128" height="118" x="274" y="138" maskUnits="userSpaceOnUse" style="mask-type:luminance"><path fill="#fff" d="M337.55 160.55S331.9 157.82 325 154s-10.39-3.1-13.12-3.1-26.8-12.39-26.8-12.39l-10.78 10.93s42.83 31.35 43.56 33.72 2.37 52.13 1.64 56-2 5.47-1.27 6.93 10 9.66 26.25 9.48 27.7-4.74 28.79-6.93 1.1-3.1.37-4.74-1.46-3.64-1.46-3.64l5.82-39.42 5.84 29.89s2.91 1.64 9.11.55 8.93-2.74 8.93-2.74-9.84-45.2-11.85-50.85-3.28-5.11-9.66-7.47-23.15-7.66-23.15-7.66z"/></mask><g fill="#000" mask="url(#c)"><path d="M362.2 252.59c-6.62 0-18.62-.83-23.17-4.14s-10.76-27.31-10.76-27.31l12 16.55-20.5-86a20.9 20.9 0 0 0-7.92-.81c-2.74 0-26.8-12.39-26.8-12.39l-10.75 10.95s42.83 31.35 43.56 33.72 2.37 52.13 1.64 56-2 5.47-1.27 6.93 10 9.66 26.25 9.48a77.2 77.2 0 0 0 20.92-3c-1.02.01-2.09.02-3.2.02M378.25 202.58l3.2-9.94.71 4.97 6.74-4.26-5.05 37.38z" opacity=".2"/></g><path stroke="#263238" stroke-linecap="round" stroke-linejoin="round" d="M337.55 160.55S331.9 157.82 325 154s-10.39-3.1-13.12-3.1-26.8-12.39-26.8-12.39l-10.78 10.93s42.83 31.35 43.56 33.72 2.37 52.13 1.64 56-2 5.47-1.27 6.93 10 9.66 26.25 9.48 27.7-4.74 28.79-6.93 1.1-3.1.37-4.74-1.46-3.64-1.46-3.64l5.82-39.42 5.84 29.89s2.91 1.64 9.11.55 8.93-2.74 8.93-2.74-9.84-45.2-11.85-50.85-3.28-5.11-9.66-7.47-23.15-7.66-23.15-7.66z"/><path stroke="#263238" stroke-linecap="round" stroke-linejoin="round" d="m383.82 189.39-5.81 11.45 11.18-11.18M317.86 183.16l-5.65-22.24M317.86 182.43l-11.66-29.35M318.56 181.92s9.88 43.49 17 52.61M321.75 202.9s5.32 34.22 10.19 41.06"/><path fill="#263238" stroke="#263238" stroke-linecap="round" stroke-linejoin="round" d="m335.73 171.31 6.92 17.13-3.82 51.95 7.47 18.05 7.84-20.44-8.21-50.12 12.58-16-1.28-.92s-3.82 2.92-7.47 6.38-6.92 3.83-8.75 1.28-3.46-9.66-3.46-9.66z"/><path fill="#fff" stroke="#263238" stroke-linecap="round" stroke-linejoin="round" d="M344.48 152.17s-6.2.73-8 4-4.93 4.19-5.47 10.39-1.28 9.48-.55 9.48 8.57-5.47 8.57-5.47 2.73 7.84 3.83 8.38 2.91-.54 4.55-1.82 5.47-5.83 7.29-4.92 5.65 10.39 7.11 8 6-13.85 2.37-22.24-19.7-5.8-19.7-5.8"/><path fill="#fff" stroke="#263238" stroke-linecap="round" stroke-linejoin="round" d="M340.83 150.89s1.09 17.87 1.28 23.15 1.64 6.56 2.91 5.47 12.4-11.3 13.49-17.31 1.64-9.48 1.64-9.48zM338.46 134.13s-1.82-5.84-4-4.93-2.92 7.48-1.46 10.39 5.47 3.1 6 1.83-.54-7.29-.54-7.29"/><path fill="#21558A" stroke="#263238" stroke-linecap="round" stroke-linejoin="round" d="m369.45 131.21 9.29-7.66 3.47-.73-1.83 3.29-10.2 7.65s-1.28-.18-.73-2.55"/><path fill="#fff" stroke="#263238" stroke-linecap="round" stroke-linejoin="round" d="m378.74 123.55-.38.32 1.85 2.36.17-.12 1.83-3.29zM369.45 132.85s3.64-3.65 4.92-.73.18 6.56-2.55 9.11-4.38 2-4.38.19 2.01-8.57 2.01-8.57"/><path fill="#fff" stroke="#263238" stroke-linecap="round" stroke-linejoin="round" d="M344.29 108.43s-6.92 1.27-7.47 4.92 1.28 31.35 2.19 35.72 8.75 13.13 14.94 12.76 10.76-7.65 12.4-11.85 6.56-28.8 6.56-34.45-10.21-12.21-18-12.21-10.62 5.11-10.62 5.11"/><path stroke="#263238" stroke-linecap="round" stroke-linejoin="round" d="M354.12 134.76s2.92 6.93 1.82 8.39-7.11 2.18-7.11-1.1M346.83 146.25s3.83 4.55 11.48.18M352.12 133.85a6.38 6.38 0 0 0-3.938-5.894 6.375 6.375 0 0 0-6.953 1.383 6.37 6.37 0 0 0-1.383 6.952 6.38 6.38 0 0 0 5.894 3.939 6.38 6.38 0 0 0 4.511-1.869 6.38 6.38 0 0 0 1.869-4.511"/><path fill="#fff" stroke="#263238" stroke-linecap="round" stroke-linejoin="round" d="M368.52 135a6.385 6.385 0 0 0-3.932-5.901 6.375 6.375 0 0 0-6.956 1.376 6.38 6.38 0 0 0-1.387 6.954 6.37 6.37 0 0 0 5.895 3.941 6.38 6.38 0 0 0 6.38-6.37"/><path stroke="#263238" stroke-linecap="round" stroke-linejoin="round" d="M352.12 133.85s2.18-.73 3.64.37"/><path fill="#263238" stroke="#263238" stroke-linecap="round" stroke-linejoin="round" d="M354.87 103.32c-7.84 0-10.58 5.11-10.58 5.11s-6.92 1.27-7.47 4.92c-.28 1.87.06 10.1.59 18.25.2.14 1.23.76 1.23-.39s-.73-3.1.19-4.19 3.64-1.64 5.46-4.56 1.28-4.74 1.83-5.29 6.38-4.37 5.1-1.64-9.48 7.48-4.74 10 14.76 2.37 18.23-.18 6-8.21 5.47-5.65-2.19 6.74-1.64 8c.46 1.668.765 3.376.91 5.1 0 0-1.64 5.83-1.1 6.2.233.08.487.08.72 0 1.87-8.78 3.84-20 3.84-23.53 0-5.59-10.21-12.15-18.04-12.15"/><path fill="#fff" stroke="#263238" stroke-linecap="round" stroke-linejoin="round" d="m380.75 227.81.36 6.2s1.28 1.82 9.85 1.46 13.3-3.28 13.3-3.28l-1.82-8.2s-11.85 4.37-21.69 3.82M283.78 133.4l-21.51 8.2s9.3 10.93 9.84 10.75 16-12.21 15.86-13.49-4.19-5.46-4.19-5.46"/><path fill="#fff" d="M280.33 94H106.45a19.35 19.35 0 0 0-14.3 6.3 19.36 19.36 0 0 0-6.12 15l3.66 80v214.53a17.62 17.62 0 0 0 17.62 17.62h170.13a19.493 19.493 0 0 0 18.63-18.63V194.34l3.67-80a19.43 19.43 0 0 0-11.764-18.773A19.4 19.4 0 0 0 280.33 94"/><mask id="d" width="214" height="334" x="86" y="94" maskUnits="userSpaceOnUse" style="mask-type:luminance"><path fill="#fff" d="M280.33 94H106.45a19.35 19.35 0 0 0-14.3 6.3 19.36 19.36 0 0 0-6.12 15l3.66 80v214.53a17.62 17.62 0 0 0 17.62 17.62h170.13a19.493 19.493 0 0 0 18.63-18.63V194.34l3.67-80a19.43 19.43 0 0 0-11.764-18.773A19.4 19.4 0 0 0 280.33 94"/></mask><g mask="url(#d)"><path fill="#000" d="M289.92 96.53a19.4 19.4 0 0 1 3.82 12.47l-3.67 80v214.49a19.493 19.493 0 0 1-18.63 18.63H101.31c-2.923-.002-5.8-.73-8.37-2.12a17.57 17.57 0 0 0 14.37 7.44h170.13a19.493 19.493 0 0 0 18.63-18.63V194.34l3.67-80a19.45 19.45 0 0 0-9.82-17.81" opacity=".2"/></g><path stroke="#263238" stroke-miterlimit="10" d="M280.33 94H106.45a19.35 19.35 0 0 0-14.3 6.3 19.36 19.36 0 0 0-6.12 15l3.66 80v214.53a17.62 17.62 0 0 0 17.62 17.62h170.13a19.493 19.493 0 0 0 18.63-18.63V194.34l3.67-80a19.43 19.43 0 0 0-11.764-18.773A19.4 19.4 0 0 0 280.33 94Z"/><path fill="#263238" stroke="#263238" stroke-miterlimit="10" d="m286.63 191.9 3.37-74.66a11.91 11.91 0 0 0-11.9-12.45H108.69a11.912 11.912 0 0 0-11.9 12.45l3.36 74.66z"/><path fill="#7D7D7D" d="M279.2 124.17H106.79v58.31H279.2z"/><path fill="#BFBFBF" d="M270.69 132.68H115.3v41.29h155.39z"/><path fill="#7D7D7D" stroke="#263238" stroke-miterlimit="10" d="M189.13 215.58h-77.05a4.97 4.97 0 0 0-4.97 4.97v15.59a4.97 4.97 0 0 0 4.97 4.97h77.05a4.97 4.97 0 0 0 4.97-4.97v-15.59a4.97 4.97 0 0 0-4.97-4.97Z"/><path stroke="#263238" stroke-miterlimit="10" d="M125.39 215.9v25.21M142.94 215.9v25.21M160.48 215.9v25.21M178.02 215.9v25.21"/><path fill="#D9D9D9" stroke="#263238" stroke-miterlimit="10" d="M242.55 229.61h-21.71a4.62 4.62 0 0 0-4.62 4.62v10.8a4.62 4.62 0 0 0 4.62 4.62h21.71a4.62 4.62 0 0 0 4.62-4.62v-10.8a4.62 4.62 0 0 0-4.62-4.62ZM133.96 257.27h-21.71a4.62 4.62 0 0 0-4.62 4.62v14.35a4.62 4.62 0 0 0 4.62 4.62h21.71a4.62 4.62 0 0 0 4.62-4.62v-14.35a4.62 4.62 0 0 0-4.62-4.62ZM170.24 257.27h-21.71a4.62 4.62 0 0 0-4.62 4.62v14.35a4.62 4.62 0 0 0 4.62 4.62h21.71a4.62 4.62 0 0 0 4.62-4.62v-14.35a4.62 4.62 0 0 0-4.62-4.62ZM184.81 257.27h21.7a4.63 4.63 0 0 1 4.63 4.63v14.34a4.631 4.631 0 0 1-4.62 4.63h-21.7a4.624 4.624 0 0 1-4.62-4.62v-14.36a4.62 4.62 0 0 1 4.61-4.62ZM242.8 257.27h-21.71a4.62 4.62 0 0 0-4.62 4.62v14.35a4.62 4.62 0 0 0 4.62 4.62h21.71a4.62 4.62 0 0 0 4.62-4.62v-14.35a4.62 4.62 0 0 0-4.62-4.62ZM279.08 257.27h-21.71a4.62 4.62 0 0 0-4.62 4.62v14.35a4.62 4.62 0 0 0 4.62 4.62h21.71a4.62 4.62 0 0 0 4.62-4.62v-14.35a4.62 4.62 0 0 0-4.62-4.62ZM133.96 288.98h-21.71a4.62 4.62 0 0 0-4.62 4.62v14.35a4.62 4.62 0 0 0 4.62 4.62h21.71a4.62 4.62 0 0 0 4.62-4.62V293.6a4.62 4.62 0 0 0-4.62-4.62Z"/><path fill="#999" stroke="#263238" stroke-miterlimit="10" d="M170.24 288.98h-21.71a4.62 4.62 0 0 0-4.62 4.62v14.35a4.62 4.62 0 0 0 4.62 4.62h21.71a4.62 4.62 0 0 0 4.62-4.62V293.6a4.62 4.62 0 0 0-4.62-4.62ZM184.81 289h21.7a4.63 4.63 0 0 1 4.63 4.63v14.34a4.631 4.631 0 0 1-4.62 4.63h-21.7a4.624 4.624 0 0 1-4.62-4.62V293.6a4.62 4.62 0 0 1 4.61-4.6ZM242.8 288.98h-21.71a4.62 4.62 0 0 0-4.62 4.62v14.35a4.62 4.62 0 0 0 4.62 4.62h21.71a4.62 4.62 0 0 0 4.62-4.62V293.6a4.62 4.62 0 0 0-4.62-4.62Z"/><path fill="#D9D9D9" stroke="#263238" stroke-miterlimit="10" d="M279.08 288.98h-21.71a4.62 4.62 0 0 0-4.62 4.62v14.35a4.62 4.62 0 0 0 4.62 4.62h21.71a4.62 4.62 0 0 0 4.62-4.62V293.6a4.62 4.62 0 0 0-4.62-4.62ZM133.96 320.69h-21.71a4.62 4.62 0 0 0-4.62 4.62v14.35a4.62 4.62 0 0 0 4.62 4.62h21.71a4.62 4.62 0 0 0 4.62-4.62v-14.35a4.62 4.62 0 0 0-4.62-4.62Z"/><path fill="#999" stroke="#263238" stroke-miterlimit="10" d="M170.24 320.69h-21.71a4.62 4.62 0 0 0-4.62 4.62v14.35a4.62 4.62 0 0 0 4.62 4.62h21.71a4.62 4.62 0 0 0 4.62-4.62v-14.35a4.62 4.62 0 0 0-4.62-4.62ZM184.81 320.69h21.7a4.63 4.63 0 0 1 4.63 4.63v14.34a4.631 4.631 0 0 1-4.62 4.63h-21.7a4.624 4.624 0 0 1-4.62-4.62v-14.35a4.625 4.625 0 0 1 2.843-4.275 4.6 4.6 0 0 1 1.767-.355ZM242.8 320.69h-21.71a4.62 4.62 0 0 0-4.62 4.62v14.35a4.62 4.62 0 0 0 4.62 4.62h21.71a4.62 4.62 0 0 0 4.62-4.62v-14.35a4.62 4.62 0 0 0-4.62-4.62Z"/><path fill="#D9D9D9" stroke="#263238" stroke-miterlimit="10" d="M279.08 320.69h-21.71a4.62 4.62 0 0 0-4.62 4.62v14.35a4.62 4.62 0 0 0 4.62 4.62h21.71a4.62 4.62 0 0 0 4.62-4.62v-14.35a4.62 4.62 0 0 0-4.62-4.62Z"/><path fill="#21558A" stroke="#263238" stroke-miterlimit="10" d="M133.96 352.4h-21.71a4.62 4.62 0 0 0-4.62 4.62v14.35a4.62 4.62 0 0 0 4.62 4.62h21.71a4.62 4.62 0 0 0 4.62-4.62v-14.35a4.62 4.62 0 0 0-4.62-4.62Z"/><path fill="#999" stroke="#263238" stroke-miterlimit="10" d="M170.24 352.4h-21.71a4.62 4.62 0 0 0-4.62 4.62v14.35a4.62 4.62 0 0 0 4.62 4.62h21.71a4.62 4.62 0 0 0 4.62-4.62v-14.35a4.62 4.62 0 0 0-4.62-4.62ZM184.81 352.4h21.7a4.63 4.63 0 0 1 4.63 4.63v14.34a4.631 4.631 0 0 1-4.62 4.63h-21.7a4.624 4.624 0 0 1-4.62-4.62V357a4.62 4.62 0 0 1 4.61-4.6ZM242.8 352.4h-21.71a4.62 4.62 0 0 0-4.62 4.62v14.35a4.62 4.62 0 0 0 4.62 4.62h21.71a4.62 4.62 0 0 0 4.62-4.62v-14.35a4.62 4.62 0 0 0-4.62-4.62Z"/><path fill="#21558A" stroke="#263238" stroke-miterlimit="10" d="M133.96 384.12h-21.71a4.62 4.62 0 0 0-4.62 4.62v14.35a4.62 4.62 0 0 0 4.62 4.62h21.71a4.62 4.62 0 0 0 4.62-4.62v-14.35a4.62 4.62 0 0 0-4.62-4.62Z"/><path fill="#999" stroke="#263238" stroke-miterlimit="10" d="M170.24 384.12h-21.71a4.62 4.62 0 0 0-4.62 4.62v14.35a4.62 4.62 0 0 0 4.62 4.62h21.71a4.62 4.62 0 0 0 4.62-4.62v-14.35a4.62 4.62 0 0 0-4.62-4.62ZM184.81 384.12h21.7a4.63 4.63 0 0 1 4.63 4.63v14.34a4.63 4.63 0 0 1-4.62 4.63h-21.7a4.624 4.624 0 0 1-4.62-4.62v-14.36a4.617 4.617 0 0 1 4.61-4.62Z"/><path fill="#D9D9D9" stroke="#263238" stroke-miterlimit="10" d="M242.8 384.12h-21.71a4.62 4.62 0 0 0-4.62 4.62v14.35a4.62 4.62 0 0 0 4.62 4.62h21.71a4.62 4.62 0 0 0 4.62-4.62v-14.35a4.62 4.62 0 0 0-4.62-4.62ZM279 352.4h-21.56a4.7 4.7 0 0 0-4.69 4.7V403c0 1.244.494 2.437 1.374 3.316a4.69 4.69 0 0 0 3.316 1.374H279a4.7 4.7 0 0 0 3.323-1.37A4.7 4.7 0 0 0 283.7 403v-45.9a4.7 4.7 0 0 0-1.377-3.323A4.7 4.7 0 0 0 279 352.4Z"/><path fill="#21558A" stroke="#263238" stroke-miterlimit="10" d="M279.08 229.61h-21.71a4.62 4.62 0 0 0-4.62 4.62v10.8a4.62 4.62 0 0 0 4.62 4.62h21.71a4.62 4.62 0 0 0 4.62-4.62v-10.8a4.62 4.62 0 0 0-4.62-4.62Z"/><path fill="#fff" d="M258.72 244.59a7 7 0 0 1 0-8.43 5.63 5.63 0 0 1 7.78 0 7 7 0 0 1 0 8.43 5.63 5.63 0 0 1-7.78 0m6.56-.92a6.15 6.15 0 0 0 0-6.6 3.2 3.2 0 0 0-2.67-1.2 3.22 3.22 0 0 0-2.68 1.2 6.21 6.21 0 0 0 0 6.6 3.2 3.2 0 0 0 2.68 1.21 3.18 3.18 0 0 0 2.67-1.21M270.47 245.79a.64.64 0 0 1-.22-.51v-9.51a1 1 0 0 1 .26-.74.834.834 0 0 1 .64-.27c.2.004.397.059.57.16.201.112.372.269.5.46l5.72 8.32v-8.24a.648.648 0 0 1 .21-.51.73.73 0 0 1 .52-.19.7.7 0 0 1 .5.19.61.61 0 0 1 .22.51V245a.994.994 0 0 1-.27.74 1 1 0 0 1-.69.28 1.1 1.1 0 0 1-.53-.14 1.15 1.15 0 0 1-.44-.38l-5.74-8.32v8.14a.61.61 0 0 1-.22.51.8.8 0 0 1-.52.19.76.76 0 0 1-.51-.23M117.26 275.5a1.24 1.24 0 0 1-.41-.51l-3.65-8.21v8.54a.47.47 0 0 1-.22.42.94.94 0 0 1-1 0 .47.47 0 0 1-.22-.42V266a1 1 0 0 1 .36-.76c.23-.199.526-.306.83-.3.265-.002.523.078.74.23.252.173.447.416.56.7l3.57 7.91 3.56-7.91c.107-.285.299-.529.55-.7a1.32 1.32 0 0 1 1.58.07 1 1 0 0 1 .36.76v9.29a.47.47 0 0 1-.22.42.85.85 0 0 1-.51.15.9.9 0 0 1-.51-.15.49.49 0 0 1-.22-.42v-8.54l-3.67 8.25c-.089.204-.23.38-.41.51a.9.9 0 0 1-.53.18.94.94 0 0 1-.54-.19M128.64 275.38a4.84 4.84 0 0 1-1.79-2.06 6.8 6.8 0 0 1-.6-2.91 7 7 0 0 1 .37-2.27 5.7 5.7 0 0 1 1-1.84 4.8 4.8 0 0 1 1.68-1.25 5.5 5.5 0 0 1 2.24-.45 5.7 5.7 0 0 1 2.84.73.57.57 0 0 1 .34.54.62.62 0 0 1-.17.44.56.56 0 0 1-.42.19.7.7 0 0 1-.25-.07l-.2-.1-.26-.12-.31-.12-.41-.12-.49-.07a6 6 0 0 0-.61 0 4 4 0 0 0-1.38.23 3.1 3.1 0 0 0-1 .65c-.293.292-.536.63-.72 1a5.2 5.2 0 0 0-.42 1.24 7.1 7.1 0 0 0 0 2.81c.086.427.227.84.42 1.23.181.372.424.711.72 1 .307.282.667.5 1.06.64.451.166.929.247 1.41.24.414.004.827-.06 1.22-.19q.593-.214 1.14-.53a.56.56 0 0 1 .3-.08.54.54 0 0 1 .41.18.57.57 0 0 1 .18.42.72.72 0 0 1-.4.61 5.5 5.5 0 0 1-3.09.86 5.1 5.1 0 0 1-2.81-.83M120.64 399h-5.4l-.93 2.39a.73.73 0 0 1-.73.52.84.84 0 0 1-.54-.2.62.62 0 0 1-.24-.49.9.9 0 0 1 .06-.29l3.73-9.26c.105-.34.302-.645.57-.88a1.54 1.54 0 0 1 1.55 0c.271.234.472.539.58.88L123 401q.067.137.07.29a.63.63 0 0 1-.25.49.85.85 0 0 1-.55.2.73.73 0 0 1-.72-.52zm-2.7-6.93-2.26 5.8h4.51zM126.89 401.29a4.8 4.8 0 0 1-1.79-2.05 6.8 6.8 0 0 1-.6-2.91 7 7 0 0 1 .37-2.27c.216-.673.556-1.3 1-1.85a4.6 4.6 0 0 1 1.68-1.24 5.3 5.3 0 0 1 2.24-.46 5.7 5.7 0 0 1 2.84.73.59.59 0 0 1 .34.54.64.64 0 0 1-.17.44.54.54 0 0 1-.42.19.7.7 0 0 1-.26-.06l-.19-.1-.26-.13-.31-.11-.41-.12a4 4 0 0 0-.49-.08 6 6 0 0 0-.61 0 3.8 3.8 0 0 0-1.38.24 2.9 2.9 0 0 0-1 .65c-.289.293-.529.63-.71 1-.193.39-.334.803-.42 1.23a7.2 7.2 0 0 0 0 2.82c.084.424.225.834.42 1.22.177.374.421.713.72 1a3.1 3.1 0 0 0 1.06.65c.453.157.93.235 1.41.23.414.007.826-.054 1.22-.18a8 8 0 0 0 1.14-.53.6.6 0 0 1 .3-.09.54.54 0 0 1 .41.18.58.58 0 0 1 .17.42.746.746 0 0 1-.39.62 5.5 5.5 0 0 1-3.09.85 5 5 0 0 1-2.82-.83M120.68 369.29a4.8 4.8 0 0 1-1.78-2.05 6.8 6.8 0 0 1-.6-2.91 7 7 0 0 1 .36-2.27c.217-.673.556-1.3 1-1.85a4.55 4.55 0 0 1 1.67-1.24 5.4 5.4 0 0 1 2.25-.46 5.7 5.7 0 0 1 2.83.73.606.606 0 0 1 .329.75.6.6 0 0 1-.159.25.52.52 0 0 1-.41.19.65.65 0 0 1-.26-.06l-.19-.1-.27-.13-.31-.11-.41-.12a4 4 0 0 0-.49-.08 6 6 0 0 0-.61 0 3.8 3.8 0 0 0-1.38.24 2.8 2.8 0 0 0-1 .65 4.1 4.1 0 0 0-.72 1 5 5 0 0 0-.42 1.23q-.135.699-.13 1.41c-.004.473.039.946.13 1.41.084.424.225.834.42 1.22.184.37.428.708.72 1 .308.284.668.505 1.06.65.453.157.93.235 1.41.23a3.7 3.7 0 0 0 1.22-.18 7 7 0 0 0 1.14-.53.65.65 0 0 1 .3-.09.57.57 0 0 1 .42.18.61.61 0 0 1 .17.42.746.746 0 0 1-.39.62 5.55 5.55 0 0 1-3.09.85 5 5 0 0 1-2.81-.85M116.71 301.21a3.69 3.69 0 0 1 0-4.38 2.38 2.38 0 0 1 2-.88c.415-.006.825.083 1.2.26.337.163.629.407.85.71.208.307.366.644.47 1 .11.36.164.734.16 1.11a3.3 3.3 0 0 1-.73 2.19 2.63 2.63 0 0 1-3.017.639 2.6 2.6 0 0 1-.883-.639zm2.83-.34c.231-.214.4-.487.49-.79a4 4 0 0 0 .13-1.07A3.8 3.8 0 0 0 120 298a1.67 1.67 0 0 0-.49-.79 1.27 1.27 0 0 0-.88-.32 1.24 1.24 0 0 0-.87.32 1.74 1.74 0 0 0-.49.79 3.8 3.8 0 0 0-.13 1.06 4 4 0 0 0 .13 1.07c.093.301.262.573.49.79.238.215.549.33.87.32a1.27 1.27 0 0 0 .91-.37m-.77 6.57a.439.439 0 0 1-.14-.32.6.6 0 0 1 .09-.27l6.13-10.85a.51.51 0 0 1 .45-.3.438.438 0 0 1 .32.13c.084.09.13.208.13.33a.75.75 0 0 1-.1.33l-6.11 10.78a.5.5 0 0 1-.43.3.5.5 0 0 1-.34-.13m5.49-1a3.4 3.4 0 0 1-.71-2.21 3.26 3.26 0 0 1 .73-2.17 2.37 2.37 0 0 1 1.94-.88c.416-.006.827.086 1.2.27.336.157.625.398.84.7a3.792 3.792 0 0 1 .63 2.11c.01.53-.096 1.055-.31 1.54a2.65 2.65 0 0 1-.93 1.11 2.66 2.66 0 0 1-3.39-.44zm2.83-.35c.23-.212.399-.481.49-.78.092-.352.136-.715.13-1.08a3.5 3.5 0 0 0-.08-.81 2.5 2.5 0 0 0-.24-.68 1.26 1.26 0 0 0-1.17-.68 1.27 1.27 0 0 0-.88.32 1.66 1.66 0 0 0-.48.79 4.1 4.1 0 0 0 0 2.13c.082.304.248.578.48.79.242.215.557.33.88.32.325.002.637-.124.87-.35zM157.92 306.81a.66.66 0 0 1-.24-.52.8.8 0 0 1 .08-.34l3.84-8.82h-5.17a.62.62 0 0 1-.642-.63c0-.163.062-.32.172-.44a.59.59 0 0 1 .47-.19h6a1 1 0 0 1 .65.2.68.68 0 0 1 .23.54c-.002.23-.05.458-.14.67l-4 9.3a.66.66 0 0 1-.262.331.66.66 0 0 1-.408.109.84.84 0 0 1-.58-.21M194 306.84a3.05 3.05 0 0 1-1.38-1.09 2.9 2.9 0 0 1-.52-1.73 3 3 0 0 1 .58-1.82 2.7 2.7 0 0 1 1.65-1 2.53 2.53 0 0 1-1.53-.92 2.66 2.66 0 0 1-.52-1.65 2.7 2.7 0 0 1 .51-1.65 2.9 2.9 0 0 1 1.32-1 5 5 0 0 1 1.86-.33c.49 0 .977.063 1.45.19.418.122.813.311 1.17.56.338.248.613.574.8.95.196.405.295.85.29 1.3a2.62 2.62 0 0 1-.53 1.66c-.38.472-.915.795-1.51.91.649.14 1.233.492 1.66 1 .383.516.581 1.147.56 1.79a3 3 0 0 1-.52 1.73 3.13 3.13 0 0 1-1.39 1.09 5.76 5.76 0 0 1-3.95 0zm3.63-1.33a1.743 1.743 0 0 0 .64-1.48 2 2 0 0 0-.65-1.58 2.43 2.43 0 0 0-1.64-.55 2.45 2.45 0 0 0-1.65.55 2 2 0 0 0-.66 1.58c-.013.398.099.789.32 1.12.206.294.495.52.83.65.37.143.764.211 1.16.2a2.63 2.63 0 0 0 1.62-.49zm0-5.5a1.7 1.7 0 0 0 .59-1.4 1.58 1.58 0 0 0-.63-1.38 2.63 2.63 0 0 0-1.57-.45 3.5 3.5 0 0 0-.82.1 2.5 2.5 0 0 0-.7.31c-.217.144-.39.344-.5.58-.125.262-.186.55-.18.84a1.72 1.72 0 0 0 .59 1.4 2.94 2.94 0 0 0 3.22 0M228.22 306.61a.5.5 0 0 1-.3-.49.8.8 0 0 1 .17-.49.5.5 0 0 1 .178-.164.5.5 0 0 1 .232-.066.5.5 0 0 1 .19.05 4.6 4.6 0 0 0 2 .47c.337.009.674-.032 1-.12.26-.069.506-.181.73-.33a2.1 2.1 0 0 0 .52-.54q.221-.328.36-.7.153-.424.22-.87.087-.497.11-1v-1.09a2.1 2.1 0 0 1-.94 1.13c-.534.33-1.152.5-1.78.49a3.47 3.47 0 0 1-2.58-1 3.5 3.5 0 0 1-1-2.57 3.63 3.63 0 0 1 1-2.67 3.7 3.7 0 0 1 2.75-1 4.7 4.7 0 0 1 1.64.28c.442.163.844.419 1.18.75.319.331.577.718.76 1.14.2.44.341.904.42 1.38q.124.77.12 1.55v1.28c0 .4-.09.82-.17 1.27a7.3 7.3 0 0 1-.34 1.21 4.5 4.5 0 0 1-.56 1.06c-.223.334-.5.628-.82.87a3.8 3.8 0 0 1-1.14.56c-.492.137-1 .204-1.51.2a5.4 5.4 0 0 1-2.44-.59m4.61-5.49a2.5 2.5 0 0 0 .64-1.81 2.55 2.55 0 0 0-.6-1.73 2.098 2.098 0 0 0-1.69-.7 2.2 2.2 0 0 0-1.73.67 2.54 2.54 0 0 0-.6 1.78 2.73 2.73 0 0 0 .55 1.77 1.9 1.9 0 0 0 1.62.69 2.36 2.36 0 0 0 1.81-.67M161.12 337.83a.66.66 0 0 1-.23-.52v-1.73h-4.48a.74.74 0 0 1-.58-.25.8.8 0 0 1-.22-.57c.004-.173.052-.342.14-.49l4.29-6.73a1.44 1.44 0 0 1 1.28-.74c.284-.009.562.087.78.27a1 1 0 0 1 .32.82v6.54h1.13a.55.55 0 0 1 .43.17c.098.11.152.252.15.4a.6.6 0 0 1-.15.41.54.54 0 0 1-.43.17h-1.14v1.73a.64.64 0 0 1-.23.52.78.78 0 0 1-.52.19.83.83 0 0 1-.54-.19m-.23-3.4v-6l-3.75 6zM194.27 337.87a5.2 5.2 0 0 1-1.51-.94.43.43 0 0 1-.15-.34.72.72 0 0 1 .21-.49.63.63 0 0 1 .45-.23.44.44 0 0 1 .28.1 3.66 3.66 0 0 0 2.49.94 2.3 2.3 0 0 0 1.76-.63 2.5 2.5 0 0 0 .6-1.78 2.4 2.4 0 0 0-.59-1.68 2 2 0 0 0-1.56-.64 3 3 0 0 0-1.25.29c-.384.16-.726.407-1 .72a.4.4 0 0 1-.145.081.4.4 0 0 1-.165.019 1.4 1.4 0 0 1-.64-.17c-.22-.12-.32-.25-.32-.41v-5.12c0-.47.25-.71.76-.71h5.14a.53.53 0 0 1 .43.18.65.65 0 0 1 .01.84.57.57 0 0 1-.44.17H194v3.79l.1-.1q.131-.122.28-.22a4 4 0 0 1 .48-.27q.334-.145.69-.22a4.4 4.4 0 0 1 .9-.09 3.24 3.24 0 0 1 2.51 1c.645.701.987 1.628.95 2.58a3.46 3.46 0 0 1-1.07 2.65 3.86 3.86 0 0 1-2.74 1 4.9 4.9 0 0 1-1.83-.32M229.84 337.9a3.1 3.1 0 0 1-1.18-.75 3.8 3.8 0 0 1-.76-1.13 5.7 5.7 0 0 1-.42-1.39 9.4 9.4 0 0 1-.12-1.55v-1.27q.051-.641.18-1.27.106-.626.33-1.22c.145-.374.333-.73.56-1.06a3.48 3.48 0 0 1 2-1.42 5 5 0 0 1 1.5-.21 5.6 5.6 0 0 1 2.43.58.52.52 0 0 1 .29.5.83.83 0 0 1-.17.49.5.5 0 0 1-.177.162.5.5 0 0 1-.233.058.4.4 0 0 1-.19-.05 4.8 4.8 0 0 0-2-.47 3.5 3.5 0 0 0-.95.12 2.7 2.7 0 0 0-.72.34 2 2 0 0 0-.53.54q-.224.327-.36.7a4.3 4.3 0 0 0-.22.86 8 8 0 0 0-.11 1v1.09c.159-.482.495-.886.94-1.13a3.17 3.17 0 0 1 1.78-.49 3.38 3.38 0 0 1 2.572.992 3.38 3.38 0 0 1 .978 2.578 3.62 3.62 0 0 1-1 2.66 3.7 3.7 0 0 1-2.75 1 4.4 4.4 0 0 1-1.67-.26m-.09-5.19a2.8 2.8 0 0 0 0 3.54 2.12 2.12 0 0 0 1.69.69 2.22 2.22 0 0 0 1.73-.66c.42-.499.634-1.139.6-1.79a2.8 2.8 0 0 0-.54-1.77 2.01 2.01 0 0 0-1.63-.69 2.377 2.377 0 0 0-1.85.68M159.67 370.31a.68.68 0 0 1-.23-.55V361l-1.69 1a.6.6 0 0 1-.31.09.563.563 0 0 1-.3-1l2.69-1.68a.8.8 0 0 1 .43-.11.728.728 0 0 1 .53.2.74.74 0 0 1 .21.57v9.69a.69.69 0 0 1-.23.55.87.87 0 0 1-.56.2.85.85 0 0 1-.54-.2M199.07 364.09a6.6 6.6 0 0 1-1.43 1.74l-3.58 3.49h4.72a.62.62 0 0 1 .46.17.6.6 0 0 1 .16.42.56.56 0 0 1-.16.42.594.594 0 0 1-.46.18h-5.4a1.16 1.16 0 0 1-.74-.23.7.7 0 0 1-.208-.257.7.7 0 0 1-.072-.323 1.07 1.07 0 0 1 .37-.77l4.08-4.13c.359-.36.671-.763.93-1.2.192-.332.295-.707.3-1.09a2 2 0 0 0-.6-1.5 2.06 2.06 0 0 0-1.47-.57 4.3 4.3 0 0 0-1 .1 4 4 0 0 0-.62.17q-.285.126-.55.29l-.44.26a.568.568 0 0 1-.66-.15.62.62 0 0 1-.19-.45.54.54 0 0 1 .3-.48 7.5 7.5 0 0 1 1.49-.72 5.2 5.2 0 0 1 1.75-.25 3.45 3.45 0 0 1 2.45.92 3 3 0 0 1 1 2.24c.002.6-.146 1.192-.43 1.72M228.43 370.09a.63.63 0 0 1-.41-.58.65.65 0 0 1 .18-.46.57.57 0 0 1 .42-.2 1 1 0 0 1 .2 0c.673.331 1.41.508 2.16.52a2.7 2.7 0 0 0 1.69-.49 1.61 1.61 0 0 0 .65-1.37 1.997 1.997 0 0 0-.75-1.64 2.9 2.9 0 0 0-1.9-.61h-.57a.47.47 0 0 1-.41-.17.54.54 0 0 1-.15-.4.6.6 0 0 1 .15-.41.5.5 0 0 1 .41-.17h.51a2.87 2.87 0 0 0 1.76-.5 1.72 1.72 0 0 0 .66-1.45 1.6 1.6 0 0 0-.6-1.33 2.36 2.36 0 0 0-1.48-.47 5.06 5.06 0 0 0-2.3.54.5.5 0 0 1-.18 0 .52.52 0 0 1-.42-.23.76.76 0 0 1-.18-.49.49.49 0 0 1 .26-.45 4.7 4.7 0 0 1 1.2-.45 6.4 6.4 0 0 1 1.64-.23 5.1 5.1 0 0 1 1.84.32c.521.205.975.551 1.31 1 .34.497.515 1.088.5 1.69a2.4 2.4 0 0 1-.52 1.57 3 3 0 0 1-1.38.92 2.66 2.66 0 0 1 1.58 1c.398.537.606 1.192.59 1.86.007.492-.103.979-.32 1.42a2.6 2.6 0 0 1-.87 1c-.37.25-.779.436-1.21.55a5.6 5.6 0 0 1-1.44.18 5.4 5.4 0 0 1-2.62-.47M158.07 400.87a3.2 3.2 0 0 1-1.14-.85 4.4 4.4 0 0 1-.71-1.29 7.2 7.2 0 0 1-.39-1.56 14 14 0 0 1-.11-1.75q0-5.79 3.95-5.79c2.62 0 3.94 1.93 3.94 5.79q.001.874-.11 1.74a7.2 7.2 0 0 1-.39 1.56 4.2 4.2 0 0 1-.71 1.29 3.15 3.15 0 0 1-1.13.85 3.7 3.7 0 0 1-1.6.32 3.8 3.8 0 0 1-1.6-.31m2.38-1.11c.22-.095.42-.231.59-.4q.249-.282.41-.62.175-.357.28-.74.11-.419.16-.85c0-.32.07-.61.08-.88s0-.55 0-.85v-.9c0-.27 0-.57-.08-.89a6 6 0 0 0-.17-.85 4 4 0 0 0-.28-.74 2 2 0 0 0-.41-.6 1.7 1.7 0 0 0-.59-.39c-.497-.2-1.053-.2-1.55 0a1.8 1.8 0 0 0-.58.38 2.3 2.3 0 0 0-.42.6q-.175.357-.28.74c-.06.25-.11.54-.16.86s-.07.61-.08.89 0 .57 0 .9v.86c0 .27 0 .56.08.87q.049.431.16.85.105.388.28.75.153.34.41.61c.168.171.369.307.59.4.247.103.512.154.78.15.267.003.533-.048.78-.15M194.5 397.25a1.77 1.77 0 0 1-.5-1.25 1.72 1.72 0 0 1 .55-1.27 1.91 1.91 0 0 1 1.44-.55 2 2 0 0 1 1.43.54c.175.164.315.362.41.582s.142.458.14.698a1.8 1.8 0 0 1-.54 1.3 2 2 0 0 1-1.44.54 2 2 0 0 1-1.49-.59M267.1 265.53a1.74 1.74 0 0 1 0-2.5 2.12 2.12 0 0 1 2.79 0 1.68 1.68 0 0 1 .54 1.25 1.74 1.74 0 0 1-.53 1.26 2.11 2.11 0 0 1-2.8 0zM267.1 276a1.76 1.76 0 0 1-.392-1.94c.091-.211.224-.402.392-.56a1.87 1.87 0 0 1 1.4-.53 1.9 1.9 0 0 1 1.39.52 1.67 1.67 0 0 1 .54 1.24 1.77 1.77 0 0 1-.53 1.27 2.11 2.11 0 0 1-2.8 0M226 395a.897.897 0 0 1-.28-.65.86.86 0 0 1 .29-.68 1.06 1.06 0 0 1 .74-.26h11.13a1 1 0 0 1 .72.26.83.83 0 0 1 .31.68.82.82 0 0 1-.31.66c-.2.172-.456.264-.72.26h-11.2a1 1 0 0 1-.68-.27m0 5.13a.85.85 0 0 1-.28-.64.9.9 0 0 1 .29-.68c.207-.174.47-.266.74-.26h11.17a1 1 0 0 1 .7.26.86.86 0 0 1 .29.68.818.818 0 0 1-.3.65c-.2.172-.456.264-.72.26h-11.25a1 1 0 0 1-.64-.23zM267.62 302.48l-3.13 4.2a.79.79 0 0 1-.63.36.65.65 0 0 1-.48-.2.64.64 0 0 1-.21-.47.7.7 0 0 1 .15-.43l3.49-4.56-3.28-4.47a.5.5 0 0 1-.12-.34.72.72 0 0 1 .25-.53.8.8 0 0 1 .56-.23.73.73 0 0 1 .6.34l3 4.07 3-4.06a.8.8 0 0 1 .65-.36.65.65 0 0 1 .601.374q.05.113.049.236a.67.67 0 0 1-.14.4l-3.37 4.53 3.35 4.58a.7.7 0 0 1 .14.4.64.64 0 0 1-.25.49.87.87 0 0 1-.56.21.69.69 0 0 1-.59-.31zM267.36 389.69a1.12 1.12 0 0 1-.31-.82v-5.19h-5.4a1.2 1.2 0 0 1-.83-.31 1.003 1.003 0 0 1 0-1.54c.232-.201.533-.305.84-.29h5.4v-5.24a1.12 1.12 0 0 1 .31-.81 1 1 0 0 1 .8-.34 1.06 1.06 0 0 1 .8.33 1.14 1.14 0 0 1 .31.82v5.24h5.41c.306-.008.604.095.84.29a1 1 0 0 1 .35.77 1 1 0 0 1-.35.77 1.2 1.2 0 0 1-.84.31h-5.41v5.19a1.127 1.127 0 0 1-.31.8 1 1 0 0 1-.361.262 1 1 0 0 1-.439.078 1.06 1.06 0 0 1-.81-.32M117.45 336.71a.81.81 0 0 1-.23-.59v-3.78h-3.92a.88.88 0 0 1-.61-.22.75.75 0 0 1-.256-.56.74.74 0 0 1 .256-.56.92.92 0 0 1 .62-.22h3.92V327a.86.86 0 0 1 .23-.6.76.76 0 0 1 .58-.24.78.78 0 0 1 .58.24.85.85 0 0 1 .23.6v3.8h3.94a.92.92 0 0 1 .6.22.7.7 0 0 1 .26.56.75.75 0 0 1-.25.56.88.88 0 0 1-.61.22h-3.94v3.78a.83.83 0 0 1-.23.58.74.74 0 0 1-.58.25.75.75 0 0 1-.59-.26M262.1 333.51a.5.5 0 0 1-.173-.182.49.49 0 0 1 0-.486.5.5 0 0 1 .173-.182c.201-.131.44-.194.68-.18h10.77c.237-.014.472.049.67.18a.55.55 0 0 1 .24.43.52.52 0 0 1-.24.42 1.1 1.1 0 0 1-.67.18h-10.77a1.1 1.1 0 0 1-.68-.18M125.36 338.84a.58.58 0 0 1-.17-.42.61.61 0 0 1 .375-.569.6.6 0 0 1 .245-.041h7.28a.54.54 0 0 1 .45.19.61.61 0 0 1 .129.648.6.6 0 0 1-.129.192.57.57 0 0 1-.45.18h-7.28a.59.59 0 0 1-.45-.18M121.17 341a.52.52 0 0 1-.55.1c-.14-.08-.2-.26-.19-.52.036-.356.156-.699.35-1l8-13.89c.149-.313.376-.581.66-.78a.53.53 0 0 1 .55-.1c.14.08.2.26.18.52a2.3 2.3 0 0 1-.35 1l-8 13.89a2.3 2.3 0 0 1-.65.78M262.1 270a.5.5 0 0 1-.173-.182.49.49 0 0 1 0-.486.5.5 0 0 1 .173-.182 1.12 1.12 0 0 1 .68-.18h10.77c.237-.014.472.049.67.18a.55.55 0 0 1 .24.43.52.52 0 0 1-.24.42 1.1 1.1 0 0 1-.67.18h-10.77a1.1 1.1 0 0 1-.68-.18M153.93 275.5a1.23 1.23 0 0 1-.41-.51l-3.66-8.21v8.54a.5.5 0 0 1-.051.237.5.5 0 0 1-.159.183.9.9 0 0 1-.52.15.9.9 0 0 1-.51-.15.49.49 0 0 1-.22-.42V266a1 1 0 0 1 .36-.76 1.32 1.32 0 0 1 1.58-.07c.252.173.447.416.56.7l3.56 7.91 3.54-7.88c.107-.285.299-.529.55-.7a1.323 1.323 0 0 1 1.58.07 1 1 0 0 1 .36.76v9.29a.48.48 0 0 1-.22.42.9.9 0 0 1-.51.15.85.85 0 0 1-.51-.15.47.47 0 0 1-.22-.42v-8.54L155.4 275a1.2 1.2 0 0 1-.4.51.95.95 0 0 1-.54.18.9.9 0 0 1-.53-.19M163.58 275.77a.677.677 0 0 1-.24-.56v-9.68a.7.7 0 0 1 .24-.54.77.77 0 0 1 .56-.23h3.4q.592-.006 1.18.07.553.068 1.08.25c.329.109.637.275.91.49.261.223.466.504.6.82.163.375.242.781.23 1.19a2.4 2.4 0 0 1-.59 1.65 3 3 0 0 1-1.77.91 2.57 2.57 0 0 1 2.08 2.52l.28 2.46a.3.3 0 0 1 0 .11.64.64 0 0 1-.22.51.75.75 0 0 1-.52.2.9.9 0 0 1-.57-.19.67.67 0 0 1-.29-.52l-.24-2.19a7.6 7.6 0 0 0-.19-1.11 1.5 1.5 0 0 0-.36-.67 1.2 1.2 0 0 0-.61-.36 4.4 4.4 0 0 0-1-.09h-2.62v4.37a.68.68 0 0 1-.24.56.87.87 0 0 1-.56.2.8.8 0 0 1-.54-.17m3.63-6.14h.83q.377-.047.74-.16c.225-.066.436-.174.62-.32.173-.151.309-.339.4-.55.112-.262.166-.545.16-.83a2.1 2.1 0 0 0-.11-.69 1.07 1.07 0 0 0-.31-.48 2 2 0 0 0-.42-.3 1.9 1.9 0 0 0-.55-.16L168 266h-3.08v3.61zM190.6 275.5a1.16 1.16 0 0 1-.41-.51l-3.66-8.21v8.54a.48.48 0 0 1-.22.42.85.85 0 0 1-.51.15.9.9 0 0 1-.51-.15.47.47 0 0 1-.22-.42V266a1 1 0 0 1 .36-.76 1.25 1.25 0 0 1 .83-.3c.267-.001.529.079.75.23.252.173.447.416.56.7l3.56 7.91 3.56-7.91c.11-.283.301-.526.55-.7.23-.132.495-.191.76-.17.307-.005.605.102.84.3a1 1 0 0 1 .36.76v9.29a.5.5 0 0 1-.22.42.9.9 0 0 1-.51.15.9.9 0 0 1-.52-.15.5.5 0 0 1-.159-.183.5.5 0 0 1-.051-.237v-8.54l-3.67 8.19a1.16 1.16 0 0 1-.41.51.87.87 0 0 1-1.06 0zM199.1 272.22a.46.46 0 0 1-.129-.17.46.46 0 0 1-.041-.21.51.51 0 0 1 .17-.4.65.65 0 0 1 .46-.16h3.49a.62.62 0 0 1 .45.16.48.48 0 0 1 .18.4.46.46 0 0 1-.18.38.68.68 0 0 1-.45.15h-3.49a.7.7 0 0 1-.46-.15M227.26 275.5a1.24 1.24 0 0 1-.41-.51l-3.65-8.21v8.54a.48.48 0 0 1-.22.42.94.94 0 0 1-1 0 .47.47 0 0 1-.22-.42V266a1 1 0 0 1 .36-.76c.23-.199.526-.306.83-.3.265-.002.523.078.74.23.255.17.45.414.56.7l3.57 7.91 3.56-7.91c.11-.283.301-.526.55-.7a1.32 1.32 0 0 1 1.58.07 1 1 0 0 1 .36.76v9.29a.48.48 0 0 1-.22.42.84.84 0 0 1-.5.15.9.9 0 0 1-.52-.15.49.49 0 0 1-.22-.42v-8.54l-3.67 8.25c-.089.204-.23.38-.41.51a.9.9 0 0 1-.53.18.94.94 0 0 1-.54-.19M240.1 275.77a.563.563 0 0 1-.16-.42v-2.72h-2.83a.65.65 0 0 1-.44-.16.52.52 0 0 1-.18-.4.5.5 0 0 1 .18-.41.65.65 0 0 1 .44-.15h2.83v-2.74a.6.6 0 0 1 .16-.43.54.54 0 0 1 .42-.17.54.54 0 0 1 .41.17.6.6 0 0 1 .17.43v2.74h2.83a.7.7 0 0 1 .44.15.5.5 0 0 1 .18.41.52.52 0 0 1-.18.4.63.63 0 0 1-.44.16h-2.83v2.72a.61.61 0 0 1-.17.42.563.563 0 0 1-.41.17.5.5 0 0 1-.42-.17"/><path stroke="#fff" stroke-miterlimit="10" d="m226.5 239 4.5 6 5-9h5"/></svg>