<svg xmlns="http://www.w3.org/2000/svg" width="247" height="247" fill="none"><g clip-path="url(#a)"><path fill="#fff" fill-rule="evenodd" d="m131.402 130.5-3.492-9.757-4.54 1.625 5.496 15.358a2.41 2.41 0 0 0 3.082 1.458l15.36-5.496-1.625-4.541-9.996 3.577.772-1.702c3.17-6.588 8.83-11.982 16.253-14.638 14.977-5.36 31.488 2.449 36.848 17.426 5.359 14.978-2.449 31.489-17.426 36.849s-31.488-2.45-36.847-17.428l-.813-2.271-4.54 1.625.812 2.271c6.256 17.483 25.53 26.599 43.013 20.343s26.597-25.531 20.341-43.014-25.529-26.598-43.012-20.342c-8.675 3.104-15.289 9.411-18.988 17.115zm2.011-72.19-2.653-7.412-4.54 1.624 2.652 7.413-17.173 6.145-2.652-7.412-4.541 1.624 2.653 7.412-17.175 6.146-2.652-7.412-4.54 1.625 2.652 7.412L68.27 81.62l-2.652-7.412-4.54 1.625 2.651 7.412-17.564 6.285a2.41 2.41 0 0 0-1.458 3.083l30.45 85.097a22.462 22.462 0 0 0 28.716 13.58l35.799-12.81-1.625-4.54-35.798 12.81a17.63 17.63 0 0 1-13.483-.663 17.63 17.63 0 0 1-8.647-8.942c5.62 3.494 12.723 4.483 19.437 2.08l29.778-10.656-1.625-4.54-29.777 10.655c-9.173 3.282-19.269-1.493-22.551-10.665l-18.164-50.76 93.858-34.187-1.652-4.53-93.831 34.176-5.532-15.46 15.294-5.472 2.34 6.538 4.54-1.625-2.34-6.538 17.174-6.145 2.34 6.538 4.54-1.625-2.34-6.538 17.175-6.146 2.339 6.539 4.541-1.625-2.34-6.539 17.173-6.145 2.339 6.539 4.541-1.625-2.34-6.539 15.295-5.473 17.65 49.324 4.541-1.625-18.463-51.594a2.41 2.41 0 0 0-3.083-1.458zm21.092 70.241 6.475 18.094-5.134 7.834 4.033 2.642 5.791-8.838c.415-.632.51-1.421.255-2.133l-6.879-19.224zM87.65 153.01l17.449-6.244-1.625-4.541-17.449 6.244zm-12.675-28.625 28.859 13.648 2.063-4.36-28.862-13.647zm26.644-12.095 6.244 17.449 4.541-1.625-6.244-17.449z" clip-rule="evenodd"/></g><defs><clipPath id="a"><path fill="#fff" d="M0 64.992 181.625 0l64.992 181.625-181.624 64.993z"/></clipPath></defs></svg>