<svg xmlns="http://www.w3.org/2000/svg" width="16" height="16" fill="none"><path fill="#000" d="m6.6 11.508 6.396-6.396-.707-.708L6.6 10.092l-2.85-2.85-.708.708zM1.616 16q-.69 0-1.153-.462-.462-.462-.463-1.154V1.616Q0 .926.463.463A1.57 1.57 0 0 1 1.616 0h12.769q.69 0 1.153.463T16 1.616v12.769q0 .69-.462 1.153T14.384 16zm0-1h12.769a.6.6 0 0 0 .423-.192.58.58 0 0 0 .192-.424V1.616a.6.6 0 0 0-.192-.424.58.58 0 0 0-.424-.192H1.616a.6.6 0 0 0-.424.192.58.58 0 0 0-.192.424v12.769a.6.6 0 0 0 .192.423.58.58 0 0 0 .423.192"/></svg>