<svg xmlns="http://www.w3.org/2000/svg" width="339" height="381" fill="none"><g clip-path="url(#a)"><path fill="#3D7AB8" d="m332.155 217.814 6.834-2.941-3.185-12.983-7.414.558-5.939-10.809 4.451-5.963-9.251-9.658-6.147 4.184-10.541-6.393.872-7.392-12.842-3.743-3.231 6.707-12.33-.267-2.941-6.835-12.981 3.185.558 7.415-10.808 5.94-5.962-4.452-9.657 9.252 4.183 6.149-6.392 10.553-7.391-.872-3.742 12.844 6.706 3.231-.268 12.332-6.833 2.941 3.184 12.982 7.415-.558 5.938 10.81-4.451 5.962 9.251 9.659 6.148-4.184 10.552 6.392-.871 7.393 12.841 3.742 3.231-6.706 12.331.267 2.94 6.834 12.981-3.184-.558-7.416 10.808-5.939 5.962 4.451 9.658-9.251-4.184-6.149 6.392-10.554 7.391.872 3.742-12.843-6.706-3.231.268-12.332zM278.44 253.45c-16.909 0-30.622-13.715-30.622-30.627s13.713-30.626 30.622-30.626c16.91 0 30.623 13.715 30.623 30.626S295.35 253.45 278.44 253.45M242.077 305.544l5.508-1.023-.186-10.066-5.543-.825-2.569-8.926 4.254-3.638-5.195-8.624-5.206 2.057-6.683-6.451 1.871-5.288-8.809-4.882-3.486 4.382-9.018-2.243-1.023-5.51-10.064.186-.826 5.544-8.925 2.569-3.637-4.254-8.624 5.196 2.057 5.207-6.45 6.683-5.287-1.871-4.881 8.81 4.381 3.487-2.243 9.019-5.509 1.023.186 10.065 5.544.826 2.568 8.926-4.253 3.638 5.194 8.624 5.207-2.057 6.682 6.451-1.871 5.288 8.809 4.882 3.487-4.382 9.018 2.243 1.023 5.509 10.064-.186.825-5.544 8.926-2.568 3.637 4.254 8.623-5.196-2.057-5.207 6.45-6.683 5.288 1.871 4.881-8.81-4.381-3.487zm-45.371 17.26c-12.423-2.813-20.21-15.157-17.409-27.582 2.813-12.424 15.155-20.212 27.578-17.411 12.423 2.813 20.21 15.157 17.409 27.582-2.812 12.424-15.154 20.212-27.578 17.411"/><path fill="#fff" d="M314.467 77.595H205.283a5.74 5.74 0 0 0-5.741 5.742v79.896a5.74 5.74 0 0 0 5.741 5.741h109.184a5.74 5.74 0 0 0 5.741-5.741V83.337a5.74 5.74 0 0 0-5.741-5.742"/><path fill="#21558A" stroke="#21558A" stroke-miterlimit="10" stroke-width="4.24" d="M308.064 162.965a5.92 5.92 0 0 1-5.916-5.916c0-22.223-18.071-40.296-40.291-40.296-22.221 0-40.292 18.073-40.292 40.296a5.92 5.92 0 0 1-5.916 5.916 5.917 5.917 0 0 1-5.915-5.916c0-28.743 23.383-52.129 52.123-52.129s52.122 23.386 52.122 52.129a5.917 5.917 0 0 1-5.915 5.916Z"/><path fill="#2DC374" d="M215.638 162.965a5.92 5.92 0 0 1-5.916-5.916c0-28.743 23.383-52.129 52.123-52.129a5.917 5.917 0 0 1 0 11.833c-22.22 0-40.292 18.073-40.292 40.296a5.917 5.917 0 0 1-5.915 5.916"/><path fill="#21558A" d="M205.027 77.595h109.696a5.49 5.49 0 0 1 5.485 5.486v7.09H199.542v-7.09a5.49 5.49 0 0 1 5.485-5.486"/><path stroke="#2DC374" stroke-linecap="round" stroke-miterlimit="10" stroke-width="1.7" d="M248.782 36.507h-21.267v21.27h21.267z"/><path stroke="#2DC374" stroke-linecap="round" stroke-miterlimit="10" stroke-width="3.39" d="m233.628 43.54 5.113 9.007s11.099-17.83 18.746-23.606"/><path stroke="#2DC374" stroke-linecap="round" stroke-miterlimit="10" stroke-width="1.7" d="M283.542 36.507h-21.267v21.27h21.267z"/><path stroke="#2DC374" stroke-linecap="round" stroke-miterlimit="10" stroke-width="3.39" d="m267.969 43.54 5.114 9.007s11.099-17.83 18.745-23.606"/><path stroke="#2DC374" stroke-linecap="round" stroke-miterlimit="10" stroke-width="1.7" d="M318.302 36.507h-21.267v21.27h21.267z"/><path fill="#21558A" d="M50.473 373.945s14.666-5.951 15.99-36.589l74.274 3.626s36.933 7.613 43.313 1.755c0 0-11.296 30.859-33.458 35.718-22.174 4.846-100.12-4.51-100.12-4.51"/><path fill="#21558A" d="M63.547 355.465c3.928-11.588 3.649-22.154-.628-23.595-4.265-1.441-10.9 6.776-14.829 18.364-3.928 11.588-3.649 22.154.628 23.595 4.265 1.441 10.9-6.776 14.829-18.364"/><path fill="#C1CFD9" d="m66.476 155.666 16.827-7.857s10.216-1.174 13.365 2.208c3.161 3.383 15.55 42.61 15.55 42.61l-34.934 6.985-10.809-43.958z"/><path fill="#C1CFD9" d="M27.613 162.373.872 273.79h111.346l-15.33-83.859s-31.935-30.766-69.275-27.558"/><path fill="#FCD2DE" d="M60.223 79.71c8.972-1.918 21.233-5.149 25.335 5.347 4.102 10.495 11.924 47.386-11.18 51.861S46.44 122.61 46.44 122.61s-9.309 8.043-14.899 0 1.488-16.702 10.436-14.982c0 0-7.077-22.502 18.258-27.906z"/><path fill="#231E1F" d="M38.619 77.595c8.6-6.102 22.36-16.075 25.706-14.517 3.359 1.546 0 6.59 0 6.59s13.412-10.135 20.117-8.706c6.706 1.43 10.808 12.24 9.31 18.76-1.489 6.52-14.9 12.855-24.22 0 0 0-7.078 9.507-11.552 10.251s-8.565-2.231-8.565-2.231-1.86 17.434-7.45 19.898-7.82-1.639-8.936-4.614c-1.116-2.976-8.287-15.563 5.59-25.408z"/><path stroke="#231E1F" stroke-linecap="round" stroke-miterlimit="10" stroke-width=".85" d="M72.147 98.214s1.115 8.124 2.231 9.438c1.116 1.313 2.975 7.648 0 9.519"/><path stroke="#000" stroke-miterlimit="10" stroke-width=".68" d="M34.865 114.207s5.66-3.173 9.192 4.068"/><path stroke="#231E1F" stroke-linecap="round" stroke-miterlimit="10" stroke-width=".85" d="M64.395 120.507s7.357 5.904 14.83.79"/><path fill="#231E1F" d="M63.721 104.944c.22 1.743-.465 3.266-1.522 3.405-1.058.128-2.092-1.174-2.313-2.929-.22-1.755.465-3.266 1.522-3.405 1.058-.128 2.092 1.173 2.313 2.929"/><path stroke="#231E1F" stroke-linecap="round" stroke-miterlimit="10" stroke-width="1.7" d="M56.91 99.376s.919-3.278 4.068-3.673"/><path fill="#FCD2DE" d="m46.44 122.599-2.394 22.99s21.837 12.076 30.018 11.425 6.74-10.112 6.74-10.112l-3.892-10.646s-19.35 2.034-30.472-13.646z"/><path fill="#C1CFD9" d="m42.21 145.845 1.185-8.253 25.73 8.253 6.868 7.357 1.14-9.322 3.776-2.882 2.394 6.822s-.267 9.194-5.648 10.903-25.335-3.417-35.445-12.867z"/><path fill="#21558A" d="M5.44 273.79s-2.081 23.583-1.384 33.276c.697 9.706 3.463 23.909 48.497 28.756 45.033 4.846 128.243 15.191 131.497 6.904s8.112-33.265-7.833-42.436c-15.933-9.17-64.011-26.512-64.011-26.512H5.439z"/><path stroke="#fff" stroke-linecap="round" stroke-miterlimit="10" stroke-width=".85" d="M17.526 327.116s3.962 6.125 48.938 10.24 74.273-2.15 74.273-2.15"/><path fill="#231E1F" d="M77.493 101.631c.267 1.744 1.336 3.022 2.394 2.859 1.057-.162 1.685-1.708 1.418-3.44-.268-1.743-1.337-3.022-2.395-2.86-1.057.163-1.685 1.71-1.417 3.441"/><path stroke="#231E1F" stroke-linecap="round" stroke-miterlimit="10" stroke-width="1.7" d="M82.513 94.402s-1.79-2.906-4.927-2.418"/><path fill="#C1CFD9" d="M108.836 182.271s-34.69-20.724-42.36-26.593c-7.67-5.87-25.033-15.563-34.946-2.708-9.914 12.855-1.349 36.972 14.422 47.793 15.782 10.821 37.351 24.118 37.351 24.118s17.654-23.897 25.533-42.61"/><path fill="#FCD2DE" d="m107.29 185.747 22.511 12.529s2.034 1.348 4.73-1.802c2.708-3.161 43.058-56.65 43.058-56.65s.674-27.209 4.73-28.116c4.056-.906 5.857 16.005 5.857 16.005s3.603-19.503 8.786-19.34c5.183.174 1.801 23.838 1.801 23.838s9.472-17.306 12.621-16.318c3.161.988-4.962 23.92-4.962 23.92s6.764-4.44 13.295-1.29c6.531 3.161 8.786 8.345 9.239 11.727s-1.348 5.405-3.382 5.405-1.801-6.567-9.239-7.346c-7.438-.767-10.146 4.893-10.146 8.717s3.161 9.229 9.24 8.996c6.089-.22 6.531-5.648 9.018-6.997 2.475-1.348 6.764 2.941 3.382 8.799s-13.981 12.541-25.916 3.905c0 0-38.096 54.489-46.208 64.403-8.111 9.914-19.605 20.294-41.244 8.113-21.64-12.169-31.17-19.387-31.17-19.387s12.75-26.628 23.988-39.123z"/><path fill="#C1CFD9" d="M83.303 224.869s-28.077-18.573-41.082-27.058l66.487 56.685-2.766-15.156-22.627-14.471z" opacity=".5" style="mix-blend-mode:multiply"/><path fill="#2DC374" d="M215.638 166.929c5.455 0 9.878-4.423 9.878-9.88 0-5.456-4.423-9.879-9.878-9.879-5.456 0-9.879 4.423-9.879 9.879 0 5.457 4.423 9.88 9.879 9.88"/><path fill="#3D7AB8" d="m17.526 327.116 48.938 10.24s-.198 9.508-2.929 18.109-7.008 13.505-7.008 13.505l-19.791-4.707s-6.961 17.307-21.883 16.714-16.247-.395-13.993-9.949c2.255-9.554 16.666-43.912 16.666-43.912"/><path stroke="#fff" stroke-linecap="round" stroke-miterlimit="10" stroke-width=".85" d="M5.695 380.477s-.186-4.672 3.393-17.004c3.58-12.332 13.54-35.287 13.54-35.287"/><path fill="#fff" d="M9.75 361.299s17.177 3.754 16.317 16.389c0 0-4.823 3.44-9.808 3.289-4.986-.151-8.705.104-10.553-1.151-1.847-1.255 4.056-18.538 4.056-18.538z"/><path fill="#fff" d="M22.035 367.646s8.693-7.102 11.203-14.796c0 0 2.917 5.451 3.51 11.413 0 0-4.312 10.542-10.68 13.425 0 0-.117-7.102-4.033-10.054z"/><path fill="#F9E098" d="M168.722 18.62c-20.501 0-25.393 16.818-25.393 21.514s2.452 14.03 7.031 21.142c4.59 7.114 5.659 12.402 5.659 16.644 0 0 7.798 2.116 12.691 2.116s12.691-2.116 12.691-2.116c0-4.242 1.069-9.53 5.659-16.644 4.591-7.113 7.031-16.446 7.031-21.142s-4.892-21.514-25.393-21.514z"/><path stroke="#fff" stroke-linecap="round" stroke-miterlimit="10" stroke-width=".85" d="m159.552 55.244 3.882 24.268M176.38 55.244l-2.371 24.268M156.019 58.324s5.474-.267 8.1-4.242c2.627-3.976 1.476-12.914-4.055-12.39-5.532.522-2.476 14.726 7.728 14.993s15.061-13.727 8.809-15.017c-6.775-1.395-9.541 19.794 7.078 15.017"/><path fill="#F9E098" d="M167.048 14.738 164.422 0h6.043l-2.638 14.738zM185.736 19.678l8.565-12.286 4.265 4.266-12.284 8.566zM150.883 20.224l-12.273-8.566 4.265-4.266 8.565 12.285z"/><path fill="#2DC374" d="M156.019 77.909h25.428v7.706c0 6.95-5.636 12.587-12.586 12.587h-.244c-6.95 0-12.586-5.637-12.586-12.587v-7.706z"/><path fill="#2BAF66" d="M156.019 85.627s3.882 4.137 12.691 4.137 12.726-4.138 12.726-4.138-.221 12.588-12.587 12.588c0 0-11.737.21-12.841-12.588z"/></g><defs><clipPath id="a"><path fill="#fff" d="M0 0h339v381H0z"/></clipPath></defs></svg>