<svg xmlns="http://www.w3.org/2000/svg" width="472" height="352" fill="none"><path fill="#EBEBEB" d="M471.828 309.401H.172v.236h471.656zM424.568 324.579h-31.242v.236h31.242zM312.616 327.145h-8.198v.235h8.198zM392.382 315.824H374.28v.236h18.102zM90.4 317.409H49.66v.236H90.4zM104.776 317.409h-5.97v.236h5.97zM212.559 321.391H124.19v.235h88.369zM223.737 267.329H41.593a5.384 5.384 0 0 1-5.377-5.386V5.9A5.386 5.386 0 0 1 41.593.56h182.144a5.386 5.386 0 0 1 5.387 5.387v255.996a5.386 5.386 0 0 1-5.387 5.386M41.593.749a5.15 5.15 0 0 0-5.14 5.15v256.044a5.15 5.15 0 0 0 5.14 5.15h182.144a5.16 5.16 0 0 0 5.151-5.15V5.9a5.16 5.16 0 0 0-5.151-5.15zM427.785 267.329H245.631a5.4 5.4 0 0 1-5.386-5.386V5.9a5.397 5.397 0 0 1 5.386-5.34h182.154a5.387 5.387 0 0 1 5.367 5.34v256.043a5.39 5.39 0 0 1-5.367 5.386M245.631.749a5.16 5.16 0 0 0-5.15 5.15v256.044a5.16 5.16 0 0 0 5.15 5.15h182.154a5.16 5.16 0 0 0 5.15-5.15V5.9a5.16 5.16 0 0 0-5.15-5.15z"/><path fill="#E6E6E6" d="M302.598 32.266H65.28v135.959h237.318z"/><path fill="#F0F0F0" d="M306.126 32.266H66.931v135.959h239.195z"/><path fill="#FAFAFA" d="M301.192 162.669V37.812H71.873V162.67z"/><path fill="#fff" d="m100.012 162.669 29.007-124.857h38.016L138.037 162.67zM144.188 162.669l28.997-124.857h17.168L161.356 162.67zM212.314 162.669l28.997-124.857h29.328L241.642 162.67z"/><path fill="#E6E6E6" d="M301.183 162.669V37.812h-.632V162.67z"/><path fill="#F0F0F0" d="M193.655 32.266h-14.254v135.959h14.254z"/><path fill="#E6E6E6" d="M179.401 162.669V37.812h-.632V162.67zM186.778 32.266h-.5v135.959h.5zM216.974 221.399h-20.121v87.993h20.121z"/><path fill="#F5F5F5" d="M208.267 309.4h8.707v-14.602h-17.848z"/><path fill="#E6E6E6" d="M60.874 221.399h-20.12v87.993h20.12z"/><path fill="#F5F5F5" d="M216.974 221.399H53.272v82.974h163.702z"/><path fill="#F5F5F5" d="M61.988 309.4h-8.716v-14.602h17.856z"/><path fill="#F0F0F0" d="M210.219 228.38H60.035v30.601h150.184z"/><path fill="#fff" d="M135.123 252.622a8.94 8.94 0 0 1-8.77-10.69 8.94 8.94 0 0 1 16.21-3.213 8.94 8.94 0 0 1-1.12 11.288 8.94 8.94 0 0 1-6.32 2.615m0-16.932a7.998 7.998 0 0 0-7.846 9.56 8 8 0 0 0 2.189 4.096 8.01 8.01 0 0 0 8.718 1.734 8 8 0 0 0-3.061-15.39"/><path fill="#F0F0F0" d="M210.219 266.376H60.035v30.601h150.184z"/><path fill="#fff" d="M135.123 290.62a8.94 8.94 0 0 1-4.968-1.508 8.94 8.94 0 0 1-3.803-9.18 8.944 8.944 0 0 1 12.193-6.517 8.938 8.938 0 0 1 2.898 14.583 8.95 8.95 0 0 1-6.32 2.622m0-16.933a8 8 0 1 0 .001 15.999 8 8 0 0 0-.001-15.999"/><path fill="#E6E6E6" d="M237.358 309.401h66.862v-65.192h-66.862z"/><path fill="#F0F0F0" d="M392.09 244.199h-87.87v65.193h87.87z"/><path fill="#E6E6E6" d="M237.359 249.463H392.09v-10.81H237.359z" opacity=".7" style="mix-blend-mode:multiply"/><path fill="#E6E6E6" d="M233.981 244.199h70.23v-6.244h-70.23z"/><path fill="#F0F0F0" d="M395.467 237.964H304.22v6.245h91.247z"/><path fill="#E6E6E6" d="M421.421 295.777c5.447-11.762.328-25.712-11.434-31.16-11.761-5.447-25.712-.328-31.159 11.434s-.328 25.712 11.433 31.16c11.762 5.447 25.713.328 31.16-11.434"/><path fill="#E6E6E6" d="M394.797 268.63c-1.971.368-3.726-.122-3.905-1.094-.179-.971 1.283-2.047 3.264-2.415s3.726.123 3.905 1.095c.179.971-1.283 2.047-3.264 2.414M385.765 274.378c1.405-1.438 1.974-3.162 1.27-3.85s-2.414-.08-3.82 1.358-1.975 3.161-1.271 3.85c.704.688 2.415.08 3.821-1.358M393.694 277.178c-1.604 1.216-3.509 1.405-4.255.424-.745-.981-.056-2.764 1.547-3.981 1.604-1.217 3.491-1.386 4.255-.443s.056 2.83-1.547 4" opacity=".7" style="mix-blend-mode:multiply"/><path fill="#E6E6E6" d="M406.239 48.415h-67.607v103.651h67.607z"/><path fill="#F5F5F5" d="M411.966 48.415h-71.758v103.651h71.758z"/><path fill="#fff" d="M407.381 147.491v-94.5h-62.607v94.5z"/><path fill="#F5F5F5" d="M396.363 102.891V97.59h-40.572v5.301zM396.373 89.525v-5.301h-40.572v5.301zM396.373 76.148v-5.301h-40.572v5.301zM396.373 116.258v-5.301h-40.572v5.301zM396.373 129.633v-5.301h-40.572v5.301zM236 352c101.012 0 182.898-4.781 182.898-10.678S337.012 330.644 236 330.644s-182.899 4.78-182.899 10.678C53.101 347.219 134.988 352 236 352"/><path fill="#FFC3BD" d="m199.918 333.115 7.15-1.971-2.66-17.083-7.15 1.971zM139.084 333.295h7.414l1.849-17.178h-7.414z"/><path fill="#263238" d="M147.111 332.437h-9.046a.647.647 0 0 0-.632.509l-1.462 6.603a1.1 1.1 0 0 0 .225.921 1.1 1.1 0 0 0 .86.4c2.905-.047 5.037-.227 8.697-.227 2.255 0 9.056.236 12.169.236s3.518-3.075 2.245-3.358c-5.717-1.245-10.027-2.971-11.848-4.613-.33-.302-.76-.47-1.208-.471M206.758 330.332l-7.811 2.151a.63.63 0 0 0-.472.651l.34 6.754a1.072 1.072 0 0 0 1.377.943c2.83-.82 6.83-2.103 10.377-3.084 4.141-1.142 7.782-1.887 12.631-3.236 2.943-.811 2.933-3.999 1.631-3.933-5.933.32-10.536 1.443-16.187-.208a3.44 3.44 0 0 0-1.886-.038"/><path fill="#FFC3BD" d="M179.665 101.061c.293.349.708.849 1.095 1.273l1.179 1.349c.792.943 1.622 1.773 2.462 2.622 1.688 1.708 3.405 3.368 5.197 4.877 3.538 3.028 7.415 5.66 11.15 6.783q.674.22 1.368.368l.67.113c.405.056 0 0 0 .075 0 .076.075 0 .377-.056q.57-.191 1.104-.472a21 21 0 0 0 2.669-1.726 34 34 0 0 0 2.774-2.198c3.688-3.132 7.358-6.735 10.914-10.282l4.471 3.32a82 82 0 0 1-9.263 13.15 36 36 0 0 1-6.424 5.952q-1.099.764-2.302 1.349c-1.045.512-2.166.85-3.32 1a9 9 0 0 1-1.962 0l-1.245-.113c-.812-.123-1.632-.245-2.415-.434a26.7 26.7 0 0 1-4.472-1.424 39 39 0 0 1-4.056-1.953 51.7 51.7 0 0 1-7.122-4.811 68 68 0 0 1-6.188-5.603 91 91 0 0 1-2.83-3.019c-.462-.519-.943-1.037-1.358-1.575s-.859-1.047-1.359-1.717z"/><path fill="#263238" d="m182.259 123.728 2.887 2.896 13.282-10.641-4.755-3.688z"/><path fill="#263238" d="M166.694 104.259c-.547 7.065 15.376 21.498 15.376 21.498l14.075-12.206s-5.934-6.283-12.584-12.594c-4.585-4.339-16.272-4.348-16.867 3.302"/><path fill="#1A446E" d="M166.694 104.259c-.547 7.065 15.376 21.498 15.376 21.498l14.075-12.206s-5.934-6.283-12.584-12.594c-4.585-4.339-16.272-4.348-16.867 3.302" opacity=".5"/><path fill="#000" d="M186.948 121.531a24 24 0 0 0-.519-1.971c-1.83-5.811-6.009-11.075-12.556-11.669-2.952-.264-3.773 1.811-3.594 4.858a95.5 95.5 0 0 0 11.792 13.008l1.188-1.028 1.887 1.887 2.273-1.821a22 22 0 0 0-.471-3.264" opacity=".2"/><path fill="#FFC3BD" d="m220.03 106.324 2.113-6.225 8.339 2.141a39.8 39.8 0 0 1-5.66 5.396z"/><path fill="#FFC3BD" d="m225.444 97.42 6.905 2.396-1.868 2.424-8.338-2.141z"/><path fill="#000" d="m204.408 314.061 1.377 8.81-7.159 1.972-1.368-8.811zM140.923 316.126h7.424l-.952 8.858h-7.424z" opacity=".2"/><path fill="#263238" d="M136.546 100.834a166 166 0 0 1 4.717 24.403c.698 5.745 1.122 11.226 1.387 16.206.613 11.66.358 20.546.707 23.583 5.801-.396 27.658-1.886 39.619-2.754 5.396-42.195-4.896-63.928-4.896-63.928a78 78 0 0 0-9.48-1.18c-.67 0-1.349-.066-2.037-.075a146 146 0 0 0-16.829 1.17 67 67 0 0 0-3.17.452c-5.348.83-10.018 2.123-10.018 2.123"/><path fill="#1A446E" d="M136.546 100.834a166 166 0 0 1 4.717 24.403c.698 5.745 1.122 11.226 1.387 16.206.613 11.66.358 20.546.707 23.583 5.801-.396 27.658-1.886 39.619-2.754 5.396-42.195-4.896-63.928-4.896-63.928a78 78 0 0 0-9.48-1.18c-.67 0-1.349-.066-2.037-.075a146 146 0 0 0-16.829 1.17 67 67 0 0 0-3.17.452c-5.348.83-10.018 2.123-10.018 2.123" opacity=".5"/><path fill="#fff" d="m174.053 122.654-8.641.575a.546.546 0 0 1-.556-.434l-.076-.415a.51.51 0 0 0-.802-.34l-4.65 3.83a.48.48 0 0 0-.141.427.5.5 0 0 0 .092.212q.073.094.181.144l5.896 3.132a.42.42 0 0 0 .241.075.43.43 0 0 0 .242-.072.431.431 0 0 0 .186-.446l-.075-.406a.42.42 0 0 1 .077-.343.42.42 0 0 1 .31-.166l8.64-.576a.43.43 0 0 0 .312-.16.43.43 0 0 0 .085-.34l-.755-4.263a.54.54 0 0 0-.566-.434M158.648 120.511l8.641-.575a.538.538 0 0 1 .557.434l.075.415q.022.132.105.237a.517.517 0 0 0 .706.102l4.651-3.829a.5.5 0 0 0 .136-.433.5.5 0 0 0-.278-.36l-5.886-3.122a.43.43 0 0 0-.645.192.44.44 0 0 0-.025.251l.066.406a.41.41 0 0 1-.214.453.4.4 0 0 1-.172.047l-8.641.585a.424.424 0 0 0-.396.5l.764 4.254a.534.534 0 0 0 .556.443"/><path fill="#263238" d="M149.677 98.231a146 146 0 0 1 16.829-1.17c.689 0 1.377 0 2.047.076h.236c1.198 2.48 2.754 9.867-2.764 10.631-7.49 1.038-15.961-5.433-19.517-9.103 1.037-.15 2.113-.311 3.169-.434"/><path fill="#000" d="M146.545 111.513a31.23 31.23 0 0 1-4.876 17.149 111 111 0 0 0-.378-3.424c-.528-4.32-1.207-8.792-2.113-13.31z" opacity=".2"/><path fill="#FFC3BD" d="M150.036 79.166c1.434 5.349 3.188 15.187-.349 19.064a16.86 16.86 0 0 0 13.329 4.255c4.651-.425 4.66-3.698 3.5-5.424-6.141-1.02-6.302-5.51-5.538-9.792z"/><path fill="#000" d="m154.498 82.478 6.471 4.782a17.6 17.6 0 0 0-.311 3.028c-2.33-.17-5.66-2.48-6.085-4.877a8 8 0 0 1-.075-2.933" opacity=".2"/><path fill="#263238" d="M177.26 50.962c2.745 5.773-8.037 19.81-16.838 18.272a149 149 0 0 1-14.735-3.585c-4.273-1.245-5.839-6.886-1.773-7.603 13.791-2.462 28.799-16.668 33.346-7.084"/><path fill="#FFC3BD" d="M148.819 71.073c.943 7.292 1.151 11.612 5.122 15.093 5.962 5.273 14.773 1.283 16.037-6.16 1.122-6.697-.642-17.508-8.019-19.923a10.045 10.045 0 0 0-13.14 10.99"/><path fill="#263238" d="M163.025 80.402a5.4 5.4 0 0 1-4.603-1.886.2.2 0 0 1-.054-.133c0-.049.02-.096.054-.132a.18.18 0 0 1 .264 0 5.14 5.14 0 0 0 4.283 1.727.19.19 0 0 1 .198.179q.015.038.013.08a.18.18 0 0 1-.079.136.2.2 0 0 1-.076.03M153.932 74.374c2.763-6.018 3.358-12.178-1.698-14.065-5.057-1.886-9.301.642-10.707 4.443-1.406 3.802 8.386 18.395 12.405 9.622"/><path fill="#263238" d="M148.206 62.895c5.075 3.631 22.469 3.848 20.017-2.68-1.84-4.886-13.924-4.735-20.017 2.68"/><path fill="#FFC3BD" d="M146.074 79.384a7 7 0 0 0 4.566 2.773c2.424.359 3.33-1.886 2.405-4.018-.839-1.887-3.113-4.415-5.424-3.774-2.311.642-2.877 3.17-1.547 5.019"/><path fill="#1A446E" d="m208.002 320.485-12.103 3.33s-15.168-47.807-18.866-74.06c-.99-6.961-2.509-16.753-4.839-27.186-2.934-13.14-6.603-27.356-9.641-38.487-3.188-11.726-5.659-20.017-5.659-20.017l26.026-1.821s14.074 61.41 15.574 83.955c1.566 23.526 9.508 74.286 9.508 74.286"/><path fill="#FAFAFA" d="m208.002 320.485-12.103 3.33s-15.168-47.807-18.866-74.06c-.99-6.961-2.509-16.753-4.839-27.186-2.934-13.14-6.603-27.356-9.641-38.487-3.188-11.726-5.659-20.017-5.659-20.017l26.026-1.821s14.074 61.41 15.574 83.955c1.566 23.526 9.508 74.286 9.508 74.286" opacity=".3"/><path fill="#000" d="M172.166 222.569c-2.934-13.14-6.603-27.356-9.641-38.487l2.698-5.82c6.453 7.669 8.188 31.412 6.943 44.307" opacity=".2"/><path fill="#1A446E" d="M168.902 163.225s-2.83 63.503-5.943 85.011c-3.434 23.583-12.14 75.031-12.14 75.031h-13.584s-.226-48.807 4.028-71.626c4.849-25.979 2.094-86.634 2.094-86.634z"/><path fill="#FAFAFA" d="M168.902 163.225s-2.83 63.503-5.943 85.011c-3.434 23.583-12.14 75.031-12.14 75.031h-13.584s-.226-48.807 4.028-71.626c4.849-25.979 2.094-86.634 2.094-86.634z" opacity=".3"/><path fill="#1A446E" d="M152.451 323.56h-15.999v-4.783l17.876-.311zM208.842 320.551l-13.669 3.773-1.971-4.717 15.583-4.32z"/><path fill="#263238" d="M160.082 72.347c0 .594.387 1.057.783 1.028s.67-.537.632-1.132-.396-1.056-.783-1.028-.679.528-.632 1.132M166.827 71.875c0 .595.386 1.057.783 1.029.396-.029.669-.538.632-1.132-.038-.595-.397-1.057-.783-1.029-.387.029-.67.566-.632 1.132"/><path fill="#ED847E" d="M164.705 72.318a21.3 21.3 0 0 0 3.207 4.906c-.943 1.056-2.906.594-2.906.594z"/><path fill="#263238" d="M157.837 70.309a.37.37 0 0 0 .33-.16 2.83 2.83 0 0 1 2.16-1.33.35.35 0 0 0 .349-.35.347.347 0 0 0-.349-.349 3.5 3.5 0 0 0-2.754 1.641.357.357 0 0 0 .264.548M169.553 69.346a.36.36 0 0 0 .349-.528 3.49 3.49 0 0 0-2.66-1.792.34.34 0 0 0-.255.085.34.34 0 0 0-.113.245.358.358 0 0 0 .33.368 2.83 2.83 0 0 1 2.085 1.452.36.36 0 0 0 .264.17"/><path fill="#1A446E" d="M149.564 333.738a2.22 2.22 0 0 0 1.425-.377 1.095 1.095 0 0 0 .368-.943.56.56 0 0 0-.081-.289.56.56 0 0 0-.221-.202c-.821-.424-3.217 1.047-3.481 1.217a.16.16 0 0 0-.085.17.18.18 0 0 0 .132.151 9 9 0 0 0 1.943.273m1.104-1.537a.4.4 0 0 1 .226.047c.048 0 .104.066.114.207a.71.71 0 0 1-.246.632c-.405.34-1.367.387-2.631.132a7.1 7.1 0 0 1 2.537-1.018"/><path fill="#1A446E" d="M147.669 333.474h.075c.774-.415 2.255-2.047 2.094-2.83a.555.555 0 0 0-.556-.462.95.95 0 0 0-.746.226c-.858.698-1.037 2.83-1.047 2.934a.2.2 0 0 0 .017.09.2.2 0 0 0 .059.07.2.2 0 0 0 .104-.028m1.49-3.009h.057c.226 0 .245.132.254.179.095.481-.849 1.717-1.613 2.292a4.2 4.2 0 0 1 .868-2.32.65.65 0 0 1 .434-.151M207.757 331.125c1.217-.085 3.339-.377 3.934-1.283a1.01 1.01 0 0 0 .094-.943.56.56 0 0 0-.406-.368c-1-.236-3.48 2-3.773 2.264a.16.16 0 0 0-.056.091.16.16 0 0 0 .009.107.2.2 0 0 0 .077.099.2.2 0 0 0 .121.033m3.528-2.235a.21.21 0 0 1 .151.15.64.64 0 0 1 0 .604c-.33.51-1.49.896-3.141 1.076.99-.859 2.405-1.887 2.99-1.83"/><path fill="#1A446E" d="M207.757 331.125a.23.23 0 0 0 .132 0c.755-.632 2.047-2.651 1.689-3.415-.085-.189-.283-.387-.764-.302a1.28 1.28 0 0 0-.859.547c-.698 1-.358 2.981-.349 3.066a.2.2 0 0 0 .114.132zm1.321-3.425c.142 0 .17.085.179.114.217.462-.613 1.999-1.349 2.773a4.14 4.14 0 0 1 .34-2.472.95.95 0 0 1 .632-.396 1 1 0 0 1 .198-.019"/><path fill="#263238" d="M136.414 162.603a3.206 3.206 0 0 0-2.65-3.085l-22.074-2.49a3.34 3.34 0 0 0-3.434 3.207l-6.471 57.335a3.35 3.35 0 0 0 2.632 3.886l70.06 7.905a3.34 3.34 0 0 0 3.424-3.207l5.443-48.109a3.34 3.34 0 0 0-2.632-3.887l-38.1-4.348c-3.321-.397-5.886-3.359-6.198-7.207"/><path fill="#1A446E" d="M145.725 175.177a2.44 2.44 0 0 0-2.216-2.736l-22.074-2.49a3.93 3.93 0 0 0-3.981 2.745l-13.961 45.458a2.52 2.52 0 0 0 .183 2.239 2.518 2.518 0 0 0 1.902 1.195l70.05 7.905a3.93 3.93 0 0 0 3.981-2.745l11.508-37.469c.146-.361.205-.752.173-1.14a2.502 2.502 0 0 0-2.257-2.293l-38.119-4.302a5.66 5.66 0 0 1-3.963-2.068 5.68 5.68 0 0 1-1.226-4.299"/><path fill="#FFC3BD" d="m144.545 111.71-2.084 2.991a119 119 0 0 0-2.076 3.094 234 234 0 0 0-3.952 6.282c-1.283 2.104-2.443 4.264-3.556 6.415a57 57 0 0 0-2.877 6.49l-.076.188v.076q-.027.083-.066.16c0 .17-.085.321-.123.519-.066.396-.113.868-.16 1.377a26 26 0 0 0 0 3.321c.132 2.339.396 4.811.764 7.273.708 4.943 1.642 10.018 2.594 15.008l-5.282 1.754a109 109 0 0 1-5.594-14.961 68 68 0 0 1-1.887-8.037 35 35 0 0 1-.462-4.414 20.5 20.5 0 0 1 .057-2.5c0-.443.113-.943.179-1.406l.179-.783.094-.386.076-.274a75 75 0 0 1 6.443-15.319 109 109 0 0 1 4.15-6.971 129 129 0 0 1 2.255-3.358 86 86 0 0 1 2.443-3.34z"/><path fill="#263238" d="m124.972 118.371-2.387 3.33 12.679 11.339 2.858-5.292z"/><path fill="#263238" d="M136.546 100.835c-6.952 1.405-13.046 18.404-13.046 18.404l14.509 11.819s4.716-8.64 8.555-16.979c4.142-9.084-1.594-14.942-10.018-13.244"/><path fill="#1A446E" d="M136.546 100.835c-6.952 1.405-13.046 18.404-13.046 18.404l14.509 11.819s4.716-8.64 8.555-16.979c4.142-9.084-1.594-14.942-10.018-13.244" opacity=".5"/><path fill="#FFC3BD" d="m132.132 163.433 5.009 5.659-9.065 2.774s-3.198-5.736-.35-7.773z"/><path fill="#FFC3BD" d="m137.565 175.243-7.593 1.934-1.896-5.349 9.065-2.773z"/><path fill="#263238" d="M307.494 74.356a3.2 3.2 0 0 0-3.273-2.415l-22.074 2.538a3.34 3.34 0 0 0-2.622 3.895l6.603 57.316a3.33 3.33 0 0 0 3.434 3.198l70.012-8.037a3.34 3.34 0 0 0 2.623-3.896l-5.528-48.109a3.35 3.35 0 0 0-3.434-3.198l-38.11 4.377c-3.292.34-6.49-1.99-7.631-5.669"/><path fill="#1A446E" d="M318.068 53.462a400 400 0 0 1 9.32 64.918 1053 1053 0 0 1-52.212 4.877 346.3 346.3 0 0 0-11.263-70.616 1019 1019 0 0 0 36.742-10.631 367 367 0 0 1 17.413 11.452"/><path fill="#FAFAFA" d="M318.068 53.462a400 400 0 0 1 9.32 64.918 1053 1053 0 0 1-52.212 4.877 346.3 346.3 0 0 0-11.263-70.616 1019 1019 0 0 0 36.742-10.631 367 367 0 0 1 17.413 11.452" opacity=".7"/><path fill="#1A446E" d="M315.135 64.394a1078 1078 0 0 1-40.931 9.433 1.093 1.093 0 0 1-1.283-.877 1.124 1.124 0 0 1 .84-1.32 1016 1016 0 0 0 40.874-9.632 1.104 1.104 0 0 1 1.311.943 1.247 1.247 0 0 1-.811 1.453M316.606 72.064a1062 1062 0 0 1-41.1 8.603 1.094 1.094 0 0 1-1.273-.896 1.123 1.123 0 0 1 .868-1.311 1050 1050 0 0 0 41.053-8.858 1.1 1.1 0 0 1 1.292.943 1.266 1.266 0 0 1-.84 1.519M317.927 79.8a1040 1040 0 0 1-41.261 7.829 1.093 1.093 0 0 1-1.254-.943 1.1 1.1 0 0 1 .197-.85 1.13 1.13 0 0 1 .746-.452 1020 1020 0 0 0 41.213-8.075 1.12 1.12 0 0 1 1.146.576c.072.134.115.282.128.433a1.25 1.25 0 0 1-.915 1.481M319.097 87.534a1027 1027 0 0 1-41.412 7.047 1.09 1.09 0 0 1-1.098-.537 1.1 1.1 0 0 1-.137-.407 1.13 1.13 0 0 1 .943-1.282 1025 1025 0 0 0 41.364-7.302 1.11 1.11 0 0 1 1.255 1.038 1.247 1.247 0 0 1-.915 1.443M303.607 98.034a1093 1093 0 0 1-25.035 3.575 1.096 1.096 0 0 1-1.091-.576 1.1 1.1 0 0 1-.126-.415 1.144 1.144 0 0 1 .943-1.264q12.509-1.707 25.008-3.726a1.13 1.13 0 0 1 1.113.6q.105.203.122.428a1.215 1.215 0 0 1-.934 1.378M318.068 53.462q-6.801 1.886-13.64 3.773a366 366 0 0 0-3.773-15.197 352 352 0 0 1 17.413 11.424"/><path fill="#1A446E" d="M319.398 84.516a2.425 2.425 0 0 0-1.799-2.105 2.4 2.4 0 0 0-.974-.055l-22.073 2.528a3.946 3.946 0 0 0-3.264 3.575l-3.406 47.43a2.5 2.5 0 0 0 2.83 2.83l70.022-7.981a3.924 3.924 0 0 0 3.264-3.566l2.83-39.1a2.502 2.502 0 0 0-1.673-2.77 2.5 2.5 0 0 0-1.157-.107l-38.11 4.377a5.66 5.66 0 0 1-6.49-5.056M265.781 121.304a1247 1247 0 0 1-7.245 58.325 4955 4955 0 0 0-51.675-7.914 1217 1217 0 0 0 8.264-70.069 4988 4988 0 0 1 38.025 3.622 1051 1051 0 0 1 12.631 16.036"/><path fill="#FAFAFA" d="M265.781 121.304a1247 1247 0 0 1-7.245 58.325 4955 4955 0 0 0-51.675-7.914 1217 1217 0 0 0 8.264-70.069 4988 4988 0 0 1 38.025 3.622 1051 1051 0 0 1 12.631 16.036" opacity=".7"/><path fill="#1A446E" d="M259.696 129.596a3971 3971 0 0 0-41.628-4.717 1.1 1.1 0 0 1-.718-.411 1.09 1.09 0 0 1-.225-.796 1.094 1.094 0 0 1 1.198-.943 4852 4852 0 0 1 41.637 4.669 1.134 1.134 0 0 1 .944 1.255 1.116 1.116 0 0 1-1.208.943M258.914 136.652a4935 4935 0 0 0-41.6-4.962 1.11 1.11 0 0 1-.944-1.226 1.1 1.1 0 0 1 1.208-.943 5393 5393 0 0 1 41.609 4.895 1.133 1.133 0 0 1 .944 1.264 1.107 1.107 0 0 1-1.217.972M258.092 143.708a4698 4698 0 0 0-41.571-5.197 1.116 1.116 0 0 1-.944-1.227 1.117 1.117 0 0 1 1.217-.943 5467 5467 0 0 1 41.581 5.132 1.13 1.13 0 0 1 .53 2.001 1.1 1.1 0 0 1-.813.234M257.234 150.755a3728 3728 0 0 0-41.505-5.424 1.107 1.107 0 0 1-.944-1.226 1.094 1.094 0 0 1 1.217-.944 4836 4836 0 0 1 41.553 5.358 1.134 1.134 0 0 1 .943 1.274 1.113 1.113 0 0 1-1.264.962M239.839 155.499a6883 6883 0 0 0-25.016-3.367 1.08 1.08 0 0 1-.729-.416 1.08 1.08 0 0 1-.215-.811 1.094 1.094 0 0 1 1.217-.943 5166 5166 0 0 1 25.017 3.321 1.12 1.12 0 0 1 .943 1.264 1.1 1.1 0 0 1-1.217.952M265.781 121.304l-14.009-1.547q.736-7.264 1.378-14.536a1241 1241 0 0 1 12.631 16.083"/></svg>