<svg xmlns="http://www.w3.org/2000/svg" width="387" height="319" fill="none"><path fill="#86A6B5" d="M357.634 176.175c-4.115-16.711-24.394-40.029-41.952-46.397-22.422-8.131-33.373 5.102-53.014 2.84-53.034-6.118-74.309-48.25-101.643-86.377C100.537-38.252-19.262-.993 15.137 109.65c20.667 66.496 99.65 166.984 179.549 100.078 34.519-28.898 19.562-45.4 66.048-20.049 18.346 10.005 115.535 62.191 96.9-13.503"/><path fill="#fff" d="M357.634 176.175c-4.115-16.711-24.394-40.029-41.952-46.397-22.422-8.131-33.373 5.102-53.014 2.84-53.034-6.118-74.309-48.25-101.643-86.377C100.537-38.252-19.262-.993 15.137 109.65c20.667 66.496 99.65 166.984 179.549 100.078 34.519-28.898 19.562-45.4 66.048-20.049 18.346 10.005 115.535 62.191 96.9-13.503" opacity=".9"/><path fill="#F5F5F5" d="M193.212 318.994c106.707 0 193.211-5.051 193.211-11.281s-86.504-11.28-193.211-11.28S0 301.483 0 307.713s86.504 11.281 193.212 11.281"/><path fill="#21558A" d="M312.672 302.023h-1.066a.92.92 0 0 1-.587-.273.92.92 0 0 1-.26-.594l-6.557-45.66h4.983l4.344 45.361a1.004 1.004 0 0 1-.476 1.037 1 1 0 0 1-.381.129"/><path fill="#000" d="M312.672 302.023h-1.066a.92.92 0 0 1-.587-.273.92.92 0 0 1-.26-.594l-6.557-45.66h4.983l4.344 45.361a1.004 1.004 0 0 1-.476 1.037 1 1 0 0 1-.381.129" opacity=".3"/><path fill="#21558A" d="M326.344 302.023h-1.066a.916.916 0 0 1-.847-.867l-6.557-45.66h4.983l4.354 45.361a.994.994 0 0 1-.867 1.166"/><path fill="#000" d="M326.344 302.023h-1.066a.916.916 0 0 1-.847-.867l-6.557-45.66h4.983l4.354 45.361a.994.994 0 0 1-.867 1.166" opacity=".3"/><path fill="#21558A" d="M250.172 302.023h1.066a.92.92 0 0 0 .847-.867l6.557-45.66h-4.982l-4.345 45.361a1 1 0 0 0 .177.767 1 1 0 0 0 .68.399"/><path fill="#000" d="M250.172 302.023h1.066a.92.92 0 0 0 .847-.867l6.557-45.66h-4.982l-4.345 45.361a1 1 0 0 0 .177.767 1 1 0 0 0 .68.399" opacity=".3"/><path fill="#21558A" d="M236.5 302.023h1.066a.92.92 0 0 0 .587-.273.92.92 0 0 0 .26-.594l6.557-45.66h-4.983l-4.344 45.361a1.004 1.004 0 0 0 .476 1.037q.177.103.381.129"/><path fill="#000" d="M236.5 302.023h1.066a.92.92 0 0 0 .587-.273.92.92 0 0 0 .26-.594l6.557-45.66h-4.983l-4.344 45.361a1.004 1.004 0 0 0 .476 1.037q.177.103.381.129" opacity=".3"/><path fill="#21558A" d="M218.782 201.357h33.562c5.979-20.678 27.384-36.99 49.327-36.99h10.902c22.919 0 37.787 17.867 33.103 39.919a44.5 44.5 0 0 1-4.275 11.63l-5.291 32.077c-.678 4.145-3.986 7.504-7.374 7.504H227.711c-3.389 0-6.697-3.359-7.375-7.504l-6.457-39.173c-.687-4.105 1.515-7.463 4.903-7.463"/><path fill="#fff" d="M218.782 201.357h33.562c5.979-20.678 27.384-36.99 49.327-36.99h10.902c22.919 0 37.787 17.867 33.103 39.919a44.5 44.5 0 0 1-4.275 11.63l-5.291 32.077c-.678 4.145-3.986 7.504-7.374 7.504H227.711c-3.389 0-6.697-3.359-7.375-7.504l-6.457-39.173c-.687-4.105 1.515-7.463 4.903-7.463" opacity=".5"/><path fill="#263238" d="m210.381 290.215 8.311 3.806a.59.59 0 0 1 .319.758l-2.621 6.766a1.43 1.43 0 0 1-1.893.717c-2.87-1.375-4.175-2.182-7.833-3.856a98 98 0 0 1-11.18-6.477c-2.711-1.993-.718-4.684.627-4.086 6.079 2.68 9.965 2.92 12.786 2.242a2.22 2.22 0 0 1 1.484.13"/><path fill="#21558A" d="M269.324 188.323s-53.143.657-53.97 21.604c-1.176 30.114-5.62 80.108-5.62 80.108l8.968 3.986s15.705-50.163 16.263-73.681c14.948-3.707 53.383 0 57.897-12.217a40.3 40.3 0 0 0 1.704-19.8z"/><path fill="#000" d="M269.324 188.323s-53.143.657-53.97 21.604c-1.176 30.114-5.62 80.108-5.62 80.108l8.968 3.986s15.705-50.163 16.263-73.681c14.948-3.707 53.383 0 57.897-12.217a40.3 40.3 0 0 0 1.704-19.8z" opacity=".2"/><path fill="#263238" d="M280.635 133.206a121 121 0 0 1-1.465 5.491 176 176 0 0 1-1.654 5.351c-1.166 3.547-2.452 7.075-3.926 10.563a86 86 0 0 1-5.132 10.363 51 51 0 0 1-3.368 5.093 29 29 0 0 1-4.634 4.882l-.15.13-.319.239a7.6 7.6 0 0 1-3.348 1.196 9.3 9.3 0 0 1-2.262 0 13.8 13.8 0 0 1-3.059-.738 32.5 32.5 0 0 1-4.454-1.993 75 75 0 0 1-7.404-4.703 127 127 0 0 1-6.717-5.182 115 115 0 0 1-6.318-5.6 3.05 3.05 0 0 1-.329-3.998 3.05 3.05 0 0 1 3.917-.865h.05c2.351 1.305 4.723 2.69 7.105 3.986 2.381 1.295 4.733 2.601 7.095 3.817 2.361 1.215 4.733 2.371 6.975 3.308 1.029.439 2.092.792 3.179 1.056.323.097.66.14.997.13h-.21a3.14 3.14 0 0 0-1.415.528l-.478.359a17.6 17.6 0 0 0 2.581-3.179 43 43 0 0 0 2.401-4.076 96 96 0 0 0 4.096-9.247 190 190 0 0 0 3.438-9.826c1.066-3.328 2.063-6.746 2.989-9.965v-.12a6.1 6.1 0 0 1 7.407-4.294 6.095 6.095 0 0 1 4.402 7.344zM259.09 294.52h9.965a.62.62 0 0 1 .457.166.63.63 0 0 1 .201.441l.488 7.883a1.58 1.58 0 0 1-1.554 1.584c-3.468-.06-5.132-.269-9.517-.269-2.69 0-8.131.279-11.858.279s-3.617-3.677-2.043-3.986c7.085-1.495 9.826-3.557 12.327-5.53a2.57 2.57 0 0 1 1.534-.568"/><path fill="#21558A" d="M283.644 188.322s-48.201 4.066-47.015 25.003c1.296 22.919 22.461 81.214 22.461 81.214h9.746s-8.34-53.382-11.28-76.73c13.592 0 45.101 2.551 49.626-9.696a40.2 40.2 0 0 0 1.694-19.801zM230.76 154.412a16.2 16.2 0 0 0-2.711-3.329c-1.993 1.854-3.079 7.245-3.079 7.245l2.721.239s3.129-1.016 3.069-4.155"/><path fill="#FFC3BD" d="m220.755 149.569-3.099-1.346a1.814 1.814 0 0 0-2.272.728l-1.475 2.431a1.825 1.825 0 0 0 .249 2.192l4.255 4.435 7.095-.289a2.25 2.25 0 0 0 1.924-1.226l.817-1.604a2.224 2.224 0 0 0-.708-2.88c-2.302-1.515-6.786-2.441-6.786-2.441"/><path fill="#263238" d="M268.866 131.163c-1.415 8.969-3.258 28.331.498 57.528l39.512-.369c-.24-20.239 2.929-39.232 6.028-57.797a5.516 5.516 0 0 0-4.693-6.387 146.7 146.7 0 0 0-34.11 0 8.5 8.5 0 0 0-7.235 7.025"/><path fill="#263238" d="M315.263 128.004c1.166 2.88 2.093 5.64 3.05 8.49s1.773 5.71 2.561 8.61c.787 2.9 1.474 5.859 1.993 8.879a73 73 0 0 1 1.205 9.337c.06.807.07 1.644.08 2.481v1.276a7.8 7.8 0 0 1-.996 3.737 6.8 6.8 0 0 1-1.655 1.933 6.6 6.6 0 0 1-.996.658 6 6 0 0 1-.997.438 8.3 8.3 0 0 1-2.929.518 13.3 13.3 0 0 1-3.488-.548 31 31 0 0 1-4.823-1.903 68 68 0 0 1-4.126-2.242 109 109 0 0 1-14.618-10.454 3.04 3.04 0 0 1 3.258-5.082h.07c5.152 2.452 10.393 4.983 15.496 7.085 1.275.519 2.541.997 3.786 1.425 1.104.406 2.241.716 3.398.927.459.08.867.07.817 0a1.5 1.5 0 0 0-.787.14q-.236.09-.458.209a3.3 3.3 0 0 0-.538.359 4.3 4.3 0 0 0-.997 1.106 3.7 3.7 0 0 0-.518 1.634l-.05-.907c-.06-.618-.109-1.226-.199-1.863a106 106 0 0 0-3.727-15.944c-1.594-5.351-3.428-10.812-5.291-16.004v-.05a6.1 6.1 0 0 1 3.593-7.682 6.096 6.096 0 0 1 7.797 3.337z"/><path fill="#FFC3BD" d="m299.469 104.098-4.774 3.986-6.517 5.411q.302 1.296.419 2.621c.309 3.149-.379 6.039-4.195 7.503a4.99 4.99 0 0 0-3.149 3.08c-.518 1.664.089 3.527 5.331 3.527 7.703 0 11.719-3.428 13.234-5.112a1.36 1.36 0 0 0 .069-1.704c-3.039-4.345-1.664-13.911-.418-19.312"/><path fill="#21558A" d="M286.394 128.512c.335.387.565.854.668 1.355a5.5 5.5 0 0 1 1.445-1.355 5.2 5.2 0 0 1 1.728 1.317 5.2 5.2 0 0 1 1.032 1.912 14.6 14.6 0 0 1-4.145-1.535 7.1 7.1 0 0 1-2.77.857c.059-1.724 2.042-2.551 2.042-2.551"/><path fill="#21558A" d="M288.507 128.512a12.1 12.1 0 0 1 2.641 5.81s12.755-3.189 12.157-11.51a13 13 0 0 0-3.537-1.086s-2.741 4.983-11.261 6.786M286.395 128.512a13.4 13.4 0 0 0-2.81 5.81s-6.537-5.979-.17-11.44c1.1-.349 2.231-.586 3.378-.707 0 0-4.235 3.438-.398 6.337"/><path fill="#000" d="M288.178 113.465q.301 1.3.419 2.631c2.431-.489 5.67-3.07 5.979-5.551.12-.821.15-1.653.09-2.481z" opacity=".2"/><path fill="#263238" d="M281.203 86.938c-5.979 4.255-2.651 14.23 2.471 10.414s2.412-13.881-2.471-10.414"/><path fill="#FFC3BD" d="M301.442 95.827c-1.665 7.633-2.243 12.177-6.757 15.665a10.16 10.16 0 0 1-14.638-2.164 10.17 10.17 0 0 1-1.804-5.15c-.598-7.115 2.222-18.415 10.254-20.578a10.283 10.283 0 0 1 12.945 12.227"/><path fill="#263238" d="M297.904 90.157c-4.235-1.166-15.157 1.614-19.033-2.521-4.156-4.435 1.903-6.597 3.697-5.053-2.262-2.59-1.425-5.36 1.783-5.112 2.342.18 3.08 2.77 3.08 2.77s-.389-4.533 3.637-4.215c3.647.28 3.657 5.202 3.657 5.202s8.709-2.461 11.619 5.85c5.481-.12 5.361 11.42-5.67 15.525-4.474-2.212-4.683-10.084-2.77-12.446"/><path fill="#263238" d="M305.169 88.742a1.105 1.105 0 0 1-.2-2.202c.3-.19.528-.474.648-.807a2.61 2.61 0 0 0 .12-2.073 1.1 1.1 0 0 1-.123-.904 1.107 1.107 0 0 1 2.116-.013 4.855 4.855 0 0 1-.239 4.155 3.21 3.21 0 0 1-2.143 1.824.6.6 0 0 1-.179.02"/><path fill="#FFC3BD" d="M302.687 102.912a6.97 6.97 0 0 1-4.195 2.591c-2.162.389-2.82-1.604-1.863-3.527.857-1.744 2.989-4.036 4.982-3.538s2.352 2.76 1.076 4.474"/><path fill="#263238" d="M288.358 96.525c-.1.627-.508 1.096-.917 1.046-.408-.05-.667-.598-.578-1.226s.508-1.096.927-.996c.418.1.658.548.568 1.175M281.243 95.678c-.1.627-.509 1.096-.917.996s-.668-.598-.578-1.226c.09-.627.508-1.096.927-1.046.418.05.667.648.568 1.275"/><path fill="#ED847E" d="M283.415 95.927a20.3 20.3 0 0 1-2.989 4.474 3.06 3.06 0 0 0 2.541.608z"/><path fill="#263238" d="M285.886 104.238a5.52 5.52 0 0 0 3.986-1.635.19.19 0 0 0-.033-.243.18.18 0 0 0-.122-.049.2.2 0 0 0-.124.043 5.23 5.23 0 0 1-4.374 1.465.2.2 0 0 0-.135.04.2.2 0 0 0-.075.119.192.192 0 0 0 .099.188.2.2 0 0 0 .071.022q.352.044.707.05M291.218 92.907a.35.35 0 0 0 .159-.08.37.37 0 0 0 0-.528 3.56 3.56 0 0 0-3.119-1.235.38.38 0 0 0-.243.15.38.38 0 0 0-.066.278.37.37 0 0 0 .429.31 2.85 2.85 0 0 1 2.451.996.37.37 0 0 0 .389.11M278.701 92.499a.38.38 0 0 0 .339-.07 3.09 3.09 0 0 1 2.661-.717.38.38 0 0 0 .458-.26.359.359 0 0 0-.128-.394.4.4 0 0 0-.131-.064 3.81 3.81 0 0 0-3.328.867.368.368 0 0 0 .129.638"/><path fill="#FFC3BD" d="m291.676 148.97-4.365-2.71a2.75 2.75 0 0 0-2.105-.343 2.746 2.746 0 0 0-1.721 1.26l-.508.857a2.745 2.745 0 0 0 .279 3.238l2.989 3.458s2.621 6.109 5.66 4.494l2.312-3.986z"/><path fill="#21558A" d="M296.17 156.783a18.7 18.7 0 0 0-2.312-4.066c-2.192 1.874-3.986 7.853-3.986 7.853l2.681.578a4.98 4.98 0 0 0 3.617-4.365M329.563 201.357h-51.738c-3.388 0-5.581 3.358-4.903 7.503l6.457 39.133c.688 4.145 3.986 7.504 7.384 7.504h36.393z"/><path fill="#fff" d="M329.563 201.357h-51.738c-3.388 0-5.581 3.358-4.903 7.503l6.457 39.133c.688 4.145 3.986 7.504 7.384 7.504h36.393z" opacity=".5"/><path fill="#7F3E3B" d="m62.43 139.065-2.271 16.712c-.718 5.56-1.465 11.141-1.993 16.621-.07.688-.12 1.356-.18 1.993l-.08.997a2.5 2.5 0 0 0 0-.498 2.42 2.42 0 0 0-.399-1.047c-.178-.229-.198-.199-.148-.149q.153.163.338.289.631.43 1.316.767a53 53 0 0 0 7.324 2.721c5.222 1.584 10.713 2.989 16.134 4.295l-.618 4.753a119.4 119.4 0 0 1-17.28-1.784 50.3 50.3 0 0 1-8.878-2.342 19 19 0 0 1-2.462-1.156 11 11 0 0 1-1.395-.946 7.8 7.8 0 0 1-1.584-1.694 6.6 6.6 0 0 1-.758-1.525 8 8 0 0 1-.239-.997 10 10 0 0 1-.06-.996v-1.106c0-.738 0-1.475.06-2.202.24-5.82.768-11.5 1.385-17.18.618-5.68 1.336-11.31 2.222-16.941z"/><path fill="#7F3E3B" d="m94.967 186.898-3.657 3.338a2.835 2.835 0 0 1-3.14.458l-4.035-1.943s-5.98-.249-6.846-3.906l1.554-2.84 9.278-.997a4.37 4.37 0 0 1 2.73.608l3.827 2.342a1.874 1.874 0 0 1 .289 2.94M73.083 104.746c.997 5.74 1.754 16.213-2.351 19.93 0 0 9.965 5.242 16.571 14.39 6.976-5.561 1.146-13.862 1.146-13.862-6.317-1.704-5.979-6.417-4.773-10.812z"/><path fill="#21558A" d="M91.808 128.692s-.528-4.863-3.18-7.265c-2.221-1.993-13.95-.896-17.607-.488a2.04 2.04 0 0 0-1.595 1.136l-2.67 5.58z"/><path fill="#fff" d="M91.808 128.692s-.528-4.863-3.18-7.265c-2.221-1.993-13.95-.896-17.607-.488a2.04 2.04 0 0 0-1.595 1.136l-2.67 5.58z" opacity=".8"/><path fill="#21558A" d="M59.412 126.111c-7.215 2.352-8.77 12.028-8.112 19.551l14.559 8.969s3.538-10.962 3.508-16.861c-.03-6.238-5.053-13.233-9.955-11.659"/><path fill="#fff" d="M62.232 152.449a1.4 1.4 0 0 1-.997-.389 1.5 1.5 0 0 1-.16-.209 1 1 0 0 1-.129-.239 2 2 0 0 1-.08-.25 1.2 1.2 0 0 1 0-.259 1.37 1.37 0 0 1 .399-.996 1.395 1.395 0 0 1 1.913 0 1.36 1.36 0 0 1 .399.996q.015.13 0 .259-.023.13-.08.25a1 1 0 0 1-.12.239l-.169.209a1.35 1.35 0 0 1-.976.389"/><path fill="#fff" d="M59.432 151.532a1.36 1.36 0 0 1-.867-1.216 1.335 1.335 0 0 1-1.465.219 1.36 1.36 0 0 1-.787-1.255 1.33 1.33 0 0 1-1.475.129 1.34 1.34 0 0 1-.708-1.295 1.356 1.356 0 0 1-1.943-1.804 1.367 1.367 0 0 1 1.864-.458 1.39 1.39 0 0 1 .647 1.265 1.34 1.34 0 0 1 1.415-.09 1.36 1.36 0 0 1 .718 1.226 1.35 1.35 0 0 1 1.405-.169 1.35 1.35 0 0 1 .787 1.176 1.37 1.37 0 0 1 1.395-.25 1.355 1.355 0 0 1-.498 2.611 1.5 1.5 0 0 1-.488-.089"/><path fill="#fff" d="M51.3 147.038q-.135.015-.27 0a1 1 0 0 1-.248-.08.9.9 0 0 1-.24-.12l-.199-.169a1 1 0 0 1-.17-.199c0-.08-.089-.16-.129-.239a3 3 0 0 1-.08-.249 3 3 0 0 1 0-.27 2 2 0 0 1 0-.259q.035-.131.08-.259a1 1 0 0 1 .13-.229q.075-.111.17-.209l.198-.17q.114-.07.24-.119l.249-.08a1.4 1.4 0 0 1 1.215.369 1.6 1.6 0 0 1 .3.438q.048.126.07.259.015.13 0 .259.014.135 0 .27a1.2 1.2 0 0 1-.07.249c0 .079-.08.159-.13.239q-.072.11-.17.199c-.256.24-.595.372-.946.369"/><path fill="#21558A" d="M105.29 140.192c-.607 8.29-2.451 22.242-6.975 45.739l-39.003-1.156c.996-14.399-.528-25.132-4.056-50.333a8.2 8.2 0 0 1 4.165-8.301 8.2 8.2 0 0 1 3.12-.977c2.5-.259 5.35-.468 8.21-.528a125 125 0 0 1 17.718.528c1.894.23 3.857.538 5.73.857a13.377 13.377 0 0 1 11.091 14.171"/><path fill="#263238" d="M93.263 94.223c.09.767.578 1.345 1.076 1.275s.837-.727.747-1.494c-.09-.768-.578-1.346-1.076-1.286s-.837.708-.747 1.505"/><path fill="#263238" d="m93.791 92.768 1.784-.757s-.778 1.554-1.784.757"/><path fill="#630F0F" d="M93.562 95.389a20.8 20.8 0 0 0 3.328 4.584 3.32 3.32 0 0 1-2.68.847z"/><path fill="#263238" d="M93.352 87.457a.47.47 0 0 0 0-.459.46.46 0 0 0-.608-.209 4.5 4.5 0 0 0-2.59 3.249.45.45 0 0 0 .388.508.45.45 0 0 0 .508-.389 3.63 3.63 0 0 1 2.083-2.55.38.38 0 0 0 .22-.15"/><path fill="#7F3E3B" d="M66.716 94.024c1.714 9.377 2.242 13.382 7.593 17.667 8.052 6.438 19.203 2.282 20.329-7.423.996-8.74-1.993-22.611-11.66-25.262a13.015 13.015 0 0 0-16.262 15.017"/><path fill="#263238" d="M87.383 96.654c1.575 5.152 5.342 17.609-2.99 20.389-6.506 2.172-26.905 3.906-29.246-8.042-2.422-12.347 8.59-21.146 8.59-21.146s-8.73-7.155-3.14-14.947c7.205-10.045 24.464-4.365 29.577 2.73 4.992 6.906-2.79 21.016-2.79 21.016"/><path fill="#263238" d="M71.639 118.757a29.1 29.1 0 0 1-10.962-2.153c-4.624-1.993-7.324-5.072-7.812-8.909-1.635-13.024 10.483-20.179 10.612-20.248l.479.827c-.12.07-11.69 6.915-10.135 19.302.558 4.394 4.245 6.856 7.245 8.141 5.919 2.551 13.562 2.531 15.416 1.176l.568.777c-.937.708-2.97 1.087-5.411 1.087"/><path fill="#21558A" d="M59.99 85.992c-.11 1.664-1.485 3.986 4.284 4.813s13.802.777 15.456-.608 3.269-4.713-.18-4.415c-3.447.3-19.371-2.64-19.56.21"/><path fill="#7F3E3B" d="M84.224 98.12a7.52 7.52 0 0 0 4.425 3.616c2.51.738 3.806-1.504 3.139-3.896-.608-2.152-2.651-5.132-5.182-4.823s-3.508 2.96-2.382 5.102M145.021 295.078l9.247-.18-4.474-23.079-9.247.17z"/><path fill="#7F3E3B" d="M151.956 285.023c2.442 9.218 11.44 18.933 11.44 18.933l-12.835-3.268-5.61-7.972.996-2.113z"/><path fill="#263238" d="M142.838 289.308a19.6 19.6 0 0 0 .19 3.229c.548 3.806 2.222 13.951 2.222 13.951h.877a90 90 0 0 1-.708-9.308c.12-2.501 1.734 1.923 3.687 4.435 1.954 2.511 5.471 4.793 11.161 4.982 6.657.209 9.317-.07 7.185-1.734s-6.677-2.74-6.677-2.74a20.24 20.24 0 0 1-8.968-7.524 23.5 23.5 0 0 0-8.261-7.145c-.558.03-.668 1.087-.708 1.854"/><path fill="#7F3E3B" d="m177.776 263.718 11.798.369-13.203-19.632-8.172 6.986z"/><path fill="#7F3E3B" d="M180.576 255.387c8.58 3.986 22.312 3.209 22.312 3.209l-11.161 8.968-9.577-.717-.996-2.123z"/><path fill="#263238" d="M178.762 265.561a20 20 0 0 0 2.492 2.053c3.129 2.182 11.589 7.773 11.589 7.773l.538-.688a90 90 0 0 1-7.264-5.809c-1.774-1.814 2.481-.05 5.53.129s6.896-.996 10.533-5.381c4.275-5.092 5.7-7.374 3.169-6.836s-6.138 3.368-6.138 3.368a17.93 17.93 0 0 1-11.072 1.933 20.75 20.75 0 0 0-10.353 1.605c-.269.498.398 1.275.976 1.853M84.693 185.253s63.138-9.317 69.655 6.846c11.38 28.161 27.434 60.428 27.434 60.428l-7.753 6.417s-27.533-25.49-37.319-53.811c-11.699 3.787-48.918 15.944-62.55 15.944-14.56 0-20.508-12.406-15.247-33.024a4.145 4.145 0 0 1 3.986-3.099c9.238.09 21.794.299 21.794.299"/><path fill="#263238" d="M90.742 193.474s51.818-1.554 52.266 16.801c.718 30.364 9.277 73.871 9.277 73.871l-9.456.877s-15.456-34.608-19.542-64.244c-18.455 1.195-35.475.368-49.107.368-15.277 0-16.542-16.771-1.674-36.352 9.098-.02 18.236 8.679 18.236 8.679"/><path fill="#fff" d="m58.774 182.463-1.087 3.438c-.15.269.16.548.618.568l40.14 1.186c.348 0 .647-.15.677-.369l.458-3.478c0-.249-.269-.458-.657-.468l-39.492-1.176a.71.71 0 0 0-.657.299"/><path fill="#263238" d="M63.946 187.037h-1.057c-.209 0-.368-.12-.349-.249l.628-4.524c0-.13.21-.229.419-.229h1.056c.21 0 .369.119.349.249l-.628 4.514c-.02.149-.21.249-.418.239M95.445 187.984h-1.056c-.21 0-.37-.12-.35-.249l.639-4.525c0-.129.199-.229.408-.229h1.056c.22 0 .37.12.36.249l-.639 4.524c-.02.14-.199.23-.418.23M79.7 187.505h-1.056c-.22 0-.369-.119-.349-.249l.628-4.524c0-.13.21-.229.418-.229h1.057c.21 0 .368.119.349.249l-.628 4.524c-.02.139-.21.239-.419.229"/><path fill="#21558A" d="M127.772 143.659h25.201a1.22 1.22 0 0 1 .966.483 1.21 1.21 0 0 1 .2 1.062l-9.427 32.336a1.19 1.19 0 0 1-1.156.867h-25.211a1.197 1.197 0 0 1-1.156-1.544l9.417-32.337a1.21 1.21 0 0 1 1.166-.867"/><path fill="#E0E0E0" d="m128.23 144.845 24.504.578-9.676 30.503-24.504-.588z"/><path fill="#fff" d="m127.463 144.546 24.504.1-9.079 30.682-24.503-.099z"/><path fill="#7F3E3B" d="M105.36 145.184c0 .996.15 2.172.229 3.278.08 1.107.23 2.262.379 3.389a78 78 0 0 0 1.116 6.656 48 48 0 0 0 1.774 6.278c.369.997.777 1.993 1.216 2.87.219.458.458.887.697 1.325l.369.608c.457.417.997.732 1.584.927.933.362 1.893.652 2.87.867a57 57 0 0 0 6.667.996c4.604.449 9.417.668 14.12.768l.479 4.773a90 90 0 0 1-14.858 1.684 54 54 0 0 1-7.763-.319 27 27 0 0 1-4.175-.847 12.4 12.4 0 0 1-4.764-2.461 8.7 8.7 0 0 1-1.255-1.345l-.638-.897a24 24 0 0 1-1.146-1.804 31 31 0 0 1-1.883-3.687 48 48 0 0 1-2.571-7.534 65 65 0 0 1-1.485-7.613 80 80 0 0 1-.409-3.826 54 54 0 0 1-.199-3.986z"/><path fill="#21558A" d="M102.082 130.486c6.278 5.909 4.763 21.305 4.763 21.305l-12.018 2.102s-7.424-11.041-4.813-15.665c2.71-4.823 8.68-10.941 12.068-7.742"/><path fill="#fff" d="M106.845 153.146a1.4 1.4 0 0 1-.997-.399 1.2 1.2 0 0 1-.169-.209 2 2 0 0 1-.12-.229 2 2 0 0 1-.04-.289 2 2 0 0 1 0-.259 1.36 1.36 0 0 1 .389-.997q.098-.093.209-.169a1 1 0 0 1 .23-.12q.125-.053.259-.08a1.356 1.356 0 0 1 1.614 1.326q.015.13 0 .259a1.1 1.1 0 0 1-.08.259 1 1 0 0 1-.119.229 1.2 1.2 0 0 1-.17.209 1.36 1.36 0 0 1-1.006.469"/><path fill="#fff" d="M95.923 153.864a1.357 1.357 0 0 1 1.96-1.328c.224.113.411.286.541.501a1.38 1.38 0 0 1 1.086-.917 1.37 1.37 0 0 1 1.306.568 1.34 1.34 0 0 1 .996-.997 1.35 1.35 0 0 1 1.336.489 1.36 1.36 0 0 1 .996-.997 1.34 1.34 0 0 1 1.038.148 1.35 1.35 0 0 1 .616.849 1.352 1.352 0 0 1-.996 1.654 1.364 1.364 0 0 1-1.405-.469 1.37 1.37 0 0 1-1.056 1.047 1.38 1.38 0 0 1-1.376-.558 1.344 1.344 0 0 1-2.451.368 1.37 1.37 0 0 1-1.166.917h-.11a1.36 1.36 0 0 1-1.315-1.275"/><path fill="#fff" d="M94.827 155.249q-.135.013-.269 0l-.249-.08a2 2 0 0 1-.24-.12l-.198-.169a.9.9 0 0 1-.17-.209 2 2 0 0 1-.13-.229 1.3 1.3 0 0 1-.07-.26 1 1 0 0 1 0-.259 1.2 1.2 0 0 1 0-.269q.022-.128.07-.249c0-.08.08-.159.13-.239q.072-.11.17-.199l.199-.17q.112-.074.239-.119a1 1 0 0 1 .25-.08 1.33 1.33 0 0 1 1.215.369q.096.089.17.199c.05.08.089.159.129.239q.046.123.08.249.006.135 0 .269.007.13 0 .259a3 3 0 0 1-.08.26q-.055.119-.13.229a1.1 1.1 0 0 1-.17.209c-.255.24-.595.372-.946.369"/><path fill="#7F3E3B" d="m147.572 168.183-4.165-.279a4.64 4.64 0 0 0-2.93.788l-7.643 5.131-.06 3.239c2.451 2.85 7.872.299 7.872.299l5.033-.169a1.992 1.992 0 0 0 1.823-1.316l1.824-4.982a1.995 1.995 0 0 0-1.754-2.711"/><path fill="#21558A" d="M61.265 309.876h1.126a1 1 0 0 0 .897-.917l6.975-48.271h-5.271l-4.594 47.952a1.05 1.05 0 0 0 .867 1.236"/><path fill="#000" d="M61.265 309.876h1.126a1 1 0 0 0 .897-.917l6.975-48.271h-5.271l-4.594 47.952a1.05 1.05 0 0 0 .867 1.236" opacity=".3"/><path fill="#21558A" d="M46.816 309.876h1.126a1 1 0 0 0 .897-.917l6.975-48.271h-5.272L45.95 308.64a1.05 1.05 0 0 0 .867 1.236"/><path fill="#000" d="M46.816 309.876h1.126a1 1 0 0 0 .897-.917l6.975-48.271h-5.272L45.95 308.64a1.05 1.05 0 0 0 .867 1.236" opacity=".3"/><path fill="#21558A" d="M127.333 309.876h-1.136a1 1 0 0 1-.887-.917l-6.975-48.271h5.261l4.594 47.952q.04.208-.002.417a1.05 1.05 0 0 1-.855.819"/><path fill="#000" d="M127.333 309.876h-1.136a1 1 0 0 1-.887-.917l-6.975-48.271h5.261l4.594 47.952q.04.208-.002.417a1.05 1.05 0 0 1-.855.819" opacity=".3"/><path fill="#21558A" d="M141.782 309.876h-1.136a1 1 0 0 1-.887-.917l-6.975-48.271h5.261l4.594 47.952a1.046 1.046 0 0 1-.857 1.236"/><path fill="#000" d="M141.782 309.876h-1.136a1 1 0 0 1-.887-.917l-6.975-48.271h5.261l4.594 47.952a1.046 1.046 0 0 1-.857 1.236" opacity=".3"/><path fill="#21558A" d="M160.507 203.469h-35.476c-6.298-21.863-28.899-39.102-52.137-39.102h-11.52c-24.274 0-39.94 18.933-34.997 42.191a48 48 0 0 0 4.515 12.297l5.6 33.881c.717 4.375 4.215 7.922 7.793 7.922H151.07c3.577 0 7.075-3.547 7.792-7.922l6.826-41.374c.728-4.345-1.594-7.893-5.181-7.893"/><path fill="#fff" d="M160.507 203.469h-35.476c-6.298-21.863-28.899-39.102-52.137-39.102h-11.52c-24.274 0-39.94 18.933-34.997 42.191a48 48 0 0 0 4.515 12.297l5.6 33.881c.717 4.375 4.215 7.922 7.793 7.922H151.07c3.577 0 7.075-3.547 7.792-7.922l6.826-41.374c.728-4.345-1.594-7.893-5.181-7.893" opacity=".5"/></svg>