<svg xmlns="http://www.w3.org/2000/svg" width="500" height="373" fill="none"><path fill="#EBEBEB" d="M500 327.4H0v.25h500zM449.9 343.49h-33.12v.25h33.12zM331.22 346.21h-8.69v.25h8.69zM415.78 334.21h-19.19v.25h19.19zM95.65 335.89H52.46v.25h43.19zM110.89 335.89h-6.33v.25h6.33zM225.15 340.11h-93.68v.25h93.68zM237 282.8H43.91a5.71 5.71 0 0 1-5.7-5.71V5.66A5.71 5.71 0 0 1 43.91 0H237a5.71 5.71 0 0 1 5.71 5.71v271.38a5.72 5.72 0 0 1-1.672 4.038A5.72 5.72 0 0 1 237 282.8M43.91.2a5.46 5.46 0 0 0-5.45 5.46v271.43a5.46 5.46 0 0 0 5.45 5.46H237a5.48 5.48 0 0 0 3.858-1.602 5.48 5.48 0 0 0 1.602-3.858V5.66A5.473 5.473 0 0 0 237 .2zM453.31 282.8h-193.1a5.72 5.72 0 0 1-4.035-1.675 5.72 5.72 0 0 1-1.675-4.035V5.66A5.72 5.72 0 0 1 260.21 0h193.1A5.71 5.71 0 0 1 459 5.66v271.43a5.71 5.71 0 0 1-5.69 5.71M260.21.2a5.47 5.47 0 0 0-5.46 5.46v271.43a5.473 5.473 0 0 0 5.46 5.46h193.1a5.473 5.473 0 0 0 5.46-5.46V5.66A5.473 5.473 0 0 0 453.31.2z"/><path fill="#F0F0F0" d="M74.38 326.94v-45.01h3.85v-21.45h5.63v-74.57h8.13v-9.62l17.37-8.1v-9.7h2.4v27.42h3.37v74.57h3.37v-39.21h9.14v-20.2h2.55v59.41h6.94v-22.61h4.57v-5.77h10.59v-19.73h5.79v-13.95h7.13V178.1h2.54v20.32h7.13v13.95h5.79v19.73h10.58v5.77h4.58v22.61h5.42V232.1h10.58V171h3.37v-6.74h22.61V171h4.81v44.26h19.25v4.33h7.21v3.37h-7.21v17.32h20.2v-57.73h4.33v-12.27h9.38v-43.54h2.65v43.54h6.74v12.27h39.48v-4.04h2.41v27.42h3.37v.48h2.02v27.42h3.36v7.46h7.12v-20.2h2.55v48.1h2.84v-20.2h2.56v31.51h1.55v-22.61H377v-5.77h10.58v-19.73h5.8v-13.95h7.12v-20.33h2.55v20.33h7.12v13.95h5.8v19.73h10.58v5.77h4.57v22.13h.82v.48h2.26v46.44z"/><path fill="#FAFAFA" d="M322.62 185.24h-2.73v2.73h2.73zM322.62 189.81h-2.73v2.73h2.73zM322.62 208.1h-2.73v2.73h2.73zM322.62 212.67h-2.73v2.73h2.73zM322.62 217.24h-2.73v2.73h2.73zM322.62 230.95h-2.73v2.73h2.73zM322.62 235.52h-2.73v2.73h2.73zM318.29 203.53h-2.73v2.73h2.73zM318.29 208.1h-2.73v2.73h2.73zM318.29 212.67h-2.73v2.73h2.73zM318.29 217.24h-2.73v2.73h2.73zM318.29 221.81h-2.73v2.73h2.73zM318.29 230.95h-2.73v2.73h2.73zM318.29 235.52h-2.73v2.73h2.73zM313.96 185.24h-2.73v2.73h2.73zM313.96 189.81h-2.73v2.73h2.73zM313.96 194.38h-2.73v2.73h2.73zM313.96 198.95h-2.73v2.73h2.73zM313.96 203.53h-2.73v2.73h2.73zM313.96 208.1h-2.73v2.73h2.73zM313.96 212.67h-2.73v2.73h2.73zM313.96 217.24h-2.73v2.73h2.73zM313.96 221.81h-2.73v2.73h2.73zM313.96 226.38h-2.73v2.73h2.73zM313.96 235.52h-2.73v2.73h2.73zM309.63 185.24h-2.73v2.73h2.73zM309.63 189.81h-2.73v2.73h2.73zM309.63 194.38h-2.73v2.73h2.73zM309.63 198.95h-2.73v2.73h2.73zM309.63 203.53h-2.73v2.73h2.73zM309.63 208.1h-2.73v2.73h2.73zM309.63 212.67h-2.73v2.73h2.73zM309.63 253.8h-2.73v2.73h2.73zM305.3 185.24h-2.73v2.73h2.73zM305.3 189.81h-2.73v2.73h2.73zM305.3 194.38h-2.73v2.73h2.73zM305.3 198.95h-2.73v2.73h2.73zM305.3 203.53h-2.73v2.73h2.73zM305.3 208.1h-2.73v2.73h2.73zM305.3 212.67h-2.73v2.73h2.73zM305.3 217.24h-2.73v2.73h2.73zM305.3 244.66h-2.73v2.73h2.73zM305.3 249.23h-2.73v2.73h2.73zM305.3 253.8h-2.73v2.73h2.73zM305.3 258.37h-2.73v2.73h2.73zM305.3 276.65h-2.73v2.73h2.73zM300.97 185.24h-2.73v2.73h2.73zM300.97 189.81h-2.73v2.73h2.73zM300.97 194.38h-2.73v2.73h2.73zM300.97 198.95h-2.73v2.73h2.73zM300.97 203.53h-2.73v2.73h2.73zM300.97 208.1h-2.73v2.73h2.73zM300.97 212.67h-2.73v2.73h2.73zM300.97 217.24h-2.73v2.73h2.73zM300.97 221.81h-2.73v2.73h2.73zM300.97 226.38h-2.73v2.73h2.73zM300.97 240.09h-2.73v2.73h2.73zM300.97 244.66h-2.73v2.73h2.73zM300.97 249.23h-2.73v2.73h2.73zM300.97 253.8h-2.73v2.73h2.73zM300.97 258.37h-2.73v2.73h2.73zM300.97 276.65h-2.73v2.73h2.73zM296.64 185.24h-2.73v2.73h2.73zM296.64 189.81h-2.73v2.73h2.73zM296.64 194.38h-2.73v2.73h2.73zM296.64 198.95h-2.73v2.73h2.73zM296.64 203.53h-2.73v2.73h2.73zM296.64 208.1h-2.73v2.73h2.73zM296.64 212.67h-2.73v2.73h2.73zM296.64 217.24h-2.73v2.73h2.73zM296.64 221.81h-2.73v2.73h2.73zM296.64 226.38h-2.73v2.73h2.73zM296.64 230.95h-2.73v2.73h2.73zM296.64 235.52h-2.73v2.73h2.73zM296.64 240.09h-2.73v2.73h2.73zM296.64 244.66h-2.73v2.73h2.73zM296.64 249.23h-2.73v2.73h2.73zM296.64 253.8h-2.73v2.73h2.73zM296.64 258.37h-2.73v2.73h2.73zM296.64 262.94h-2.73v2.73h2.73zM292.31 185.24h-2.73v2.73h2.73zM292.31 189.81h-2.73v2.73h2.73zM292.31 194.38h-2.73v2.73h2.73zM292.31 198.95h-2.73v2.73h2.73zM292.31 203.53h-2.73v2.73h2.73zM292.31 208.1h-2.73v2.73h2.73zM292.31 212.67h-2.73v2.73h2.73zM292.31 217.24h-2.73v2.73h2.73zM292.31 221.81h-2.73v2.73h2.73zM292.31 226.38h-2.73v2.73h2.73zM292.31 240.09h-2.73v2.73h2.73zM292.31 244.66h-2.73v2.73h2.73zM292.31 249.23h-2.73v2.73h2.73zM292.31 253.8h-2.73v2.73h2.73zM287.98 185.24h-2.73v2.73h2.73zM287.98 189.81h-2.73v2.73h2.73zM287.98 194.38h-2.73v2.73h2.73zM287.98 198.95h-2.73v2.73h2.73zM287.98 203.53h-2.73v2.73h2.73zM287.98 208.1h-2.73v2.73h2.73zM287.98 212.67h-2.73v2.73h2.73zM287.98 217.24h-2.73v2.73h2.73zM287.98 221.81h-2.73v2.73h2.73zM287.98 226.38h-2.73v2.73h2.73zM287.98 240.09h-2.73v2.73h2.73zM287.98 244.66h-2.73v2.73h2.73zM287.98 249.23h-2.73v2.73h2.73zM239.23 173.38h-2.73v2.73h2.73zM239.23 177.95h-2.73v2.73h2.73zM239.23 182.52h-2.73v2.73h2.73zM239.23 187.09h-2.73v2.73h2.73zM239.23 191.66h-2.73v2.73h2.73zM239.23 196.23h-2.73v2.73h2.73zM239.23 200.8h-2.73v2.73h2.73zM239.23 205.37h-2.73v2.73h2.73zM239.23 219.08h-2.73v2.73h2.73zM239.23 223.65h-2.73v2.73h2.73zM234.9 173.38h-2.73v2.73h2.73zM234.9 177.95h-2.73v2.73h2.73zM234.9 182.52h-2.73v2.73h2.73zM234.9 187.09h-2.73v2.73h2.73zM234.9 191.66h-2.73v2.73h2.73zM234.9 196.23h-2.73v2.73h2.73zM234.9 200.8h-2.73v2.73h2.73zM234.9 205.37h-2.73v2.73h2.73zM234.9 223.65h-2.73v2.73h2.73zM230.57 173.38h-2.73v2.73h2.73zM230.57 177.95h-2.73v2.73h2.73zM230.57 182.52h-2.73v2.73h2.73zM230.57 187.09h-2.73v2.73h2.73zM230.57 191.66h-2.73v2.73h2.73zM230.57 196.23h-2.73v2.73h2.73zM230.57 200.8h-2.73v2.73h2.73zM230.57 205.37h-2.73v2.73h2.73zM226.24 173.38h-2.73v2.73h2.73zM226.24 177.95h-2.73v2.73h2.73zM226.24 182.52h-2.73v2.73h2.73zM226.24 187.09h-2.73v2.73h2.73zM226.24 191.66h-2.73v2.73h2.73zM226.24 196.23h-2.73v2.73h2.73zM226.24 205.37h-2.73v2.73h2.73zM226.24 209.94h-2.73v2.73h2.73zM226.24 223.65h-2.73v2.73h2.73zM226.24 228.22h-2.73v2.73h2.73zM226.24 232.79h-2.73v2.73h2.73zM226.24 237.36h-2.73v2.73h2.73zM226.24 241.93h-2.73v2.73h2.73zM226.24 246.5h-2.73v2.73h2.73zM226.24 251.07h-2.73v2.73h2.73zM221.91 173.38h-2.73v2.73h2.73zM221.91 177.95h-2.73v2.73h2.73zM221.91 182.52h-2.73v2.73h2.73zM221.91 187.09h-2.73v2.73h2.73zM221.91 191.66h-2.73v2.73h2.73zM221.91 196.23h-2.73v2.73h2.73zM221.91 209.94h-2.73v2.73h2.73zM221.91 214.51h-2.73v2.73h2.73zM221.91 219.08h-2.73v2.73h2.73zM221.91 223.65h-2.73v2.73h2.73zM221.91 228.22h-2.73v2.73h2.73zM221.91 232.79h-2.73v2.73h2.73zM221.91 237.36h-2.73v2.73h2.73zM221.91 241.93h-2.73v2.73h2.73zM221.91 246.5h-2.73v2.73h2.73zM221.91 251.07h-2.73v2.73h2.73zM221.91 255.64h-2.73v2.73h2.73zM221.91 264.79h-2.73v2.73h2.73zM217.58 173.38h-2.73v2.73h2.73zM217.58 177.95h-2.73v2.73h2.73zM217.58 182.52h-2.73v2.73h2.73zM217.58 187.09h-2.73v2.73h2.73zM217.58 191.66h-2.73v2.73h2.73zM217.58 196.23h-2.73v2.73h2.73zM217.58 209.94h-2.73v2.73h2.73zM217.58 214.51h-2.73v2.73h2.73zM217.58 219.08h-2.73v2.73h2.73zM217.58 223.65h-2.73v2.73h2.73zM217.58 237.36h-2.73v2.73h2.73zM217.58 241.93h-2.73v2.73h2.73zM217.58 246.5h-2.73v2.73h2.73zM217.58 251.07h-2.73v2.73h2.73zM217.58 255.64h-2.73v2.73h2.73zM217.58 264.79h-2.73v2.73h2.73zM217.58 269.36h-2.73v2.73h2.73zM178.29 215.87h-2.73v2.73h2.73zM178.29 220.44h-2.73v2.73h2.73zM178.29 225.01h-2.73v2.73h2.73zM178.29 229.59h-2.73v2.73h2.73zM178.29 234.16h-2.73v2.73h2.73zM178.29 238.73h-2.73v2.73h2.73zM178.29 243.3h-2.73v2.73h2.73zM178.29 257.01h-2.73v2.73h2.73zM178.29 261.58h-2.73v2.73h2.73zM178.29 266.15h-2.73v2.73h2.73zM173.96 215.87h-2.73v2.73h2.73zM173.96 220.44h-2.73v2.73h2.73zM173.96 225.01h-2.73v2.73h2.73zM173.96 229.59h-2.73v2.73h2.73zM173.96 234.16h-2.73v2.73h2.73zM173.96 238.73h-2.73v2.73h2.73zM173.96 243.3h-2.73v2.73h2.73zM169.63 215.87h-2.73v2.73h2.73zM169.63 220.44h-2.73v2.73h2.73zM169.63 225.01h-2.73v2.73h2.73zM169.63 229.59h-2.73v2.73h2.73zM169.63 234.16h-2.73v2.73h2.73zM169.63 238.73h-2.73v2.73h2.73zM169.63 243.3h-2.73v2.73h2.73zM165.3 215.87h-2.73v2.73h2.73zM165.3 220.44h-2.73v2.73h2.73zM165.3 225.01h-2.73v2.73h2.73zM165.3 229.59h-2.73v2.73h2.73zM165.3 234.16h-2.73v2.73h2.73zM165.3 238.73h-2.73v2.73h2.73zM165.3 243.3h-2.73v2.73h2.73zM165.3 247.87h-2.73v2.73h2.73zM165.3 252.44h-2.73v2.73h2.73zM165.3 257.01h-2.73v2.73h2.73zM165.3 261.58h-2.73v2.73h2.73zM160.97 215.87h-2.73v2.73h2.73zM160.97 220.44h-2.73v2.73h2.73zM160.97 225.01h-2.73v2.73h2.73zM160.97 229.59h-2.73v2.73h2.73zM160.97 234.16h-2.73v2.73h2.73zM160.97 238.73h-2.73v2.73h2.73zM160.97 243.3h-2.73v2.73h2.73zM160.97 247.87h-2.73v2.73h2.73zM160.97 252.44h-2.73v2.73h2.73zM160.97 257.01h-2.73v2.73h2.73zM160.97 261.58h-2.73v2.73h2.73zM160.97 266.15h-2.73v2.73h2.73zM160.97 279.86h-2.73v2.73h2.73zM160.97 284.43h-2.73v2.73h2.73zM156.64 215.87h-2.73v2.73h2.73zM156.64 220.44h-2.73v2.73h2.73zM156.64 225.01h-2.73v2.73h2.73zM156.64 238.73h-2.73v2.73h2.73zM156.64 243.3h-2.73v2.73h2.73zM156.64 247.87h-2.73v2.73h2.73zM156.64 252.44h-2.73v2.73h2.73zM156.64 257.01h-2.73v2.73h2.73zM156.64 261.58h-2.73v2.73h2.73zM156.64 266.15h-2.73v2.73h2.73zM156.64 279.86h-2.73v2.73h2.73zM156.64 284.43h-2.73v2.73h2.73zM156.64 289h-2.73v2.73h2.73zM111.26 188.45h-2.73v2.73h2.73zM111.26 193.02h-2.73v2.73h2.73zM111.26 197.59h-2.73v2.73h2.73zM111.26 202.16h-2.73v2.73h2.73zM111.26 206.73h-2.73v2.73h2.73zM111.26 211.3h-2.73v2.73h2.73zM111.26 215.87h-2.73v2.73h2.73zM111.26 220.44h-2.73v2.73h2.73zM111.26 225.01h-2.73v2.73h2.73zM111.26 229.59h-2.73v2.73h2.73zM111.26 234.16h-2.73v2.73h2.73zM111.26 238.73h-2.73v2.73h2.73zM111.26 243.3h-2.73v2.73h2.73zM111.26 247.87h-2.73v2.73h2.73zM111.26 252.44h-2.73v2.73h2.73zM111.26 257.01h-2.73v2.73h2.73zM111.26 261.58h-2.73v2.73h2.73zM111.26 266.15h-2.73v2.73h2.73zM111.26 270.72h-2.73v2.73h2.73zM111.26 275.29h-2.73v2.73h2.73zM111.26 279.86h-2.73v2.73h2.73zM111.26 284.43h-2.73v2.73h2.73zM111.26 289h-2.73v2.73h2.73zM106.93 188.45h-2.73v2.73h2.73zM106.93 193.02h-2.73v2.73h2.73zM106.93 197.59h-2.73v2.73h2.73zM106.93 202.16h-2.73v2.73h2.73zM106.93 206.73h-2.73v2.73h2.73zM106.93 211.3h-2.73v2.73h2.73zM106.93 215.87h-2.73v2.73h2.73zM106.93 220.44h-2.73v2.73h2.73zM106.93 225.01h-2.73v2.73h2.73zM106.93 229.59h-2.73v2.73h2.73zM106.93 234.16h-2.73v2.73h2.73zM106.93 238.73h-2.73v2.73h2.73zM106.93 243.3h-2.73v2.73h2.73zM106.93 247.87h-2.73v2.73h2.73zM106.93 252.44h-2.73v2.73h2.73zM106.93 257.01h-2.73v2.73h2.73zM106.93 261.58h-2.73v2.73h2.73zM106.93 266.15h-2.73v2.73h2.73zM106.93 270.72h-2.73v2.73h2.73zM102.6 188.45h-2.73v2.73h2.73zM102.6 193.02h-2.73v2.73h2.73zM102.6 197.59h-2.73v2.73h2.73zM102.6 202.16h-2.73v2.73h2.73zM102.6 206.73h-2.73v2.73h2.73zM102.6 211.3h-2.73v2.73h2.73zM102.6 215.87h-2.73v2.73h2.73zM102.6 220.44h-2.73v2.73h2.73zM102.6 225.01h-2.73v2.73h2.73zM102.6 229.59h-2.73v2.73h2.73zM102.6 234.16h-2.73v2.73h2.73zM102.6 238.73h-2.73v2.73h2.73zM102.6 243.3h-2.73v2.73h2.73zM102.6 247.87h-2.73v2.73h2.73zM102.6 252.44h-2.73v2.73h2.73zM102.6 257.01h-2.73v2.73h2.73zM102.6 261.58h-2.73v2.73h2.73zM102.6 266.15h-2.73v2.73h2.73zM102.6 270.72h-2.73v2.73h2.73zM98.27 188.45h-2.73v2.73h2.73zM98.27 193.02h-2.73v2.73h2.73zM98.27 197.59h-2.73v2.73h2.73zM98.27 202.16h-2.73v2.73h2.73zM98.27 206.73h-2.73v2.73h2.73zM98.27 211.3h-2.73v2.73h2.73zM98.27 215.87h-2.73v2.73h2.73zM98.27 220.44h-2.73v2.73h2.73zM98.27 225.01h-2.73v2.73h2.73zM98.27 229.59h-2.73v2.73h2.73zM98.27 234.16h-2.73v2.73h2.73zM98.27 238.73h-2.73v2.73h2.73zM98.27 243.3h-2.73v2.73h2.73zM98.27 247.87h-2.73v2.73h2.73zM98.27 252.44h-2.73v2.73h2.73zM93.94 188.45h-2.73v2.73h2.73zM93.94 193.02h-2.73v2.73h2.73zM93.94 197.59h-2.73v2.73h2.73zM93.94 202.16h-2.73v2.73h2.73zM93.94 206.73h-2.73v2.73h2.73zM93.94 211.3h-2.73v2.73h2.73zM93.94 215.87h-2.73v2.73h2.73zM93.94 220.44h-2.73v2.73h2.73zM93.94 225.01h-2.73v2.73h2.73zM93.94 229.59h-2.73v2.73h2.73zM93.94 234.16h-2.73v2.73h2.73zM93.94 238.73h-2.73v2.73h2.73zM93.94 243.3h-2.73v2.73h2.73zM89.61 188.45h-2.73v2.73h2.73zM89.61 193.02h-2.73v2.73h2.73zM89.61 197.59h-2.73v2.73h2.73zM89.61 202.16h-2.73v2.73h2.73zM89.61 206.73h-2.73v2.73h2.73zM89.61 211.3h-2.73v2.73h2.73zM89.61 215.87h-2.73v2.73h2.73zM89.61 220.44h-2.73v2.73h2.73zM89.61 225.01h-2.73v2.73h2.73zM89.61 229.59h-2.73v2.73h2.73zM89.61 234.16h-2.73v2.73h2.73zM89.61 238.73h-2.73v2.73h2.73zM407.78 221.81h-2.73v2.73h2.73zM407.78 226.38h-2.73v2.73h2.73zM407.78 230.95h-2.73v2.73h2.73zM407.78 235.52h-2.73v2.73h2.73zM407.78 240.09h-2.73v2.73h2.73zM407.78 244.66h-2.73v2.73h2.73zM407.78 249.23h-2.73v2.73h2.73zM407.78 253.8h-2.73v2.73h2.73zM407.78 258.37h-2.73v2.73h2.73zM407.78 262.94h-2.73v2.73h2.73zM407.78 267.51h-2.73v2.73h2.73zM407.78 272.08h-2.73v2.73h2.73zM407.78 276.65h-2.73v2.73h2.73zM407.78 281.22h-2.73v2.73h2.73zM407.78 285.79h-2.73v2.73h2.73zM407.78 290.36h-2.73v2.73h2.73zM407.78 294.93h-2.73v2.73h2.73zM407.78 299.51h-2.73v2.73h2.73zM407.78 304.08h-2.73v2.73h2.73zM407.78 308.65h-2.73v2.73h2.73zM403.45 221.81h-2.73v2.73h2.73zM403.45 226.38h-2.73v2.73h2.73zM403.45 230.95h-2.73v2.73h2.73zM403.45 235.52h-2.73v2.73h2.73zM403.45 240.09h-2.73v2.73h2.73zM403.45 244.66h-2.73v2.73h2.73zM403.45 249.23h-2.73v2.73h2.73zM403.45 253.8h-2.73v2.73h2.73zM403.45 258.37h-2.73v2.73h2.73zM403.45 262.94h-2.73v2.73h2.73zM403.45 267.51h-2.73v2.73h2.73zM403.45 272.08h-2.73v2.73h2.73zM403.45 276.65h-2.73v2.73h2.73zM403.45 281.22h-2.73v2.73h2.73zM403.45 285.79h-2.73v2.73h2.73zM403.45 290.36h-2.73v2.73h2.73zM403.45 294.93h-2.73v2.73h2.73zM403.45 299.51h-2.73v2.73h2.73zM399.12 221.81h-2.73v2.73h2.73zM399.12 226.38h-2.73v2.73h2.73zM399.12 230.95h-2.73v2.73h2.73zM399.12 235.52h-2.73v2.73h2.73zM399.12 240.09h-2.73v2.73h2.73zM399.12 244.66h-2.73v2.73h2.73zM399.12 249.23h-2.73v2.73h2.73zM399.12 253.8h-2.73v2.73h2.73zM399.12 258.37h-2.73v2.73h2.73zM399.12 262.94h-2.73v2.73h2.73zM399.12 267.51h-2.73v2.73h2.73zM399.12 272.08h-2.73v2.73h2.73zM399.12 276.65h-2.73v2.73h2.73zM399.12 281.22h-2.73v2.73h2.73zM399.12 285.79h-2.73v2.73h2.73zM399.12 290.36h-2.73v2.73h2.73zM399.12 294.93h-2.73v2.73h2.73zM399.12 299.51h-2.73v2.73h2.73zM423.98 255.16h-2.73v2.73h2.73zM423.98 259.73h-2.73v2.73h2.73zM423.98 264.3h-2.73v2.73h2.73zM423.98 268.88h-2.73v2.73h2.73zM423.98 273.45h-2.73v2.73h2.73zM423.98 278.02h-2.73v2.73h2.73zM423.98 282.59h-2.73v2.73h2.73zM423.98 287.16h-2.73v2.73h2.73zM423.98 291.73h-2.73v2.73h2.73zM423.98 296.3h-2.73v2.73h2.73zM423.98 300.87h-2.73v2.73h2.73zM423.98 305.44h-2.73v2.73h2.73zM423.98 310.01h-2.73v2.73h2.73zM419.65 255.16h-2.73v2.73h2.73zM419.65 259.73h-2.73v2.73h2.73zM419.65 264.3h-2.73v2.73h2.73zM419.65 268.88h-2.73v2.73h2.73zM419.65 273.45h-2.73v2.73h2.73zM419.65 278.02h-2.73v2.73h2.73zM419.65 282.59h-2.73v2.73h2.73zM419.65 287.16h-2.73v2.73h2.73zM419.65 291.73h-2.73v2.73h2.73zM419.65 296.3h-2.73v2.73h2.73zM419.65 300.87h-2.73v2.73h2.73zM419.65 305.44h-2.73v2.73h2.73zM419.65 310.01h-2.73v2.73h2.73zM415.32 255.16h-2.73v2.73h2.73zM415.32 259.73h-2.73v2.73h2.73zM415.32 264.3h-2.73v2.73h2.73zM415.32 268.88h-2.73v2.73h2.73zM415.32 273.45h-2.73v2.73h2.73zM415.32 278.02h-2.73v2.73h2.73zM415.32 282.59h-2.73v2.73h2.73zM415.32 287.16h-2.73v2.73h2.73zM415.32 291.73h-2.73v2.73h2.73zM415.32 296.3h-2.73v2.73h2.73zM415.32 300.87h-2.73v2.73h2.73zM415.32 305.44h-2.73v2.73h2.73zM415.32 310.01h-2.73v2.73h2.73zM415.32 314.58h-2.73v2.73h2.73zM391.26 256.53h-2.73v2.73h2.73zM391.26 261.1h-2.73v2.73h2.73zM391.26 265.67h-2.73v2.73h2.73zM391.26 270.24h-2.73v2.73h2.73zM391.26 274.81h-2.73v2.73h2.73zM391.26 279.38h-2.73v2.73h2.73zM391.26 283.95h-2.73v2.73h2.73zM391.26 288.52h-2.73v2.73h2.73zM391.26 293.09h-2.73v2.73h2.73zM391.26 297.66h-2.73v2.73h2.73zM391.26 311.37h-2.73v2.73h2.73zM386.93 256.53h-2.73v2.73h2.73zM386.93 261.1h-2.73v2.73h2.73zM386.93 265.67h-2.73v2.73h2.73zM386.93 270.24h-2.73v2.73h2.73zM386.93 274.81h-2.73v2.73h2.73zM386.93 279.38h-2.73v2.73h2.73zM386.93 283.95h-2.73v2.73h2.73zM386.93 288.52h-2.73v2.73h2.73zM386.93 293.09h-2.73v2.73h2.73zM386.93 306.8h-2.73v2.73h2.73zM386.93 311.37h-2.73v2.73h2.73zM382.6 256.53h-2.73v2.73h2.73zM382.6 261.1h-2.73v2.73h2.73zM382.6 265.67h-2.73v2.73h2.73zM382.6 270.24h-2.73v2.73h2.73zM382.6 274.81h-2.73v2.73h2.73zM382.6 279.38h-2.73v2.73h2.73zM382.6 283.95h-2.73v2.73h2.73zM382.6 288.52h-2.73v2.73h2.73zM382.6 302.23h-2.73v2.73h2.73zM382.6 306.8h-2.73v2.73h2.73zM382.6 311.37h-2.73v2.73h2.73zM342.35 187.09h-2.73v2.73h2.73zM342.35 191.66h-2.73v2.73h2.73zM342.35 196.23h-2.73v2.73h2.73zM342.35 200.8h-2.73v2.73h2.73zM342.35 205.37h-2.73v2.73h2.73zM342.35 209.94h-2.73v2.73h2.73zM342.35 214.51h-2.73v2.73h2.73zM342.35 219.08h-2.73v2.73h2.73zM342.35 223.65h-2.73v2.73h2.73zM342.35 228.22h-2.73v2.73h2.73zM342.35 232.79h-2.73v2.73h2.73zM342.35 237.36h-2.73v2.73h2.73zM342.35 241.93h-2.73v2.73h2.73zM342.35 246.5h-2.73v2.73h2.73zM342.35 251.07h-2.73v2.73h2.73zM342.35 255.64h-2.73v2.73h2.73zM342.35 260.22h-2.73v2.73h2.73zM342.35 269.36h-2.73v2.73h2.73zM342.35 273.93h-2.73v2.73h2.73zM342.35 278.5h-2.73v2.73h2.73zM342.35 283.07h-2.73v2.73h2.73zM342.35 287.64h-2.73v2.73h2.73zM338.02 187.09h-2.73v2.73h2.73zM338.02 191.66h-2.73v2.73h2.73zM338.02 196.23h-2.73v2.73h2.73zM338.02 200.8h-2.73v2.73h2.73zM338.02 205.37h-2.73v2.73h2.73zM338.02 209.94h-2.73v2.73h2.73zM338.02 214.51h-2.73v2.73h2.73zM338.02 219.08h-2.73v2.73h2.73zM338.02 223.65h-2.73v2.73h2.73zM338.02 228.22h-2.73v2.73h2.73zM338.02 232.79h-2.73v2.73h2.73zM338.02 237.36h-2.73v2.73h2.73zM338.02 241.93h-2.73v2.73h2.73zM338.02 246.5h-2.73v2.73h2.73zM338.02 251.07h-2.73v2.73h2.73zM338.02 255.64h-2.73v2.73h2.73zM338.02 283.07h-2.73v2.73h2.73zM338.02 287.64h-2.73v2.73h2.73zM333.69 187.09h-2.73v2.73h2.73zM333.69 191.66h-2.73v2.73h2.73zM333.69 196.23h-2.73v2.73h2.73zM333.69 200.8h-2.73v2.73h2.73zM333.69 205.37h-2.73v2.73h2.73zM333.69 209.94h-2.73v2.73h2.73zM333.69 214.51h-2.73v2.73h2.73zM333.69 219.08h-2.73v2.73h2.73zM333.69 223.65h-2.73v2.73h2.73zM333.69 228.22h-2.73v2.73h2.73zM333.69 232.79h-2.73v2.73h2.73zM333.69 237.36h-2.73v2.73h2.73zM333.69 241.93h-2.73v2.73h2.73zM333.69 246.5h-2.73v2.73h2.73zM333.69 251.07h-2.73v2.73h2.73zM333.69 255.64h-2.73v2.73h2.73zM333.69 264.79h-2.73v2.73h2.73zM333.69 269.36h-2.73v2.73h2.73zM333.69 273.93h-2.73v2.73h2.73zM333.69 278.5h-2.73v2.73h2.73zM333.69 287.64h-2.73v2.73h2.73zM358.06 244.66h-2.73v2.73h2.73zM358.06 249.23h-2.73v2.73h2.73zM358.06 253.8h-2.73v2.73h2.73zM358.06 258.37h-2.73v2.73h2.73zM358.06 262.94h-2.73v2.73h2.73zM358.06 267.51h-2.73v2.73h2.73zM358.06 272.08h-2.73v2.73h2.73zM358.06 281.22h-2.73v2.73h2.73zM358.06 285.79h-2.73v2.73h2.73zM358.06 290.36h-2.73v2.73h2.73zM358.06 294.93h-2.73v2.73h2.73zM358.06 299.51h-2.73v2.73h2.73zM358.06 304.08h-2.73v2.73h2.73zM358.06 308.65h-2.73v2.73h2.73zM358.06 313.22h-2.73v2.73h2.73zM353.73 244.66H351v2.73h2.73zM353.73 249.23H351v2.73h2.73zM353.73 253.8H351v2.73h2.73zM353.73 258.37H351v2.73h2.73zM353.73 262.94H351v2.73h2.73zM353.73 267.51H351v2.73h2.73zM353.73 281.22H351v2.73h2.73zM353.73 285.79H351v2.73h2.73zM353.73 290.36H351v2.73h2.73zM353.73 294.93H351v2.73h2.73zM353.73 299.51H351v2.73h2.73zM353.73 304.08H351v2.73h2.73zM353.73 308.65H351v2.73h2.73zM353.73 313.22H351v2.73h2.73zM349.4 244.66h-2.73v2.73h2.73zM349.4 249.23h-2.73v2.73h2.73zM349.4 253.8h-2.73v2.73h2.73zM349.4 258.37h-2.73v2.73h2.73zM349.4 262.94h-2.73v2.73h2.73zM349.4 267.51h-2.73v2.73h2.73zM349.4 276.65h-2.73v2.73h2.73zM349.4 281.22h-2.73v2.73h2.73zM349.4 285.79h-2.73v2.73h2.73zM349.4 290.36h-2.73v2.73h2.73zM349.4 294.93h-2.73v2.73h2.73zM349.4 299.51h-2.73v2.73h2.73zM349.4 304.08h-2.73v2.73h2.73zM349.4 308.65h-2.73v2.73h2.73zM349.4 313.22h-2.73v2.73h2.73zM258.16 219.08h-2.73v2.73h2.73zM258.16 223.65h-2.73v2.73h2.73zM258.16 228.22h-2.73v2.73h2.73zM258.16 232.79h-2.73v2.73h2.73zM258.16 237.36h-2.73v2.73h2.73zM258.16 241.93h-2.73v2.73h2.73zM258.16 246.5h-2.73v2.73h2.73zM258.16 251.07h-2.73v2.73h2.73zM258.16 255.64h-2.73v2.73h2.73zM258.16 260.22h-2.73v2.73h2.73zM258.16 264.79h-2.73v2.73h2.73zM258.16 269.36h-2.73v2.73h2.73zM258.16 273.93h-2.73v2.73h2.73zM258.16 283.07h-2.73v2.73h2.73zM258.16 287.64h-2.73v2.73h2.73zM258.16 292.21h-2.73v2.73h2.73zM258.16 296.78h-2.73v2.73h2.73zM258.16 305.92h-2.73v2.73h2.73zM258.16 310.49h-2.73v2.73h2.73zM258.16 315.06h-2.73v2.73h2.73zM253.83 219.08h-2.73v2.73h2.73zM253.83 223.65h-2.73v2.73h2.73zM253.83 228.22h-2.73v2.73h2.73zM253.83 232.79h-2.73v2.73h2.73zM253.83 237.36h-2.73v2.73h2.73zM253.83 241.93h-2.73v2.73h2.73zM253.83 246.5h-2.73v2.73h2.73zM253.83 251.07h-2.73v2.73h2.73zM253.83 255.64h-2.73v2.73h2.73zM253.83 260.22h-2.73v2.73h2.73zM253.83 264.79h-2.73v2.73h2.73zM253.83 269.36h-2.73v2.73h2.73zM253.83 273.93h-2.73v2.73h2.73zM253.83 287.64h-2.73v2.73h2.73zM253.83 292.21h-2.73v2.73h2.73zM253.83 301.35h-2.73v2.73h2.73zM253.83 305.92h-2.73v2.73h2.73zM253.83 310.49h-2.73v2.73h2.73zM253.83 315.06h-2.73v2.73h2.73zM249.5 219.08h-2.73v2.73h2.73zM249.5 223.65h-2.73v2.73h2.73zM249.5 228.22h-2.73v2.73h2.73zM249.5 232.79h-2.73v2.73h2.73zM249.5 237.36h-2.73v2.73h2.73zM249.5 241.93h-2.73v2.73h2.73zM249.5 246.5h-2.73v2.73h2.73zM249.5 251.07h-2.73v2.73h2.73zM249.5 255.64h-2.73v2.73h2.73zM249.5 260.22h-2.73v2.73h2.73zM249.5 264.79h-2.73v2.73h2.73zM249.5 269.36h-2.73v2.73h2.73zM249.5 273.93h-2.73v2.73h2.73zM249.5 278.5h-2.73v2.73h2.73zM249.5 287.64h-2.73v2.73h2.73zM249.5 296.78h-2.73v2.73h2.73zM249.5 301.35h-2.73v2.73h2.73zM249.5 305.92h-2.73v2.73h2.73zM249.5 310.49h-2.73v2.73h2.73zM249.5 315.06h-2.73v2.73h2.73zM275.8 245.14h-2.73v2.73h2.73zM275.8 249.71h-2.73v2.73h2.73zM275.8 254.28h-2.73v2.73h2.73zM275.8 258.85h-2.73v2.73h2.73zM275.8 263.42h-2.73v2.73h2.73zM275.8 267.99h-2.73v2.73h2.73zM275.8 281.7h-2.73v2.73h2.73zM275.8 286.28h-2.73v2.73h2.73zM275.8 290.85h-2.73v2.73h2.73zM275.8 295.42h-2.73v2.73h2.73zM275.8 299.99h-2.73v2.73h2.73zM275.8 304.56h-2.73v2.73h2.73zM275.8 309.13h-2.73v2.73h2.73zM271.47 245.14h-2.73v2.73h2.73zM271.47 249.71h-2.73v2.73h2.73zM271.47 254.28h-2.73v2.73h2.73zM271.47 258.85h-2.73v2.73h2.73zM271.47 263.42h-2.73v2.73h2.73zM271.47 267.99h-2.73v2.73h2.73zM271.47 281.7h-2.73v2.73h2.73zM271.47 286.28h-2.73v2.73h2.73zM271.47 290.85h-2.73v2.73h2.73zM271.47 295.42h-2.73v2.73h2.73zM271.47 299.99h-2.73v2.73h2.73zM271.47 304.56h-2.73v2.73h2.73zM271.47 313.7h-2.73v2.73h2.73zM127.62 225.01h-2.73v2.73h2.73zM127.62 229.59h-2.73v2.73h2.73zM127.62 234.16h-2.73v2.73h2.73zM127.62 238.73h-2.73v2.73h2.73zM127.62 243.3h-2.73v2.73h2.73zM127.62 247.87h-2.73v2.73h2.73zM127.62 252.44h-2.73v2.73h2.73zM127.62 257.01h-2.73v2.73h2.73zM127.62 261.58h-2.73v2.73h2.73zM127.62 266.15h-2.73v2.73h2.73zM127.62 270.72h-2.73v2.73h2.73zM127.62 279.86h-2.73v2.73h2.73zM127.62 284.43h-2.73v2.73h2.73zM127.62 289h-2.73v2.73h2.73zM127.62 293.57h-2.73v2.73h2.73zM127.62 298.14h-2.73v2.73h2.73zM127.62 302.71h-2.73v2.73h2.73zM127.62 307.28h-2.73v2.73h2.73zM127.62 311.85h-2.73v2.73h2.73zM123.29 225.01h-2.73v2.73h2.73zM123.29 229.59h-2.73v2.73h2.73zM123.29 234.16h-2.73v2.73h2.73zM123.29 238.73h-2.73v2.73h2.73zM123.29 243.3h-2.73v2.73h2.73zM123.29 247.87h-2.73v2.73h2.73zM123.29 252.44h-2.73v2.73h2.73zM123.29 257.01h-2.73v2.73h2.73zM123.29 261.58h-2.73v2.73h2.73zM123.29 266.15h-2.73v2.73h2.73zM123.29 270.72h-2.73v2.73h2.73zM123.29 275.29h-2.73v2.73h2.73zM123.29 279.86h-2.73v2.73h2.73zM123.29 284.43h-2.73v2.73h2.73zM123.29 289h-2.73v2.73h2.73zM123.29 293.57h-2.73v2.73h2.73zM123.29 298.14h-2.73v2.73h2.73zM123.29 302.71h-2.73v2.73h2.73zM123.29 307.28h-2.73v2.73h2.73zM123.29 311.85h-2.73v2.73h2.73zM148.95 242.82h-2.73v2.73h2.73zM148.95 247.39h-2.73v2.73h2.73zM148.95 251.96h-2.73v2.73h2.73zM148.95 256.53h-2.73v2.73h2.73zM148.95 261.1h-2.73v2.73h2.73zM148.95 265.67h-2.73v2.73h2.73zM148.95 270.24h-2.73v2.73h2.73zM148.95 274.81h-2.73v2.73h2.73zM148.95 279.38h-2.73v2.73h2.73zM148.95 283.95h-2.73v2.73h2.73zM144.62 242.82h-2.73v2.73h2.73zM144.62 247.39h-2.73v2.73h2.73zM144.62 251.96h-2.73v2.73h2.73zM144.62 256.53h-2.73v2.73h2.73zM144.62 261.1h-2.73v2.73h2.73zM144.62 265.67h-2.73v2.73h2.73zM144.62 270.24h-2.73v2.73h2.73zM144.62 274.81h-2.73v2.73h2.73zM144.62 279.38h-2.73v2.73h2.73z"/><path fill="#E0E0E0" d="m226.75 211.9-22.53-27.3a1.004 1.004 0 1 1 1.55-1.28v.05zM226.75 221.52l-42.88 5.66a1.02 1.02 0 0 1-.747-.198 1.02 1.02 0 0 1-.388-.667 1 1 0 0 1 .198-.747 1 1 0 0 1 .667-.388h.05zM229.75 230.52l-18.15 31.32a1.01 1.01 0 0 1-.608.496.995.995 0 0 1-1.249-.722.98.98 0 0 1 .127-.774zM237.75 230.52l11.87 38.56a1 1 0 0 1-.66 1.25q-.19.057-.39.038a.996.996 0 0 1-.86-.708zM245.08 226.19 276 245.08a1 1 0 0 1 .452.622 1 1 0 0 1-.122.758 1 1 0 0 1-1.37.33h-.05zM245.08 215.86l30-12.6a1 1 0 0 1 .798-.047 1 1 0 0 1 .577.552 1 1 0 0 1-.012.799.98.98 0 0 1-.593.536h-.05zM237.75 210l4.47-30.67a1 1 0 0 1 .395-.664 1.02 1.02 0 0 1 .75-.191 1.01 1.01 0 0 1 .855 1.145v.06zM232.5 213.94l-3.74-15.83a1.03 1.03 0 0 1 .77-1.23 1.023 1.023 0 0 1 1.23.77.5.5 0 0 0 0 .12zM228.08 218.19l-12.39-1.35a1.004 1.004 0 0 1-.772-1.484 1.02 1.02 0 0 1 .601-.482q.193-.055.391-.034h.16zM229.75 223.86l-11.89 7.54a1 1 0 1 1-1.07-1.69l.12-.07zM233.42 227.19l-.84 15.87a1 1 0 1 1-2-.11.6.6 0 0 1 0-.13zM238.54 224.79l10.89 11.32a1 1 0 0 1-1.43 1.39l-.08-.1zM241.16 219.62l14.06.91a1 1 0 0 1 .688.342 1 1 0 0 1 .242.728 1 1 0 0 1-1.06.93h-.14zM238.54 214.81l8.46-12.56a1 1 0 0 1 .639-.466q.201-.045.404-.009a1.008 1.008 0 0 1 .79 1.22 1 1 0 0 1-.173.365.5.5 0 0 1-.08.11zM203.08 208.84 192 206.42a.504.504 0 0 1-.39-.59.52.52 0 0 1 .6-.39zM207.08 238.36l-9.23 6.42a.49.49 0 0 1-.571.029.49.49 0 0 1-.225-.525.5.5 0 0 1 .226-.324zM231.13 256.36l1 9.17a.51.51 0 0 1-.445.555.503.503 0 0 1-.555-.445v-9.280000000000001M255.08 249.19l8 8.68a.483.483 0 0 1 0 .7.48.48 0 0 1-.54.109.5.5 0 0 1-.16-.109zM267.42 224.19l12-.5a.49.49 0 0 1 .359.132.5.5 0 0 1-.319.868zM257.42 192.19l6.86-9.07a.51.51 0 0 1 .7-.1.5.5 0 0 1 .1.7zM226.75 184l-3.66-10a.523.523 0 0 1 .3-.65.497.497 0 0 1 .64.3v.05zM235.42 211.44v-11.27c0-.133.053-.26.146-.354a.504.504 0 0 1 .707 0 .5.5 0 0 1 .147.354zM228.8 210.74l-4.1-7.67a.51.51 0 0 1 .89-.48q.007.03 0 .06zM226.62 215.27l-7.9-2.92a.5.5 0 0 1-.332-.447.5.5 0 0 1 .032-.193.5.5 0 0 1 .64-.3h.06zM225.52 223.46l-6.5 1.82a.487.487 0 0 1-.62-.35.488.488 0 0 1 .35-.61h.07zM229.75 226.19l-4.24 4.94a.5.5 0 0 1-.882-.294.5.5 0 0 1 .122-.366l.06-.05zM235.92 230.19l.5 8a.507.507 0 0 1-.47.53.48.48 0 0 1-.366-.121.5.5 0 0 1-.164-.349v-.06zM240.48 230.19l3.52 4.61a.5.5 0 0 1 .1.177q.031.098.021.201a.49.49 0 0 1-.374.436.5.5 0 0 1-.392-.062.5.5 0 0 1-.145-.142.4.4 0 0 1 0-.08zM243.16 222.44l5.18 1.9a.5.5 0 0 1 .28.259.5.5 0 0 1 .01.381.48.48 0 0 1-.256.287.496.496 0 0 1-.384.013h-.08zM241.16 224.79l4.82 3.83a.487.487 0 0 1 .08.7.487.487 0 0 1-.7.08h-.06zM243.42 218.69l4-.5a.505.505 0 0 1 .12 1h-.12zM242 214.44l5.06-4.8a.5.5 0 0 1 .165-.12.49.49 0 0 1 .399-.007.505.505 0 0 1 .307.491.5.5 0 0 1-.181.356l-.06.05zM367.86 237.75l-22.52-27.31a1.004 1.004 0 0 1 .13-1.4 1.005 1.005 0 0 1 1.41.13v.05zM367.86 247.37 325 253a1 1 0 0 1-1.12-.86 1 1 0 0 1 .86-1.12zM370.87 256.37l-18.15 31.32a.996.996 0 0 1-1.37.37 1 1 0 0 1-.36-1.37v-.05zM378.87 256.37l11.87 38.56a.995.995 0 0 1-.29 1.113 1.003 1.003 0 0 1-1.62-.533zM386.2 252l30.88 18.89a1 1 0 0 1 .451.622 1 1 0 0 1-.121.758 1 1 0 0 1-.621.451 1.01 1.01 0 0 1-.759-.121zM386.2 241.71l30-12.6a1.04 1.04 0 0 1 .786-.006 1.023 1.023 0 0 1 .345 1.671A1 1 0 0 1 417 231h-.06zM378.87 235.87l4.47-30.67a1 1 0 0 1 .396-.664 1.005 1.005 0 0 1 1.121-.059q.172.103.293.264a1.001 1.001 0 0 1 .19.749.1.1 0 0 0 0 .06zM373.62 239.79 369.88 224a1.004 1.004 0 0 1 .745-1.205 1.004 1.004 0 0 1 1.205.745q.007.06 0 .12zM369.2 244l-12.39-1.35a1.01 1.01 0 0 1-.89-1.11 1.005 1.005 0 0 1 1.11-.89h.15zM370.87 249.71 359 257.25a1 1 0 0 1-1.385-.305 1 1 0 0 1 .305-1.385l.13-.07zM374.53 253l-.84 15.87a1 1 0 0 1-1.055.945 1.003 1.003 0 0 1-.945-1.055.6.6 0 0 1 0-.13zM379.66 250.64 390.54 262a1.004 1.004 0 0 1-.738 1.695 1 1 0 0 1-.702-.305l-.09-.1zM382.28 245.47l14.05.91a1 1 0 0 1 .935 1.065 1 1 0 0 1-1.065.935h-.14zM379.66 240.66l8.45-12.57a1.002 1.002 0 0 1 1.66 1.12.5.5 0 0 1-.08.11zM344.2 234.69l-11.13-2.42a.49.49 0 0 1-.38-.59.51.51 0 0 1 .59-.39h.05zM348.2 264.2l-9.2 6.43a.5.5 0 0 1-.377.082.5.5 0 0 1-.323-.212.499.499 0 0 1 .12-.69zM372.24 282.2l1 9.18a.5.5 0 0 1-.45.55.5.5 0 0 1-.55-.44v-9.290000000000001M396.2 275l8.05 8.68a.501.501 0 0 1-.391.842.5.5 0 0 1-.349-.162zM408.53 250l12-.5a.5.5 0 0 1 .359.133.495.495 0 0 1 .029.707.504.504 0 0 1-.348.16zM398.53 218l6.87-9a.5.5 0 1 1 .8.6zM367.86 209.83l-3.65-10a.5.5 0 0 1 .123-.546.5.5 0 0 1 .167-.104.52.52 0 0 1 .65.3v.05zM376.53 237.29V226a.5.5 0 1 1 1 0zM369.91 236.59l-4.09-7.67a.503.503 0 0 1 .2-.68.5.5 0 0 1 .68.2v.06zM367.74 241.12l-7.91-2.92a.48.48 0 0 1-.28-.259.483.483 0 0 1-.01-.381.5.5 0 0 1 .64-.3h.05zM366.64 249.31l-6.51 1.82a.53.53 0 0 1-.393-.051.5.5 0 0 1-.242-.314.53.53 0 0 1 .051-.394.51.51 0 0 1 .314-.241h.07zM370.87 252l-4.24 5a.5.5 0 0 1-.345.172.5.5 0 0 1-.365-.122.5.5 0 0 1-.172-.345.5.5 0 0 1 .025-.194.5.5 0 0 1 .097-.171l.05-.05zM377 256l.5 8a.5.5 0 0 1-.125.363.52.52 0 0 1-.345.167.5.5 0 0 1-.363-.125.52.52 0 0 1-.167-.345V264zM381.59 256l3.55 4.6a.52.52 0 0 1 .148.393.51.51 0 0 1-.39.463.5.5 0 0 1-.412-.079.5.5 0 0 1-.146-.157v-.08zM384.28 248.29l5.17 1.9a.5.5 0 1 1-.34.94h-.09zM382.28 250.64l4.82 3.83a.5.5 0 0 1-.62.78.1.1 0 0 1-.035-.019.1.1 0 0 1-.025-.031zM384.53 244.54l4-.5a.51.51 0 0 1 .57.44.521.521 0 0 1-.44.56h-.13zM383.16 240.29l5.06-4.8a.48.48 0 0 1 .54-.109q.091.038.16.109a.5.5 0 0 1 .148.355.5.5 0 0 1-.148.355l-.06.05zM200.16 53.26 177.63 26a1.005 1.005 0 0 1 .14-1.41 1.003 1.003 0 0 1 1.41.14zM200.16 62.89l-42.89 5.66a1.008 1.008 0 1 1-.26-2h.05zM203.16 71.89 185 103.21a1.01 1.01 0 0 1-.608.497 1.01 1.01 0 0 1-.779-.095 1.01 1.01 0 0 1-.471-.628 1 1 0 0 1 .128-.774v-.05zM211.16 71.89 223 110.44a.99.99 0 0 1-.302 1.089 1 1 0 0 1-.744.23 1 1 0 0 1-.684-.375 1 1 0 0 1-.18-.354zM218.49 67.56l30.88 18.89a.99.99 0 0 1 .452.62 1 1 0 0 1-.122.76.997.997 0 0 1-1.37.33h-.05zM218.49 57.22l30-12.6a1.002 1.002 0 0 1 .77 1.85h-.05zM211.16 51.39l4.47-30.67a1.009 1.009 0 1 1 2 .28v.07zM205.91 55.31l-3.74-15.83a1.001 1.001 0 1 1 1.95-.46v.12zM201.49 59.56l-12.39-1.35a1.007 1.007 0 0 1 .22-2h.16zM203.16 65.22l-11.89 7.55a1 1 0 1 1-1.07-1.69.5.5 0 0 1 .12-.07zM206.83 68.56 206 84.42a1.01 1.01 0 0 1-.328.692 1.01 1.01 0 0 1-1.101.162 1 1 0 0 1-.514-.568 1 1 0 0 1-.057-.386.6.6 0 0 1 0-.13zM212 66.16l10.88 11.32a1.002 1.002 0 1 1-1.42 1.41l-.08-.1zM214.57 61l14.06.92a1.001 1.001 0 1 1-.13 2h-.14zM212 56.18l8.45-12.57q.112-.164.277-.275a1.01 1.01 0 0 1 1.113.005 1.01 1.01 0 0 1 .421 1.03 1 1 0 0 1-.151.36 1 1 0 0 1-.08.11zM176.49 50.2l-11.12-2.41a.5.5 0 0 1-.317-.214.493.493 0 0 1 .147-.694.5.5 0 0 1 .38-.072zM180.49 79.72l-9.23 6.43a.504.504 0 0 1-.57-.83zM204.53 97.72l1 9.18a.5.5 0 0 1-.111.368.5.5 0 0 1-.151.125.52.52 0 0 1-.383.038.52.52 0 0 1-.298-.244.5.5 0 0 1-.057-.187.07.07 0 0 1 0-.05zM228.49 90.56l8 8.67a.5.5 0 0 1 .148.355.507.507 0 0 1-.498.506.48.48 0 0 1-.35-.151zM240.83 65.56l12-.5a.5.5 0 0 1 .52.48.51.51 0 0 1-.48.52zM230.83 33.56l6.86-9.07a.51.51 0 0 1 .7-.1.5.5 0 0 1 .1.7zM200.16 25.35l-3.66-10a.51.51 0 0 1 .3-.64.5.5 0 0 1 .64.3zM208.83 52.81V41.54a.5.5 0 0 1 1 0zM202.21 52.11l-4.1-7.68a.497.497 0 0 1 .21-.67.51.51 0 0 1 .68.2v.06zM200 56.64l-7.9-2.92a.49.49 0 0 1-.3-.64.5.5 0 0 1 .64-.3h.06zM198.93 64.83l-6.5 1.82a.49.49 0 0 1-.62-.35.5.5 0 0 1 .35-.62h.07zM203.16 67.56l-4.24 4.94a.5.5 0 0 1-.54.147.51.51 0 0 1-.342-.442.5.5 0 0 1 .122-.365h.05zM209.33 71.56l.5 8a.52.52 0 0 1-.47.53.49.49 0 0 1-.53-.47v-.06zM213.89 71.56l3.54 4.6a.512.512 0 0 1-.09.71.5.5 0 0 1-.7-.09.4.4 0 0 1 0-.08zM216.57 63.81l5.18 1.9a.493.493 0 0 1 .29.64.49.49 0 0 1-.447.332.5.5 0 0 1-.193-.032h-.08zM214.57 66.16l4.82 3.82a.5.5 0 0 1 .085.705.503.503 0 0 1-.705.085h-.06zM216.83 60.06l4-.5a.497.497 0 0 1 .56.44.51.51 0 0 1-.44.56h-.12zM215.45 55.81l5.06-4.8a.5.5 0 0 1 .547-.11.51.51 0 0 1 .311.464.5.5 0 0 1-.148.356h-.06zM181 306.49v.05a.76.76 0 0 1-.92-1.2l12.06-9.23zM198.21 314.39l-2-18.45 3.51 18.22v.06a.75.75 0 0 1-.38.744.7.7 0 0 1-.28.086.753.753 0 0 1-.85-.66M200 294.5l13.89 6.94h.06a.75.75 0 0 1 .24 1 .74.74 0 0 1-1 .23zM216.12 285a.75.75 0 0 1 .843.229.74.74 0 0 1 .161.581.75.75 0 0 1-.604.63l-16.67 4.65 16.21-6.09zM205.14 274.28v-.06a.74.74 0 0 1 1-.21.75.75 0 0 1 .21 1l-8.56 13zM188.6 275.1l4.84 13.09-6.22-12.49v-.07a.737.737 0 0 1 .004-.595.75.75 0 0 1 .436-.405.756.756 0 0 1 .94.47M177.73 290.37a.752.752 0 0 1 .28-1.48l13.06 2.54-13.26-1.05zM186 295.84a.74.74 0 0 1-.554-.163.76.76 0 0 1-.276-.507.75.75 0 0 1 .163-.553.75.75 0 0 1 .507-.277l7-.73-6.64 2.2zM194.7 300.81a.762.762 0 0 1-.872.774.751.751 0 0 1-.643-.667.76.76 0 0 1 .035-.327l1.52-5.16zM200.86 299.41q.06.072.09.16a.754.754 0 0 1-1.38.61l-2.43-5.57zM198.5 293l6.84-.25h.16a.76.76 0 0 1 .61.88.75.75 0 0 1-.586.598.75.75 0 0 1-.294.002zM202.84 286.84l-1 .75a.777.777 0 0 1 .777 1.123.78.78 0 0 1-.457.397l-2.47.81 1.38-1.76-3.65 2.68 4.43-5.1a.7.7 0 0 1 .13-.11.74.74 0 0 1 .834-.038.7.7 0 0 1 .216.198.76.76 0 0 1-.19 1.05M195.07 287.87l-.38 1-.83-1.68a.83.83 0 0 1 0-.66.82.82 0 0 1 .746-.519.8.8 0 0 1 .314.059l.12.07-.07-2.39a.5.5 0 0 1 0-.18.76.76 0 0 1 .322-.513.753.753 0 0 1 .877.012.78.78 0 0 1 .307.523.75.75 0 0 1-.026.308l-1.32 5.92zM193.11 291l-5.72-3.13-.14-.11a.756.756 0 0 1-.209-.808.757.757 0 0 1 1.219-.312zM190.81 311.45a.756.756 0 0 1-1.41-.54l1.78-4.61-.32 4.93a.6.6 0 0 1-.05.22M205.87 308.46l-2.12-4.39 3.36 3.53a1 1 0 0 1 .13.2.763.763 0 0 1-.35 1 .78.78 0 0 1-1.02-.34M214.9 292.339a1 1 0 0 1 .29 0 .76.76 0 0 1 .68.831.76.76 0 0 1-.533.659q-.145.045-.297.03l-4-.389zM210.92 279.17a.762.762 0 0 1 1.112.773.76.76 0 0 1-.262.477l-4.23 2.9 3.21-4a1 1 0 0 1 .17-.15M195.65 273.37a.8.8 0 0 1 0-.22.75.75 0 0 1 .532-.646q.144-.043.293-.029a.75.75 0 0 1 .508.273.8.8 0 0 1 .139.26c.028.094.038.194.028.292l-.53 5.17zM183.09 283.32l-4.33-2.32a.9.9 0 0 1-.19-.14.758.758 0 0 1 .235-1.289.75.75 0 0 1 .613.04.8.8 0 0 1 .242.199zM175.85 298.94a.763.763 0 1 1-.27-1.5l4.53-.83-4 2.24a.8.8 0 0 1-.26.09M186.89 293.14h-.23a.74.74 0 0 1-.498-.302.75.75 0 0 1-.132-.568.76.76 0 0 1 .87-.63l4.82.77zM188.3 297.76a.765.765 0 0 1-.42-1.47l3.66-1-3 2.37a.9.9 0 0 1-.24.1M191.73 300.25a.77.77 0 0 1-.22-1.06l2-3.08-.61 3.63a.8.8 0 0 1-.12.29.75.75 0 0 1-1.05.22M197.77 300.2a.78.78 0 0 1-.77-.78l.05-3 1.41 2.63a.7.7 0 0 1 .09.38.77.77 0 0 1-.226.551.76.76 0 0 1-.554.219M198.14 294.57l2.55 1.34a.77.77 0 1 1-1 1.1zM199.74 291.86l3.4-.89a.7.7 0 0 1 .33 0 .77.77 0 0 1 .544.299.769.769 0 0 1-.2 1.119.77.77 0 0 1-.614.092zM197.82 285.91a.793.793 0 0 1 .09 1.11l-1.61 1.88.23-2.46a.72.72 0 0 1 .18-.44.79.79 0 0 1 1.11-.09M198.76 286.9a.787.787 0 0 1 1.193.815.78.78 0 0 1-.333.495l-2.28 1.5 1.15-2.48a.77.77 0 0 1 .27-.33M190.09 287.51a.77.77 0 0 1 .325-1.045.77.77 0 0 1 1.045.325l1.43 2.73-2.55-1.73a.75.75 0 0 1-.25-.28M273.74 172.08h-.06a.743.743 0 0 1-.853.082.747.747 0 0 1-.266-1.054.8.8 0 0 1 .209-.218l12.06-9.24zM291 180l-2-18.45 3.5 18.23v.06a.755.755 0 1 1-1.5.16M292.75 160.09l13.9 6.94h.06a.75.75 0 0 1 .24 1.04.75.75 0 0 1-1.04.24zM308.88 150.57a.75.75 0 1 1 .4 1.44l-16.67 4.65 16.2-6.07zM297.89 139.87a.2.2 0 0 0 0-.06.752.752 0 0 1 1.25.83l-8.56 13zM281.35 140.7l4.85 13.08-6.2-12.49a.3.3 0 0 1 0-.07.77.77 0 0 1 .012-.596.76.76 0 0 1 .438-.404.75.75 0 0 1 .9.48M270.48 156a.76.76 0 0 1-.481-.319.758.758 0 0 1 .205-1.047.76.76 0 0 1 .566-.114l13.06 2.48-13.26-1zM278.79 161.43a.748.748 0 0 1-.659-1.223.77.77 0 0 1 .509-.277l7-.73-6.64 2.2a.4.4 0 0 1-.21.03M287.46 166.4a.763.763 0 0 1-.871.743.76.76 0 0 1-.619-.963l1.53-5.18zM293.62 165q.051.077.09.16a.76.76 0 0 1-.39 1 .76.76 0 0 1-.582.016.76.76 0 0 1-.418-.406l-2.43-5.56zM291.26 158.58l6.83-.24a.5.5 0 0 1 .17 0 .76.76 0 0 1 .482.316.75.75 0 0 1 .118.564.77.77 0 0 1-.316.483.746.746 0 0 1-.564.117zM295.59 152.43l-1 .75a.77.77 0 0 1 .81.52.78.78 0 0 1-.5 1l-2.46.81 1.38-1.75-3.66 2.67 4.44-5.09.12-.12a.76.76 0 0 1 1.06.17.75.75 0 0 1-.19 1.04M287.82 153.47l-.38 1-.82-1.68a.86.86 0 0 1 0-.65.832.832 0 0 1 1.06-.47.5.5 0 0 1 .12.08l-.07-2.39a1 1 0 0 1 0-.19.753.753 0 0 1 1.47.33l-1.31 5.93zM285.87 156.6l-5.72-3.13a.76.76 0 0 1-.2-1.17.77.77 0 0 1 1.07-.06zM283.57 177a.77.77 0 0 1-.398.42.77.77 0 0 1-.577.015.769.769 0 0 1-.42-.397.77.77 0 0 1-.015-.578l1.77-4.6-.31 4.92a.6.6 0 0 1-.05.22M298.63 174.05l-2.12-4.39 3.35 3.54a1 1 0 0 1 .14.19q.065.137.074.287.008.151-.042.294a.76.76 0 0 1-.675.508.75.75 0 0 1-.549-.192.8.8 0 0 1-.178-.237M307.66 157.94a.7.7 0 0 1 .28 0 .76.76 0 0 1 .66.533.765.765 0 0 1-.81.987l-4-.39zM303.67 144.76a.78.78 0 0 1 1.06.2.764.764 0 0 1-.2 1l-4.23 2.9 3.21-4a1 1 0 0 1 .16-.1M288.41 139a.8.8 0 0 1 0-.22.76.76 0 0 1 .83-.68.77.77 0 0 1 .68.84l-.54 5.17zM275.84 148.92l-4.33-2.36a.6.6 0 0 1-.18-.14.758.758 0 0 1-.087-1.189.76.76 0 0 1 1.177.189zM268.61 164.53a.77.77 0 0 1-.89-.61.776.776 0 0 1 .61-.89l4.54-.83-4 2.25zM279.65 158.73a.5.5 0 0 1-.24 0 .763.763 0 0 1-.63-.86.77.77 0 0 1 .87-.64l4.83.77zM281.06 163.35a.765.765 0 0 1-.42-1.47l3.65-1-3 2.36a.7.7 0 0 1-.23.11M284.49 165.85a.76.76 0 0 1-.333-.783.8.8 0 0 1 .113-.277l2-3.09-.61 3.63a.64.64 0 0 1-.11.29.75.75 0 0 1-.482.338.75.75 0 0 1-.578-.108M290.52 165.8a.78.78 0 0 1-.76-.79v-3l1.42 2.62c.06.117.091.248.09.38a.794.794 0 0 1-.75.79M290.9 160.17l2.55 1.33c.12.065.223.157.3.27a.79.79 0 0 1-.25 1.08.78.78 0 0 1-1.07-.25zM292.5 157.45l3.4-.89a.86.86 0 0 1 .601.107q.13.082.219.207a.773.773 0 0 1-.185 1.073.77.77 0 0 1-.575.123zM290.58 151.5a.785.785 0 0 1 .234.843.8.8 0 0 1-.154.267l-1.61 1.88.23-2.46a.84.84 0 0 1 .19-.44.786.786 0 0 1 1.11-.09M291.52 152.5a.782.782 0 0 1 1.171.808.78.78 0 0 1-.311.492l-2.29 1.5 1.15-2.48a.8.8 0 0 1 .28-.32M282.85 153.1a.773.773 0 0 1 .32-1 .78.78 0 0 1 1.05.32l1.42 2.73-2.54-1.73a.76.76 0 0 1-.25-.32M89.19 287.07l-.08.07a1.06 1.06 0 0 1-1.226.143 1.06 1.06 0 0 1-.53-1.115 1.06 1.06 0 0 1 .476-.708l17-13zM113.42 298.17l-2.84-25.93 4.92 25.62a.3.3 0 0 1 0 .08 1.05 1.05 0 0 1-.93 1.16 1.05 1.05 0 0 1-1.16-.93zM115.92 270.21l19.54 9.79h.09a1.06 1.06 0 0 1-1.12 1.79zM138.59 256.83a1.06 1.06 0 0 1 .871.009 1.04 1.04 0 0 1 .564.663 1.05 1.05 0 0 1-.865 1.328l-23.44 6.53 22.79-8.54zM123.15 241.79l.06-.09a1.06 1.06 0 0 1 1.46-.3 1.07 1.07 0 0 1 .3 1.47l-12 18.22zM99.9 243l6.81 18.39L98 243.78a1 1 0 0 1 0-.1 1.066 1.066 0 0 1 1.45-1.331 1.07 1.07 0 0 1 .55.601zM84.62 264.41a1.056 1.056 0 0 1-.885-1.248 1.06 1.06 0 0 1 1.285-.832l18.36 3.57-18.65-1.48zM96.3 272.1a1.062 1.062 0 0 1-.934-1.723c.178-.218.434-.358.714-.387l9.79-1-9.35 3.08a.8.8 0 0 1-.22.03M108.48 279.08q.015.15 0 .3a1.072 1.072 0 0 1-1.378.936 1.1 1.1 0 0 1-.412-.235 1.08 1.08 0 0 1-.344-.857c.01-.16.056-.315.134-.454l2.15-7.25zM117.14 277.12q.079.101.13.22a1.088 1.088 0 0 1-2 .86l-3.41-7.82zM113.83 268.09l9.6-.34q.12-.014.24 0a1.063 1.063 0 0 1 .84 1.24 1.01 1.01 0 0 1-.424.702 1 1 0 0 1-.806.148zM119.92 259.44l-1.44 1.06a1.082 1.082 0 0 1 1.078 1.57 1.11 1.11 0 0 1-.638.55l-3.46 1.14 1.94-2.47-5.15 3.77 6.24-7.17a1 1 0 0 1 .18-.16 1.06 1.06 0 1 1 1.25 1.71M109 260.9l-.53 1.38-1.16-2.37a1.17 1.17 0 0 1 0-.92 1.16 1.16 0 0 1 .608-.639 1.15 1.15 0 0 1 .882-.021c.06 0 .11.08.16.11l-.1-3.36a1 1 0 0 1 0-.26 1.062 1.062 0 0 1 1.93-.339c.15.237.201.525.14.799l-1.85 8.33zM106.25 265.31l-8-4.41-.19-.14a1.06 1.06 0 0 1 1.41-1.58zM103 294.05a1.071 1.071 0 0 1-1.973.047 1.06 1.06 0 0 1-.017-.817l2.5-6.47-.44 6.92a1.1 1.1 0 0 1-.07.32M124.19 289.84l-3-6.17 4.72 5q.112.123.19.27a1.07 1.07 0 0 1-.5 1.42 1.1 1.1 0 0 1-.404.101 1.1 1.1 0 0 1-.411-.064 1.055 1.055 0 0 1-.595-.557M136.88 267.19a1 1 0 0 1 .4 0c.264.052.499.2.66.415a1.084 1.084 0 0 1-.142 1.446c-.2.18-.459.28-.728.279l-5.62-.55zM131.28 248.66a1.06 1.06 0 0 1 .833-.238 1.08 1.08 0 0 1 .904.867 1.06 1.06 0 0 1-.202.842c-.09.119-.205.217-.335.289l-5.95 4.07 4.52-5.61a1 1 0 0 1 .23-.22M109.82 240.5a1 1 0 0 1 0-.3 1.06 1.06 0 0 1 .359-.785 1.068 1.068 0 0 1 1.755.564c.032.145.034.295.006.441l-.76 7.27zM92.15 254.5l-6.09-3.31a1.2 1.2 0 0 1-.26-.19 1.08 1.08 0 0 1 0-1.51 1.06 1.06 0 0 1 1.51 0zM82 276.45a1.07 1.07 0 0 1-.797-.167 1.05 1.05 0 0 1-.443-.683 1.08 1.08 0 0 1 .86-1.25l6.38-1.17-5.66 3.16a1.2 1.2 0 0 1-.34.11M97.5 268.31h-.33a1.074 1.074 0 0 1-.833-1.217 1.07 1.07 0 0 1 1.173-.893l6.78 1.07zM99.48 274.8a1.073 1.073 0 0 1-1.357-1.163 1.08 1.08 0 0 1 .403-.717q.168-.132.374-.19l5.13-1.45-4.17 3.32a1.1 1.1 0 0 1-.38.2M104.31 278.31a1.08 1.08 0 0 1-.32-1.49l2.83-4.34-.86 5.1a1.3 1.3 0 0 1-.16.41 1.08 1.08 0 0 1-1.49.32M112.79 278.23a1.1 1.1 0 0 1-.764-.327 1.09 1.09 0 0 1-.306-.773l.06-4.2 2 3.7c.085.163.13.345.13.53a1.095 1.095 0 0 1-.698.997 1.1 1.1 0 0 1-.422.073M113.31 270.32l3.59 1.88c.174.084.32.216.42.38a1.1 1.1 0 0 1 .143.826 1.1 1.1 0 0 1-1.699.654 1.1 1.1 0 0 1-.294-.31zM115.57 266.51l4.77-1.26a1.4 1.4 0 0 1 .46 0 1.084 1.084 0 0 1 .88 1.25 1.08 1.08 0 0 1-1.25.88zM112.87 258.14a1.12 1.12 0 0 1 .12 1.56l-2.27 2.64.33-3.46c.018-.229.109-.447.26-.62a1.112 1.112 0 0 1 1.56-.12"/><path fill="#E0E0E0" d="M114.19 259.54a1.095 1.095 0 0 1 1.272-.053 1.1 1.1 0 0 1 .485.733 1.1 1.1 0 0 1-.547 1.15l-3.21 2.11 1.61-3.48c.083-.188.218-.348.39-.46M102 260.39a1.08 1.08 0 0 1-.124-.863q.062-.22.204-.397a1.1 1.1 0 0 1 .775-.401 1.09 1.09 0 0 1 1.075.661l2 3.83-3.58-2.43a1.1 1.1 0 0 1-.35-.4M153.66 167.84h-.06a.746.746 0 0 1-1-.14.76.76 0 0 1 .14-1.06l12.06-9.23zM170.89 175.73l-2-18.44 3.5 18.22q.007.03 0 .06a.76.76 0 0 1-.147.57.74.74 0 0 1-.514.288.76.76 0 0 1-.564-.172.75.75 0 0 1-.265-.526zM172.67 155.85l13.9 6.93h.06a.75.75 0 1 1-.8 1.27zM188.8 146.32a.754.754 0 0 1 .854 1.096.75.75 0 0 1-.454.354l-16.67 4.65 16.21-6.08zM177.82 135.63v-.06a.757.757 0 0 1 1-.22.75.75 0 0 1 .22 1l-8.56 13zM161.27 136.45l4.85 13.09-6.22-12.49v-.08a.76.76 0 0 1-.02-.606.75.75 0 0 1 .741-.468.75.75 0 0 1 .679.554zM150.4 151.72a.764.764 0 0 1-.59-.89.75.75 0 0 1 .88-.59l13.06 2.54-13.26-1.05zM158.72 157.19a.743.743 0 0 1-.743-.388.8.8 0 0 1-.087-.282.75.75 0 0 1 .158-.558.76.76 0 0 1 .512-.272l7-.73-6.65 2.2zM167.38 162.16a.8.8 0 0 1 0 .21.75.75 0 0 1-.351.507.77.77 0 0 1-.612.08.778.778 0 0 1-.469-.4.76.76 0 0 1-.018-.617l1.52-5.16zM173.54 160.76a.766.766 0 0 1 .1.736.74.74 0 0 1-.4.414.75.75 0 0 1-.576.01.74.74 0 0 1-.414-.4l-2.43-5.52zM171.18 154.33l6.84-.24h.16a.759.759 0 0 1-.28 1.49zM175.52 148.19l-1 .75a.75.75 0 0 1 .81.52.774.774 0 0 1-.23.849.8.8 0 0 1-.27.151l-2.46.81 1.38-1.76-3.66 2.68 4.44-5.1.12-.11a.76.76 0 0 1 .9 1.22zM167.74 149.22l-.38 1-.82-1.68a.85.85 0 0 1 0-.66.811.811 0 0 1 1.06-.46s.07 0 .11.07l-.07-2.39a1 1 0 0 1 0-.18.76.76 0 0 1 1.48.32l-1.32 5.93zM165.79 152.36l-5.72-3.14a.5.5 0 0 1-.14-.1.747.747 0 0 1-.06-1.06.76.76 0 0 1 1.07-.06zM163.49 172.8a.77.77 0 0 1-.407.432.75.75 0 0 1-.593.008.773.773 0 0 1-.43-1l1.78-4.6-.32 4.93a.6.6 0 0 1-.03.23M178.55 169.81l-2.12-4.39 3.36 3.53a1 1 0 0 1 .13.2q.066.136.074.287a.75.75 0 0 1-.192.549.74.74 0 0 1-.524.253.75.75 0 0 1-.549-.192.8.8 0 0 1-.179-.237M187.58 153.69a.9.9 0 0 1 .28 0 .76.76 0 0 1 .517.272.77.77 0 0 1 .089.843.77.77 0 0 1-.746.405l-4-.39zM183.59 140.52a.758.758 0 0 1 1.213.452.765.765 0 0 1-.353.798l-4.23 2.89 3.21-4a.8.8 0 0 1 .16-.14M168.33 134.71a2 2 0 0 1 0-.21.767.767 0 0 1 .84-.68.76.76 0 0 1 .67.83l-.54 5.17zM155.76 144.67l-4.33-2.35a.8.8 0 0 1-.18-.14.76.76 0 0 1 0-1.07.74.74 0 0 1 1.07 0zM148.53 160.29a.763.763 0 1 1-.27-1.5l4.53-.84-4 2.25a1 1 0 0 1-.26.09M159.57 154.49h-.23a.76.76 0 0 1 .23-1.5l4.83.77zM161 159.11a.77.77 0 0 1-.95-.53.78.78 0 0 1 .53-1l3.66-1-3 2.37a.9.9 0 0 1-.24.16M164.41 161.6a.77.77 0 0 1-.22-1.06l2-3.08-.61 3.63a.77.77 0 0 1-1.17.51M170.45 161.55a.795.795 0 0 1-.77-.78v-3l1.42 2.63a.8.8 0 0 1 .09.38.759.759 0 0 1-.74.77M170.82 155.92l2.55 1.34a.767.767 0 0 1 .334 1.045.77.77 0 0 1-.274.295.793.793 0 0 1-1.08-.24zM172.42 153.21l3.4-.89a.7.7 0 0 1 .33 0 .77.77 0 0 1-.27 1.51zM170.5 147.26a.8.8 0 0 1 .273.539.8.8 0 0 1-.193.571l-1.58 1.87.23-2.46a.86.86 0 0 1 .19-.44.79.79 0 0 1 1.08-.08M171.44 148.25a.78.78 0 0 1 1.198.502q.03.152 0 .305a.77.77 0 0 1-.338.493l-2.3 1.51 1.14-2.48a.8.8 0 0 1 .3-.33M162.77 148.86a.781.781 0 0 1 .325-1.045.77.77 0 0 1 .855.091.8.8 0 0 1 .19.234l1.43 2.73-2.57-1.73a.8.8 0 0 1-.23-.28M386.78 168.88l-.06.05a.746.746 0 0 1-1.02-.163.747.747 0 0 1 .11-1.027l12.06-9.23zM404 176.78l-2-18.45 3.5 18.23q.007.03 0 .06a.75.75 0 0 1-.159.548.74.74 0 0 1-.501.272.75.75 0 0 1-.75-.379.8.8 0 0 1-.09-.281M405.79 156.89l13.9 6.94h.06a.8.8 0 0 1 .215.201.76.76 0 0 1-.445 1.174.77.77 0 0 1-.57-.095zM421.92 147.37a.73.73 0 0 1 .569.067.74.74 0 0 1 .351.453.75.75 0 0 1-.067.569.7.7 0 0 1-.191.221.8.8 0 0 1-.262.13l-16.67 4.65 16.21-6.07zM410.94 136.67v-.06a.76.76 0 0 1 1-.21.75.75 0 0 1 .22 1l-8.56 13zM394.4 137.5l4.84 13.08-6.24-12.49v-.07a.76.76 0 0 1 .004-.595.75.75 0 0 1 .436-.405.76.76 0 0 1 .96.48M383.53 152.76a.74.74 0 0 1-.516-.301.76.76 0 0 1-.132-.584.76.76 0 0 1 .337-.494.75.75 0 0 1 .591-.091l13.06 2.54-13.26-1.06zM391.84 158.23a.74.74 0 0 1-.558-.159.74.74 0 0 1-.272-.511.76.76 0 0 1 .67-.83l7-.72-6.68 2.19a.4.4 0 0 1-.16.03M400.5 163.2a.753.753 0 0 1-.547.7.75.75 0 0 1-.609-.081A.76.76 0 0 1 399 163l1.52-5.16zM406.66 161.8q.051.077.09.16a.75.75 0 0 1 .014.577.77.77 0 0 1-.399.418.75.75 0 0 1-.577.014.77.77 0 0 1-.418-.399l-2.43-5.57zM404.3 155.38l6.84-.24h.16q.147.027.272.11a.76.76 0 0 1 .325.476.77.77 0 0 1-.107.566.75.75 0 0 1-.77.328zM408.64 149.23l-1 .75a.76.76 0 0 1 .81.52.8.8 0 0 1-.035.603.77.77 0 0 1-.455.397l-2.47.81 1.38-1.75-3.66 2.68 4.44-5.1.12-.12a.76.76 0 0 1 1.06.17.747.747 0 0 1-.19 1.04M400.86 150.27l-.38 1-.82-1.68a.8.8 0 0 1 0-.65.817.817 0 0 1 1.06-.47l.11.08-.07-2.39a1 1 0 0 1 0-.19.76.76 0 0 1 .894-.525.758.758 0 0 1 .586.855l-1.32 5.93zM398.91 153.4l-5.72-3.13a.759.759 0 0 1-.2-1.17.77.77 0 0 1 1.07-.06zM396.61 173.85a.75.75 0 0 1-.147.277.74.74 0 0 1-.55.273.76.76 0 0 1-.743-.486.766.766 0 0 1 .03-.614l1.78-4.6-.32 4.92a.7.7 0 0 1-.05.23M411.67 170.85l-2.12-4.39 3.36 3.54a.766.766 0 0 1 .163.771.766.766 0 0 1-.969.467.76.76 0 0 1-.434-.388M420.7 154.74a.7.7 0 0 1 .28 0 .77.77 0 0 1 .69.84.76.76 0 0 1-.83.68l-4-.39zM416.72 141.56a.77.77 0 0 1 1 .2.75.75 0 0 1-.2 1.05l-4.23 2.9 3.21-4q.102-.085.22-.15M401.45 135.76a2 2 0 0 1 0-.22.76.76 0 0 1 .535-.68c.098-.03.202-.04.304-.03a.76.76 0 0 1 .671.87l-.53 5.17zM388.89 145.72l-4.34-2.36a.6.6 0 0 1-.18-.14.764.764 0 0 1 .066-1.022.76.76 0 0 1 1.024-.028zM381.65 161.33a.75.75 0 0 1-.312.018.75.75 0 0 1-.518-.326.76.76 0 0 1 .56-1.182l4.53-.84-4 2.25zM392.69 155.53a.45.45 0 0 1-.23 0 .76.76 0 0 1-.617-.566.75.75 0 0 1 .287-.787.747.747 0 0 1 .56-.137l4.83.76zM394.1 160.15a.765.765 0 0 1-.42-1.47l3.66-1-3 2.36a1 1 0 0 1-.24.11M397.53 162.65a.767.767 0 0 1-.22-1.06l2-3.09-.61 3.63a.82.82 0 0 1-.326.504.75.75 0 0 1-.568.124.8.8 0 0 1-.276-.108M403.57 162.6a.793.793 0 0 1-.77-.79l.05-3 1.41 2.62a.85.85 0 0 1 .033.681.77.77 0 0 1-.422.428.8.8 0 0 1-.301.061M403.94 157l2.55 1.33a.8.8 0 0 1 .3.28.8.8 0 0 1 .143.612.78.78 0 0 1-.355.519.78.78 0 0 1-.907-.06.8.8 0 0 1-.201-.251zM405.54 154.25l3.4-.89a.9.9 0 0 1 .33 0 .773.773 0 0 1 .513 1.17.767.767 0 0 1-.783.34zM403.62 148.3a.795.795 0 0 1 .273.538.8.8 0 0 1-.193.572l-1.61 1.88.23-2.46a.84.84 0 0 1 .19-.44.786.786 0 0 1 1.11-.09M404.56 149.3a.777.777 0 0 1 1.054.237.783.783 0 0 1-.194 1.063l-2.28 1.5 1.14-2.48a.8.8 0 0 1 .28-.32M395.89 149.9a.77.77 0 0 1 1.37-.71l1.43 2.72-2.55-1.73a.7.7 0 0 1-.25-.28M296 79.93h-.06a.76.76 0 0 1-.566.174.74.74 0 0 1-.515-.29.75.75 0 0 1 .171-1.074l12.06-9.23zM313.19 87.83l-2-18.44 3.5 18.22v.06a.76.76 0 0 1-.147.57.76.76 0 0 1-.514.288.75.75 0 0 1-.75-.408.7.7 0 0 1-.079-.29zM315 67.94l13.9 6.94h.06a.747.747 0 0 1 .24 1 .76.76 0 0 1-1 .24zM331.1 58.42a.74.74 0 0 1 .92.52.76.76 0 0 1-.52.93l-16.67 4.64 16.2-6.07zM320.11 47.73v-.07a.76.76 0 0 1 1-.21.74.74 0 0 1 .21 1l-8.56 13zM303.57 48.55l4.85 13.08-6.22-12.49a.2.2 0 0 1 0-.07.77.77 0 0 1 .012-.596.75.75 0 0 1 .438-.404.75.75 0 0 1 .92.48M292.7 63.81a.75.75 0 0 1-.556-.873.747.747 0 0 1 .846-.597l13.06 2.54-13.26-1.06zM301 69.29a.762.762 0 0 1-.633-1.224.76.76 0 0 1 .483-.286l7-.72-6.65 2.19zM309.68 74.25a.76.76 0 0 1-.267.57.757.757 0 0 1-1.132-.168.76.76 0 0 1-.091-.622l1.53-5.16zM315.84 72.86a.6.6 0 0 1 .09.16.75.75 0 0 1-.966 1 .76.76 0 0 1-.414-.4l-2.43-5.56zM313.48 66.43l6.83-.24h.17a.752.752 0 1 1-.28 1.48zM317.81 60.28l-1 .75a.77.77 0 0 1 .81.52.779.779 0 0 1-.5 1l-2.46.81L316 61.6l-3.66 2.68 4.44-5.1a.75.75 0 1 1 1.01 1.1zM310 61.32l-.38 1-.82-1.69a.86.86 0 0 1 0-.65.83.83 0 0 1 1.06-.47q.066.032.12.08l-.07-2.39a1 1 0 0 1 0-.19.761.761 0 0 1 1.48.33l-1.32 5.93zM308.09 64.45l-5.72-3.13a.751.751 0 1 1 .86-1.22zM305.79 84.9a.76.76 0 0 1-1 .43.747.747 0 0 1-.43-1l1.77-4.6-.31 4.92a.7.7 0 0 1-.03.25M320.85 81.9l-2.12-4.39 3.35 3.54a1 1 0 0 1 .14.19.76.76 0 0 1-.36 1 .75.75 0 0 1-1.01-.34M329.88 65.79a.65.65 0 0 1 .28 0 .764.764 0 0 1-.15 1.52l-4-.38zM325.89 52.62a.77.77 0 0 1 1.06.19.78.78 0 0 1-.2 1.06l-4.23 2.89 3.21-4a.6.6 0 0 1 .16-.14M310.63 46.81a.758.758 0 0 1 .832-.862.763.763 0 0 1 .678.802l-.54 5.17zM298.06 56.77l-4.33-2.36a.6.6 0 0 1-.18-.14.75.75 0 0 1-.331-.574.755.755 0 0 1 .539-.783.76.76 0 0 1 .882.357zM290.83 72.38a.77.77 0 0 1-.89-.61.757.757 0 0 1 .61-.88l4.54-.84-4 2.25a.6.6 0 0 1-.26.08M301.87 66.59h-.24a.77.77 0 0 1-.63-.87.76.76 0 0 1 .87-.63l4.83.76zM303.28 71.2a.764.764 0 0 1-.42-1.47l3.65-1-3 2.37a.6.6 0 0 1-.23.1M306.71 73.7a.77.77 0 0 1-.22-1.06l2-3.09-.61 3.63a.65.65 0 0 1-.11.29.76.76 0 0 1-1.06.23M312.74 73.65a.78.78 0 0 1-.76-.79v-3l1.42 2.63a.79.79 0 0 1-.66 1.16M313.12 68l2.55 1.33a.8.8 0 0 1 .3.28.778.778 0 0 1-.834 1.158.78.78 0 0 1-.486-.328zM314.72 65.31l3.4-.89a.7.7 0 0 1 .32 0 .78.78 0 0 1 .63.89.76.76 0 0 1-.59.616.8.8 0 0 1-.3.004zM312.8 59.36a.78.78 0 0 1 .234.843.8.8 0 0 1-.154.267l-1.61 1.87.23-2.46a.83.83 0 0 1 .19-.44.77.77 0 0 1 .538-.273.78.78 0 0 1 .572.193"/><path fill="#E0E0E0" d="M313.74 60.35a.78.78 0 1 1 .86 1.3l-2.28 1.51 1.14-2.49a.86.86 0 0 1 .28-.32M305.07 61a.774.774 0 1 1 1.37-.72l1.43 2.72-2.55-1.72a.8.8 0 0 1-.25-.28M378.47 63.51a.47.47 0 0 1-.515.03.47.47 0 0 1-.214-.283.473.473 0 0 1 .169-.487l7.39-5.66zM389 68.35 387.8 57l2.2 11.21a.46.46 0 0 1-.4.51.47.47 0 0 1-.6-.37M390.13 56.15l8.52 4.26a.462.462 0 0 1-.49.78zM400 50.32a.46.46 0 0 1 .57.32.47.47 0 0 1-.32.56L390 54.05l9.94-3.72zM393.28 43.76a.453.453 0 0 1 .473-.198.463.463 0 0 1 .297.708l-5.25 7.94zM383.14 44.26l3 8-3.81-7.65a.459.459 0 0 1 .618-.553.46.46 0 0 1 .242.233zM376.48 53.62a.46.46 0 0 1-.369-.36.46.46 0 0 1 .195-.472.46.46 0 0 1 .344-.068l8 1.55-8.13-.64zM381.57 57a.48.48 0 0 1-.51-.41.47.47 0 0 1 .102-.344.47.47 0 0 1 .318-.166l4.27-.45-4.08 1.37zM386.88 60a.6.6 0 0 1 0 .13.471.471 0 0 1-.841.077.47.47 0 0 1-.059-.337l.94-3.17zM390.66 59.17l.06.09a.466.466 0 0 1-.26.56.47.47 0 0 1-.59-.18l-1.49-3.41zM389.22 55.23l4.19-.15h.1a.45.45 0 0 1 .37.54.47.47 0 0 1-.54.37zM391.87 51.46l-.62.46a.47.47 0 0 1 .19.92l-1.51.5.84-1.08-2.24 1.65 2.72-3.13.08-.07a.461.461 0 1 1 .54.75M387.11 52.09l-.23.6-.51-1a.46.46 0 0 1 0-.4.5.5 0 0 1 .63-.29h.07l-.05-1.47a.5.5 0 0 1 0-.11.47.47 0 0 1 .202-.29.46.46 0 0 1 .512.012.46.46 0 0 1 .186.478l-.81 3.63zM385.91 54l-3.51-1.92a.16.16 0 0 1-.08-.06.463.463 0 0 1 .277-.805.46.46 0 0 1 .333.115zM384.5 66.55a.47.47 0 0 1-.6.27.48.48 0 0 1-.27-.61l1.09-2.82-.19 3a.3.3 0 0 1-.03.16M393.74 64.71 392.43 62l2.06 2.17a.4.4 0 0 1 .08.12.474.474 0 0 1 .025.354.47.47 0 0 1-.235.266.47.47 0 0 1-.62-.2M399.27 54.83a.6.6 0 0 1 .18 0 .47.47 0 0 1 .42.51.48.48 0 0 1-.51.42l-2.46-.24zM396.83 46.76a.44.44 0 0 1 .345-.076.45.45 0 0 1 .295.197q.053.075.074.164a.46.46 0 0 1-.066.349.4.4 0 0 1-.128.127l-2.59 1.78 2-2.45a.3.3 0 0 1 .07-.09M387.47 43.2a.7.7 0 0 1 0-.14.47.47 0 0 1 .914-.082q.026.09.016.182l-.33 3.17zM379.76 49.3l-2.65-1.44a.5.5 0 0 1-.12-.09.46.46 0 0 1 .502-.752.5.5 0 0 1 .148.102zM375.33 58.88a.47.47 0 0 1-.17-.92l2.78-.51-2.47 1.37a.35.35 0 0 1-.14.06M382.1 55.32a.464.464 0 0 1-.525-.35.474.474 0 0 1 .525-.57l3 .47zM383 58.15a.47.47 0 0 1-.58-.32.48.48 0 0 1 .32-.58l2.25-.63-1.83 1.45a.3.3 0 0 1-.16.08M385.07 59.68a.47.47 0 0 1-.14-.65l1.23-1.89-.38 2.23a.6.6 0 0 1-.06.18.48.48 0 0 1-.65.13M388.77 59.65a.46.46 0 0 1-.336-.141.47.47 0 0 1-.134-.34v-1.83l.87 1.61a.47.47 0 0 1-.4.7M389 56.2l1.57.82a.48.48 0 0 1 .164.694.5.5 0 0 1-.134.126.46.46 0 0 1-.526-.012.5.5 0 0 1-.124-.138zM390 54.54l2.08-.55a.44.44 0 0 1 .2 0 .47.47 0 0 1 .188.85.47.47 0 0 1-.348.08zM388.8 50.89a.493.493 0 0 1 .05.68l-1 1.15.14-1.51a.47.47 0 0 1 .12-.27.49.49 0 0 1 .69-.05"/><path fill="#E0E0E0" d="M389.38 51.5a.47.47 0 0 1 .529-.003q.079.053.131.133a.49.49 0 0 1-.14.67l-1.4.92.71-1.52a.4.4 0 0 1 .17-.2M384.06 51.87a.48.48 0 0 1-.033-.361.48.48 0 0 1 .594-.312c.12.038.221.121.279.233l.87 1.67-1.56-1.1a.5.5 0 0 1-.15-.13M115.59 64a.47.47 0 0 1-.65-.09.46.46 0 0 1 .09-.64l7.39-5.67zM126.16 68.8l-1.24-11.31 2.15 11.17a.47.47 0 0 1-.077.365.461.461 0 0 1-.833-.265zM127.25 56.6l8.52 4.26a.46.46 0 0 1 .204.287.47.47 0 0 1-.059.348.46.46 0 0 1-.635.145zM137.14 50.77a.46.46 0 1 1 .25.88l-10.22 2.85 9.93-3.72zM130.41 44.21a.463.463 0 0 1 .77.51l-5.18 7.9zM120.26 44.71l3 8-3.81-7.66a.458.458 0 0 1 .86-.32zM113.6 54.07a.47.47 0 0 1-.37-.54.457.457 0 0 1 .54-.36l8 1.56-8.13-.65zM118.69 57.43a.46.46 0 0 1-.5-.41.45.45 0 0 1 .095-.344.45.45 0 0 1 .315-.166l4.27-.45-4.08 1.35zM124 60.47a.5.5 0 0 1 0 .13.47.47 0 0 1-.741.235.46.46 0 0 1-.149-.495l.93-3.16zM127.78 59.62a.2.2 0 0 1 .06.1.47.47 0 0 1-.24.61.47.47 0 0 1-.61-.24l-1.49-3.41zM126.34 55.68l4.19-.15h.1a.46.46 0 0 1 .369.36q.018.09.001.18a.47.47 0 0 1-.54.37zM129 51.91l-.63.46a.47.47 0 0 1 .5.32.48.48 0 0 1-.31.6l-1.51.5.84-1.08-2.24 1.65 2.72-3.13.08-.07a.47.47 0 0 1 .55.75M124.23 52.54l-.23.6-.51-1a.51.51 0 0 1 .09-.558.52.52 0 0 1 .55-.132h.07v-1.47a.5.5 0 0 1 0-.11.464.464 0 0 1 .55-.35.463.463 0 0 1 .35.55l-.81 3.64zM123 54.47l-3.51-1.93a.2.2 0 0 1-.08-.06.46.46 0 0 1 0-.65.47.47 0 0 1 .66 0zM121.62 67a.47.47 0 0 1-.6.27.46.46 0 0 1-.293-.422.5.5 0 0 1 .033-.178l1.09-2.83-.2 3a.3.3 0 0 1-.03.16M130.86 65.16l-1.3-2.69 2.05 2.17a1 1 0 0 1 .09.12.47.47 0 0 1-.576.64.45.45 0 0 1-.264-.24M136.39 55.28a.6.6 0 0 1 .18 0 .47.47 0 0 1 .452.32.48.48 0 0 1-.167.529.47.47 0 0 1-.375.08L134 56zM134 47.21a.47.47 0 0 1 .65.12.46.46 0 0 1-.13.64l-2.59 1.78 2-2.45a.4.4 0 0 1 .07-.09M124.59 43.65a.3.3 0 0 1 0-.14.463.463 0 0 1 .33-.395.463.463 0 0 1 .575.315q.026.088.015.18l-.33 3.17zM116.88 49.75l-2.65-1.44a.3.3 0 0 1-.11-.09.448.448 0 0 1 0-.65.46.46 0 0 1 .509-.103.5.5 0 0 1 .151.103zM112.45 59.33a.47.47 0 0 1-.17-.92l2.78-.51-2.47 1.38zM119.22 55.77a.464.464 0 0 1-.45-.186.454.454 0 0 1-.08-.344.47.47 0 0 1 .53-.39l3 .47zM120.08 58.6a.47.47 0 0 1-.58-.32.5.5 0 0 1-.014-.184.477.477 0 0 1 .344-.396l2.24-.63-1.82 1.45a.4.4 0 0 1-.17.08M122.19 60.13a.47.47 0 0 1-.208-.48.5.5 0 0 1 .068-.17l1.23-1.89-.37 2.23a.7.7 0 0 1-.07.18.47.47 0 0 1-.65.13M125.89 60.1a.47.47 0 0 1-.437-.297.5.5 0 0 1-.033-.183v-1.83l.87 1.61a.47.47 0 0 1-.183.642.47.47 0 0 1-.237.058zM126.12 56.65l1.56.82a.4.4 0 0 1 .18.17.473.473 0 1 1-.8.51zM127.1 55l2.08-.55a.7.7 0 0 1 .2 0 .47.47 0 0 1 .38.55.46.46 0 0 1-.54.38zM125.92 51.34a.47.47 0 0 1 .141.34.472.472 0 0 1-.141.34l-1 1.15.15-1.51a.43.43 0 0 1 .11-.27.49.49 0 0 1 .565-.164.5.5 0 0 1 .175.114"/><path fill="#E0E0E0" d="M126.5 52a.47.47 0 0 1 .529-.003q.079.053.131.133a.47.47 0 0 1-.14.67l-1.4.92.71-1.52a.4.4 0 0 1 .17-.2M121.18 52.32a.473.473 0 0 1 .84-.44l.88 1.67-1.57-1.06a.5.5 0 0 1-.15-.17"/><path fill="#F5F5F5" d="M250 372.56c107.082 0 193.89-5.068 193.89-11.32S357.082 349.92 250 349.92c-107.083 0-193.89 5.068-193.89 11.32s86.807 11.32 193.89 11.32"/><path fill="#1A446E" d="M413.95 304.55H377.7v-22.8h-59.87v39.16h-50.26v37.93h160.38v-54.29z"/><g fill="#fff" opacity=".3"><path d="M313.44 320.91h-45.87v37.92h45.87zM363.7 281.75h-45.87v77.09h45.87zM413.95 304.55h-45.87v54.29h45.87z"/></g><path fill="#fff" d="M342.17 293.36v17.06H339V296h-3.61v-2.65zM396.52 332v2.68h-12.58v-2.12l6.78-6.44c1.66-1.58 1.95-2.58 1.95-3.53 0-1.56-1.07-2.47-3.17-2.47a4.81 4.81 0 0 0-4 1.78l-2.22-1.7a7.883 7.883 0 0 1 6.49-2.83c3.71 0 6.09 1.88 6.09 4.9 0 1.66-.46 3.17-2.82 5.39l-4.56 4.34zM296.6 343.23c0 2.87-2.17 5.36-6.75 5.36a10.68 10.68 0 0 1-6.41-2l1.36-2.46a7.94 7.94 0 0 0 5 1.68c2.27 0 3.61-1 3.61-2.58s-1.12-2.54-3.71-2.54h-1.56v-2.17l3.88-4.61h-7.75v-2.65h11.63v2.12l-4.15 4.92c3.25.44 4.85 2.37 4.85 4.93"/><path fill="#1A446E" d="M116.14 262.79h-8.06v96.05h8.06z"/><path fill="#1A446E" d="m103.65 314.03-6.68-11.65-13.78.46 20.97-38.35 20.47 11.19z"/><path fill="#fff" d="m103.65 314.03-6.68-11.65-13.78.46 20.97-38.35 20.47 11.19z" opacity=".2"/><path fill="#1A446E" d="m141.84 302.98-13.4-.75-7.13 11.81-20.72-38.49 20.54-11.06z"/><path fill="#fff" d="m141.84 302.98-13.4-.75-7.13 11.81-20.72-38.49 20.54-11.06z" opacity=".2"/><path fill="#1A446E" d="m109.16 232.17 3.98 2.13 4.11-1.87 3.32 3.05 4.44-.78 2.46 3.78 4.5.34 1.45 4.27 4.27 1.45.33 4.5 3.78 2.47-.79 4.44 3.04 3.33-1.87 4.1 2.12 3.98-2.83 3.51 1.06 4.39-3.62 2.69-.06 4.51-4.17 1.71-1.18 4.36-4.47.61-2.22 3.93-4.49-.51-3.13 3.24-4.21-1.61-3.84 2.37-3.68-2.61-4.31 1.34-2.92-3.44-4.5.22-1.97-4.06-4.42-.9-.9-4.42-4.05-1.98.23-4.5-3.44-2.92 1.34-4.31-2.6-3.69 2.37-3.83-1.6-4.22 3.25-3.12-.51-4.49 3.93-2.22.62-4.47 4.36-1.17 1.72-4.17 4.5-.05 2.71-3.62 4.38 1.07z"/><path fill="#fff" d="M121.237 289.878c14.187-5.021 21.618-20.593 16.597-34.78-5.022-14.188-20.593-21.618-34.781-16.597s-21.618 20.593-16.596 34.78c5.02 14.188 20.592 21.618 34.78 16.597" opacity=".4"/><path fill="#1A446E" d="m112.9 262.12-.34 4.89 3.93-.37-.22 3.89-4 .38-.42 6.09-3.81.36.42-6.1-3.31.31-.43 6.1-3.81.36.43-6.1-3.76.35.22-3.89 3.81-.36.34-4.89-3.75.36.23-3.9 3.8-.36.48-7 3.82-.35-.49 7 3.31-.31.49-7 3.81-.36-.49 7 4-.37-.23 3.89zm-3.83.36-3.3.31-.32 4.88 3.3-.31zM124.74 275.79l-1.83-19.51-3.26.31-.25-2.67a5.6 5.6 0 0 0 2.52-1.28 5.24 5.24 0 0 0 1.59-2.31l2.67-.25 2.38 25.36zM131.39 355.45H92.84v3.38h38.55zM131.38 355.45H92.84l15-6.41h8.54z"/><path fill="#fff" d="M131.38 355.45H92.84l15-6.41h8.54z" opacity=".4"/><path fill="#fff" d="M131.39 355.45H92.84v3.38h38.55z" opacity=".2"/><path fill="#E4897B" d="m183.01 349.59-10.1 9.11-8.67-1.04 11.67-12.81zM326.65 349.77l11.17 7.76 8.47-2.13-13.2-11.23z"/><path fill="#263238" d="m169.29 348.35 8 7.74s57.89-46.18 58.84-53.91 0-48.91 0-48.91 7.73 9.05 19.69 22.48c19.2 21.59 49.29 54.49 75.65 79.34l9.29-6.44c-66.85-83.44-88.11-128.07-88.11-128.07l-2.75-21-38.42-3.48s-9.24 24.2-6.74 42.17 12 51.41 11 58.15-46.45 51.93-46.45 51.93M173.56 357.12H164a.7.7 0 0 0-.68.54l-1.55 7a1.16 1.16 0 0 0 .9 1.38q.125.015.25 0c3.1-.05 5.36-.24 9.26-.24 2.4 0 9.64.25 13 .25s3.74-3.27 2.39-3.58c-6.09-1.32-10.67-3.16-12.62-4.91a1.9 1.9 0 0 0-1.39-.44M344.64 353.33l-8.64 4.08a.7.7 0 0 0-.38.78l1.58 7a1.17 1.17 0 0 0 .525.728 1.16 1.16 0 0 0 .885.142l.24-.09c2.78-1.36 4.75-2.5 8.27-4.16 2.18-1 8.84-3.87 11.83-5.28s2-4.56.65-4.25c-6.08 1.39-11 1.67-13.51.92a1.88 1.88 0 0 0-1.45.13"/><path fill="#000" d="m234.55 235 1.57 18.23s7.73 9.05 19.69 22.48c-12.69-20.49-16.12-34.6-16.12-34.6 4.14-5.53 4.57-14.37 4.57-14.37z" opacity=".3"/><path fill="#E4897B" d="m215.31 103.68 2.77-3.25 2 .15c.66 0 7.39-6.85 7.36-7.23s-3.94-3-4.88-3.08-5.5 5-5.5 5l-.15 2-4.25 3.43zM244.44 108.35l-2.41-2.1s-3.62 1-3.86-.29a45 45 0 0 1 0-5.62l.79-7.63s3.08-.9 4.37.32.07 10.1.07 10.1l5.9 5.58z"/><path fill="#1A446E" d="M249.74 147.27c4-4.14 9.34-18.24 9.06-22.07s-15.8-17-15.8-17l2.09-3.78s19.61 12 21.86 17-5.25 35.2-15.68 43l-5.79-8.14z"/><path fill="#fff" d="M249.74 147.27c4-4.14 9.34-18.24 9.06-22.07s-15.8-17-15.8-17l2.09-3.78s19.61 12 21.86 17-5.25 35.2-15.68 43l-5.79-8.14z" opacity=".5"/><path fill="#000" d="M249.48 201.18H209.1v4.8l40.9-.49z"/><path fill="#263238" d="M222.08 207.55h1.44v-8.53h-1.44zM242.51 207.55h1.44v-8.53h-1.44z"/><path fill="#fff" d="M231.08 205.72h7.47v-5.38h-7.47z"/><path fill="#1A446E" d="M210.46 66.54a4.53 4.53 0 0 0-2.49-2.86 5.73 5.73 0 0 0-3.47-.44 5.65 5.65 0 0 0-3.1 1.63q-.326.316-.57.7-.264.361-.44.77l-.18.4-.12.38-.22.77a8.3 8.3 0 0 0 1 6.17 11.55 11.55 0 0 0 4.41 4.1 16.3 16.3 0 0 0 5.54 1.79q1.427.217 2.87.21a14.4 14.4 0 0 1 2.61.11 3.63 3.63 0 0 1 2 1 1.62 1.62 0 0 1 .38 1.82 1.29 1.29 0 0 1-1.61.53 1.002 1.002 0 0 1-.434-1.46c.106-.163.257-.291.434-.37a1.22 1.22 0 0 0-1.14 1 1.66 1.66 0 0 0 .55 1.6 1.92 1.92 0 0 0 1.73.37 2.4 2.4 0 0 0 1.45-1 2.86 2.86 0 0 0-.38-3.29 5.05 5.05 0 0 0-2.73-1.59 17 17 0 0 0-2.88-.29c-.881-.04-1.757-.15-2.62-.33a14.7 14.7 0 0 1-4.82-1.83 9.27 9.27 0 0 1-3.47-3.45 6.24 6.24 0 0 1-.55-4.71 3.25 3.25 0 0 1 1.516-1.993 3.24 3.24 0 0 1 2.484-.317c1.71.57 2.76 2.32 3.33 3.92zM236 61.79a4.56 4.56 0 0 1 1.28-3.56 5.74 5.74 0 0 1 3.09-1.66 5.66 5.66 0 0 1 3.48.4c.539.25 1.032.588 1.46 1l.32.3.25.32.48.64a8.24 8.24 0 0 1 1.25 6.13 11.4 11.4 0 0 1-2.63 5.4 16.2 16.2 0 0 1-4.52 3.67 19 19 0 0 1-2.61 1.23c-.824.263-1.624.598-2.39 1a3.65 3.65 0 0 0-1.54 1.68 1.63 1.63 0 0 0 .3 1.83 1.3 1.3 0 0 0 1.7-.08 1 1 0 0 0 .213-1.076 1.01 1.01 0 0 0-.903-.624 1.2 1.2 0 0 1 1.4.49 1.65 1.65 0 0 1 .07 1.69 1.92 1.92 0 0 1-1.49 1 2.37 2.37 0 0 1-1.71-.44 2.852 2.852 0 0 1-.83-3.2 4.94 4.94 0 0 1 2-2.46c.82-.517 1.687-.956 2.59-1.31q1.208-.537 2.32-1.25a14.8 14.8 0 0 0 3.84-3.45 9.27 9.27 0 0 0 2-4.46 6.3 6.3 0 0 0-1.19-4.6 3.23 3.23 0 0 0-4.58-.7c-1.39 1.14-1.74 3.15-1.69 4.85z"/><g fill="#000" opacity=".2"><path d="M210.46 66.54a4.53 4.53 0 0 0-2.49-2.86 5.73 5.73 0 0 0-3.47-.44 5.65 5.65 0 0 0-3.1 1.63q-.326.316-.57.7-.264.361-.44.77l-.18.4-.12.38-.22.77a8.3 8.3 0 0 0 1 6.17 11.55 11.55 0 0 0 4.41 4.1 16.3 16.3 0 0 0 5.54 1.79q1.427.217 2.87.21a14.4 14.4 0 0 1 2.61.11 3.63 3.63 0 0 1 2 1 1.62 1.62 0 0 1 .38 1.82 1.29 1.29 0 0 1-1.61.53 1.002 1.002 0 0 1-.434-1.46c.106-.163.257-.291.434-.37a1.22 1.22 0 0 0-1.14 1 1.66 1.66 0 0 0 .55 1.6 1.92 1.92 0 0 0 1.73.37 2.4 2.4 0 0 0 1.45-1 2.86 2.86 0 0 0-.38-3.29 5.05 5.05 0 0 0-2.73-1.59 17 17 0 0 0-2.88-.29c-.881-.04-1.757-.15-2.62-.33a14.7 14.7 0 0 1-4.82-1.83 9.27 9.27 0 0 1-3.47-3.45 6.24 6.24 0 0 1-.55-4.71 3.25 3.25 0 0 1 1.516-1.993 3.24 3.24 0 0 1 2.484-.317c1.71.57 2.76 2.32 3.33 3.92zM236 61.79a4.56 4.56 0 0 1 1.28-3.56 5.74 5.74 0 0 1 3.09-1.66 5.66 5.66 0 0 1 3.48.4c.539.25 1.032.588 1.46 1l.32.3.25.32.48.64a8.24 8.24 0 0 1 1.25 6.13 11.4 11.4 0 0 1-2.63 5.4 16.2 16.2 0 0 1-4.52 3.67 19 19 0 0 1-2.61 1.23c-.824.263-1.624.598-2.39 1a3.65 3.65 0 0 0-1.54 1.68 1.63 1.63 0 0 0 .3 1.83 1.3 1.3 0 0 0 1.7-.08 1 1 0 0 0 .213-1.076 1.01 1.01 0 0 0-.903-.624 1.2 1.2 0 0 1 1.4.49 1.65 1.65 0 0 1 .07 1.69 1.92 1.92 0 0 1-1.49 1 2.37 2.37 0 0 1-1.71-.44 2.852 2.852 0 0 1-.83-3.2 4.94 4.94 0 0 1 2-2.46c.82-.517 1.687-.956 2.59-1.31q1.208-.537 2.32-1.25a14.8 14.8 0 0 0 3.84-3.45 9.27 9.27 0 0 0 2-4.46 6.3 6.3 0 0 0-1.19-4.6 3.23 3.23 0 0 0-4.58-.7c-1.39 1.14-1.74 3.15-1.69 4.85z"/></g><path fill="#1A446E" d="M222 82.06c-5.71-1.49-10.85-6.73-13.08-14l-1-3.33 29.77-5.55.24 3.48c.53 7.56-2.38 14.3-7.18 17.75a4.236 4.236 0 0 0-1.65 4.1l1.09 6.57a3.26 3.26 0 0 0 3.28 2.74 5.87 5.87 0 0 1 3.94 1.38l1.33 1.15-18.42 3.43.83-1.56a5.92 5.92 0 0 1 3.18-2.7 3.26 3.26 0 0 0 2.07-3.74l-1.34-6.52a4.251 4.251 0 0 0-3.06-3.2"/><path fill="#263238" d="m239.43 94.66-20.37 3.79.46 6.76 21.91-4.08z"/><path fill="#fff" d="m234.78 95.52-11.07 2.07.46 6.75 12.61-2.349z" opacity=".2"/><path fill="#fff" d="m226.779 101.694 6.617-1.232-.48-2.576-6.616 1.232z"/><path fill="#fff" d="M229.8 79.85a4.72 4.72 0 0 0-1.47 4.44l1.38 7.43c.27 1.46.8 1.93 2.45 2.23a5.74 5.74 0 0 1 2.69 1.08l-3.1.57a3.7 3.7 0 0 0-1.05-.42l-.47-.1a1.638 1.638 0 0 1-1.26-1.3l-2.25-12.08a2.86 2.86 0 0 1 .68-2.42l.61-.68a14.9 14.9 0 0 0 3.77-10.38l-.24-7 4.47-.84-.18 8.05c-.09 3.85-2.54 8.57-6.03 11.42" opacity=".3"/><path fill="#E4897B" d="M223.14 151.551c3.22 3.4 11.79 2.87 11.79 2.87s5.4-1 4.41-2.79c-3.08-.75-4.48-2.32-5-4.22a9 9 0 0 1 0-3.59q.146-1.013.41-2l-9.9-8.55c.98 5.27 1.95 14.82-1.71 18.28"/><path fill="#000" d="M226.89 138.43c0 6.31 5 8.44 7.49 9a9 9 0 0 1 0-3.59z" opacity=".2"/><path fill="#263238" d="M239.81 121.17s2.22-5.11-4.49-8.32-22.44.34-18.73 11.74 23.22-3.42 23.22-3.42"/><path fill="#263238" d="M238.52 117.19s4.17 7.26.61 12.8-10.38-11.87-10.38-11.87z"/><path fill="#E4897B" d="M226.69 142.39q.452.37.94.69a9.106 9.106 0 0 0 11-.52 10.17 10.17 0 0 0 3.67-6.52 10 10 0 0 0 .11-1.08 23 23 0 0 0-.06-2.3c-.48-6.52-3.71-14.84-10.4-16.07a9.91 9.91 0 0 0-11.35 12.46c1.77 6.43 2.56 10.5 6.09 13.34"/><path fill="#263238" d="M231.79 128.8c.08.58.52 1 .9.9s.58-.61.46-1.19-.52-1-.89-.9-.59.61-.47 1.19M238.3 127.45c.08.58.53 1 .9.9s.58-.61.47-1.19-.53-1-.9-.9-.58.64-.47 1.19"/><path fill="#DE5753" d="M236.29 128.16a21 21 0 0 0 3.77 4.36 3.38 3.38 0 0 1-2.66 1.09z"/><path fill="#263238" d="M229.33 127.11a.35.35 0 0 0 .3-.2 2.8 2.8 0 0 1 1.93-1.58.36.36 0 0 0 .227-.136.36.36 0 0 0 .073-.254.34.34 0 0 0-.256-.285.4.4 0 0 0-.134-.005 3.414 3.414 0 0 0-2.46 2 .337.337 0 0 0 .15.46q.085.015.17 0M240.63 124.62a.3.3 0 0 0 .21 0 .35.35 0 0 0 .07-.48 3.42 3.42 0 0 0-2.83-1.4.34.34 0 0 0-.296.237.352.352 0 0 0 .356.453 2.78 2.78 0 0 1 2.22 1.14.32.32 0 0 0 .27.05M223.18 133.59c-.59.34 1 5.88 1 5.88s-3.05-.76-5.59-5c-5-8.45-4-10.86-2.07-12.84 3.63-3.67 10.46-.2 10.46-.2a2.56 2.56 0 0 0-2.262 1.321 2.58 2.58 0 0 0 .072 2.619c1.67 2.33 1.23 6.74-.35 8.85-.03-.04-.38-1.15-1.26-.63"/><path fill="#E4897B" d="M218.75 135.49a6.89 6.89 0 0 0 4.57 2.6c2.39.29 3.22-1.94 2.25-4-.87-1.84-3.18-4.26-5.43-3.57a3.08 3.08 0 0 0-2.049 2.106 3.07 3.07 0 0 0 .659 2.864"/><path fill="#263238" d="M221.9 119.2a11 11 0 0 0 9.87 3.78s-3-.27-4-1.13c0 0 6.84 1.25 12-.68s-2.06-8.5-5.18-8.35-14.22 1.55-12.69 6.38M237.58 136.38a16.4 16.4 0 0 0-1.41 2.1l-.42-.16c-1.88-.72-2.51-1.68-2.65-2.52a2.7 2.7 0 0 1 .13-1.23q.113-.334.31-.63a9.4 9.4 0 0 0 3.4 2.18c.39.17.64.26.64.26"/><path fill="#fff" d="m236.94 136.12-.43.61c-1.77-.69-2.93-1.41-3.28-2.16q.113-.334.31-.63a9.4 9.4 0 0 0 3.4 2.18"/><path fill="#DE5753" d="M235.75 138.32c-1.88-.72-2.51-1.68-2.65-2.52.697.288 1.34.694 1.9 1.2.384.349.646.811.75 1.32"/><path fill="#1A446E" d="m250 202.55-40.45-2.08c.56-19.7-.47-45.79-1.36-53.11l3.37-4.92s11 10.79 16.11 10.84a44.5 44.5 0 0 0 22.05-6c3.61 17.85 1.69 42.31.28 55.27"/><path fill="#fff" d="m250 202.55-40.45-2.08c.56-19.7-.47-45.79-1.36-53.11l3.37-4.92s11 10.79 16.11 10.84a44.5 44.5 0 0 0 22.05-6c3.61 17.85 1.69 42.31.28 55.27" opacity=".6"/><path fill="#1A446E" d="m230.71 155.44.81.7L236 160s4.81 19.41 23.61 22.61l3.26-2.68-2.63-3.26s-16.41.23-22.14-17.79l.71-5-2.48-.19-4-.3"/><path fill="#1A446E" d="m225 147.67 9.68 5.27.86-3.58 3.59 1.57a3.06 3.06 0 0 1 1.77 3.32l-.72 3.94-4.89-3.19-2.8 3.4-11.6-6.7z"/><path fill="#fff" d="m225 147.67 9.68 5.27.86-3.58 3.59 1.57a3.06 3.06 0 0 1 1.77 3.32l-.72 3.94-4.89-3.19-2.8 3.4-11.6-6.7z" opacity=".5"/><path fill="#1A446E" d="M211.58 142.44s-9-11.83-7.23-18.88 13.17-21.91 13.17-21.91l-2.59-3.94s-16.41 13.6-18.78 25.24 12.95 39.73 12.95 39.73 5.71-14.68 2.48-20.24"/><path fill="#fff" d="M211.58 142.44s-9-11.83-7.23-18.88 13.17-21.91 13.17-21.91l-2.59-3.94s-16.41 13.6-18.78 25.24 12.95 39.73 12.95 39.73 5.71-14.68 2.48-20.24" opacity=".5"/></svg>