<svg xmlns="http://www.w3.org/2000/svg" width="328" height="328" fill="none"><g clip-path="url(#a)"><path fill="#F5F5F5" d="M255.343 229.505v15.705h-2.622v1.704h2.622v10.512h49.016v-9.565h-3.631v-2.083h3.631v-3.124h1.614v-1.42h-1.917v-11.728h-48.713z"/><path fill="#E0E0E0" d="M291.343 229.551v27.701h13.016v-9.565h-3.631v-1.908l3.631.064v-3.125l1.645.002-.031-1.614-1.916-.048v-11.553z"/><path fill="#E0E0E0" d="M292.27 246.689c0 .097-8.87.174-19.808.174-10.943 0-19.81-.078-19.81-.174s8.868-.173 19.81-.173c10.938 0 19.808.077 19.808.173M292.27 245.094c0 .096-8.87.174-19.808.174-10.943 0-19.81-.078-19.81-.174s8.868-.174 19.81-.174c10.938 0 19.808.078 19.808.174M294.814 240.801c0 .096-8.87.174-19.808.174-10.943 0-19.81-.078-19.81-.174s8.868-.174 19.81-.174c10.938 0 19.808.078 19.808.174M295.058 252.5c0 .096-8.87.174-19.808.174-10.942 0-19.81-.078-19.81-.174s8.868-.174 19.81-.174c10.939 0 19.808.078 19.808.174"/><path fill="#F5F5F5" d="M259.041 256.651v15.705h-2.622v1.705h2.622v10.511h49.016v-9.565h-3.631v-2.083h3.631v-3.125h1.613v-1.421h-1.916V256.65h-48.713z"/><path fill="#E0E0E0" d="M295.042 256.696v27.701h13.016v-9.564h-3.631v-1.909l3.631.065v-3.125l1.645.002-.031-1.615-1.917-.047V256.65z"/><path fill="#E0E0E0" d="M295.968 273.836c0 .096-8.869.174-19.808.174-10.942 0-19.809-.078-19.809-.174s8.867-.174 19.809-.174c10.939 0 19.808.078 19.808.174M295.968 272.24c0 .097-8.869.175-19.808.175-10.942 0-19.809-.078-19.809-.175s8.867-.174 19.809-.174c10.939 0 19.808.078 19.808.174M298.512 267.946c0 .097-8.869.174-19.808.174-10.942 0-19.809-.078-19.809-.174s8.867-.174 19.809-.174c10.939 0 19.808.079 19.808.174M298.757 279.647c0 .096-8.87.173-19.808.173-10.943 0-19.81-.078-19.81-.173 0-.096 8.868-.174 19.81-.174 10.938 0 19.808.078 19.808.174"/><path fill="#F5F5F5" d="M254.745 283.429v15.706h-2.622v1.704h2.622v10.511h49.015v-9.564h-3.631v-2.084h3.631v-3.125h1.614v-1.42h-1.916v-11.728z"/><path fill="#E0E0E0" d="M290.744 283.476v27.7h13.016v-9.565h-3.63v-1.908l3.63.065v-3.125l1.645.002-.031-1.615-1.916-.048V283.43z"/><path fill="#E0E0E0" d="M291.671 300.614c0 .097-8.87.174-19.808.174-10.943 0-19.81-.078-19.81-.174s8.868-.174 19.81-.174c10.939 0 19.808.078 19.808.174M291.671 299.019c0 .096-8.87.173-19.808.173-10.943 0-19.81-.078-19.81-.173 0-.096 8.868-.174 19.81-.174 10.939 0 19.808.077 19.808.174M294.215 294.725c0 .096-8.87.173-19.808.173-10.943 0-19.81-.078-19.81-.173 0-.096 8.868-.174 19.81-.174 10.938 0 19.808.077 19.808.174M294.461 306.425c0 .096-8.87.174-19.808.174-10.943 0-19.81-.078-19.81-.174s8.868-.174 19.81-.174c10.938 0 19.808.078 19.808.174"/><path fill="#F5F5F5" d="M27.466 229.505v15.705h-2.622v1.704h2.622v10.512H76.48v-9.565h-3.63v-2.083h3.63v-3.124h1.614v-1.42H76.18v-11.728H27.466z"/><path fill="#E0E0E0" d="M63.465 229.551v27.701h13.017v-9.565h-3.63v-1.908l3.63.064v-3.125l1.645.002-.032-1.614-1.916-.048v-11.553z"/><path fill="#E0E0E0" d="M64.392 246.689c0 .097-8.87.174-19.808.174-10.942 0-19.81-.078-19.81-.174s8.868-.173 19.81-.173c10.938 0 19.808.077 19.808.173M64.392 245.094c0 .096-8.87.174-19.808.174-10.942 0-19.81-.078-19.81-.174s8.868-.174 19.81-.174c10.938 0 19.808.078 19.808.174M66.936 240.8c0 .096-8.87.174-19.808.174-10.943 0-19.81-.078-19.81-.174s8.868-.174 19.81-.174c10.938 0 19.808.078 19.808.174M67.182 252.5c0 .096-8.87.174-19.808.174-10.943 0-19.81-.078-19.81-.174s8.868-.174 19.81-.174c10.938 0 19.808.078 19.808.174"/><path fill="#F5F5F5" d="M263.67 205.416v15.705h-2.622v1.705h2.622v10.511h49.016v-9.564h-3.631v-2.084h3.631v-3.125h1.614v-1.42h-1.916v-11.728z"/><path fill="#E0E0E0" d="M299.67 205.461v27.701h13.016v-9.564h-3.631v-1.909l3.631.065v-3.125l1.646.002-.032-1.615-1.916-.047v-11.553z"/><path fill="#E0E0E0" d="M300.597 222.6c0 .096-8.87.173-19.808.173-10.943 0-19.81-.078-19.81-.173 0-.096 8.868-.174 19.81-.174 10.938 0 19.808.078 19.808.174M300.597 221.005c0 .096-8.87.174-19.808.174-10.943 0-19.81-.078-19.81-.174s8.868-.174 19.81-.174c10.938 0 19.808.078 19.808.174M303.141 216.711c0 .096-8.87.174-19.808.174-10.943 0-19.81-.078-19.81-.174s8.868-.174 19.81-.174c10.939 0 19.808.078 19.808.174M303.385 228.411c0 .097-8.869.175-19.808.175-10.942 0-19.809-.078-19.809-.175s8.867-.174 19.809-.174c10.939 0 19.808.078 19.808.174"/><path fill="#F5F5F5" d="M30.068 256.651v15.705h-2.623v1.705h2.623v10.511h49.016v-9.565h-3.631v-2.083h3.63v-3.125h1.614v-1.421h-1.916V256.65H30.068z"/><path fill="#E0E0E0" d="M66.067 256.697v27.701h13.017v-9.564h-3.631v-1.909l3.63.065v-3.125l1.645.002-.031-1.615-1.916-.047v-11.554z"/><path fill="#E0E0E0" d="M66.994 273.836c0 .096-8.87.174-19.807.174-10.943 0-19.811-.078-19.811-.174s8.868-.174 19.81-.174c10.94 0 19.808.078 19.808.174M66.994 272.24c0 .097-8.87.175-19.807.175-10.943 0-19.811-.078-19.811-.175s8.868-.174 19.81-.174c10.94 0 19.808.078 19.808.174M69.54 267.946c0 .097-8.87.174-19.809.174-10.943 0-19.81-.078-19.81-.174s8.868-.174 19.81-.174c10.938 0 19.808.079 19.808.174M69.784 279.647c0 .096-8.87.173-19.808.173-10.943 0-19.81-.078-19.81-.173 0-.096 8.868-.174 19.81-.174 10.938 0 19.808.078 19.808.174"/><path fill="#F5F5F5" d="M35.915 283.429v15.706h-2.622v1.704h2.622v10.511h49.016v-9.564H81.3v-2.084h3.63v-3.125h1.614v-1.42h-1.916v-11.728z"/><path fill="#E0E0E0" d="M71.915 283.476v27.7H84.93v-9.565H81.3v-1.908l3.63.065v-3.125l1.646.002-.031-1.615-1.916-.048V283.43z"/><path fill="#E0E0E0" d="M72.841 300.614c0 .097-8.87.174-19.807.174-10.943 0-19.81-.078-19.81-.174s8.867-.174 19.81-.174c10.938 0 19.807.078 19.807.174M72.841 299.019c0 .096-8.87.173-19.807.173-10.943 0-19.81-.078-19.81-.173 0-.096 8.867-.174 19.81-.174 10.938 0 19.807.077 19.807.174M75.385 294.725c0 .096-8.87.173-19.808.173-10.942 0-19.81-.078-19.81-.173 0-.096 8.868-.174 19.81-.174 10.939 0 19.808.077 19.808.174M75.631 306.425c0 .096-8.87.174-19.808.174-10.943 0-19.81-.078-19.81-.174s8.868-.174 19.81-.174c10.938 0 19.808.078 19.808.174"/><path fill="#F5F5F5" d="M197.847 283.772v15.221h-2.541v1.652h2.541v10.187h47.504v-9.269h-3.519v-2.019h3.519v-3.029h1.564v-1.377h-1.857v-11.367z"/><path fill="#E0E0E0" d="M232.736 283.816v26.847h12.615v-9.269h-3.519v-1.85l3.519.063v-3.029l1.594.002-.03-1.565-1.857-.046v-11.197z"/><path fill="#E0E0E0" d="M233.635 300.426c0 .094-8.596.169-19.197.169-10.605 0-19.199-.075-19.199-.169 0-.093 8.594-.168 19.199-.168 10.602 0 19.197.075 19.197.168M233.635 298.88c0 .094-8.596.169-19.197.169-10.605 0-19.199-.075-19.199-.169 0-.093 8.594-.168 19.199-.168 10.602 0 19.197.075 19.197.168M236.101 294.719c0 .094-8.596.169-19.197.169-10.605 0-19.199-.075-19.199-.169 0-.093 8.594-.168 19.199-.168 10.602 0 19.197.075 19.197.168M236.338 306.059c0 .093-8.596.169-19.197.169-10.605 0-19.199-.076-19.199-.169s8.594-.168 19.199-.168c10.601 0 19.197.075 19.197.168"/><path fill="#F5F5F5" d="M109.974 256.651v15.705h-2.622v1.705h2.622v10.511h49.016v-9.565h-3.631v-2.083h3.631v-3.125h1.614v-1.421h-1.917V256.65h-48.713z"/><path fill="#E0E0E0" d="M145.974 256.696v27.701h13.016v-9.564h-3.631v-1.909l3.631.065v-3.125l1.645.002-.031-1.615-1.916-.047V256.65z"/><path fill="#E0E0E0" d="M146.901 273.836c0 .096-8.87.174-19.808.174-10.943 0-19.81-.078-19.81-.174s8.868-.174 19.81-.174c10.938 0 19.808.078 19.808.174M146.901 272.24c0 .097-8.87.175-19.808.175-10.943 0-19.81-.078-19.81-.175s8.868-.174 19.81-.174c10.938 0 19.808.078 19.808.174M149.444 267.946c0 .097-8.869.174-19.807.174-10.943 0-19.81-.078-19.81-.174s8.867-.174 19.81-.174c10.938 0 19.807.079 19.807.174M149.689 279.647c0 .096-8.87.173-19.808.173-10.943 0-19.81-.078-19.81-.173 0-.096 8.868-.174 19.81-.174 10.939 0 19.808.078 19.808.174"/><path fill="#F5F5F5" d="M105.677 283.429v15.706h-2.622v1.704h2.622v10.511h49.016v-9.564h-3.631v-2.084h3.631v-3.125h1.614v-1.42h-1.917v-11.728z"/><path fill="#E0E0E0" d="M141.677 283.476v27.7h13.016v-9.565h-3.631v-1.908l3.631.065v-3.125l1.645.002-.031-1.615-1.916-.048V283.43z"/><path fill="#E0E0E0" d="M142.604 300.614c0 .097-8.869.174-19.808.174-10.942 0-19.81-.078-19.81-.174s8.868-.174 19.81-.174c10.939 0 19.808.078 19.808.174M142.604 299.019c0 .096-8.869.173-19.808.173-10.942 0-19.81-.078-19.81-.173 0-.096 8.868-.174 19.81-.174 10.939 0 19.808.077 19.808.174M145.148 294.725c0 .096-8.87.173-19.808.173-10.943 0-19.81-.078-19.81-.173 0-.096 8.868-.174 19.81-.174 10.938 0 19.808.077 19.808.174M145.393 306.425c0 .096-8.87.174-19.808.174-10.942 0-19.81-.078-19.81-.174s8.868-.174 19.81-.174c10.939 0 19.808.078 19.808.174M14.846 254.602c.53 4.258 3.802 7.772 7.6 9.77 3.797 1.999 8.107 2.743 12.327 3.518s8.527 1.643 12.21 3.843l7.312-20.338s-9.019-4.174-18.352-3.804c-7.553.3-13.55-9.705-13.55-9.705zM47.284 306.284c6.818-7.027 14.456-10.867 24.21-11.716-2.303-3.589-6.397-10.585-8.7-14.174-12.258.065-21.782 6.978-28.224 17.28 4.53 3.265 8.183 5.345 12.714 8.61"/><path fill="#EBEBEB" d="M279.116 85.188a16.9 16.9 0 0 1 4.112-1.787l.847-4.07 6.875-.12.99 4.037a16.8 16.8 0 0 1 4.172 1.641l3.475-2.278 4.948 4.777-2.154 3.552a16.9 16.9 0 0 1 1.787 4.113l4.069.847.121 6.875-4.037.99a16.8 16.8 0 0 1-1.642 4.172l2.278 3.475-4.776 4.948-3.553-2.155a16.8 16.8 0 0 1-4.112 1.787l-.847 4.07-6.875.121-.99-4.037a16.8 16.8 0 0 1-4.172-1.642l-3.475 2.278-4.947-4.776 2.154-3.553a16.9 16.9 0 0 1-1.787-4.111l-4.069-.847-.121-6.876 4.037-.99a16.8 16.8 0 0 1 1.642-4.171l-2.278-3.476 4.776-4.947zm3.666 9.16a7.377 7.377 0 1 0 10.615 10.248 7.377 7.377 0 0 0-.183-10.43 7.377 7.377 0 0 0-10.432.182M41.435 152.548a20.3 20.3 0 0 1 4.957-2.155l1.021-4.907 8.291-.145 1.193 4.867a20.3 20.3 0 0 1 5.03 1.979l4.19-2.746 5.965 5.759-2.597 4.284a20.3 20.3 0 0 1 2.155 4.958l4.906 1.022.145 8.289-4.867 1.194a20.3 20.3 0 0 1-1.98 5.029l2.747 4.191-5.76 5.965-4.283-2.597a20.3 20.3 0 0 1-4.958 2.154l-1.021 4.907-8.29.145-1.194-4.868a20.3 20.3 0 0 1-5.03-1.979l-4.19 2.747-5.965-5.76 2.597-4.283a20.3 20.3 0 0 1-2.154-4.959l-4.907-1.021-.146-8.29 4.868-1.194a20.3 20.3 0 0 1 1.979-5.029l-2.746-4.19 5.759-5.965zm4.42 11.043a8.895 8.895 0 1 0 12.799 12.357 8.895 8.895 0 0 0-12.8-12.357"/><path fill="#fff" d="M96.18 30.709 19.844 44.518l10.963 60.603 76.338-13.809z"/><path fill="#EBEBEB" d="M96.18 30.71 19.844 44.518l2.869 15.86L99.05 46.572z"/><path fill="#E0E0E0" d="M39.376 71.394c-.019-.013-.086-.298-.197-.819l-.46-2.231c-.384-1.911-.92-4.605-1.524-7.83l.243.17-10.91 2.006.195-.28.001.003.001.006.002.012.004.024.009.046.017.094.033.187.067.373.134.74.262 1.46.504 2.823.907 5.153-.243-.17a574 574 0 0 1 7.868-1.313l2.25-.351c.528-.079.818-.115.837-.103.018.013-.237.075-.734.182l-2.184.45c-1.897.383-4.645.928-7.961 1.549l-.206.038-.038-.208-.956-5.145-.516-2.82-.265-1.46-.135-.74-.068-.373-.034-.187-.017-.093-.008-.047-.005-.024-.002-.011-.001-.006v-.003c-.176.251.237-.346.195-.284l10.921-1.942.208-.037.036.206c.58 3.324 1.032 6.088 1.338 7.999l.343 2.204c.076.504.107.765.089.752M53.666 68.81c-.019-.013-.086-.298-.197-.819l-.46-2.231c-.385-1.91-.92-4.605-1.524-7.83l.244.17-10.91 2.006c-.044.061.37-.532.195-.28v.003l.002.006.002.011.005.024.008.047.017.093.033.187.067.373.134.74.262 1.46.504 2.822.907 5.154-.244-.17a573 573 0 0 1 7.867-1.313l2.251-.351c.528-.078.818-.115.837-.102.018.013-.237.075-.734.182l-2.184.45c-1.897.383-4.645.928-7.962 1.549l-.205.038-.039-.208-.955-5.145-.516-2.82-.266-1.46-.134-.74-.068-.373-.033-.187-.017-.093-.009-.047-.004-.024-.002-.012-.002-.005v-.003c-.175.251.237-.346.196-.284l10.922-1.942.208-.037.036.206c.58 3.324 1.031 6.089 1.337 7.999l.343 2.204c.074.504.106.764.088.752M67.956 66.226c-.018-.013-.085-.298-.196-.82l-.46-2.231c-.385-1.911-.92-4.605-1.524-7.829l.244.17-10.91 2.006c-.044.06.37-.533.195-.28v.002l.002.006.002.012.004.023.008.047.017.094.034.187.068.372.133.74.263 1.46.503 2.823.908 5.153-.245-.17a576 576 0 0 1 7.868-1.313l2.25-.351c.527-.077.818-.114.836-.101s-.236.075-.733.182l-2.184.45c-1.897.383-4.645.928-7.962 1.548l-.205.04-.039-.209-.955-5.145-.516-2.82-.266-1.46-.134-.74-.068-.373-.033-.187-.017-.093-.009-.047-.004-.024-.002-.011-.001-.006v-.003c-.176.251.237-.346.195-.284l10.922-1.942.207-.037.037.206c.58 3.324 1.031 6.089 1.337 7.999l.343 2.204c.074.504.106.765.087.752M82.247 63.642c-.019-.013-.087-.298-.197-.82l-.46-2.23a580 580 0 0 1-1.524-7.83l.243.17-10.91 2.006c-.044.06.37-.533.195-.28v.002l.002.006.002.012.004.024.009.046.017.094.033.187.068.373.133.74.262 1.46.504 2.823.907 5.153-.244-.17a576 576 0 0 1 7.868-1.313l2.25-.351c.528-.078.82-.115.837-.102.019.013-.236.074-.733.181l-2.184.451c-1.897.383-4.645.928-7.962 1.548l-.205.039-.039-.208-.955-5.145-.516-2.82-.266-1.46-.134-.74-.068-.372-.033-.187-.017-.093-.009-.047-.004-.024-.002-.011-.001-.006v-.003c-.176.251.237-.346.195-.284l10.921-1.942.209-.037.035.206a575 575 0 0 1 1.338 7.999l.343 2.204c.074.503.106.763.087.75M96.537 61.057c-.019-.013-.086-.297-.197-.818l-.46-2.232a580 580 0 0 1-1.524-7.829l.244.17-10.91 2.005c-.044.061.37-.532.195-.28v.004l.002.006.002.011.004.024.008.047.017.093.035.187.066.373.134.74.263 1.46.504 2.823.907 5.154-.244-.17a575 575 0 0 1 7.868-1.314q1.372-.215 2.25-.35c.526-.08.817-.117.836-.104.018.013-.237.075-.734.182-.57.117-1.295.268-2.184.45-1.897.384-4.645.928-7.96 1.549l-.206.039-.039-.208-.955-5.145-.516-2.821-.266-1.46-.134-.74-.068-.372-.034-.187-.017-.093-.009-.047-.004-.023-.002-.012-.002-.006v-.003c-.175.251.237-.346.196-.284l10.922-1.942.208-.036.036.205c.58 3.324 1.032 6.088 1.337 8l.343 2.203c.075.503.106.764.088.751M41.914 85.433c-.018-.013-.086-.298-.197-.819l-.459-2.231a580 580 0 0 1-1.524-7.83l.244.17-10.91 2.006c-.044.061.37-.532.195-.28v.003l.002.006.002.012.004.024.009.046.017.094.033.187.068.373.133.74.262 1.46.504 2.823.907 5.153-.244-.17a578 578 0 0 1 7.868-1.313l2.25-.352c.527-.078.818-.114.836-.102s-.236.075-.733.182l-2.185.45c-1.896.383-4.644.928-7.96 1.549l-.206.038-.039-.207-.955-5.145-.517-2.82-.266-1.46-.134-.74-.068-.373-.034-.187-.017-.094-.008-.046-.005-.024-.002-.012v-.006l-.001-.003c-.175.251.237-.346.196-.284L39.9 74.309l.208-.037.036.206c.58 3.324 1.032 6.089 1.338 7.999l.343 2.204c.075.504.107.765.088.752M56.205 82.849c-.019-.013-.087-.298-.197-.819l-.46-2.232a580 580 0 0 1-1.524-7.828l.244.169-10.91 2.006c-.044.06.37-.533.195-.28v.002l.002.006.002.012.004.024.009.046.017.093.033.187.068.373.133.74.263 1.46.503 2.822.908 5.154-.244-.17a576 576 0 0 1 7.867-1.313l2.25-.351c.527-.077.818-.114.837-.101.018.012-.237.075-.734.181l-2.184.451c-1.897.383-4.645.928-7.961 1.548l-.205.039-.039-.208-.955-5.145-.516-2.82-.266-1.46-.135-.74-.067-.373-.034-.187-.017-.094-.009-.046-.004-.024-.002-.012-.001-.006v-.003c-.176.251.237-.346.195-.284l10.922-1.942.208-.037.036.207c.58 3.323 1.032 6.088 1.338 7.998l.343 2.204c.073.505.105.765.087.753M70.494 80.265c-.018-.012-.086-.298-.196-.819l-.46-2.231c-.385-1.911-.92-4.605-1.524-7.83l.243.17-10.91 2.006c-.044.061.37-.533.195-.28v.003l.002.006.002.011.005.024.008.047.017.093.034.187.067.373.133.74.263 1.46.504 2.823.907 5.153-.244-.169a575 575 0 0 1 7.867-1.314l2.251-.351c.527-.078.818-.115.836-.102s-.237.075-.733.182l-2.184.45c-1.897.383-4.645.928-7.962 1.549l-.205.038-.039-.208-.955-5.145-.516-2.82-.266-1.46-.134-.74-.068-.373-.034-.187-.017-.093-.009-.047-.004-.024-.002-.011-.002-.006v-.003c-.175.251.237-.346.196-.284l10.921-1.942.208-.037.036.207a575 575 0 0 1 1.338 7.998l.343 2.204c.075.504.107.764.088.752M84.785 77.68c-.018-.013-.086-.298-.196-.82l-.46-2.231c-.385-1.91-.92-4.605-1.524-7.829l.243.17-10.91 2.006c-.044.06.37-.533.195-.28v.003l.002.006.002.011.005.024.008.047.017.093.034.187.068.373.133.74.263 1.46.503 2.823.907 5.154-.243-.17a574 574 0 0 1 7.867-1.314q1.373-.215 2.25-.35c.527-.08.818-.116.836-.104s-.236.075-.733.182l-2.184.45c-1.897.383-4.645.928-7.962 1.549l-.205.039-.039-.208-.955-5.145-.517-2.821-.266-1.46-.134-.739-.068-.373-.034-.187-.017-.093-.008-.046-.004-.024-.002-.012-.001-.006-.001-.003c-.175.251.237-.346.196-.284l10.921-1.942.208-.037.036.206a575 575 0 0 1 1.338 8l.343 2.203c.075.503.107.764.088.751M99.076 75.096c-.018-.013-.086-.297-.197-.818l-.46-2.232c-.385-1.91-.92-4.605-1.524-7.829l.244.17-10.91 2.006.195-.28v.003l.002.006.002.011.004.024.009.047.017.094.033.186.067.373.134.74.262 1.46.504 2.823.907 5.154-.244-.17a576 576 0 0 1 7.868-1.314q1.372-.215 2.25-.35c.528-.08.819-.117.837-.104s-.237.075-.733.182l-2.185.45c-1.897.384-4.645.928-7.961 1.549l-.206.039-.038-.208-.955-5.145-.783-4.28-.135-.74-.067-.373-.034-.187-.017-.093-.009-.047-.004-.024-.002-.011-.001-.006v-.003c-.176.251.237-.346.195-.284l10.922-1.942.208-.036.036.206a574 574 0 0 1 1.337 7.998l.343 2.204c.076.503.107.764.089.751M42.312 87.612l-10.916 1.975 1.975 10.916 10.916-1.975zM58.574 95.951c-.018-.012-.086-.298-.197-.819l-.459-2.231c-.385-1.911-.92-4.604-1.524-7.829l.244.17-10.91 2.005c-.044.061.369-.532.194-.28l.001.004.002.005.001.012.004.024.009.047.017.093.034.187.067.373.134.74.262 1.46.504 2.823.907 5.153-.244-.169a574 574 0 0 1 7.868-1.314q1.372-.215 2.25-.35c.527-.08.818-.117.836-.104s-.237.075-.733.182l-2.185.45c-1.896.384-4.644.928-7.961 1.549l-.205.038-.039-.207-.955-5.145-.783-4.28-.134-.74-.068-.373-.034-.187-.017-.094-.008-.047-.005-.023-.002-.012-.001-.006-.001-.003c-.175.25.237-.346.196-.284l10.922-1.942.208-.037.036.206c.58 3.323 1.032 6.088 1.337 7.999l.343 2.204c.076.504.108.765.09.752M72.865 93.365c-.019-.013-.086-.298-.197-.819l-.46-2.232a569 569 0 0 1-1.524-7.828l.244.17-10.91 2.005c-.044.061.37-.532.195-.28v.003l.002.006.002.012.005.024.008.046.017.094.034.187.067.373.133.74.263 1.46.504 2.823.907 5.153-.244-.17a576 576 0 0 1 7.867-1.313l2.251-.351c.526-.079.817-.115.836-.103.018.012-.237.075-.734.182l-2.184.45c-1.897.383-4.645.928-7.961 1.549l-.206.038-.038-.208-.956-5.145-.516-2.82-.265-1.46-.135-.74-.067-.372-.034-.187-.017-.094-.009-.046-.004-.024-.002-.012-.001-.006-.001-.002c-.175.25.237-.346.196-.284l10.921-1.942.208-.037.036.206c.58 3.323 1.032 6.088 1.338 7.999l.343 2.205c.075.502.106.763.088.75M87.155 90.781c-.019-.013-.086-.299-.197-.819l-.46-2.231c-.384-1.911-.92-4.604-1.524-7.83l.244.17-10.91 2.006c-.044.061.37-.532.195-.28v.003l.002.006.002.012.005.024.008.046.017.094.034.187.068.373.133.74.262 1.46.505 2.823.907 5.153-.243-.17a575 575 0 0 1 7.867-1.313l2.25-.351c.525-.079.816-.116.835-.103.018.012-.237.075-.734.182l-2.184.45c-1.897.383-4.645.928-7.961 1.549L76.07 93l-.038-.208-.956-5.145-.516-2.82-.266-1.46-.134-.74-.068-.372-.033-.187-.017-.094-.009-.046-.004-.024-.002-.012v-.006l-.002-.002c-.175.25.238-.346.197-.284l10.92-1.942.209-.037.036.206c.58 3.323 1.032 6.088 1.338 7.999l.343 2.204c.073.503.105.763.087.751M101.445 88.197c-.019-.013-.086-.298-.197-.819l-.459-2.231a577 577 0 0 1-1.525-7.83l.244.17-10.91 2.006.195-.28v.003l.002.006.002.012.004.024.009.046.017.094.033.187.068.373.134.74.262 1.46.504 2.822.907 5.153-.243-.169a575 575 0 0 1 7.867-1.314q1.372-.215 2.251-.35c.525-.079.816-.115.835-.103.018.013-.237.075-.734.182l-2.185.45a580 580 0 0 1-7.96 1.549l-.206.038-.038-.208-.955-5.145-.517-2.82-.265-1.46-.135-.74-.067-.372-.034-.187-.018-.094-.008-.046-.004-.024-.002-.012-.001-.006-.001-.002c-.175.25.237-.346.196-.284l10.921-1.942.208-.037.036.206c.58 3.323 1.032 6.088 1.338 7.999l.343 2.204c.075.504.106.764.088.751M37.384 46.533l-1.477.267a.964.964 0 0 1-1.12-.777l-1.468-8.119a.964.964 0 0 1 .777-1.12l1.477-.267a.964.964 0 0 1 1.12.777l1.468 8.119a.964.964 0 0 1-.777 1.12M59.32 42.566l-1.477.267a.964.964 0 0 1-1.12-.777l-1.468-8.119a.964.964 0 0 1 .776-1.12l1.478-.267a.964.964 0 0 1 1.12.776l1.468 8.119a.964.964 0 0 1-.777 1.12M81.256 38.598l-1.478.268a.964.964 0 0 1-1.12-.777l-1.468-8.118a.964.964 0 0 1 .777-1.12l1.477-.267a.964.964 0 0 1 1.12.776l1.468 8.12a.964.964 0 0 1-.776 1.118"/><path fill="#E0E0E0" d="M107.34 92.403s-.087-.394-.23-1.142l-.62-3.297-2.313-12.5-8.192-44.714.234.163c-21.827 3.96-48.086 8.722-76.326 13.844l-.007.002.195-.282c4.023 22.296 7.823 43.355 11.13 61.693l-.251-.174 55.149-9.863 15.634-2.77c1.806-.314 3.195-.557 4.15-.724l1.074-.181c.242-.04.373-.055.373-.055s-.112.03-.344.075l-1.046.202-4.099.768-15.566 2.873-55.248 10.102-.213.038-.039-.214-11.181-61.684-.043-.239.238-.043.007-.001 76.341-13.764.2-.036.035.198 8.009 44.877 2.203 12.473.567 3.268c.127.737.179 1.107.179 1.107"/><path fill="#EBEBEB" d="M235.338 35.338a26.8 26.8 0 0 1 6.528-2.837l1.345-6.463 10.918-.191 1.572 6.41a26.8 26.8 0 0 1 6.625 2.606l5.518-3.617 7.855 7.586-3.42 5.64a26.7 26.7 0 0 1 2.837 6.53l6.462 1.345.191 10.918-6.41 1.572a26.8 26.8 0 0 1-2.606 6.624l3.616 5.518-7.584 7.856-5.641-3.42a26.8 26.8 0 0 1-6.53 2.837l-1.344 6.463-10.918.191-1.572-6.41a26.8 26.8 0 0 1-6.624-2.607l-5.518 3.618-7.856-7.585 3.42-5.641a26.8 26.8 0 0 1-2.837-6.53l-6.462-1.344-.191-10.918 6.41-1.572a26.8 26.8 0 0 1 2.607-6.624l-3.617-5.518 7.584-7.856zm5.82 14.545c-4.493 4.654-4.363 12.07.292 16.563 4.654 4.494 12.07 4.364 16.563-.29 4.493-4.655 4.363-12.071-.291-16.565-4.655-4.493-12.07-4.363-16.564.291"/><path fill="#263238" d="M291.499 310.97c0 .095-57.675.171-128.805.171-71.154 0-128.817-.077-128.817-.171 0-.093 57.663-.17 128.817-.17 71.13-.001 128.805.076 128.805.17M178.29 31.5h-12.671v19.775h12.671z"/><path fill="#21558A" d="M185.085 37.415h-26.1V16.1c9.137-2.25 17.864-2.388 26.1 0z"/><path fill="#263238" d="M185.392 16.19c.011.029-.331.197-.963.478-.629.29-1.568.642-2.749 1.012-1.179.377-2.617.723-4.232 1.003a36 36 0 0 1-5.311.452c-1.894 0-3.694-.16-5.315-.401-1.618-.265-3.059-.597-4.243-.963-1.184-.36-2.127-.702-2.758-.986-.635-.274-.98-.44-.967-.467.031-.078 1.44.514 3.811 1.15 1.182.325 2.614.622 4.216.86 1.606.217 3.383.362 5.253.362a39.5 39.5 0 0 0 5.248-.412c1.599-.255 3.028-.564 4.208-.9 2.366-.66 3.77-1.266 3.802-1.188M167.608 37.355c-.123 0-.223-4.092-.223-9.138 0-5.048.1-9.14.223-9.14.122 0 .222 4.092.222 9.14 0 5.046-.1 9.138-.222 9.138"/><path fill="#263238" d="M172.573 37.48c-.123 0-.223-4.111-.223-9.18 0-5.071.1-9.18.223-9.18s.223 4.109.223 9.18c0 5.069-.1 9.18-.223 9.18M177.538 37.397c-.122 0-.222-4.11-.222-9.18 0-5.071.1-9.18.222-9.18.123 0 .223 4.109.223 9.18s-.099 9.18-.223 9.18M181.674 37.397c-.123 0-.222-4.443-.222-9.922s.099-9.922.222-9.922.222 4.441.222 9.922c0 5.48-.099 9.922-.222 9.922M162.912 37.27c-.123 0-.223-4.443-.223-9.922s.1-9.923.223-9.923.222 4.442.222 9.923c.001 5.479-.099 9.922-.222 9.922M250.448 63.572l-6.331-6.625-10.339 9.88 6.331 6.625z"/><path fill="#21558A" d="m250.745 70.073-13.039-13.646 11.144-10.649c5.741 3.653 10.173 8.147 13.039 13.646z"/><path fill="#263238" d="M239.889 58.711c-.074-.075 2.453-2.635 5.641-5.717 3.19-3.084 5.834-5.52 5.908-5.444.072.075-2.453 2.635-5.643 5.718-3.188 3.082-5.833 5.52-5.906 5.443M242.374 61.312c-.035-.04.616-.69 1.695-1.715a328 328 0 0 1 4.262-3.953l4.309-3.9 1.312-1.172c.317-.28.47-.422.487-.424.143.134-2.5 2.718-5.851 5.778a224 224 0 0 1-4.339 3.871c-1.125.973-1.84 1.555-1.875 1.515M245.682 64.775c-.035-.04.625-.696 1.72-1.726a311 311 0 0 1 4.325-3.974l4.382-3.91q.767-.668 1.344-1.167c.327-.281.478-.4.509-.41.064.044-.59.74-1.67 1.776a198 198 0 0 1-4.31 3.995 242 242 0 0 1-4.4 3.891c-1.14.978-1.865 1.563-1.9 1.525M248.778 67.927c-.072-.076 2.487-2.62 5.715-5.682 3.229-3.062 5.905-5.481 5.977-5.405s-2.485 2.619-5.715 5.681c-3.228 3.062-5.904 5.482-5.977 5.406M90.783 62.598l-6.87 6.063 9.462 10.722 6.87-6.063z"/><path fill="#21558A" d="M97.294 62.557 83.142 75.045 72.943 63.488C76.82 57.895 81.486 53.645 87.095 51z"/><path fill="#263238" d="M85.51 72.955c-.078.07-2.536-2.556-5.489-5.864-2.954-3.31-5.284-6.049-5.206-6.119.08-.07 2.537 2.555 5.49 5.865 2.954 3.308 5.284 6.047 5.206 6.118M88.21 70.574c-.041.033-.666-.643-1.648-1.762-.98-1.12-2.317-2.68-3.78-4.416l-3.727-4.46-1.12-1.358c-.266-.328-.403-.487-.403-.504.14-.137 2.615 2.606 5.541 6.076a221 221 0 0 1 3.696 4.488c.928 1.164 1.48 1.902 1.44 1.936M91.799 67.407c-.04.034-.67-.652-1.657-1.787a312 312 0 0 1-3.799-4.479l-3.733-4.533-1.112-1.39c-.269-.338-.38-.493-.39-.525.046-.061.716.62 1.708 1.74 1 1.124 2.35 2.702 3.82 4.464a243 243 0 0 1 3.714 4.551c.933 1.179 1.49 1.925 1.449 1.96M95.071 64.437c-.08.07-2.52-2.589-5.45-5.936-2.932-3.348-5.243-6.118-5.164-6.187.08-.07 2.52 2.588 5.45 5.936s5.243 6.118 5.164 6.187"/><path fill="#21558A" d="M243.359 220.459c40.793-40.793 40.793-106.932 0-147.725s-106.932-40.793-147.725 0-40.793 106.932 0 147.725 106.932 40.793 147.725 0"/><path fill="#fff" d="M237.354 214.456c37.477-37.477 37.477-98.239 0-135.716s-98.239-37.478-135.716 0c-37.477 37.477-37.477 98.239 0 135.716s98.239 37.477 135.716 0"/><path fill="#263238" d="M169.499 242.891c-53.097 0-96.295-43.198-96.295-96.295s43.198-96.294 96.295-96.294 96.294 43.197 96.294 96.294-43.197 96.295-96.294 96.295m0-191.933c-52.736 0-95.639 42.903-95.639 95.638s42.903 95.639 95.639 95.639 95.638-42.903 95.638-95.639-42.903-95.638-95.638-95.638"/><path fill="#21558A" d="M109.275 108.274c3.998-12.412 12.193-20.808 23.047-28.035s25.658-9.934 38.652-8.834v77.345z"/><path fill="#fff" d="M109.275 108.274c3.998-12.412 12.193-20.808 23.047-28.035s25.658-9.934 38.652-8.834v77.345z" opacity=".8"/><path fill="#21558A" d="m162.666 148.325-43.167-33.534 50.553 23.31 1.487 8.858z"/><path fill="#000" d="m119.499 114.791 45.077 26.506 5.476-3.196z" opacity=".4"/><path fill="#FAFAFA" d="M174.972 155.418a8.984 8.984 0 1 0-6.82-16.623 8.984 8.984 0 0 0 6.82 16.623"/><path fill="#263238" d="M171.562 138.121c.005.059-.801.01-2.172.364a8.96 8.96 0 0 0-4.844 3.279c-.744 1.002-1.375 2.263-1.627 3.716-.243 1.442-.194 3.069.398 4.615a8.3 8.3 0 0 0 1.199 2.218 8.3 8.3 0 0 0 1.865 1.851c1.436 1.078 3.28 1.685 5.181 1.702 1.901-.017 3.745-.624 5.181-1.701a8.3 8.3 0 0 0 1.866-1.852 8.2 8.2 0 0 0 1.199-2.218c.592-1.546.641-3.172.398-4.615-.251-1.452-.883-2.713-1.627-3.716a8.95 8.95 0 0 0-4.843-3.277c-1.373-.356-2.178-.307-2.174-.366 0 0 .803-.112 2.214.198 1.383.306 3.438 1.185 5.05 3.255.787 1.025 1.461 2.327 1.74 3.838.27 1.5.232 3.198-.375 4.821a8.6 8.6 0 0 1-1.243 2.33 8.6 8.6 0 0 1-1.949 1.949c-1.503 1.135-3.442 1.779-5.438 1.795-1.995-.017-3.934-.66-5.436-1.795a8.6 8.6 0 0 1-1.948-1.949 8.6 8.6 0 0 1-1.242-2.331c-.608-1.622-.645-3.32-.376-4.82.279-1.51.952-2.813 1.739-3.838 1.612-2.07 3.668-2.949 5.05-3.256 1.412-.309 2.214-.197 2.214-.197"/><path fill="#263238" d="M171.562 140.42a6.685 6.685 0 1 1 0 13.372 6.685 6.685 0 0 1 0-13.372"/><path fill="#263238" d="M171.121 144.47s-1.842-57.84.834-70.038c0 0 4.475 35.063-.834 70.038M165.89 235.312l-.115-.005.258-7.211.205.009zm36.01-5.848-2.695-6.693.202-.079 2.59 6.736zm-71.422-3.442-.109-.056 3.21-6.462.178.089zm102.011-16.597-5.145-5.058.134-.135 5.102 5.102zm-130.548-6.278-.108-.132 5.593-4.56.094.116zm150.404-24.472-6.763-2.515.071-.188 6.735 2.591zm-167.204-8.036-.05-.185 6.974-1.851.033.124zm165.592-27.733-.007-.116 7.203-.433.012.204zm-.007-.13-.01-.159 7.203-.434.01.162zm-160.57-7.59-7.136-1.081.025-.162 7.134 1.087zm151.74-24.835-.069-.132 6.41-3.315.078.151zm-139.873-6.586-6.07-3.902.08-.125 6.082 3.883zM220.63 84.363l-.124-.1 4.507-5.635.125.1zm-95-4.496-3.952-6.037.108-.071 4.003 6.004zm64.997-10.65-.135-.035 1.811-6.985.176.046zm-33.702-1.573-1.172-7.12.162-.027 1.165 7.12zM286.543 232.024c0 .095-8.896.171-19.867.171-10.976 0-19.87-.076-19.87-.171 0-.094 8.894-.17 19.87-.17 10.971 0 19.867.076 19.867.17M299.045 227.576c0 .094-8.896.17-19.867.17-10.976 0-19.87-.076-19.87-.17s8.894-.171 19.87-.171c10.971 0 19.867.077 19.867.171M59.803 202.588c0 .094-8.251.17-18.429.17-10.18 0-18.43-.077-18.43-.17s8.25-.171 18.43-.171c10.177 0 18.43.076 18.43.171M71.4 198.139c0 .095-8.252.171-18.43.171-10.18 0-18.43-.077-18.43-.171s8.25-.17 18.43-.17c10.178-.001 18.43.076 18.43.17M212.453 114.049c.933-.815 2.407-.935 3.459-.28 1.747-.531 3.811.326 4.667 1.939a3.72 3.72 0 0 1 3.375 1.253 3.72 3.72 0 0 1 .658 3.539c1.241.273 2.245 1.398 2.376 2.662s-.62 2.572-1.778 3.095c1.109.913 1.373 2.694.576 3.889-.796 1.195-2.542 1.637-3.811.964l-10.268-13.671c-.505-1.132-.188-2.576.746-3.39"/><path fill="#FFBF9D" d="M222.222 131.648a12.434 12.434 0 0 0-7.352-15.179l-.6-.236c-6.611-2.163-12.142 2.242-14.121 8.911l-7.527 21.888-.178 3.055 6.71 10.119 5.712-2.618 3.275-6.128s6.592 1.477 9.111-4.705c1.217-2.986 3.222-9.338 4.97-15.107"/><path fill="#FF9A6C" d="M208.195 151.47s-4.06-1.321-7.202-5.582c0 0-.261 5.547 6.157 7.425z"/><path fill="#263238" d="M218.16 136.692c-.167.475-.708.725-1.207.559-.498-.166-.767-.684-.599-1.159s.707-.725 1.206-.559.768.685.6 1.159M219.637 134.505c-.155.072-.632-.689-1.587-1.062-.95-.386-1.843-.17-1.901-.328-.031-.072.164-.237.556-.338.387-.103.984-.117 1.577.119.593.238 1.007.653 1.208.99.205.34.222.588.147.619M209.819 133.884c-.168.475-.708.725-1.208.559-.498-.166-.767-.685-.599-1.16.167-.475.708-.724 1.207-.559.498.166.767.685.6 1.16M210.558 130.782c-.156.072-.633-.69-1.588-1.062-.95-.386-1.843-.171-1.901-.328-.031-.072.163-.237.556-.339.387-.103.984-.117 1.578.119.593.237 1.007.653 1.207.99.203.341.222.589.148.62M210.921 139.091c.017-.056.651.075 1.66.33.254.071.503.113.61-.037.127-.154.128-.457.122-.787l.009-2.139c.038-3.036.168-5.494.29-5.491.122.002.191 2.466.152 5.502q-.022 1.118-.044 2.138c-.017.313.018.69-.25 1.007a.66.66 0 0 1-.541.198c-.175-.013-.312-.065-.436-.105-.988-.328-1.59-.56-1.572-.616M211.326 127.951c-.185.227-.98-.227-2.023-.48-1.037-.277-1.965-.263-2.005-.547-.014-.134.22-.324.642-.448.418-.126 1.022-.164 1.646-.006.623.16 1.126.481 1.422.788.299.308.402.584.318.693M217.435 129.842c.244-.165.839.287 1.643.563.794.306 1.539.344 1.62.627.031.136-.149.322-.517.433-.363.111-.912.119-1.461-.081-.548-.201-.962-.56-1.168-.879-.21-.321-.228-.581-.117-.663"/><path fill="#263238" d="M222.745 128.564s-.109-4.534-1.627-6.179c-1.839-1.992-3.796.116-5.722-1.34-1.926-1.455-3.68-3.362-6.549-2.559-3.141.879-2.512 2.609-3.745 5.307-5 10.935-8.284 13.293-6.795 7.801.164-.601-1.257-1.689-.536-4.218.935-3.28 2.322-7.164 3.909-9.129 1.337-1.655 2.928-2.538 5.426-3.217 3.943-1.073 8.152.525 10.884 1.93s6.93 6.835 4.755 11.604"/><path fill="#FFBF9D" d="M198.769 131.581c.338-.974-.19-2.056-1.181-2.34-1.202-.345-2.749-.194-3.615 2.229-1.534 4.301 3.1 4.954 3.151 4.833.035-.082 1.019-2.917 1.645-4.722"/><path fill="#FF9A6C" d="M196.765 134.352c-.014-.021-.094.025-.241.038a.8.8 0 0 1-.564-.188c-.395-.329-.52-1.187-.264-1.969.128-.395.344-.738.592-.997.244-.268.526-.415.768-.374.247.028.36.223.369.362.015.141-.043.218-.023.233.008.015.118-.04.147-.229a.5.5 0 0 0-.073-.33.6.6 0 0 0-.376-.257c-.339-.096-.747.103-1.02.387a2.7 2.7 0 0 0-.687 1.106c-.282.876-.127 1.845.43 2.246a.85.85 0 0 0 .726.131c.172-.058.229-.146.216-.159"/><path fill="#263238" d="M202.088 123.385c.403.593.834 1.211 1.472 1.538.639.327 1.549.244 1.919-.37.167-.276.229-.647.514-.799.339-.182.733.072 1.074.25 1.184.617 2.791.24 3.578-.837.13.595.873.864 1.47.744.598-.12 1.102-.502 1.643-.783s1.214-.456 1.744-.156c.297.168.517.47.844.567.577.17 1.106-.377 1.408-.897.303-.52.622-1.14 1.213-1.255.547-.107 1.051.277 1.535.555.483.277 1.194.417 1.522-.033.173-.236.169-.558.113-.845-.252-1.301-1.512-2.331-2.837-2.318.136-1.566-.747-3.175-2.142-3.9-1.395-.727-3.218-.527-4.423.484a4.14 4.14 0 0 0-3.035-2.217 4.14 4.14 0 0 0-3.556 1.218c-.926-.677-2.26-.741-3.247-.155-.986.588-1.567 1.791-1.413 2.928-.935.136-1.886.637-2.248 1.51-.361.873.15 2.086 1.09 2.188-.612.55-.698 1.588-.186 2.231.513.643 1.544.791 2.217.316"/><path fill="#455A64" d="M200.018 120.671c-.011-.018-.219.326-.057.92.084.285.286.626.652.842.357.215.863.305 1.349.124l-.17-.098c.067.448.197.93.431 1.392.152.296.341.572.585.786a1.8 1.8 0 0 0 .823.416c.562.152 1.145.047 1.502-.221.362-.258.561-.552.691-.749.129-.2.181-.321.168-.33-.017-.011-.098.091-.25.27-.151.175-.369.441-.71.653-.642.451-2.075.246-2.575-.944a4.6 4.6 0 0 1-.418-1.311l-.026-.154-.143.057a1.39 1.39 0 0 1-1.153-.076 1.34 1.34 0 0 1-.609-.707c-.187-.521-.049-.867-.09-.87M211.855 114.127c-.007.014.099.074.258.229.153.154.364.421.438.82l.019.101.09-.056a5.7 5.7 0 0 1 2.708-.856 4.45 4.45 0 0 1 1.816.291 3.7 3.7 0 0 1 1.596 1.221c.331.437.559.934.672 1.436a3.1 3.1 0 0 1-.037 1.464l-.039.14.142.015a2.56 2.56 0 0 1 1.681.908c.379.457.527.984.559 1.415.048.881-.276 1.35-.23 1.362.009.005.091-.101.188-.328.094-.225.2-.581.189-1.042a2.6 2.6 0 0 0-.548-1.535 2.75 2.75 0 0 0-1.813-1.022l.103.155a3.3 3.3 0 0 0 .056-1.587 4 4 0 0 0-.714-1.541 3.9 3.9 0 0 0-1.713-1.298 4.6 4.6 0 0 0-1.921-.284 5.55 5.55 0 0 0-2.773.966l.109.045a1.54 1.54 0 0 0-.528-.847c-.182-.144-.303-.181-.308-.172"/><path fill="#263238" d="M210.773 142.713c-.093.042-.466-.759-1.273-1.433-.796-.687-1.646-.925-1.62-1.024.002-.088.968.014 1.841.764.881.74 1.139 1.676 1.052 1.693"/><path fill="#FF9A6C" d="M256.278 174.871c.728-.202 7.833.959 7.833.959s.279 1.555-1.364 1.503-7.025-.483-7.025-.483l-3.466 1.526-1.142-.498z"/><path fill="#FFBF9D" d="m241.707 176.215 10.09.956 1.576.191s3.718-1.347 4.401-1.468c.683-.122 6.943 3.26 6.943 3.26s.237 1.449-1.508 1.077-3.863-1.446-3.863-1.446-5.662 2.646-6.793 3.158c-1.131.513-7.874.471-7.874.471l-2.384 1.56zM245.675 191.695l4.117-2.611 14.15-5.039s1.241-1.129.601-1.586c-.641-.456-15.704 1.808-15.704 1.808l-3.164 1.782z"/><path fill="#455A64" d="M205.734 181.652c0 .788-12.301 21.081-15.8 26.153-5.182 7.513-10.378 8.456-10.378 8.456l-6.899-5.765 28.394-30.775 8.432-6.148z"/><path fill="#455A64" d="M199.372 190.852s11.048 4.986 15.184 5.697c4.871.838 31.575-1.044 31.575-1.044l-.506-10.633-39.024-.886-4.663-1.237z"/><path fill="#000" d="M203.018 182.455c-.806.364-1.267 2.496-1.877 3.136-6.466 6.789-11.204 14.452-17.881 20.594-2.878 2.648-6.142 4.913-10.048 4.717l3.988 3.389c3.322-.066 5.526-1.628 8.03-3.813s3.572-5.319 5.505-8.022c4.404-6.157 8.717-13.043 13.12-19.2-.219-.856-.03-1.165-.837-.801" opacity=".3"/><path fill="#E0E0E0" d="M174.359 210.835s5.764.438 7.94-.91c2.603-1.613 25.646-31.824 25.646-31.824l.203-23.6-13-12.405-1.346 2.044-27.648 31.556-17.739 16.837 21.266 11.425z"/><path fill="#455A64" d="M202.737 177.4c-.691.83.416 12.726-15.078 14.386-13.078 1.401-40.348-.056-48.533-.544-2.083-.125-3.801-1.875-3.654-3.957.059-.835.406-1.682 1.281-2.396 2.905-2.372 5.948-1.638 7.747-6.5 1.798-4.863.978-6.671 4.15-8.598 4.483-2.723 15.453 2.268 15.453 2.268 2.758-4.171 4.209-7.847 8.082-12.826 3.131-4.026 7.378-9.535 10.819-11.485.846-.479 5.385-2.356 6.347-2.504l2.122-.373 1.415-1.861c2.087 2.126 9.891 9.313 11.269 11.825l1.577 9.175z"/><path fill="#000" d="M239.156 186.725c-10.266-.715-20.942-1.431-33.623-4.089l-.783 1.704c7.317 4.568 12.376 4.736 17.923 5.135 5.547.4 10.698-.456 16.06-.456 0 0 .685-1.076.423-2.294M182.445 162.688l-4.163.262c1.729 5.648 4.525 7.561 9.283 11.06s5.52 4.529 10.911 6.943c.514.229 4.585 2.775 4.711 2.227-9.243-5.678-14.58-11.563-20.742-20.492" opacity=".3"/><path fill="#455A64" d="M178.368 158.994c-1.512 4.209 1.228 6.139 1.228 6.139s22.306 20.26 31.311 21.284 32.617-.228 32.617-.228v-10.997l-28.762-3.088s-11.574-13.638-17.975-20.477"/><path fill="#263238" d="M196.786 151.627s.122.112.345.343l.982 1.033a288 288 0 0 1 3.68 4.031c3.158 3.519 7.65 8.641 13.069 14.983l-.087-.046 28.765 3.056.149.016v.149l.004 10.996v.163l-.162.007-5.163.235c-7.299.287-14.353.479-21.002.347l-2.474-.078c-.818-.05-1.629-.081-2.433-.146-.803-.078-1.598-.119-2.393-.284a19 19 0 0 1-1.152-.313c-.37-.135-.748-.25-1.108-.4-2.897-1.171-5.442-2.763-7.823-4.308-4.739-3.143-8.758-6.325-12.168-9.108a219 219 0 0 1-8.267-7.117l.006.006c-.875-.708-1.313-1.633-1.526-2.439a5.5 5.5 0 0 1-.098-2.099 6.5 6.5 0 0 1 .292-1.251c.091-.273.146-.409.146-.409s-.031.144-.11.42a7 7 0 0 0-.254 1.248 5.5 5.5 0 0 0 .13 2.063c.215.782.665 1.687 1.503 2.35l.006.005.001.001a242 242 0 0 0 8.312 7.049c3.421 2.761 7.45 5.923 12.184 9.042 2.376 1.532 4.92 3.111 7.78 4.259.355.149.725.259 1.089.391q.556.167 1.123.302c.756.157 1.556.198 2.352.274.799.063 1.609.093 2.422.141l2.467.074c6.637.122 13.687-.075 20.981-.361l5.16-.234-.162.17.004-10.996.149.165-28.758-3.122-.053-.006-.034-.04a1095 1095 0 0 0-12.979-15.056l-3.625-4.078-.954-1.059c-.214-.239-.316-.369-.316-.369"/><path fill="#263238" d="M204.835 184.158c.019.013-.202.364-.616.988l-1.73 2.652c-1.453 2.246-3.409 5.381-5.565 8.849-2.154 3.469-4.109 6.608-5.559 8.859a127 127 0 0 1-1.74 2.65c-.422.619-.664.955-.684.942-.019-.013.185-.373.572-1.013l1.648-2.707c1.428-2.326 3.35-5.453 5.473-8.912 2.156-3.468 4.147-6.586 5.654-8.801a79 79 0 0 1 1.823-2.596c.448-.6.705-.925.724-.911"/><path fill="#E0E0E0" d="m271.628 181.497-26.974 4.128a.945.945 0 0 1-1.077-.791l-.043-.277a.945.945 0 0 1 .796-1.078l28.596-4.238-.348 1.375c-.119.465-.492.81-.95.881"/><path fill="#263238" d="M271.628 181.497c-.013-.024.27-.019.603-.344.167-.164.287-.416.348-.762l.279-1.167.078.086c-4.762.767-15.514 2.401-28.007 4.253-.251.046-.566.063-.75.133a.78.78 0 0 0-.482.778c.01.103.036.263.056.371a.77.77 0 0 0 .361.512c.196.113.389.134.643.081l.767-.117 1.515-.23 5.777-.874 9.784-1.46 6.601-.955 1.797-.243.469-.054a.6.6 0 0 1 .161-.008.6.6 0 0 1-.156.041l-.464.088-1.787.306-6.585 1.063-9.773 1.533-7.288 1.128-.767.118c-.251.059-.613.042-.868-.124a1.11 1.11 0 0 1-.521-.737 6 6 0 0 1-.062-.411 1.1 1.1 0 0 1 .06-.462c.105-.296.341-.542.634-.659.321-.109.552-.101.827-.155 12.494-1.851 23.257-3.405 28.037-4.053l.106-.015-.027.101-.311 1.16c-.068.337-.217.629-.402.787a1.1 1.1 0 0 1-.471.268.5.5 0 0 1-.182.023"/><path fill="#E0E0E0" d="m270.848 179.504 8.082-27.194a.96.96 0 0 1 1.201-.641l.239.073a.963.963 0 0 1 .641 1.201l-8.514 27.872z"/><path fill="#263238" d="M270.848 179.504a.6.6 0 0 1 .12.077l.324.239 1.244.947-.096.029c1.212-4.213 4.561-15.251 8.44-28.061a.8.8 0 0 0-.211-.613c-.144-.173-.372-.229-.628-.301-.443-.112-.903.185-.986.669l-.89 2.982-1.688 5.638-2.885 9.552-1.976 6.457-.553 1.763-.152.462a1 1 0 0 1-.063.16.6.6 0 0 1 .03-.15l.119-.452.491-1.75 1.864-6.463 2.811-9.611 1.676-5.681.89-3.004c.054-.257.228-.581.491-.744.259-.176.596-.236.902-.159.154.043.247.067.41.128a1.14 1.14 0 0 1 .688 1.149c-.036.262-.115.432-.171.64l-.183.599-.363 1.189-.716 2.338-1.379 4.492-2.483 8.049-3.369 10.758-.027.086-.068-.056-1.224-1.014q-.404-.34-.389-.344M202.484 156.557c-.045.029-.548-.719-1.425-1.876a53 53 0 0 0-3.672-4.317c-1.519-1.612-2.985-2.986-4.049-3.976-1.068-.988-1.735-1.594-1.702-1.632.015-.018.201.11.524.359.325.247.781.621 1.338 1.092a54 54 0 0 1 4.138 3.922c1.533 1.619 2.789 3.207 3.618 4.409.418.599.736 1.099.94 1.452.206.354.311.554.29.567"/><path fill="#000" d="M192.816 190.694c-1.909.502-17-.519-24.573-2.941-5.429-1.736-10.705-4.017-14.318-6.715-4.803-3.586-7.099-7.466-7.099-7.466-.873-.497-1.447 2.121-1.794 3.206s-1.064 3.921-3.069 5.222c-2.454 1.592-6.217 2.116-6.555 5.377-.212 2.043 1.646 3.733 3.699 3.833 6.457.318 24.291 1.172 29.043 1.169 5.836-.004 18.338.33 24.666-1.685" opacity=".3"/><path fill="#263238" d="M195.226 189.551c.008.009-.136.132-.424.362-.302.206-.793.443-1.461.641-1.344.362-3.366.508-5.832.372-2.47-.117-5.389-.49-8.615-.947-3.23-.453-6.775-1.055-10.421-2.026-3.643-.976-7.026-2.262-9.915-3.803-2.893-1.535-5.275-3.312-7.089-4.993-1.818-1.683-3.061-3.269-3.84-4.408a18 18 0 0 1-.848-1.345c-.182-.315-.273-.483-.262-.489.01-.006.12.15.32.453a28.096 28.096 0 0 0 4.793 5.611c1.819 1.644 4.196 3.385 7.073 4.892 2.873 1.513 6.234 2.781 9.857 3.752 3.626.964 7.156 1.575 10.376 2.044 3.224.475 6.13.87 8.585 1.017 2.452.167 4.453.057 5.784-.259.661-.175 1.15-.386 1.458-.57.293-.207.453-.312.461-.304M198.29 185.854c-.069.065-.52-.309-1.005-.834-.486-.524-.824-1.001-.754-1.066.068-.064.518.309 1.005.834.485.525.823 1.002.754 1.066M193.936 150.926c-.023.062-.931-.358-2.496-.615-1.551-.264-3.803-.277-6.073.548-2.27.827-3.988 2.284-5.005 3.483-1.034 1.203-1.461 2.108-1.518 2.075-.019-.01.071-.242.278-.641.207-.4.551-.957 1.053-1.589.99-1.262 2.733-2.797 5.075-3.649s4.662-.795 6.232-.465a10 10 0 0 1 1.828.541c.416.172.634.294.626.312M187.82 181.383c.004.011-.082.048-.248.108-.168.053-.408.162-.738.232-.647.18-1.621.33-2.828.309-1.208-.015-2.638-.26-4.155-.742-1.518-.487-3.115-1.224-4.694-2.156-1.573-.939-3.001-1.936-4.3-2.834-1.297-.899-2.471-1.697-3.486-2.32a34 34 0 0 0-2.454-1.39c-.594-.302-.927-.461-.917-.486.005-.011.094.016.259.077.164.064.411.149.715.289.616.264 1.485.7 2.521 1.303 2.092 1.178 4.731 3.188 7.837 5.067 1.561.922 3.13 1.656 4.616 2.152 1.487.489 2.884.754 4.066.799 2.38.111 3.79-.497 3.806-.408"/><path fill="#263238" d="M193.937 189.581c-.001.012-.173.01-.5-.004l-1.43-.079a45 45 0 0 1-2.259-.177c-.878-.091-1.883-.164-2.984-.321-1.104-.142-2.313-.291-3.602-.52-1.294-.195-2.664-.474-4.105-.769-2.874-.631-6.012-1.443-9.224-2.556a71 71 0 0 1-8.797-3.782c-1.292-.708-2.532-1.358-3.632-2.071-.554-.349-1.104-.662-1.605-1.007l-1.436-.995c-.93-.614-1.701-1.265-2.403-1.802-.347-.275-.677-.52-.965-.765l-.777-.685-1.067-.956c-.241-.221-.364-.342-.356-.35.008-.009.147.094.402.299l1.107.905.794.66c.293.238.628.474.979.741.711.521 1.489 1.156 2.424 1.754l1.443.973c.502.338 1.053.644 1.608.986 1.101.699 2.34 1.337 3.629 2.034a73 73 0 0 0 8.764 3.738c3.196 1.109 6.319 1.926 9.178 2.572 1.434.302 2.798.592 4.087.798 1.282.24 2.487.402 3.585.56 1.097.172 2.098.261 2.973.371s1.631.179 2.25.234l1.423.142c.326.036.496.06.496.072"/><path fill="#21558A" d="m185.978 293.449-1.071 17.775 26.922.202c-.139-2.573-14.027-7.841-14.027-7.841l.418-9.638z"/><path fill="#E0E0E0" d="M189.486 302.357c-.522.138-.887.721-.77 1.249.117.527.707.903 1.232.773.524-.129.983-.816.808-1.327s-.892-.914-1.37-.662"/><path fill="#263238" d="m184.907 311.224-.008-2.272 25.881 1.182s1.191.539 1.044 1.381z"/><path fill="#E0E0E0" d="M198.239 303.451c-.006.132-.664.186-1.314.604-.661.401-.998.968-1.119.915-.12-.026.081-.811.877-1.303.791-.5 1.585-.336 1.556-.216M201.053 304.642c.029.127-.542.347-.993.899-.467.539-.584 1.139-.715 1.133-.124.019-.208-.751.365-1.428.567-.681 1.341-.73 1.343-.604M202.632 308.032c-.12.027-.298-.631.045-1.349.338-.72.96-.999 1.015-.889.073.108-.329.492-.602 1.085-.286.587-.328 1.141-.458 1.153M198.026 300.276c-.057.12-.658-.066-1.402-.021-.744.029-1.324.275-1.392.161-.075-.096.493-.578 1.369-.618.876-.048 1.489.376 1.425.478M197.408 297.078c.002.054-.519.132-1.348-.017a6.1 6.1 0 0 1-2.178-.861c-.124-.081-.27-.162-.405-.32-.144-.138-.225-.487-.055-.699a.72.72 0 0 1 .578-.297c.198-.005.359.036.505.074a4.7 4.7 0 0 1 2.073 1.119c.621.583.83 1.076.785 1.101-.06.042-.361-.372-.993-.854a5.4 5.4 0 0 0-1.197-.687 5 5 0 0 0-.773-.244c-.284-.078-.527-.081-.601.045-.027.048-.031.067.028.151.061.078.176.154.297.235a7.3 7.3 0 0 0 2.009.922c.771.221 1.278.261 1.275.332"/><path fill="#E0E0E0" d="M197.236 297.265c-.047.02-.304-.453-.346-1.305a4.37 4.37 0 0 1 .545-2.29c.16-.265.355-.62.865-.675.266-.008.486.202.56.381.088.183.104.339.135.495a3.112 3.112 0 0 1-.592 2.296c-.531.693-1.081.847-1.092.802-.043-.066.417-.316.825-.984.201-.328.38-.763.436-1.263a2.8 2.8 0 0 0-.019-.779c-.04-.286-.145-.519-.253-.49-.134-.003-.363.211-.475.438-.14.241-.252.487-.34.729a4.9 4.9 0 0 0-.271 1.343c-.043.789.093 1.283.022 1.302"/><path fill="#21558A" d="m94.49 250.989-17.365-3.94-4.565 26.532c2.56.281 10.011-12.569 10.011-12.569l9.444 1.976z"/><path fill="#E0E0E0" d="M85.132 253.005c-.052-.538-.568-.992-1.108-.962s-1.006.551-.963 1.09c.042.538.645 1.103 1.178 1.012s1.047-.732.876-1.244"/><path fill="#263238" d="m77.124 247.049 2.243.361-5.364 25.346s-.724 1.088-1.531.806z"/><path fill="#E0E0E0" d="M82.632 261.464c-.13-.026-.077-.684-.384-1.393-.288-.718-.793-1.142-.72-1.253.045-.115.787.211 1.143 1.077.364.862.075 1.618-.04 1.569M81.002 264.05c-.13.008-.254-.591-.727-1.125-.456-.548-1.03-.761-1.002-.889 0-.125.775-.084 1.35.591.58.67.503 1.442.38 1.423M77.399 265.057c-.007-.122.671-.192 1.323.263.656.451.83 1.109.713 1.145-.12.055-.432-.404-.973-.769-.532-.377-1.072-.508-1.063-.639M85.798 261.769c-.109-.075.172-.638.249-1.379.091-.739-.057-1.351.066-1.4.107-.059.49.58.388 1.451-.095.872-.612 1.409-.703 1.328M89.055 261.679c-.054-.008-.046-.534.236-1.328a6 6 0 0 1 .666-1.317q.234-.35.536-.693c.1-.109.204-.24.382-.348.16-.12.518-.143.7.059a.72.72 0 0 1 .198.619c-.027.197-.094.348-.155.487a4.76 4.76 0 0 1-1.44 1.864c-.676.518-1.196.644-1.214.596-.033-.067.424-.296 1.003-.841.288-.273.598-.63.872-1.071a5 5 0 0 0 .367-.722c.122-.268.165-.507.052-.601-.043-.034-.062-.041-.154.004-.087.048-.18.149-.279.256a7.2 7.2 0 0 0-1.235 1.833c-.343.722-.465 1.217-.535 1.203"/><path fill="#E0E0E0" d="M88.899 261.478c-.012-.049.496-.226 1.343-.129a4.37 4.37 0 0 1 2.172.909c.236.201.554.45.525.963-.035.264-.278.447-.466.491-.195.057-.351.048-.51.053a3.102 3.102 0 0 1-2.17-.957c-.6-.637-.66-1.204-.616-1.208.073-.032.245.463.838.973.292.252.692.5 1.176.635.242.069.503.11.772.108.29.007.535-.06.525-.171.025-.131-.15-.392-.356-.539a4.4 4.4 0 0 0-.664-.454c-.45-.248-.897-.4-1.282-.485-.771-.169-1.28-.114-1.287-.189"/><path fill="#263238" d="M145.781 194.74c-.959 1.536-10.921 6.785-10.681 22.386l-6.499 34.12-38.862-3.641-3.6 15.601 49.325 8.135s6.96 1.68 11.04-6.48 14.996-37.895 15.235-38.615c.24-.72 6.96-18.24 6.96-18.24z"/><path fill="#263238" d="M138.58 206.363c-.084.462-2.665 10.343 7.522 17.709 10.186 7.365 39.961 26.328 39.961 26.328l.784 3.134-2.664 46.259 16.873.326s4.91-45.488 5.067-50.189c.156-4.702-.369-11.138-6.381-16.334-5.954-5.147-31.543-27.232-31.543-27.232s-21.231-11.752-21.021-11.623-7.345 4.727-8.598 11.622"/><path fill="#263238" d="m145.781 194.741 2.262-3.025s9.86 4.017 16.255 8.647c4.07 2.946 10.024 6.895 9.491 11.077z"/><path fill="#455A64" d="M186.063 250.4a.8.8 0 0 1-.173-.09q-.187-.114-.487-.294l-1.857-1.159-6.792-4.324c-5.719-3.676-13.625-8.743-22.26-14.494-2.166-1.437-4.199-2.945-6.222-4.32-2.002-1.405-3.922-2.807-5.539-4.393-1.625-1.566-2.939-3.343-3.669-5.235-.743-1.887-.95-3.788-.962-5.492.012-3.439.981-6.122 1.855-7.804.447-.844.868-1.457 1.179-1.85l.363-.44a1 1 0 0 1 .133-.143q.006.007-.106.164-.128.178-.335.46a14 14 0 0 0-1.116 1.869c-.829 1.684-1.751 4.35-1.732 7.743.027 1.681.247 3.55.984 5.388.723 1.842 2.014 3.574 3.626 5.114 1.6 1.559 3.51 2.947 5.511 4.345 2.026 1.371 4.063 2.879 6.221 4.311 8.63 5.747 16.517 10.847 22.201 14.574l6.733 4.415 1.822 1.213.47.323a.8.8 0 0 1 .152.119M187.621 223.13q-.014.012-.291-.206l-.793-.641-2.876-2.407-9.406-8.04c-3.563-3.264-7.165-5.741-9.812-7.475-1.322-.868-2.404-1.552-3.152-2.026l-.86-.548c-.195-.127-.296-.198-.29-.209s.118.042.325.15.508.274.893.493a89 89 0 0 1 3.214 1.937c2.679 1.68 6.336 4.149 9.909 7.423l9.336 8.112 2.804 2.488.752.691c.17.16.255.249.247.258M134.527 261.005c-.079.051-1.499-2.039-3.171-4.666-1.673-2.628-2.964-4.799-2.884-4.85.079-.05 1.499 2.038 3.171 4.666 1.673 2.628 2.964 4.8 2.884 4.85M137.314 257.988c-.06.072-1.852-1.291-4.003-3.047-2.152-1.756-3.847-3.238-3.787-3.311.059-.073 1.851 1.29 4.003 3.046 2.15 1.756 3.846 3.239 3.787 3.312"/><path fill="#455A64" d="M194.308 247.398c.024.095-1.948.649-4.352 1.417-2.405.763-4.334 1.451-4.37 1.359-.017-.043.445-.271 1.214-.587a42 42 0 0 1 3.053-1.098 41 41 0 0 1 3.126-.868c.809-.187 1.318-.268 1.329-.223M195.373 252.934c-.001.098-1.861.149-4.148.296-2.288.143-4.14.328-4.153.231-.013-.09 1.829-.427 4.131-.572 2.301-.148 4.172-.045 4.17.045"/><path fill="#E0E0E0" d="M81.91 298.037c6.818-7.027 14.456-10.867 24.21-11.716-2.303-3.589-6.397-10.585-8.7-14.175-12.258.065-21.782 6.979-28.224 17.281 4.53 3.264 8.183 5.345 12.714 8.61"/><path fill="#263238" d="M81.91 298.036q0 .01-.223-.139l-.667-.451-2.539-1.701c-2.205-1.475-5.491-3.466-9.359-6.217l-.097-.069.063-.1c1.113-1.751 2.405-3.605 3.955-5.454 1.568-1.831 3.39-3.654 5.513-5.311 2.119-1.657 4.543-3.142 7.235-4.269a30 30 0 0 1 8.707-2.187c.488-.068.977-.092 1.465-.105l1.456-.058.092-.004.052.082c3.17 5.016 5.967 9.895 8.687 14.182l.137.216-.254.023c-4.037.361-7.715 1.222-10.804 2.47-3.11 1.209-5.621 2.752-7.591 4.146-1.969 1.406-3.395 2.687-4.362 3.568l-1.095 1.038-.278.26a.6.6 0 0 1-.094.08q0-.006.09-.105l.269-.283c.239-.245.574-.609 1.04-1.062a42 42 0 0 1 4.32-3.648c1.965-1.422 4.48-2.997 7.605-4.234 3.105-1.277 6.81-2.162 10.873-2.539l-.117.239c-2.741-4.288-5.548-9.163-8.714-14.166l.145.078-1.44.058c-.483.014-.967.037-1.45.104a29.8 29.8 0 0 0-8.61 2.157c-2.663 1.11-5.065 2.574-7.17 4.209-2.106 1.636-3.921 3.438-5.487 5.248-1.548 1.829-2.843 3.665-3.961 5.4l-.033-.169c3.839 2.769 7.106 4.793 9.29 6.305a96 96 0 0 1 2.502 1.759l.629.473q.216.166.22.176"/><path fill="#263238" d="M74.827 286.764c.056-.075 2.036 1.336 4.42 3.152s4.272 3.349 4.214 3.423c-.057.075-2.036-1.335-4.42-3.152-2.385-1.815-4.272-3.348-4.215-3.423M77.338 283.583c.063-.069 1.91 1.512 4.123 3.532 2.215 2.02 3.958 3.714 3.894 3.783-.063.07-1.91-1.511-4.124-3.532-2.213-2.019-3.957-3.713-3.893-3.783M81.08 280.604c.04-.031.45.409 1.108 1.124.657.715 1.573 1.692 2.597 2.766 1.024 1.073 1.936 2.065 2.556 2.819.623.752.967 1.249.932 1.277-.038.031-.448-.41-1.113-1.117l-2.623-2.745a49 49 0 0 1-2.532-2.843c-.613-.757-.958-1.253-.924-1.281M91.448 287.439c-.033.028-.456-.4-1.077-1.146a38 38 0 0 1-2.25-3.05 62 62 0 0 1-2-3.215c-.486-.837-.772-1.364-.731-1.39.093-.06 1.393 1.956 3.014 4.416a93 93 0 0 0 2.157 3.091c.57.78.926 1.262.887 1.294M94.395 286.204c-.037.025-.385-.403-.892-1.134a38 38 0 0 1-1.832-2.955 38 38 0 0 1-1.562-3.107c-.359-.815-.542-1.334-.501-1.353.091-.041 1.038 1.938 2.36 4.293 1.317 2.357 2.51 4.199 2.427 4.256M98.337 284.927c-.038.026-.389-.414-.912-1.156a55 55 0 0 1-1.935-2.969 55 55 0 0 1-1.752-3.081c-.42-.804-.65-1.317-.61-1.339.043-.023.348.448.82 1.22l1.834 3.023 1.846 3.014c.47.774.75 1.261.71 1.288"/><path fill="#FAFAFA" d="M135.784 215.071c-10.682.23-19.558-2.643-27.784-9.461-.962 4.554-3.146 13.125-4.109 17.678 9.569 9.346 22.265 11.279 35.166 8.217-1.016-6.009-2.257-10.425-3.273-16.434"/><path fill="#263238" d="M135.784 215.071q.005-.007.065.28l.17.86.664 3.269c.58 2.837 1.605 6.902 2.498 12.004l.02.116-.116.027c-2.206.505-4.63.955-7.25 1.202-2.62.219-5.432.237-8.35-.103-2.914-.338-5.935-1.044-8.887-2.231a32.7 32.7 0 0 1-8.435-4.975 14 14 0 0 1-1.218-1.041l-1.175-1.07-.068-.062.021-.095c1.383-6.326 2.951-12.259 4.124-17.674l.055-.25.197.163c3.413 2.815 6.931 4.965 10.288 6.364 3.343 1.444 6.478 2.17 9.077 2.597 2.607.416 4.698.514 6.124.569l1.645.03.416.011a.6.6 0 0 1 .135.009 1 1 0 0 1-.15.011l-.425.013c-.374.006-.914.03-1.623.025a46 46 0 0 1-6.151-.483c-2.615-.402-5.775-1.109-9.149-2.544-3.388-1.389-6.943-3.541-10.385-6.363l.251-.088c-1.16 5.43-2.718 11.368-4.095 17.681l-.048-.158 1.164 1.059c.386.36.779.713 1.206 1.031a32.5 32.5 0 0 0 8.344 4.928c2.92 1.18 5.91 1.884 8.799 2.227 2.892.345 5.683.337 8.288.13 2.604-.235 5.018-.669 7.217-1.159l-.095.144c-.86-5.094-1.847-9.17-2.387-12.017-.28-1.422-.473-2.531-.598-3.284l-.127-.85a3 3 0 0 1-.036-.303"/><path fill="#263238" d="M132.643 229.254c-.093.013-.542-2.601-1.002-5.838-.46-3.239-.756-5.874-.663-5.888.093-.013.542 2.601 1.002 5.839s.757 5.874.663 5.887M128.255 229.8c-.094.006-.309-2.639-.48-5.904-.171-3.267-.233-5.918-.139-5.923.094-.006.309 2.638.48 5.905.171 3.266.233 5.918.139 5.922M123.063 229.244c-.05-.005-.027-.662.013-1.721.041-1.06.08-2.521.108-4.14s.079-3.088.172-4.149c.091-1.06.2-1.711.244-1.707.05.005.026.662-.002 1.72l-.072 4.143a56 56 0 0 1-.208 4.149c-.103 1.059-.211 1.709-.255 1.705M120.252 215.988c.043.004.038.66-.053 1.715a42 42 0 0 1-.595 4.092 71 71 0 0 1-.908 4.031c-.261 1.023-.44 1.651-.486 1.642s.049-.658.251-1.695l.808-4.042c.305-1.578.535-3.014.69-4.057.152-1.043.242-1.69.293-1.686M117.017 214.689c.044.007-.018.606-.188 1.562a42 42 0 0 1-.846 3.697 43 43 0 0 1-1.164 3.611c-.344.909-.596 1.454-.639 1.439-.046-.017.126-.592.41-1.517s.671-2.202 1.063-3.623c.39-1.421.71-2.717.939-3.657.231-.94.377-1.522.425-1.512M112.975 212.658c.045.009-.023.618-.189 1.594a63 63 0 0 1-.777 3.788 63 63 0 0 1-.996 3.737c-.288.948-.499 1.524-.544 1.51-.046-.013.082-.612.311-1.573l.896-3.752.874-3.758c.225-.961.377-1.555.425-1.546"/><path fill="#EBEBEB" d="M152.576 270.803c-5.791 8.053-12.876 13.035-22.525 15.332 2.841 3.256 7.981 9.66 10.821 12.916 12.275-1.884 20.795-10.225 25.723-21.505-5.025-2.6-8.994-4.144-14.019-6.743"/><path fill="#263238" d="M152.576 270.802q-.002-.008.244.107l.735.352 2.797 1.329c2.428 1.151 6.017 2.659 10.301 4.843l.105.053-.048.109c-.856 1.919-1.876 3.969-3.154 6.052-1.3 2.067-2.857 4.163-4.737 6.14-1.878 1.975-4.088 3.823-6.618 5.35a30.3 30.3 0 0 1-8.401 3.483c-.479.14-.966.237-1.453.323l-1.45.275-.091.017-.063-.074c-3.922-4.557-7.449-9.032-10.811-12.925l-.167-.193.248-.06c3.993-.961 7.551-2.37 10.462-4.078 2.936-1.673 5.224-3.593 6.992-5.282 1.764-1.702 3.005-3.197 3.842-4.223l.943-1.203.24-.302a1 1 0 0 1 .084-.093 1 1 0 0 1-.075.118l-.227.324c-.204.281-.485.695-.886 1.218a42 42 0 0 1-3.789 4.296c-1.757 1.717-4.045 3.668-6.993 5.372-2.922 1.739-6.503 3.176-10.52 4.156l.081-.253c3.382 3.89 6.918 8.36 10.833 12.905l-.154-.057 1.435-.272c.481-.085.964-.18 1.437-.32a30.2 30.2 0 0 0 8.31-3.438c2.504-1.508 4.695-3.332 6.562-5.283 1.869-1.953 3.421-4.027 4.721-6.074 1.279-2.062 2.305-4.095 3.168-6l.058.162c-4.258-2.205-7.833-3.749-10.245-4.939a102 102 0 0 1-2.77-1.391l-.7-.381a3 3 0 0 1-.246-.143"/><path fill="#263238" d="M161.347 281.048c-.046.083-2.239-1.039-4.897-2.505s-4.777-2.722-4.732-2.804c.045-.083 2.238 1.038 4.897 2.505 2.658 1.466 4.777 2.722 4.732 2.804M159.302 284.608c-.052.078-2.137-1.233-4.656-2.929s-4.517-3.134-4.464-3.213c.052-.078 2.136 1.233 4.655 2.93 2.519 1.696 4.518 3.134 4.465 3.212M155.992 288.151c-.033.036-.509-.345-1.274-.964a224 224 0 0 0-3.013-2.387c-1.185-.924-2.247-1.783-2.98-2.447-.736-.66-1.155-1.107-1.125-1.14.034-.036.509.345 1.281.956l3.035 2.361a50 50 0 0 1 2.959 2.473c.728.669 1.148 1.115 1.117 1.148M144.588 282.837c.03-.033.516.335 1.249.99.731.657 1.702 1.61 2.707 2.723a63 63 0 0 1 2.481 2.925c.611.766.976 1.252.94 1.283-.083.074-1.685-1.755-3.674-3.979a93 93 0 0 0-2.622-2.778c-.686-.696-1.114-1.127-1.081-1.164M141.819 284.513c.033-.03.444.348 1.06 1.006a38 38 0 0 1 2.274 2.69 38 38 0 0 1 2.026 2.881c.481.763.743 1.256.704 1.281-.084.054-1.325-1.79-3.001-3.954-1.668-2.168-3.137-3.836-3.063-3.904M138.057 286.378c.034-.032.451.357 1.084 1.024a56 56 0 0 1 2.379 2.688 57 57 0 0 1 2.214 2.827c.541.744.848 1.224.811 1.251-.038.029-.413-.398-1.001-1.102l-2.286-2.757-2.298-2.747c-.585-.706-.938-1.152-.903-1.184"/><path fill="#FAFAFA" d="M221.323 271.146c8.106-5.694 16.425-8.066 26.281-7.064-1.611-4.004-4.355-11.731-5.966-15.735-12.196-2.255-22.97 2.815-31.323 11.836 3.886 4.102 7.123 6.861 11.008 10.963"/><path fill="#263238" d="M221.323 271.147a2 2 0 0 1-.195-.181l-.578-.574-2.201-2.172c-1.912-1.883-4.803-4.484-8.126-7.95l-.082-.086.081-.086c1.438-1.53 3.072-3.128 4.962-4.672 1.905-1.523 4.062-2.99 6.484-4.236 2.42-1.245 5.111-2.262 7.999-2.873a30.3 30.3 0 0 1 9.068-.526c.498.025.988.094 1.476.173l1.457.217.092.014.036.09c2.202 5.586 4.059 10.964 5.951 15.74l.094.238-.253-.025c-4.081-.405-7.9-.245-11.207.41-3.319.614-6.107 1.672-8.329 2.685-2.223 1.026-3.884 2.029-5.01 2.722l-1.284.825-.326.206a.6.6 0 0 1-.109.061q0-.007.11-.087l.32-.231c.284-.198.685-.496 1.235-.858a42 42 0 0 1 4.985-2.808c2.221-1.041 5.019-2.13 8.359-2.769 3.327-.681 7.177-.861 11.287-.466l-.16.213c-1.912-4.78-3.78-10.157-5.979-15.729l.127.103-1.443-.214a13 13 0 0 0-1.46-.171 30 30 0 0 0-8.967.515c-2.857.599-5.522 1.6-7.923 2.828-2.404 1.228-4.549 2.674-6.448 4.178-1.884 1.525-3.519 3.105-4.959 4.617v-.172c3.292 3.479 6.156 6.108 8.041 8.024.95.95 1.67 1.705 2.155 2.221l.536.589q.183.207.184.217"/><path fill="#263238" d="M216.415 258.602c.071-.063 1.77 1.715 3.797 3.97 2.027 2.257 3.612 4.136 3.542 4.199s-1.77-1.714-3.796-3.97c-2.027-2.256-3.613-4.136-3.543-4.199M219.513 255.915c.076-.056 1.611 1.865 3.429 4.292 1.819 2.427 3.232 4.44 3.156 4.496-.075.056-1.61-1.864-3.429-4.291s-3.231-4.44-3.156-4.497M223.797 253.662c.044-.024.368.493.887 1.327.517.835 1.243 1.98 2.057 3.241.815 1.26 1.534 2.419 2.008 3.286.476.864.725 1.423.686 1.444-.044.024-.367-.493-.894-1.321l-2.087-3.224a50 50 0 0 1-1.98-3.305c-.466-.869-.715-1.427-.677-1.448M232.81 262.419c-.039.022-.377-.484-.853-1.343a38 38 0 0 1-1.66-3.458 63 63 0 0 1-1.379-3.574c-.325-.923-.509-1.501-.465-1.519.103-.042 1.012 2.209 2.159 4.959a93 93 0 0 0 1.56 3.481c.419.883.682 1.429.638 1.454M235.972 261.748c-.042.019-.305-.473-.671-1.297a38 38 0 0 1-1.261-3.283 39 39 0 0 1-.965-3.383c-.203-.878-.287-1.429-.243-1.439.097-.023.663 2.123 1.532 4.714.862 2.593 1.699 4.648 1.608 4.688M240.132 261.225c-.043.018-.308-.486-.687-1.321a57 57 0 0 1-1.361-3.318 57 57 0 0 1-1.16-3.393c-.265-.879-.397-1.432-.353-1.447.046-.014.259.512.582 1.369l1.25 3.351 1.265 3.345c.321.858.508 1.395.464 1.414"/><path fill="#FAFAFA" d="M152.736 261.163c3.446 2.557 8.246 2.62 12.315 1.255s7.584-3.967 11.06-6.482 7.078-5.03 11.214-6.173l-9.653-19.337s-9.248 3.637-15.428 10.641c-5.001 5.668-16.378 3.09-16.378 3.09z"/><path fill="#263238" d="M152.736 261.162s-.051-.094-.135-.288l-.37-.868-1.394-3.364-5.087-12.44-.088-.214.231.046c2.305.462 4.887.673 7.608.498 1.36-.114 2.751-.347 4.127-.774 1.369-.442 2.699-1.144 3.818-2.145.547-.505 1.078-1.074 1.613-1.654a36 36 0 0 1 1.713-1.657c1.192-1.077 2.487-2.082 3.843-3.047 2.735-1.9 5.732-3.618 8.993-4.989l.144-.06.071.143 1.253 2.509 8.392 16.833.087.175-.189.052c-2.695.751-5.099 2.05-7.273 3.441-2.177 1.398-4.15 2.894-6.063 4.242-1.909 1.351-3.762 2.559-5.589 3.491-1.823.934-3.614 1.607-5.301 1.945a15.7 15.7 0 0 1-4.579.292 12.5 12.5 0 0 1-3.332-.762 10 10 0 0 1-1.903-.969l-.448-.322a1 1 0 0 1-.142-.114c.033-.047.784.661 2.532 1.305.867.319 1.98.599 3.307.707 1.324.096 2.865.035 4.525-.333 1.664-.347 3.43-1.024 5.233-1.961 1.807-.936 3.641-2.146 5.54-3.502 1.902-1.354 3.872-2.859 6.058-4.273 2.183-1.406 4.61-2.728 7.351-3.498l-.102.228-8.409-16.825-1.253-2.508.215.083c-3.22 1.352-6.213 3.062-8.926 4.943-1.348.956-2.634 1.951-3.818 3.016a36 36 0 0 0-1.7 1.637 30 30 0 0 1-1.633 1.666c-1.162 1.034-2.535 1.752-3.935 2.199-1.407.431-2.822.662-4.199.772a29.4 29.4 0 0 1-7.685-.54l.143-.169 4.972 12.456 1.337 3.398.34.889c.076.201.107.31.107.31"/><path fill="#263238" d="M158.556 259.933c-.086.037-1.369-2.739-2.865-6.201s-2.639-6.299-2.553-6.336c.087-.038 1.369 2.738 2.866 6.2 1.496 3.462 2.639 6.299 2.552 6.337M162.734 259.481c-.084.043-1.534-2.588-3.24-5.876s-3.021-5.989-2.937-6.032 1.534 2.586 3.24 5.875c1.706 3.288 3.02 5.989 2.937 6.033M165.838 258.239c-.044.02-.379-.637-.914-1.701a177 177 0 0 0-2.132-4.13 176 176 0 0 0-2.254-4.065c-.588-1.034-.95-1.677-.908-1.704.038-.024.472.574 1.116 1.579a62 62 0 0 1 2.348 4.029 63 63 0 0 1 2.049 4.188c.48 1.093.736 1.786.695 1.804M169.072 255.454c-.042.024-.425-.567-1.031-1.528l-2.382-3.74-2.449-3.699c-.631-.944-1.015-1.533-.976-1.562.037-.027.49.512 1.174 1.423.683.91 1.591 2.195 2.538 3.652a69 69 0 0 1 2.304 3.804c.553.994.862 1.627.822 1.65M172.197 253.138c-.037.027-.501-.516-1.206-1.43a81 81 0 0 1-2.643-3.655 82 82 0 0 1-2.446-3.791c-.596-.989-.933-1.619-.894-1.643.041-.026.451.559 1.098 1.513l2.525 3.728 2.556 3.706c.653.948 1.049 1.543 1.01 1.572M174.782 250.763c-.037.027-.501-.516-1.206-1.43a81 81 0 0 1-2.643-3.655 82 82 0 0 1-2.446-3.791c-.596-.989-.933-1.619-.894-1.643.041-.026.451.559 1.098 1.513l2.524 3.728 2.556 3.706c.654.948 1.05 1.543 1.011 1.572M177.625 248.813c-.077.055-1.78-2.225-3.803-5.091-2.025-2.866-3.602-5.234-3.525-5.288s1.78 2.224 3.804 5.091 3.601 5.234 3.524 5.288M180.051 247.879c-.041.021-.427-.645-.993-1.749l-2.161-4.333c-.847-1.688-1.648-3.197-2.278-4.261-.622-1.066-1.06-1.695-1.017-1.728.032-.025.542.557 1.223 1.601.687 1.039 1.528 2.54 2.377 4.235a125 125 0 0 1 2.073 4.381c.511 1.13.819 1.832.776 1.854"/><path fill="#FAFAFA" d="M50.534 241.492c3.446 2.558 8.246 2.621 12.315 1.256s7.584-3.966 11.06-6.482 7.078-5.03 11.214-6.173l-9.653-19.337s-9.248 3.636-15.428 10.641c-5 5.668-16.378 3.09-16.378 3.09z"/><path fill="#263238" d="M50.534 241.492s-.05-.094-.135-.288l-.37-.868-1.394-3.364-5.088-12.439-.087-.215.23.046c2.306.462 4.888.673 7.61.499 1.359-.115 2.75-.348 4.126-.775 1.37-.442 2.698-1.144 3.817-2.145.548-.505 1.079-1.074 1.614-1.654a36 36 0 0 1 1.713-1.657c1.192-1.077 2.487-2.082 3.843-3.047 2.735-1.899 5.731-3.617 8.993-4.989l.144-.06.071.143 1.253 2.509 8.392 16.833.087.175-.189.052c-2.695.751-5.1 2.05-7.273 3.441-2.177 1.399-4.15 2.894-6.063 4.242-1.909 1.351-3.761 2.559-5.588 3.492-1.824.933-3.615 1.606-5.301 1.944a15.7 15.7 0 0 1-4.58.292 12.5 12.5 0 0 1-3.332-.762 10 10 0 0 1-1.902-.969c-.19-.135-.336-.241-.449-.322a1 1 0 0 1-.142-.114c.033-.046.784.661 2.532 1.305.867.319 1.98.599 3.307.707 1.324.096 2.865.035 4.525-.333 1.663-.347 3.43-1.024 5.233-1.961 1.806-.936 3.641-2.146 5.54-3.502 1.901-1.354 3.872-2.859 6.058-4.273 2.183-1.406 4.61-2.728 7.35-3.498l-.1.228-8.41-16.824-1.252-2.509.215.083c-3.22 1.352-6.213 3.063-8.927 4.943-1.347.956-2.633 1.951-3.817 3.016a35 35 0 0 0-1.7 1.637c-.529.57-1.054 1.133-1.633 1.666-1.162 1.034-2.535 1.752-3.935 2.199-1.407.431-2.822.662-4.198.773a29.4 29.4 0 0 1-7.685-.541l.143-.169 4.97 12.457 1.338 3.397.34.889c.074.201.106.31.106.31"/><path fill="#263238" d="M56.354 240.263c-.086.037-1.37-2.739-2.865-6.2-1.497-3.462-2.64-6.299-2.553-6.336s1.37 2.738 2.866 6.2 2.639 6.299 2.552 6.336M60.532 239.811c-.084.043-1.535-2.588-3.24-5.876s-3.021-5.989-2.937-6.032 1.534 2.586 3.24 5.875c1.706 3.288 3.02 5.989 2.937 6.033M63.636 238.569c-.045.02-.38-.637-.914-1.701a181 181 0 0 0-2.131-4.13 178 178 0 0 0-2.255-4.065c-.588-1.034-.95-1.677-.908-1.704.038-.024.472.574 1.116 1.579a62 62 0 0 1 2.348 4.029 62 62 0 0 1 2.049 4.188c.48 1.093.736 1.786.695 1.804M66.871 235.784c-.042.025-.425-.566-1.031-1.527l-2.383-3.741-2.448-3.699c-.63-.944-1.015-1.533-.976-1.562.037-.027.49.512 1.174 1.423.683.91 1.591 2.195 2.538 3.652a69 69 0 0 1 2.304 3.804c.553.994.861 1.628.822 1.65M69.995 233.468c-.037.028-.501-.516-1.206-1.43a81 81 0 0 1-2.643-3.655 81 81 0 0 1-2.446-3.791c-.596-.989-.934-1.619-.894-1.643.041-.026.451.559 1.098 1.513l2.524 3.729 2.556 3.705c.654.948 1.05 1.543 1.01 1.572M72.58 231.093c-.037.028-.501-.516-1.206-1.43a81 81 0 0 1-2.643-3.655 82 82 0 0 1-2.446-3.791c-.596-.989-.934-1.619-.894-1.643.041-.026.451.559 1.098 1.513l2.525 3.728 2.556 3.706c.653.948 1.049 1.543 1.01 1.572M75.423 229.144c-.077.054-1.78-2.226-3.803-5.092-2.025-2.866-3.602-5.234-3.525-5.288s1.78 2.224 3.804 5.092c2.023 2.866 3.602 5.233 3.524 5.288M77.849 228.209c-.041.021-.427-.645-.993-1.749l-2.161-4.333c-.847-1.688-1.649-3.197-2.278-4.261-.622-1.066-1.06-1.695-1.017-1.727.032-.026.542.556 1.223 1.6.686 1.039 1.527 2.54 2.377 4.235a126 126 0 0 1 2.073 4.38c.51 1.131.819 1.833.776 1.855"/></g><defs><clipPath id="a"><path fill="#fff" d="M0 0h328v328H0z"/></clipPath></defs></svg>