<svg xmlns="http://www.w3.org/2000/svg" width="500" height="373" fill="none"><path fill="#EBEBEB" d="M500 327.4H0v.25h500zM449.9 343.49h-33.12v.25h33.12zM331.22 346.21h-8.69v.25h8.69zM415.78 334.21h-19.19v.25h19.19zM95.65 335.89H52.46v.25h43.19zM110.89 335.89h-6.33v.25h6.33zM225.15 340.11h-93.68v.25h93.68zM237 282.8H43.91a5.71 5.71 0 0 1-5.7-5.71V5.66A5.71 5.71 0 0 1 43.91 0H237a5.71 5.71 0 0 1 5.71 5.71v271.38a5.72 5.72 0 0 1-1.672 4.038A5.72 5.72 0 0 1 237 282.8M43.91.2a5.46 5.46 0 0 0-5.45 5.46v271.43a5.46 5.46 0 0 0 5.45 5.46H237a5.48 5.48 0 0 0 3.858-1.602 5.48 5.48 0 0 0 1.602-3.858V5.66A5.473 5.473 0 0 0 237 .2zM453.31 282.8h-193.1a5.72 5.72 0 0 1-4.035-1.675 5.72 5.72 0 0 1-1.675-4.035V5.66A5.72 5.72 0 0 1 260.21 0h193.1A5.71 5.71 0 0 1 459 5.66v271.43a5.71 5.71 0 0 1-5.69 5.71M260.21.2a5.47 5.47 0 0 0-5.46 5.46v271.43a5.473 5.473 0 0 0 5.46 5.46h193.1a5.473 5.473 0 0 0 5.46-5.46V5.66A5.473 5.473 0 0 0 453.31.2z"/><path fill="#EBEBEB" d="M441.86 326.13v-49.32H419.1v-45.73h-3.21v26.22h-8.76v-7.25h-15.75v-25.1h-2.92v-30.68h-2.34v30.12h-5.54v44.62h-10.51v-44.62h-18.96v37.73H331.2v-45.73h-3.21v26.21h-8.76v-7.25h-15.75v-25.1h-2.92v-30.67h-2.34v30.12h-5.54v44.61h-10.5V209.7h-18.97v43.16h-12.79v-25.1h-2.92v-30.68h-2.33v30.12h-5.55v44.62h-10.5V227.2h-18.97v44.62h-9.34v4.99h-16.35v-45.73h-3.21v26.22h-8.76v-7.25h-15.75v-25.1h-2.92v-30.68h-2.34v30.12h-5.08v-2.51h-18.97v2.51h-10.51v-2.51h-5.54v-30.12h-2.33v30.68h-2.92v25.09H90.37v7.25h-8.75v-26.21h-3.21v45.73H55.65v51.83z"/><path fill="#FAFAFA" d="M148.532 96.662c14.18-5.874 20.913-22.13 15.04-36.31s-22.13-20.913-36.31-15.04c-14.179 5.874-20.913 22.13-15.039 36.31 5.873 14.18 22.129 20.913 36.309 15.04"/><path fill="#F0F0F0" d="M123.49 70.68a4.843 4.843 0 0 0-6.22-4.63 10.22 10.22 0 0 0-2.374-8.176 10.22 10.22 0 0 0-7.746-3.534 9.7 9.7 0 0 0-1.88.18A8.942 8.942 0 0 0 88.69 59h-.15a8.24 8.24 0 0 0 0 16.48h30.25a4.82 4.82 0 0 0 4.7-4.8M427.78 137.61a4.842 4.842 0 0 0-6.22-4.63 10.22 10.22 0 0 0-2.374-8.176 10.2 10.2 0 0 0-3.487-2.613 10.2 10.2 0 0 0-4.259-.921q-.953.002-1.89.17a8.94 8.94 0 0 0-9.986-3.928A8.936 8.936 0 0 0 393 126h-.15a8.24 8.24 0 0 0 0 16.48h30.25a4.82 4.82 0 0 0 4.68-4.87M284.71 64.25a7.62 7.62 0 0 1 3.072-6.144 7.62 7.62 0 0 1 6.768-1.176 17 17 0 0 1-.17-2.35 16.17 16.17 0 0 1 5.84-12.456 16.16 16.16 0 0 1 13.32-3.444 14.14 14.14 0 0 1 15.81-6.311 14.14 14.14 0 0 1 10.42 13.461h.23a13.034 13.034 0 0 1 9.217 22.252A13.03 13.03 0 0 1 340 71.9h-47.86a7.64 7.64 0 0 1-7.43-7.65M143.48 147.47a9.19 9.19 0 0 1 11.84-8.81 19 19 0 0 1-.21-2.82 19.477 19.477 0 0 1 19.48-19.48c1.201.003 2.399.113 3.58.33a17.001 17.001 0 0 1 28.036-1.62 17 17 0 0 1 3.534 10.23h.26a15.68 15.68 0 0 1 11.35 4.451 15.697 15.697 0 0 1 0 22.467A15.697 15.697 0 0 1 210 156.67h-57.6a9.194 9.194 0 0 1-8.92-9.2M184.1 85.15a3 3 0 0 0-3-3 2.7 2.7 0 0 0-.86.13q.065-.463.07-.93a6.36 6.36 0 0 0-7.53-6.25 5.561 5.561 0 0 0-10.31 2.81h-.09a5.123 5.123 0 0 0-5.12 5.12 5.12 5.12 0 0 0 5.12 5.12h18.81a3 3 0 0 0 2.91-3M74.72 176.35a3 3 0 0 1 3-3c.294-.001.587.04.87.12a5.5 5.5 0 0 1-.07-.92 6.36 6.36 0 0 1 3.926-5.876 6.37 6.37 0 0 1 3.604-.374 5.556 5.556 0 0 1 6.213-2.475 5.56 5.56 0 0 1 4.097 5.285h.09a5.119 5.119 0 0 1 3.621 8.74 5.12 5.12 0 0 1-3.62 1.5H77.64a3 3 0 0 1-2.92-3M356.21 186.15a3 3 0 0 1 3-3c.294-.001.587.039.87.12a5.6 5.6 0 0 1-.07-.92 6.357 6.357 0 0 1 7.53-6.25 5.558 5.558 0 0 1 9.145-.518 5.56 5.56 0 0 1 1.165 3.328h.09a5.119 5.119 0 1 1 0 10.24h-18.81a3 3 0 0 1-2.92-3"/><path fill="#F5F5F5" d="M250 372.56c107.082 0 193.89-5.068 193.89-11.32S357.082 349.92 250 349.92c-107.083 0-193.89 5.068-193.89 11.32s86.807 11.32 193.89 11.32"/><path fill="#263238" d="m388.8 66.03-42.75 65.09-1.88 2.87-3.72 1.72-132.32 61.49 13.07 44.79 2.99 10.24-10.36 8.56-89.27 86.75H50.69l133.56-110.92-8.09-44.04-2.2-11.99 10.34-4.76 141.02-64.93 45.93-56.82-12.32-2.44 38.73-16.07-1.99 41.89z"/><path fill="#FAFAFA" d="m388.8 66.03-42.75 65.09-1.88 2.87-3.72 1.72-132.32 61.49 13.07 44.79 2.99 10.24-10.36 8.56-89.27 86.75H50.69l133.56-110.92-8.09-44.04-2.2-11.99 10.34-4.76 141.02-64.93 45.93-56.82-12.32-2.44 38.73-16.07-1.99 41.89z" opacity=".6"/><path fill="#1A446E" d="M366.45 343.49h-70.8a1.26 1.26 0 0 0-1.26 1.26v16.14c0 .696.564 1.26 1.26 1.26h70.8a1.26 1.26 0 0 0 1.26-1.26v-16.14a1.26 1.26 0 0 0-1.26-1.26"/><path fill="#000" d="M300.57 344.57h-2.9v16.67h2.9zM307.16 344.49h-2.11v16.67h2.11zM313.23 344.57h-1.06v16.67h1.06zM321.41 344.49h-.53v16.67h.53zM361.53 361.16h2.9v-16.67h-2.9zM354.94 361.24h2.11v-16.67h-2.11zM348.88 361.16h1.05v-16.67h-1.05zM340.69 361.24h.53v-16.67h-.53zM330.92 361.24h.26v-16.67h-.26z" opacity=".2"/><path fill="#fff" d="M365.75 346.33H296.5a.88.88 0 0 1-.88-.88.89.89 0 0 1 .88-.88h69.25a.88.88 0 0 1 .88.88.88.88 0 0 1-.255.626.87.87 0 0 1-.625.254" opacity=".2"/><path fill="#1A446E" d="M368.45 324.88h-70.8a1.26 1.26 0 0 0-1.26 1.26v16.14c0 .696.564 1.26 1.26 1.26h70.8a1.26 1.26 0 0 0 1.26-1.26v-16.14a1.26 1.26 0 0 0-1.26-1.26"/><path fill="#000" d="M302.57 325.96h-2.9v16.67h2.9zM309.17 325.88h-2.11v16.67h2.11zM315.23 325.96h-1.05v16.67h1.05zM323.41 325.88h-.53v16.67h.53zM363.54 342.54h2.9v-16.67h-2.9zM356.94 342.62h2.11v-16.67h-2.11zM350.87 342.54h1.06v-16.67h-1.06zM342.69 342.62h.53v-16.67h-.53zM332.92 342.62h.26v-16.67h-.26z" opacity=".2"/><path fill="#fff" d="M367.75 327.72H298.5a.89.89 0 0 1-.88-.88.88.88 0 0 1 .88-.88h69.25a.87.87 0 0 1 .88.88.88.88 0 0 1-.88.88" opacity=".2"/><path fill="#1A446E" d="M368.45 306.271h-70.8a1.26 1.26 0 0 0-1.26 1.26v16.14c0 .695.564 1.26 1.26 1.26h70.8a1.26 1.26 0 0 0 1.26-1.26v-16.14a1.26 1.26 0 0 0-1.26-1.26"/><path fill="#000" d="M302.57 307.34h-2.9v16.67h2.9zM309.17 307.261h-2.11v16.67h2.11zM315.23 307.34h-1.05v16.67h1.05zM323.41 307.261h-.53v16.67h.53zM363.54 323.931h2.9v-16.67h-2.9zM356.94 324.011h2.11v-16.67h-2.11zM350.87 323.931h1.06v-16.67h-1.06zM342.69 324.011h.53v-16.67h-.53zM332.92 324.011h.26v-16.67h-.26z" opacity=".2"/><path fill="#fff" d="M367.75 309.1H298.5a.88.88 0 0 1-.88-.88.89.89 0 0 1 .88-.88h69.25a.88.88 0 0 1 .88.88.87.87 0 0 1-.88.88" opacity=".2"/><path fill="#1A446E" d="M366.45 287.65h-70.8a1.26 1.26 0 0 0-1.26 1.26v16.14c0 .696.564 1.26 1.26 1.26h70.8a1.26 1.26 0 0 0 1.26-1.26v-16.14a1.26 1.26 0 0 0-1.26-1.26"/><path fill="#000" d="M300.57 288.73h-2.9v16.67h2.9zM307.16 288.65h-2.11v16.67h2.11zM313.23 288.73h-1.06v16.67h1.06zM321.41 288.65h-.53v16.67h.53zM361.53 305.311h2.9v-16.67h-2.9zM354.94 305.391h2.11v-16.67h-2.11zM348.88 305.311h1.05v-16.67h-1.05zM340.69 305.391h.53v-16.67h-.53zM330.92 305.391h.26v-16.67h-.26z" opacity=".2"/><path fill="#fff" d="M365.75 290.491H296.5a.893.893 0 0 1-.88-.88.88.88 0 0 1 .88-.88h69.25a.866.866 0 0 1 .88.88.88.88 0 0 1-.88.88" opacity=".2"/><path fill="#1A446E" d="M363.45 269.04h-70.8a1.26 1.26 0 0 0-1.26 1.26v16.14c0 .696.564 1.26 1.26 1.26h70.8a1.26 1.26 0 0 0 1.26-1.26V270.3a1.26 1.26 0 0 0-1.26-1.26"/><path fill="#000" d="M297.57 270.11h-2.9v16.67h2.9zM304.16 270.03h-2.11v16.67h2.11zM310.22 270.11h-1.05v16.67h1.05zM318.41 270.03h-.53v16.67h.53zM358.53 286.7h2.9v-16.67h-2.9zM351.93 286.78h2.11v-16.67h-2.11zM345.88 286.7h1.05v-16.67h-1.05zM337.7 286.78h.53v-16.67h-.53zM327.92 286.78h.26v-16.67h-.26z" opacity=".2"/><path fill="#fff" d="M362.75 271.87H293.5a.866.866 0 0 1-.88-.88.88.88 0 0 1 .88-.88h69.25a.88.88 0 0 1 .88.88.86.86 0 0 1-.255.626.87.87 0 0 1-.625.254" opacity=".2"/><path fill="#1A446E" d="M366.45 250.42h-70.8a1.26 1.26 0 0 0-1.26 1.26v16.14c0 .696.564 1.26 1.26 1.26h70.8a1.26 1.26 0 0 0 1.26-1.26v-16.14a1.26 1.26 0 0 0-1.26-1.26"/><path fill="#000" d="M300.57 251.5h-2.9v16.67h2.9zM307.16 251.42h-2.11v16.67h2.11zM313.23 251.5h-1.06v16.67h1.06zM321.41 251.42h-.53v16.67h.53zM361.53 268.08h2.9v-16.67h-2.9zM354.94 268.16h2.11v-16.67h-2.11zM348.88 268.08h1.05v-16.67h-1.05zM340.69 268.16h.53v-16.67h-.53zM330.92 268.16h.26v-16.67h-.26z" opacity=".2"/><path fill="#fff" d="M365.75 253.26H296.5a.88.88 0 0 1 0-1.76h69.25a.87.87 0 0 1 .88.88.87.87 0 0 1-.88.88" opacity=".2"/><path fill="#1A446E" d="M366.45 231.811h-70.8a1.26 1.26 0 0 0-1.26 1.26v16.14c0 .695.564 1.26 1.26 1.26h70.8a1.26 1.26 0 0 0 1.26-1.26v-16.14a1.26 1.26 0 0 0-1.26-1.26"/><path fill="#000" d="M300.57 232.88h-2.9v16.67h2.9zM307.16 232.801h-2.11v16.67h2.11zM313.23 232.88h-1.06v16.67h1.06zM321.41 232.801h-.53v16.67h.53zM361.53 249.471h2.9v-16.67h-2.9zM354.94 249.551h2.11v-16.67h-2.11zM348.88 249.471h1.05v-16.67h-1.05zM340.69 249.551h.53v-16.67h-.53zM330.92 249.551h.26v-16.67h-.26z" opacity=".2"/><path fill="#fff" d="M365.75 234.65H296.5a.9.9 0 0 1-.623-.264.9.9 0 0 1-.257-.626.887.887 0 0 1 .88-.88h69.25a.88.88 0 0 1 .88.88.88.88 0 0 1-.88.89" opacity=".2"/><path fill="#1A446E" d="M369.45 213.19h-70.8a1.26 1.26 0 0 0-1.26 1.26v16.14c0 .696.564 1.26 1.26 1.26h70.8a1.26 1.26 0 0 0 1.26-1.26v-16.14a1.26 1.26 0 0 0-1.26-1.26"/><path fill="#000" d="M303.57 214.271h-2.9v16.67h2.9zM310.17 214.19h-2.11v16.67h2.11zM316.24 214.271h-1.06v16.67h1.06zM324.41 214.19h-.53v16.67h.53zM364.54 230.851h2.9v-16.67h-2.9zM357.94 230.94h2.11v-16.67h-2.11zM351.88 230.851h1.05v-16.67h-1.05zM343.69 230.94h.53v-16.67h-.53zM333.93 230.94h.26v-16.67h-.26z" opacity=".2"/><path fill="#fff" d="M368.75 216h-69.24a.87.87 0 0 1-.822-.541.87.87 0 0 1 0-.678.9.9 0 0 1 .193-.287.9.9 0 0 1 .289-.19.9.9 0 0 1 .34-.064h69.24a.9.9 0 0 1 .34.064.885.885 0 0 1 .482 1.155.875.875 0 0 1-.822.541" opacity=".2"/><path fill="#1A446E" d="M364.45 194.58h-70.8a1.26 1.26 0 0 0-1.26 1.26v16.14c0 .696.564 1.26 1.26 1.26h70.8a1.26 1.26 0 0 0 1.26-1.26v-16.14a1.26 1.26 0 0 0-1.26-1.26"/><path fill="#000" d="M298.57 195.66h-2.9v16.67h2.9zM305.16 195.57h-2.11v16.67h2.11zM311.22 195.66h-1.05v16.67h1.05zM319.41 195.57h-.53v16.67h.53zM359.53 212.24h2.9v-16.67h-2.9zM352.93 212.32h2.11v-16.67h-2.11zM346.88 212.24h1.05v-16.67h-1.05zM338.69 212.32h.53v-16.67h-.53zM328.92 212.32h.26v-16.67h-.26z" opacity=".2"/><path fill="#fff" d="M363.75 197.42H294.5a.89.89 0 0 1-.88-.88.88.88 0 0 1 .88-.88h69.25a.87.87 0 0 1 .88.88.88.88 0 0 1-.88.88" opacity=".2"/><path fill="#1A446E" d="M362.45 175.96h-70.8a1.26 1.26 0 0 0-1.26 1.26v16.14c0 .696.564 1.26 1.26 1.26h70.8a1.26 1.26 0 0 0 1.26-1.26v-16.14a1.26 1.26 0 0 0-1.26-1.26"/><path fill="#000" d="M296.57 177.04h-2.9v16.67h2.9zM303.16 176.96h-2.11v16.67h2.11zM309.23 177.04h-1.06v16.67h1.06zM317.41 176.96h-.53v16.67h.53zM357.53 193.62h2.9v-16.67h-2.9zM350.93 193.71h2.11v-16.67h-2.11zM344.87 193.62h1.05v-16.67h-1.05zM336.7 193.71h.53v-16.67h-.53zM326.92 193.71h.26v-16.67h-.26z" opacity=".2"/><path fill="#fff" d="M361.75 178.8H292.5a.87.87 0 0 1-.88-.88.87.87 0 0 1 .88-.88h69.25a.875.875 0 0 1 .88.88.87.87 0 0 1-.88.88" opacity=".2"/><path fill="#1A446E" d="M276.4 343.49h-70.8a1.26 1.26 0 0 0-1.26 1.26v16.14c0 .696.564 1.26 1.26 1.26h70.8a1.26 1.26 0 0 0 1.26-1.26v-16.14a1.26 1.26 0 0 0-1.26-1.26"/><path fill="#000" d="M210.51 344.57h-2.9v16.67h2.9zM217.11 344.49H215v16.67h2.11zM223.17 344.57h-1.05v16.67h1.05zM231.35 344.49h-.53v16.67h.53zM271.48 361.16h2.9v-16.67h-2.9zM264.88 361.24h2.11v-16.67h-2.11zM258.82 361.16h1.05v-16.67h-1.05zM250.64 361.24h.53v-16.67h-.53zM240.87 361.24h.26v-16.67h-.26z" opacity=".2"/><path fill="#fff" d="M275.7 346.33h-69.25a.866.866 0 0 1-.88-.88.88.88 0 0 1 .88-.88h69.25a.89.89 0 0 1 .88.88.88.88 0 0 1-.88.88" opacity=".2"/><path fill="#1A446E" d="M273.39 324.88h-70.8a1.26 1.26 0 0 0-1.26 1.26v16.14c0 .696.564 1.26 1.26 1.26h70.8a1.26 1.26 0 0 0 1.26-1.26v-16.14a1.26 1.26 0 0 0-1.26-1.26"/><path fill="#000" d="M207.51 325.96h-2.9v16.67h2.9zM214.11 325.88H212v16.67h2.11zM220.17 325.96h-1.05v16.67h1.05zM228.35 325.88h-.53v16.67h.53zM268.48 342.54h2.9v-16.67h-2.9zM261.88 342.62h2.11v-16.67h-2.11zM255.82 342.54h1.05v-16.67h-1.05zM247.63 342.62h.53v-16.67h-.53zM237.86 342.62h.26v-16.67h-.26z" opacity=".2"/><path fill="#fff" d="M272.69 327.72h-69.25a.887.887 0 0 1-.88-.88.88.88 0 0 1 .88-.88h69.25a.87.87 0 0 1 .88.88.88.88 0 0 1-.88.88" opacity=".2"/><path fill="#1A446E" d="M276.4 306.271h-70.8a1.26 1.26 0 0 0-1.26 1.26v16.14c0 .695.564 1.26 1.26 1.26h70.8a1.26 1.26 0 0 0 1.26-1.26v-16.14a1.26 1.26 0 0 0-1.26-1.26"/><path fill="#000" d="M210.51 307.34h-2.9v16.67h2.9zM217.11 307.261H215v16.67h2.11zM223.17 307.34h-1.05v16.67h1.05zM231.35 307.261h-.53v16.67h.53zM271.48 323.931h2.9v-16.67h-2.9zM264.88 324.011h2.11v-16.67h-2.11zM258.82 323.931h1.05v-16.67h-1.05zM250.64 324.011h.53v-16.67h-.53zM240.87 324.011h.26v-16.67h-.26z" opacity=".2"/><path fill="#fff" d="M275.7 309.1h-69.25a.87.87 0 0 1-.88-.88.88.88 0 0 1 .88-.88h69.25a.89.89 0 0 1 .88.88.88.88 0 0 1-.88.88" opacity=".2"/><path fill="#1A446E" d="M274.39 287.65h-70.8a1.26 1.26 0 0 0-1.26 1.26v16.14c0 .696.564 1.26 1.26 1.26h70.8a1.26 1.26 0 0 0 1.26-1.26v-16.14a1.26 1.26 0 0 0-1.26-1.26"/><path fill="#000" d="M208.51 288.73h-2.9v16.67h2.9zM215.11 288.65H213v16.67h2.11zM221.17 288.73h-1.05v16.67h1.05zM229.35 288.65h-.53v16.67h.53zM269.48 305.311h2.9v-16.67h-2.9zM262.88 305.391h2.11v-16.67h-2.11zM256.81 305.311h1.06v-16.67h-1.06zM248.63 305.391h.53v-16.67h-.53zM238.87 305.391h.26v-16.67h-.26z" opacity=".2"/><path fill="#fff" d="M273.69 290.491h-69.24a.89.89 0 0 1-.89-.881.88.88 0 0 1 .89-.879h69.24a.87.87 0 0 1 .822.54.9.9 0 0 1 .068.339.887.887 0 0 1-.89.881" opacity=".2"/><path fill="#1A446E" d="M274.39 269.04h-70.8a1.26 1.26 0 0 0-1.26 1.26v16.14c0 .696.564 1.26 1.26 1.26h70.8a1.26 1.26 0 0 0 1.26-1.26V270.3a1.26 1.26 0 0 0-1.26-1.26"/><path fill="#000" d="M208.51 270.11h-2.9v16.67h2.9zM215.11 270.03H213v16.67h2.11zM221.17 270.11h-1.05v16.67h1.05zM229.35 270.03h-.53v16.67h.53zM269.48 286.7h2.9v-16.67h-2.9zM262.88 286.78h2.11v-16.67h-2.11zM256.81 286.7h1.06v-16.67h-1.06zM248.63 286.78h.53v-16.67h-.53zM238.87 286.78h.26v-16.67h-.26z" opacity=".2"/><path fill="#fff" d="M273.69 271.87h-69.24a.87.87 0 0 1-.822-.541.87.87 0 0 1 .196-.962.9.9 0 0 1 .626-.257h69.24a.891.891 0 0 1 .89.88.87.87 0 0 1-.261.626.87.87 0 0 1-.629.254" opacity=".2"/><path fill="#1A446E" d="M274.39 250.42h-70.8a1.26 1.26 0 0 0-1.26 1.26v16.14c0 .696.564 1.26 1.26 1.26h70.8a1.26 1.26 0 0 0 1.26-1.26v-16.14a1.26 1.26 0 0 0-1.26-1.26"/><path fill="#000" d="M208.51 251.5h-2.9v16.67h2.9zM215.11 251.42H213v16.67h2.11zM221.17 251.5h-1.05v16.67h1.05zM229.35 251.42h-.53v16.67h.53zM269.48 268.08h2.9v-16.67h-2.9zM262.88 268.16h2.11v-16.67h-2.11zM256.81 268.08h1.06v-16.67h-1.06zM248.63 268.16h.53v-16.67h-.53zM238.87 268.16h.26v-16.67h-.26z" opacity=".2"/><path fill="#fff" d="M273.69 253.26h-69.24a.882.882 0 0 1-.822-1.219.885.885 0 0 1 .822-.541h69.24a.885.885 0 0 1 .822.541.88.88 0 0 1-.193.965.89.89 0 0 1-.629.254" opacity=".2"/><path fill="#1A446E" d="M275.26 212.99h-70.8a1.26 1.26 0 0 0-1.26 1.26v16.14c0 .696.564 1.26 1.26 1.26h70.8a1.26 1.26 0 0 0 1.26-1.26v-16.14a1.26 1.26 0 0 0-1.26-1.26"/><path fill="#000" d="M209.38 214.07h-2.9v16.67h2.9zM215.98 213.99h-2.11v16.67h2.11zM222.04 214.07h-1.05v16.67h1.05zM230.22 213.99h-.53v16.67h.53zM270.35 230.65h2.9v-16.67h-2.9zM263.75 230.74h2.11v-16.67h-2.11zM257.69 230.65h1.05v-16.67h-1.05zM249.5 230.74h.53v-16.67h-.53zM239.74 230.74h.26v-16.67h-.26z" opacity=".2"/><path fill="#fff" d="M274.56 215.83h-69.24a.87.87 0 0 1-.822-.541.87.87 0 0 1 .196-.962.9.9 0 0 1 .626-.257h69.24a.893.893 0 0 1 .89.88.87.87 0 0 1-.261.626.87.87 0 0 1-.629.254" opacity=".2"/><path fill="#1A446E" d="M276.4 231.811h-70.8a1.26 1.26 0 0 0-1.26 1.26v16.14c0 .695.564 1.26 1.26 1.26h70.8a1.26 1.26 0 0 0 1.26-1.26v-16.14a1.26 1.26 0 0 0-1.26-1.26"/><path fill="#000" d="M210.51 232.88h-2.9v16.67h2.9zM217.11 232.801H215v16.67h2.11zM223.17 232.88h-1.05v16.67h1.05zM231.35 232.801h-.53v16.67h.53zM271.48 249.471h2.9v-16.67h-2.9zM264.88 249.551h2.11v-16.67h-2.11zM258.82 249.471h1.05v-16.67h-1.05zM250.64 249.551h.53v-16.67h-.53zM240.87 249.551h.26v-16.67h-.26z" opacity=".2"/><path fill="#fff" d="M275.7 234.65h-69.25a.87.87 0 0 1-.626-.261.89.89 0 0 1-.254-.629.88.88 0 0 1 .88-.88h69.25a.887.887 0 0 1 .88.88.9.9 0 0 1-.257.626.9.9 0 0 1-.623.264" opacity=".2"/><path fill="#FFC2BC" d="m250.08 201.311-2.24 4.38-2.28 4.45-3.99-1.46 2-3.91 2.52-4.92z"/><path fill="#000" d="m250.08 201.311-2.24 4.38-4.27-.92 2.52-4.92z" opacity=".2"/><path fill="#263238" d="M337.22 176.54a.49.49 0 0 1-.49-.43c-.14-1-13.28-99-29.14-142a.5.5 0 0 1-.021-.408.49.49 0 0 1 .497-.318.5.5 0 0 1 .454.376C324.43 76.84 337.59 175 337.72 176a.507.507 0 0 1-.43.57z"/><path fill="#FFC2BC" d="m311.9 173.72 4.25-.17.83-9.86-4.26.17z"/><path fill="#263238" d="m316.55 171.3-4.64-.15a.401.401 0 0 0-.38.28l-1 3.74a.62.62 0 0 0 .312.71.6.6 0 0 0 .268.07c1.68 0 4.11 0 6.22.06 2.46.08 4 0 6.92.05 1.74.05 2.3-1.69 1.57-1.87-3.3-.83-5.46-.68-8.26-2.53a2 2 0 0 0-1.01-.36"/><path fill="#000" d="m316.98 163.69-.43 5.08-4.25.18.42-5.09z" opacity=".2"/><path fill="#263238" d="M310.17 138c1.08 2.07 1.16 23.77 1.16 29.28h7.35c.95-5.71 5.65-36.37-1-40.75-7.32-4.83-25.88-3.17-25.88-3.17l-1.34-2.71-2.68-5.4-15.36 5.75-3.35 1.24-1.38.52h-.12v.41c.05.6.19 1.81.44 3.32a42 42 0 0 0 1.22 5.36c1.42 4.63 3.94 9 8.32 7.54.19-.06.38-.14.57-.22.36-.16.75-.31 1.15-.46a47 47 0 0 1 10.82-2.13c9.28-.88 19.26-.18 20.08 1.42"/><path fill="#1A446E" d="m319.01 167.92-8.59.23-.05-2.77 9.44-.39z"/><path fill="#263238" d="M246.3 208.001h-5.18a.37.37 0 0 0-.231.081.37.37 0 0 0-.129.209l-.88 3.77a.62.62 0 0 0 .121.528.61.61 0 0 0 .489.232c1.67 0 2.89-.13 5-.13 1.29 0 5.18.14 7 .14s2-1.77 1.3-1.93c-3.26-.71-5.72-1.7-6.76-2.64a1 1 0 0 0-.73-.26M284 122.721l-.89 3.07c-.47 1.64-1.12 3.87-1.88 6.46l-1.9 6.47c-3.24 10.95-7.36 24.62-9.64 31.11-4.54 12.88-19.73 35.79-19.73 35.79l-7.31-2.68s11.22-21.58 14.9-34.64c2.57-9.12 6.6-25.51 9.25-36.52l1.27-5.28c.43-1.8.78-3.27 1-4.3s.4-1.69.4-1.69l2.95.45z"/><path fill="#1A446E" d="m250.75 206.1-8.6-3.16.97-2.56 9.17 2.78z"/><path fill="#000" d="m290.49 120.64-6.49 7.57-.89-2.42-1-2.64-.91 9.1-11.94-.39-2.49-.08 1.27-5.28c-.25-1.51-.39-2.72-.44-3.32l.08-.45 1.38-.52c.26-1.08.4-1.69.4-1.69l2.95.45 15.39-5.72zM290.13 136.591a42.3 42.3 0 0 0-12 2.59c-.19.08-.38.16-.57.22l.87-4.28s7.49-.35 11.7 1.47" opacity=".2"/><path fill="#FFC2BC" d="m234.28 124.75-2.61 3.46-2.21-4.21s2.51-2.95 4-1.59z"/><path fill="#FFC2BC" d="m227.68 129.79-.65-4.31 2.43-1.53 2.21 4.26z"/><path fill="#fff" d="m234.99 124.43-.73.37-1.08-2.74 1.16-.56z"/><path fill="#263238" d="M264.1 99.46q-.57 1-1.17 1.92a103 103 0 0 1-3.16 4.84l-.91 1.31c-.92 1.32-1.89 2.61-2.93 3.9-.52.64-1.05 1.29-1.64 1.93a23 23 0 0 1-1.89 1.9 41.3 41.3 0 0 1-8.38 5.53 65 65 0 0 1-9 3.82l-1.3-2.92c1.3-.79 2.65-1.6 3.94-2.44s2.6-1.67 3.85-2.55 2.48-1.77 3.64-2.7a34 34 0 0 0 3.24-2.89 52.6 52.6 0 0 0 5.17-7.14c1.67-2.59 3.78-7.13 5.43-9.72z"/><path fill="#000" d="M262.93 101.381a104 104 0 0 1-3.16 4.84 14 14 0 0 1 1.71-6 2.77 2.77 0 0 1 1.45 1.16" opacity=".2"/><path fill="#FFC2BC" d="m320.27 88.69-2.9 2.7.41 2.5c1.06 1.4 3.5-.33 4.07-.77q.137-.1.29-.17l1.54-.62a1.31 1.31 0 0 0 .79-1.42l-.3-1.84a1.29 1.29 0 0 0-1.54-1.06l-1.73.35c-.238.046-.457.161-.63.33"/><path fill="#fff" d="m316.7 91.41.8-.2.46 2.9-1.26.3z"/><path fill="#263238" d="M317.37 94.43a65 65 0 0 1-9.64 1.3c-3.339.26-6.698.105-10-.46a23 23 0 0 1-2.6-.66c-.84-.26-1.62-.54-2.4-.83-1.55-.57-3-1.18-4.51-1.85l-1.77-.8c-1.34-.62-2.66-1.26-4-1.93-1-.48-1.93-1-2.89-1.52l2.57-6.11c2.75 1.38 6 3.25 8.76 4.62a50.7 50.7 0 0 0 8.09 3.48c1.4.37 2.823.648 4.26.83 1.48.21 3 .34 4.51.46s3.07.19 4.61.21 3.12.07 4.64.09z"/><path fill="#000" d="M286.42 91.13c-1.34-.62-2.66-1.26-4-1.93l-.52-2.84a10 10 0 0 1 4.52 4.77" opacity=".2"/><path fill="#1A446E" d="M259.88 93.7a80.6 80.6 0 0 1 3.94 12.541c.72 3 3.27 6 3.71 8.75a77 77 0 0 0 1.8 9c3.05-1.64 12.28-3.67 18.47-7 .26-24.92-6.43-34.64-6.43-34.64-1.699.432-3.369.97-5 1.61l-1.08.45a95 95 0 0 0-8.7 4.67c-.55.33-1.1.67-1.63 1-2.72 1.78-5.08 3.62-5.08 3.62"/><path fill="#fff" d="M259.88 93.7a80.6 80.6 0 0 1 3.94 12.541c.72 3 3.27 6 3.71 8.75a77 77 0 0 0 1.8 9c3.05-1.64 12.28-3.67 18.47-7 .26-24.92-6.43-34.64-6.43-34.64-1.699.432-3.369.97-5 1.61l-1.08.45a95 95 0 0 0-8.7 4.67c-.55.33-1.1.67-1.63 1-2.72 1.78-5.08 3.62-5.08 3.62" opacity=".7"/><path fill="#1A446E" d="m276.27 93.23.38-2.31-1.59-.1-.97 1.07z"/><path fill="#FFC2BC" d="M275.06 90.82c-2.94 1.64-5.85-.27-7.73-1.58l-.2-.14c.83-1.15.91-3 .64-4.86a27.7 27.7 0 0 0-1.64-6l6.73 3.86c0 .46-.08.87-.1 1.23-.09.87-.1 1.46.38 1.84a4.4 4.4 0 0 0 2.45.55c.77.89 1.49 3.97-.53 5.1"/><path fill="#263238" d="M265 90.11s8.47 8.84 14.67 13.65c0 0-.46-15.63-3.26-19.78l5.76-2.41s5.54 12.24 6.33 32.68l2.5 5.15-7 7.12-2.25-5.28-1.51 8.76-14.44 1.28 1.77-10-8.53-27z"/><path fill="#1A446E" d="M275.51 92.76s2 6.82 1.86 10.46l2.58 1.34.46-2s-2.27-8.79-4.36-10.33z"/><path fill="#263238" d="M265.3 89.38s10.58 11.61 14.32 14.38c0 0-1.09-15.72-3.52-19.67 0 0 1.67-1.15 5.23 2.32l-1.78 3.3 3.16 2.18s-1.08 11.78-3.16 17.37c.151-1.18.218-2.37.2-3.56l-12.41-6.88.55-3.8-4.69-.2s.52-4.49 2.1-5.44"/><path fill="#fff" d="M265.3 89.38s10.58 11.61 14.32 14.38c0 0-1.09-15.72-3.52-19.67 0 0 1.67-1.15 5.23 2.32l-1.78 3.3 3.16 2.18s-1.08 11.78-3.16 17.37c.151-1.18.218-2.37.2-3.56l-12.41-6.88.55-3.8-4.69-.2s.52-4.49 2.1-5.44" opacity=".2"/><path fill="#1A446E" d="M308.38 34.82s-6-.68-9.35.9-6.72 6.73-12.16 7.22-6.53-1.28-6.53-1.28 4.79 8.5 14 8.41 14-1.61 19.43 1.81c.02 0-4.16-14.41-5.39-17.06"/><path fill="#000" d="M273.14 85.15c-.56 1.74-1.95 4.2-5.24 4.14q-.285.024-.57 0l-.2-.14c.83-1.15.91-3 .64-4.86a6.68 6.68 0 0 1 5-.93c-.1.82-.11 1.41.37 1.79" opacity=".2"/><path fill="#fff" d="M275.06 90.82a7.1 7.1 0 0 1-.75 3.49c-1.85-.26-7.38-3-7.66-5.29.142-.55.441-1.047.86-1.43a13.17 13.17 0 0 0 7.55 3.23"/><path fill="#fff" d="M275.06 90.82a7.3 7.3 0 0 1 2.81 1.43c.52-2.15-1.63-7.32-2.18-7.6a5.1 5.1 0 0 0-2.62.44s3.02 2.82 1.99 5.73"/><path fill="#263238" d="M260.25 76.08c-.11 1.71 1 4.91 2.92 3.31s-2.73-6.25-2.92-3.31"/><path fill="#FFC2BC" d="M272.22 75.43c1.24 4 2.17 6.32.94 9.07-1.86 4.14-7.42 4.13-9.85.54-2.18-3.22-3.85-9.26-.56-12.25a5.81 5.81 0 0 1 9.47 2.64"/><path fill="#263238" d="M272.86 70.34c-.4-2.62-3.51-2.25-5.33-.87v5.17a12.5 12.5 0 0 0 2-1.19s.71 3.87 3.08 5c3.02-2.93 3.27-7.45.25-8.11"/><path fill="#FFC2BC" d="M275 78.14a4 4 0 0 1-1 2.87c-.95 1-2.17.35-2.52-.94s-.21-3.07 1-3.62a1.82 1.82 0 0 1 2.52 1.69"/><path fill="#263238" d="M266.64 78.73c.12.32 0 .64-.17.72s-.48-.12-.6-.44 0-.64.17-.72.47.12.6.44M263 80.06c.13.32.05.64-.16.72s-.48-.12-.6-.44-.05-.64.16-.72.47.12.6.44"/><path fill="#ED893E" d="M264.21 79.8a11.7 11.7 0 0 1-.57 3.21 2 2 0 0 0 1.63-.3z"/><path fill="#263238" d="m267.46 83.31-.41.18a.102.102 0 0 1-.13-.06.1.1 0 0 1 .003-.077.1.1 0 0 1 .057-.053 2.7 2.7 0 0 0 1.71-1.75.1.1 0 0 1 .015-.037.1.1 0 0 1 .105-.043.093.093 0 0 1 .064.043.1.1 0 0 1 .012.038.1.1 0 0 1-.006.04 2.8 2.8 0 0 1-1.42 1.72M267.32 77.15a.22.22 0 0 1-.21 0 1.6 1.6 0 0 0-1.45-.18.201.201 0 0 1-.267-.26.2.2 0 0 1 .107-.11 2 2 0 0 1 1.83.21.212.212 0 0 1 .06.28.2.2 0 0 1-.07.06M261 79.39a.17.17 0 0 1-.12 0 .2.2 0 0 1-.172-.141q-.012-.039-.008-.078a2.01 2.01 0 0 1 1-1.56.2.2 0 0 1 .154-.012.2.2 0 0 1 .116.102.2.2 0 0 1-.08.27 1.56 1.56 0 0 0-.75 1.24.199.199 0 0 1-.14.18M269.44 73.48s-2.53 2.61-5 2.48a6.1 6.1 0 0 0 1.79-1.24s-4.83 2.09-7.21 1-2.11-2.27-2.11-2.27.27.69 2.58.62c0 0-2-1.31-1.19-3.16a1.48 1.48 0 0 0 1.19.79 9.32 9.32 0 0 1 7.14-4.22c5.19-.59 6.24 1.46 6.47 3s-3.66 3-3.66 3"/><path fill="#1A446E" d="M186.34 343.489h-70.8a1.26 1.26 0 0 0-1.26 1.26v16.14c0 .696.564 1.26 1.26 1.26h70.8a1.26 1.26 0 0 0 1.26-1.26v-16.14a1.26 1.26 0 0 0-1.26-1.26"/><path fill="#000" d="M120.46 344.569h-2.9v16.67h2.9zM127.05 344.489h-2.11v16.67h2.11zM133.11 344.569h-1.05v16.67h1.05zM141.29 344.489h-.53v16.67h.53zM181.42 361.159h2.9v-16.67h-2.9zM174.83 361.239h2.11v-16.67h-2.11zM168.76 361.159h1.05v-16.67h-1.05zM160.58 361.239h.53v-16.67h-.53zM150.81 361.239h.26v-16.67h-.26z" opacity=".2"/><path fill="#fff" d="M185.64 346.329h-69.25a.86.86 0 0 1-.625-.254.88.88 0 0 1 .003-1.248.88.88 0 0 1 .622-.258h69.25a.88.88 0 0 1 .88.88.88.88 0 0 1-.542.816.9.9 0 0 1-.338.064" opacity=".2"/><path fill="#1A446E" d="M187.34 324.88h-70.8a1.26 1.26 0 0 0-1.26 1.26v16.14c0 .696.564 1.26 1.26 1.26h70.8a1.26 1.26 0 0 0 1.26-1.26v-16.14a1.26 1.26 0 0 0-1.26-1.26"/><path fill="#000" d="M121.46 325.96h-2.9v16.67h2.9zM128.05 325.88h-2.11v16.67h2.11zM134.11 325.96h-1.05v16.67h1.05zM142.3 325.88h-.53v16.67h.53zM182.42 342.54h2.9v-16.67h-2.9zM175.82 342.619h2.11v-16.67h-2.11zM169.76 342.54h1.05v-16.67h-1.05zM161.58 342.619h.53v-16.67h-.53zM151.81 342.619h.26v-16.67h-.26z" opacity=".2"/><path fill="#fff" d="M186.64 327.72h-69.25a.88.88 0 0 1-.88-.88.87.87 0 0 1 .88-.88h69.25a.87.87 0 0 1 .88.88.88.88 0 0 1-.88.88" opacity=".2"/><path fill="#1A446E" d="M183.34 306.27h-70.8a1.26 1.26 0 0 0-1.26 1.26v16.14c0 .695.564 1.26 1.26 1.26h70.8a1.26 1.26 0 0 0 1.26-1.26v-16.14a1.26 1.26 0 0 0-1.26-1.26"/><path fill="#000" d="M117.45 307.34h-2.9v16.67h2.9zM124.05 307.26h-2.11v16.67h2.11zM130.11 307.34h-1.05v16.67h1.05zM138.29 307.26h-.53v16.67h.53zM178.41 323.93h2.9v-16.67h-2.9zM171.83 324.01h2.11v-16.67h-2.11zM165.76 323.93h1.05v-16.67h-1.05zM157.58 324.01h.53v-16.67h-.53zM147.81 324.01h.26v-16.67h-.26z" opacity=".2"/><path fill="#fff" d="M182.64 309.1h-69.25a.875.875 0 0 1-.88-.88.88.88 0 0 1 .88-.88h69.25a.89.89 0 0 1 .88.88.88.88 0 0 1-.88.88" opacity=".2"/><path fill="#E4897B" d="m143.46 293.93-2.01 4.95-1.52 3.74-3.82-1.36 1.37-3.36 2.16-5.34zM225.1 267.43l-3.25 2.41-1.19-2.64-2.76-6.1 3.25-2.42 2.61 5.78z"/><path fill="#000" d="m139.64 292.56 3.82 1.37-2.01 4.95-3.97-.98zM223.76 264.46l-3.1 2.74-2.76-6.1 3.25-2.42z" opacity=".2"/><path fill="#263238" d="M172.13 156.879c.11.31.36.5.56.43s.28-.38.17-.69-.36-.5-.56-.43-.3.38-.17.69"/><path fill="#DE5753" d="M172.46 157.39a11.7 11.7 0 0 0 2.4 2.11 1.85 1.85 0 0 1-1.37.8z"/><path fill="#263238" d="M170.4 155.569a.24.24 0 0 1-.14 0 .19.19 0 0 1 0-.26 1.92 1.92 0 0 1 1.52-.86c.051.003.1.025.135.062a.2.2 0 0 1 .04.213.2.2 0 0 1-.109.104.2.2 0 0 1-.076.011 1.497 1.497 0 0 0-1.2.69.2.2 0 0 1-.081.038.2.2 0 0 1-.089.002"/><path fill="#E4897B" d="M164.73 161.92c.05 3-.33 8.46-2.72 10.05 0 0 .27 3.1 5.69 4.06 6 1.07 3.38-2.45 3.38-2.45-3.11-1.35-2.6-3.75-1.63-5.92z"/><path fill="#E4897B" d="M161.63 159.85c1.56 3.7 2.29 6 4.89 7.22 3.9 1.9 8-1.48 7.53-5.57-.38-3.69-2.88-9.12-7.12-9.32a5.47 5.47 0 0 0-4.788 2.358 5.48 5.48 0 0 0-.512 5.312"/><path fill="#263238" d="M164.27 165.87c1.76.71 7.29-3.25 5.4-7.81 0 0 1.89-3.05 1.21-6s-2.9-3.84-5-2.88c-1.86.84-1.66 1.89-1.66 1.89s-9 2.36-6.54 5.81c-3.17 4.56 4.38 8.12 6.59 8.99"/><path fill="#E4897B" d="M168.19 159.1a4.6 4.6 0 0 0 1.95 2.17c1.16.63 1.83-.25 1.59-1.42s-1.07-2.65-2.27-2.8-1.73.95-1.27 2.05"/><path fill="#1A446E" d="M160.57 172c-.42-.84-.88-1.8.14-2.06s8.26-.68 10.33 0c-.68 1.13.37 2.57.37 2.57z"/><path fill="#FAFAFA" d="M160.57 172c-.42-.84-.88-1.8.14-2.06s8.26-.68 10.33 0c-.68 1.13.37 2.57.37 2.57z" opacity=".5"/><path fill="#263238" d="M140.19 301h-4.42a.352.352 0 0 0-.34.28l-.8 3.6a.58.58 0 0 0 .58.72c1.59 0 3.9-.12 5.9-.12 2.35 0 4.37.13 7.12.13 1.67 0 2.13-1.68 1.43-1.83-3.17-.7-5.75-.77-8.49-2.46a1.93 1.93 0 0 0-.98-.32M168.79 207.749s-1.26 8.49-2.79 18.25c-.67 4.18-1.39 8.59-2.1 12.67-.79 4.57-1.56 8.71-2.2 11.63-2.79 12.7-17.6 47.7-17.6 47.7l-7.25-1.57s10.36-27.23 12.67-45c1.79-13.63 5.3-43.69 5.3-43.69z"/><path fill="#1A446E" d="m145.83 295.57-1.35 2.62-8.16-1.77.68-2.42z"/><path fill="#000" d="m145.83 295.57-1.35 2.62-8.16-1.77.68-2.42z" opacity=".3"/><path fill="#000" d="M166 226c-.67 4.18-1.39 8.59-2.1 12.67-2-8.07-1.35-12.9-1.35-12.9z" opacity=".2"/><path fill="#DC897C" d="M156.94 179.41c-1.95 1.84-4 3.79-5.86 5.74a80 80 0 0 0-5.34 6 28 28 0 0 0-1.93 3.24c-.62 1.21-1.25 2.44-1.85 3.7l-3.67 7.58-2.88-1c.62-2.81 1.41-5.55 2.27-8.3.45-1.37.93-2.74 1.46-4.11a27 27 0 0 1 2.05-4.25 54 54 0 0 1 5.46-7 74 74 0 0 1 6.2-6.18z"/><path fill="#E4897B" d="m135.17 212.07 1.47-2.61-4.48-1.36a4.7 4.7 0 0 0 .08 3.8zM138.28 205.629l-2.87-.93-3.25 3.4 4.48 1.36z"/><path fill="#263238" d="m225.05 266.879-3.65 2.71a.35.35 0 0 0-.129.196.36.36 0 0 0 .019.234l1.5 3.37a.588.588 0 0 0 .661.337.6.6 0 0 0 .239-.117c1.26-1 1.83-1.5 3.43-2.69 1-.73 3.28-2.34 4.65-3.35s.54-2.5-.11-2.2c-2.91 1.31-4.59 1.45-5.93 1.32a1 1 0 0 0-.68.19"/><path fill="#1A446E" d="M155.2 172.38c-3.89-.24-9.63 8.17-9.63 8.17l5.66 7.73a16.7 16.7 0 0 0 6-6c2.69-4.54 1.94-9.65-2.03-9.9"/><path fill="#FAFAFA" d="M155.2 172.38c-3.89-.24-9.63 8.17-9.63 8.17l5.66 7.73a16.7 16.7 0 0 0 6-6c2.69-4.54 1.94-9.65-2.03-9.9" opacity=".6"/><path fill="#000" d="M156.3 180.14c-2.55 1.37-4.25 4.74-5.32 7.79l.25.35a16.7 16.7 0 0 0 6-6c.16-.26.31-.54.45-.81z" opacity=".2"/><path fill="#1A446E" d="M178.22 171.759s2.33 5.86-1.75 36h-21.65c-.15-3.33 1.94-19.55-1.27-35.21a56 56 0 0 1 7.25-.92c2.77-.13 12-2 14.44-1.77 3.21.28 2.98 1.9 2.98 1.9"/><path fill="#FAFAFA" d="M178.73 185.05c-.26 5.33-.91 12.67-2.26 22.7h-21.65c-.15-3.33 1.94-19.55-1.27-35.21a56 56 0 0 1 7.25-.92c2.77-.13 12-2 14.44-1.77 3.21.29 3 1.91 3 1.91s.49 1.23.62 5.46c.05 1.93.04 4.48-.13 7.83" opacity=".6"/><path fill="#263238" d="m175.59 206 4.28 10s20.73 2.6 26.61 9.73 17 36.06 17 36.06l-5.54 4.71s-15.9-29.24-20.35-32.77-29.78-3.52-35.44-5.63-7.29-20.38-7.29-20.38z"/><path fill="#1A446E" d="m216.76 265.95 6.68-5.12.86 1.65-6.4 5.05z"/><path fill="#000" d="m216.76 265.95 6.68-5.12.86 1.65-6.4 5.05z" opacity=".3"/><path fill="#263238" d="M171 153.5s-.25-5.94-3.39-6.14S162 150 162 150a3.26 3.26 0 0 0-2.53-1.22c-1.78-.1-4.88 2.93-4.88 2.93s3.87-2.38 5.5-1.29c0 0-4.39 1.22-5.5 4a10 10 0 0 1-2.3 3.77h2.3l-1.51 2.57s3.18 3.07 5.58 2.56l-.77 1.46s4.71 1.72 6.63 1.19.1-10.09.1-10.09z"/><path fill="#000" d="M178.73 185.049c-3.93-2.67-3.87-8.82-3.87-8.82l4 1c.05 1.92.04 4.47-.13 7.82" opacity=".2"/><path fill="#1A446E" d="m142.48 215.41-26.71-4.49-6.91 20.56 4.42 8.03 29.16 3.84 5.91-22.4z"/><path fill="#000" d="m108.86 231.48 1.72 3.13.39.69 2.31 4.21 29.16 3.84 5.91-22.4-2.51-2.36-.77-.73-2.58-2.45-26.72-4.49z" opacity=".4"/><path fill="#fff" d="m148.35 220.95-26.44-4.11-6.14-5.92 26.72 4.49z" opacity=".2"/><path fill="#fff" d="m121.91 216.84-8.63 22.67-4.42-8.03 6.91-20.56z" opacity=".1"/><path fill="#263238" d="m110.58 234.61.39.69 7.99-21.23 26.88 4.52-.77-.73-26.59-4.26z"/><path fill="#263238" d="m136.82 216.629-1.35-1.25-6.73-1.22 1.18 1.36z"/><path fill="#263238" d="M139.42 217.13s.31-7.06.12-7.53-9.66-2-10.37-2.15-3.83 6.73-3.83 6.73l.54.83 1.79.24s2.27-5.93 2.5-6.08c2.595.276 5.172.696 7.72 1.26.2.16-.58 5.55-.58 5.55l.61.88z"/><path fill="#1A446E" d="m110.67 228.349 2 2.57.19-.51 1.51-4 .18-.48.32-.86s-.57.64-1.35 1.37a8.4 8.4 0 0 1-2.85 1.91"/><path fill="#fff" d="m111.32 228.54 1.49 1.87 1.51-4 .18-.48a8.46 8.46 0 0 1-3.18 2.61" opacity=".2"/><path fill="#000" d="M113.47 226.43h.85l.5-1.34s-.57.61-1.35 1.34" opacity=".2"/><path fill="#1A446E" d="m109.94 223.32-.37 3.62a8.28 8.28 0 0 1 4.78-.64l.19-.5 1.16-3.11.13-.32a11.7 11.7 0 0 0-5.89.95M113.74 217.18a13.9 13.9 0 0 0 2.72 3.66l.14-.38.36-1 .6-1.65.29-.8.08-.23a15 15 0 0 1-1.24-2.31zM119.86 212.52a7.2 7.2 0 0 1 .84 1.84l.42.07.58.09.93.17.89.15.31.05a5.74 5.74 0 0 0-1.46-3.76z"/><path fill="#fff" d="M120.42 212.62c.298.576.533 1.183.7 1.81l.58.09a.62.62 0 0 1-.07-.52.62.62 0 0 1 .317-.367.635.635 0 0 1 .914.514.6.6 0 0 1-.031.243.65.65 0 0 1-.2.3l.89.15a5.83 5.83 0 0 0-1.17-3.25zM110.18 223.459l-.23 2.93a11.9 11.9 0 0 1 4.59-.59l1.16-3.11a10.9 10.9 0 0 0-5.52.77m3.21-.24a.833.833 0 0 1 1.1.722.84.84 0 0 1-.274.681.824.824 0 0 1-.706.197.82.82 0 0 1-.728-.09.834.834 0 0 1 .232-1.493.84.84 0 0 1 .376-.017M114.25 217.34a16.5 16.5 0 0 0 2.35 3.12l.36-1a.85.85 0 0 1-.48-1.08.86.86 0 0 1 1-.59l.29-.8a6.9 6.9 0 0 1-1.22-1.9z" opacity=".2"/><path fill="#E4897B" d="m203.73 152.86 1.54-2.57 3.4 3.22a4.7 4.7 0 0 1-3.34 1.81zM207.65 146.85l2.41 3.39-1.39 3.27-3.4-3.22z"/><path fill="#DC897C" d="M177.12 170.36a84 84 0 0 0 8.2-2.12 33 33 0 0 0 7.42-3.24 6 6 0 0 0 .61-.44l.69-.64c.48-.46 1-1 1.45-1.48.95-1.06 1.93-2.15 2.87-3.27 1.93-2.22 3.81-4.53 5.75-6.78l2.53 1.68c-1.39 2.71-2.93 5.29-4.56 7.86-.83 1.27-1.68 2.55-2.62 3.8-.47.62-1 1.25-1.5 1.88-.26.31-.59.63-.88.95a14 14 0 0 1-1.13 1 33.3 33.3 0 0 1-8.67 4.46 55 55 0 0 1-9.1 2.43z"/><path fill="#1A446E" d="M175.83 179.1c4.21 3.65 13.46-2.61 13.46-2.61l-3.69-9.11a53.6 53.6 0 0 0-10 2.15c-5.85 1.99-2.99 6.79.23 9.57"/><path fill="#FAFAFA" d="M175.83 179.1c4.21 3.65 13.46-2.61 13.46-2.61l-3.69-9.11a53.6 53.6 0 0 0-10 2.15c-5.85 1.99-2.99 6.79.23 9.57" opacity=".6"/></svg>