<svg xmlns="http://www.w3.org/2000/svg" width="35" height="35" fill="none"><rect width="35" height="35" fill="#fff" rx="4"/><path fill="#2E6092" fill-rule="evenodd" d="M11.858 9A3.86 3.86 0 0 0 8 12.856v10.286A3.86 3.86 0 0 0 11.858 27h10.286A3.86 3.86 0 0 0 26 23.142V12.856A3.86 3.86 0 0 0 22.144 9zm11.396 3.862a1.11 1.11 0 1 1-2.222 0 1.11 1.11 0 0 1 2.222 0m-6.252 2.056a3.081 3.081 0 1 0 0 6.162 3.081 3.081 0 0 0 0-6.162m-4.564 3.081a4.563 4.563 0 1 1 9.126 0 4.563 4.563 0 0 1-9.126 0" clip-rule="evenodd"/></svg>