<svg xmlns="http://www.w3.org/2000/svg" width="35" height="35" fill="none"><rect width="35" height="35" fill="#fff" rx="4"/><g clip-path="url(#a)"><path fill="#2E6092" d="M17.18 16.714v3.084h5.106c-.208 1.324-1.544 3.882-5.106 3.882-3.07 0-5.579-2.543-5.579-5.68 0-3.138 2.508-5.681 5.579-5.681 1.749 0 2.92.741 3.588 1.386l2.441-2.353C21.642 9.89 19.611 9 17.18 9c-4.974 0-9 4.022-9 9s4.026 9 9 9c5.195 0 8.644-3.65 8.644-8.795 0-.591-.065-1.043-.144-1.49z"/></g><defs><clipPath id="a"><path fill="#fff" d="M8 9h18v18H8z"/></clipPath></defs></svg>