<svg xmlns="http://www.w3.org/2000/svg" width="98" height="98" fill="none"><path fill="#21558A" d="M82.367 28.417a34 34 0 0 0-1.91-3.084c3.933-6.01 7.686-13.09 11.157-21.088a1.613 1.613 0 0 1 2.138-.838 1.62 1.62 0 0 1 .843 2.153c-3.842 8.844-7.95 16.513-12.228 22.857M23.77 65.358 20.823 76.33a1.635 1.635 0 0 0 1.573 2.074h13.54c18.356 0 26.459-4.341 31.965-8.59 7.489-5.783 12.194-15.074 12.28-24.243a28.2 28.2 0 0 0-1.247-8.43 28.2 28.2 0 0 0-3.164-7.018c-2.095-3.38-4.859-6.27-7.995-8.355-8.055-5.35-18.67-5.942-26.416-1.475-6.873 3.97-8.119 10.713-7.098 15.278 1.156 5.175 4.013 8.698 8.487 10.473 6.15 2.471 15.067 1.12 21.68-3.296 3.293-2.197 6.552-5.18 9.707-8.885a25 25 0 0 1 1.379 3.366c-2.999 3.345-6.11 6.125-9.266 8.222-4.825 3.233-10.863 5.085-16.572 5.085-3.008 0-5.75-.488-8.145-1.45-5.459-2.192-9.072-6.615-10.45-12.79-1.372-6.102.77-14.288 8.647-18.825 8.805-5.086 20.8-4.458 29.854 1.563a29.4 29.4 0 0 1 7.583 7.29c.005.006.013.008.018.014l-.006.005a30.8 30.8 0 0 1 3.474 5.926 32.3 32.3 0 0 1 2.798 13.323c-.093 10.31-5.157 20.327-13.542 26.795-5.96 4.59-14.66 9.282-33.97 9.282h-13.54a1.635 1.635 0 0 0-1.574 2.074l3.055 10.91L3.304 80.098 23.768 65.36z"/></svg>