<svg xmlns="http://www.w3.org/2000/svg" width="69" height="75" fill="none"><path fill="#000" d="M62.327 53.584v18.193H6.43V53.584c0-.89-3.223-.89-3.223 0v19.805c0 .89.721 1.611 1.611 1.611h59.12c.89 0 1.612-.721 1.612-1.611V53.584c0-.89-3.223-.89-3.223 0"/><path fill="#000" d="M21.576 64.734h25.605a1.611 1.611 0 1 0 0-3.223H21.576a1.611 1.611 0 0 0 0 3.223"/><path fill="#21558A" d="M67.146 43.541h-4.34v-9.642c0-.47-.205-.916-.561-1.222l-2.347-2.015a6.3 6.3 0 0 0 .628-2.755 6.36 6.36 0 0 0-6.353-6.355 6.36 6.36 0 0 0-6.352 6.355 6.36 6.36 0 0 0 6.352 6.354c1.351 0 2.605-.424 3.636-1.146l1.775 1.525v8.901h-6.917c-.348-5.572-4.99-9.999-10.647-9.999h-2.495v-1.375c3.458-1.65 6.018-4.914 6.675-8.84a4.37 4.37 0 0 0 2.917-4.113 4.36 4.36 0 0 0-2.586-3.98c.223-.997.625-2.853.723-3.69.354-2.994-.413-5.666-2.218-7.726C42.637 1.083 38.959.025 37.204.001c-3.66-.049-6.24 2.053-7.485 3.36-2.46-.787-6.285-.91-8.556 2.679-2.224 3.517-.526 7.444.637 9.414a4.36 4.36 0 0 0-2.16 3.76 4.37 4.37 0 0 0 2.918 4.112c.657 3.927 3.217 7.19 6.675 8.84v1.376h-2.496c-5.656 0-10.299 4.427-10.646 9.999H9.173v-8.902l1.776-1.524a6.3 6.3 0 0 0 3.635 1.146 6.36 6.36 0 0 0 6.352-6.354 6.36 6.36 0 0 0-6.352-6.355 6.36 6.36 0 0 0-6.353 6.355c0 .986.226 1.92.628 2.755l-2.347 2.015a1.61 1.61 0 0 0-.561 1.222v9.642H1.61c-.89 0-1.611.721-1.611 1.611v7.704c0 .89.721 1.612 1.611 1.612h65.535c.89 0 1.611-.722 1.611-1.612v-7.704c0-.89-.721-1.611-1.611-1.611M51.043 27.907a3.134 3.134 0 0 1 3.13-3.132 3.135 3.135 0 0 1 3.13 3.132 3.135 3.135 0 0 1-3.13 3.131 3.134 3.134 0 0 1-3.13-3.131m-36.46-3.132a3.134 3.134 0 0 1 3.13 3.132 3.134 3.134 0 0 1-3.13 3.131 3.135 3.135 0 0 1-3.13-3.131 3.135 3.135 0 0 1 3.13-3.132m9.304-17.012c.742-1.173 1.807-1.702 3.262-1.62a6.9 6.9 0 0 1 2.33.585c.718.36 1.586.142 2.042-.518.022-.03 2.15-2.987 5.558-2.987h.081c.83.012 3.662.677 5.452 2.72 1.204 1.373 1.69 3.13 1.442 5.224-.048.408-.21 1.232-.383 2.049H37.21c-1.753 0-3.41-.85-4.435-2.273l-.787-1.093a1.61 1.61 0 0 0-2.762.249 5.49 5.49 0 0 1-4.935 3.117h-.041c-.742-1.448-1.49-3.673-.363-5.453m1.744 14.101a1.61 1.61 0 0 0-1.608-1.515h-.037a1.14 1.14 0 0 1-1.123-1.135 1.14 1.14 0 0 1 1.14-1.135c.89 0 1.611-.721 1.611-1.611v-.132a8.76 8.76 0 0 0 5.134-2.78 8.71 8.71 0 0 0 6.462 2.882h5.933v.03c0 .89.721 1.611 1.611 1.611.629 0 1.14.51 1.14 1.135a1.14 1.14 0 0 1-1.16 1.135c-.852 0-1.557.664-1.608 1.515-.276 4.622-4.118 8.243-8.747 8.243-4.63 0-8.472-3.62-8.748-8.243m8.748 11.465q.982-.001 1.923-.154v1.979c0 .642.375 1.196.918 1.455l-2.841 1.75-2.842-1.75c.543-.26.918-.813.918-1.455v-1.98q.942.154 1.924.155m-8.602 3.498q.09.074.19.136l7.566 4.66a1.61 1.61 0 0 0 1.69 0l7.567-4.66q.1-.062.19-.136a7.46 7.46 0 0 1 6.455 6.714H19.322a7.46 7.46 0 0 1 6.455-6.714m39.757 14.418H3.223v-4.481h62.312z"/><path fill="#21558A" d="M38.402 22.841c.89 0 1.611-.722 1.611-1.611v-1.004a1.611 1.611 0 0 0-3.222 0v1.004c0 .89.721 1.611 1.61 1.611M31.967 21.23v-1.004a1.611 1.611 0 0 0-3.223 0v1.004a1.611 1.611 0 1 0 3.223 0M37.206 26.893a1.611 1.611 0 0 0-2.28-2.278.77.77 0 0 1-1.089.004 1.61 1.61 0 0 0-2.268-.022 1.613 1.613 0 0 0-.015 2.296 3.97 3.97 0 0 0 2.826 1.17 3.97 3.97 0 0 0 2.826-1.17"/></svg>