<svg xmlns="http://www.w3.org/2000/svg" width="75" height="75" fill="none"><g clip-path="url(#a)"><path fill="#21558A" d="M40.814 58.08a1.611 1.611 0 1 0 0 3.223 1.611 1.611 0 1 0 0-3.222M34.185 61.303h.002a1.61 1.61 0 1 0 .002-3.221 1.61 1.61 0 0 0-.004 3.221M40.814 63.968h-6.629a1.611 1.611 0 1 0 0 3.223h6.629a1.611 1.611 0 1 0 0-3.223M65.655 40.405a1.611 1.611 0 1 0 0 3.223h.001a1.611 1.611 0 1 0 0-3.223M59.028 43.628a1.61 1.61 0 1 0 .002-3.222 1.61 1.61 0 0 0-.003 3.222zM66.46 45.777a1.61 1.61 0 0 0-2.2.59 2.22 2.22 0 0 1-1.919 1.107 2.22 2.22 0 0 1-1.919-1.107 1.611 1.611 0 1 0-2.79 1.61 5.45 5.45 0 0 0 4.71 2.72 5.45 5.45 0 0 0 4.709-2.72c.445-.77.18-1.755-.59-2.2M15.972 40.405a1.611 1.611 0 1 0 0 3.223 1.61 1.61 0 1 0 0-3.223M9.344 43.628a1.61 1.61 0 1 0 .002-3.222 1.61 1.61 0 0 0-.002 3.222M12.658 44.828a5.45 5.45 0 0 0-4.71 2.72 1.612 1.612 0 0 0 2.791 1.61 2.22 2.22 0 0 1 1.919-1.107c.789 0 1.524.424 1.918 1.108a1.61 1.61 0 1 0 2.791-1.612 5.45 5.45 0 0 0-4.71-2.719"/><path fill="#000" d="M61.553 9.963C55.128 3.538 46.586 0 37.5 0S19.872 3.538 13.447 9.963C7.023 16.388 3.484 24.93 3.484 34.016c0 .619.018 1.246.052 1.866a1.612 1.612 0 0 0 3.217-.177c-.03-.56-.046-1.13-.046-1.69 0-7.91 2.999-15.134 7.92-20.594l7.105 7.106a20.67 20.67 0 0 0-4.979 14.212 1.611 1.611 0 1 0 3.221-.112q-.01-.306-.01-.611c0-9.67 7.866-17.537 17.536-17.537s17.537 7.867 17.537 17.537q0 .19-.004.381a1.611 1.611 0 1 0 3.221.07q.005-.225.005-.451a20.67 20.67 0 0 0-4.991-13.49l7.105-7.105c4.921 5.46 7.92 12.683 7.92 20.595 0 .669-.022 1.346-.066 2.011a1.611 1.611 0 1 0 3.216.21c.048-.735.073-1.483.073-2.222 0-9.085-3.539-17.627-9.964-24.052M24.01 18.248l-7.106-7.106c5.087-4.584 11.705-7.5 18.984-7.878v10.054a20.67 20.67 0 0 0-11.878 4.93m15.1-4.93V3.264c7.279.377 13.897 3.294 18.984 7.878l-7.106 7.106a20.67 20.67 0 0 0-11.878-4.93"/><path fill="#21558A" d="M37.5 39.31a5.3 5.3 0 0 0 5.294-5.294c0-1.618-.73-3.068-1.877-4.04l7.114-17.174a1.611 1.611 0 0 0-2.977-1.233L37.94 28.74a5.3 5.3 0 0 0-5.735 5.275A5.3 5.3 0 0 0 37.5 39.31m0-7.365c1.142 0 2.071.929 2.071 2.07 0 1.142-.93 2.072-2.071 2.072a2.073 2.073 0 0 1-2.071-2.071c0-1.142.929-2.071 2.071-2.071M37.5 49.684c-6.98 0-12.658 5.678-12.658 12.658S30.52 75 37.5 75s12.658-5.678 12.658-12.658S44.48 49.684 37.5 49.684m0 22.093c-5.203 0-9.436-4.232-9.436-9.435s4.233-9.436 9.436-9.436 9.435 4.233 9.435 9.436-4.232 9.435-9.435 9.435M62.342 32.008c-6.98 0-12.658 5.679-12.658 12.659s5.678 12.658 12.658 12.658S75 51.646 75 44.667c0-6.98-5.678-12.659-12.658-12.659m0 22.094c-5.203 0-9.436-4.233-9.436-9.435s4.233-9.436 9.436-9.436 9.435 4.233 9.435 9.436c0 5.202-4.232 9.435-9.435 9.435M12.658 32.008C5.678 32.008 0 37.687 0 44.667s5.679 12.658 12.658 12.658c6.98 0 12.659-5.679 12.659-12.658 0-6.98-5.679-12.659-12.659-12.659m0 22.094c-5.202 0-9.435-4.233-9.435-9.435s4.232-9.436 9.435-9.436 9.436 4.233 9.436 9.436c0 5.202-4.233 9.435-9.436 9.435"/></g><defs><clipPath id="a"><path fill="#fff" d="M0 0h75v75H0z"/></clipPath></defs></svg>