<svg xmlns="http://www.w3.org/2000/svg" width="75" height="75" fill="none"><g clip-path="url(#a)"><path fill="#21558A" d="M44.092 7.324c-13.004 0-23.584 10.58-23.584 23.584 0 13.005 10.58 23.584 23.584 23.584s23.584-10.58 23.584-23.584S57.096 7.324 44.092 7.324M62.398 32.52h1.992a20.27 20.27 0 0 1-4.813 11.595l-1.401-1.402a1.611 1.611 0 0 0-2.279 2.28l1.402 1.4a20.27 20.27 0 0 1-11.596 4.813v-1.992a1.611 1.611 0 0 0-3.222 0v1.992a20.27 20.27 0 0 1-11.596-4.812l1.402-1.402a1.611 1.611 0 1 0-2.28-2.279l-1.4 1.402a20.27 20.27 0 0 1-4.813-11.596h1.81a1.611 1.611 0 1 0 0-3.222h-1.81A20.27 20.27 0 0 1 28.606 17.7l1.273 1.273c.315.315.727.472 1.14.472s.824-.157 1.139-.472c.63-.629.63-1.65 0-2.279l-1.273-1.272A20.28 20.28 0 0 1 42.48 10.61v1.81a1.611 1.611 0 1 0 3.223 0v-1.81a20.27 20.27 0 0 1 11.595 4.813l-1.272 1.273a1.611 1.611 0 1 0 2.278 2.278l1.273-1.273a20.27 20.27 0 0 1 4.813 11.596h-1.992a1.611 1.611 0 1 0 0 3.223"/><path fill="#000" d="m19.854 66.747 9.64-9.64a1.611 1.611 0 1 0-2.28-2.279l-9.639 9.64a1.611 1.611 0 0 0 2.28 2.279M12.914 69.13l-3.1 3.099a1.611 1.611 0 0 0 2.28 2.279l3.099-3.1a1.611 1.611 0 0 0-2.279-2.279M3.592 69.13l-3.12 3.12a1.611 1.611 0 0 0 2.279 2.278l3.12-3.12a1.611 1.611 0 1 0-2.279-2.279M12.914 59.807l-4.661 4.661a1.611 1.611 0 1 0 2.279 2.279l4.66-4.661a1.611 1.611 0 0 0-2.278-2.28M17.575 57.425c.315.314.727.472 1.14.472s.825-.158 1.139-.472l4.454-4.454a1.611 1.611 0 0 0-2.279-2.28l-4.454 4.455c-.629.63-.629 1.65 0 2.279M33.537 57.828l-6.69 6.69a1.611 1.611 0 0 0 2.28 2.28l6.689-6.69a1.611 1.611 0 0 0-2.279-2.28M21.706 69.66l-2.59 2.59a1.611 1.611 0 1 0 2.28 2.278l2.589-2.59a1.611 1.611 0 1 0-2.279-2.278M8.253 57.425c.315.314.727.472 1.14.472s.824-.158 1.139-.472l9.64-9.64a1.611 1.611 0 1 0-2.28-2.279l-9.64 9.64c-.628.63-.628 1.65.001 2.279M3.592 59.807l-3.1 3.1a1.611 1.611 0 0 0 2.279 2.278l3.1-3.1a1.611 1.611 0 0 0-2.28-2.278M9.342 48.624c.413 0 .825-.157 1.14-.472l6.69-6.69a1.611 1.611 0 0 0-2.28-2.278l-6.69 6.69a1.611 1.611 0 0 0 1.14 2.75M1.611 56.355c.413 0 .825-.157 1.14-.472l2.59-2.59a1.611 1.611 0 1 0-2.28-2.278l-2.589 2.59a1.611 1.611 0 0 0 1.14 2.75"/><path fill="#21558A" d="M44.092 21.548c-.89 0-1.611.721-1.611 1.611v6.138H39.1a1.611 1.611 0 1 0 0 3.223h4.992c.89 0 1.611-.722 1.611-1.612V23.16c0-.89-.721-1.611-1.611-1.611"/><path fill="#21558A" d="M44.092 0C27.049 0 13.184 13.865 13.184 30.908s13.865 30.908 30.908 30.908S75 47.951 75 30.908 61.135 0 44.092 0m0 58.594c-15.266 0-27.686-12.42-27.686-27.686S28.826 3.223 44.092 3.223s27.685 12.42 27.685 27.685c0 15.266-12.42 27.686-27.685 27.686"/></g><defs><clipPath id="a"><path fill="#fff" d="M0 0h75v75H0z"/></clipPath></defs></svg>