<svg xmlns="http://www.w3.org/2000/svg" width="75" height="75" fill="none"><g clip-path="url(#a)"><path fill="#000" d="M74.218.23A1.61 1.61 0 0 0 72.63.19l-4.734 2.525L63.16.189a1.61 1.61 0 0 0-1.517 0l-4.735 2.526L52.174.189a1.61 1.61 0 0 0-1.516 0l-4.735 2.526L41.188.189a1.61 1.61 0 0 0-1.517 0l-4.734 2.526L30.202.189a1.612 1.612 0 0 0-2.37 1.422V14.92H14.8a7.37 7.37 0 0 0-5.269 2.157 7.4 7.4 0 0 0-2.207 5.29v40.658H1.611c-.89 0-1.611.721-1.611 1.611v2.918C0 71.659 3.34 75 7.447 75h36.764c4.106 0 7.447-3.34 7.447-7.447V51.95h15.895c4.106 0 7.447-3.341 7.447-7.447V1.61c0-.566-.297-1.09-.782-1.381M7.447 71.777a4.23 4.23 0 0 1-4.224-4.224v-1.306h33.541v1.306c0 1.567.487 3.023 1.317 4.224zm36.764 0a4.23 4.23 0 0 1-4.224-4.224v-2.918c0-.89-.722-1.61-1.611-1.61H10.547v-40.66c0-1.132.446-2.198 1.255-3.002a4.14 4.14 0 0 1 2.987-1.221h34.963a7.4 7.4 0 0 0-1.317 4.224v45.187a4.23 4.23 0 0 1-4.224 4.224m7.447-49.411a4.23 4.23 0 0 1 4.224-4.224 4.23 4.23 0 0 1 4.224 4.224v22.136c0 1.568.487 3.024 1.317 4.225h-9.765zm20.12 22.136a4.23 4.23 0 0 1-4.225 4.225 4.23 4.23 0 0 1-4.224-4.224V22.365c0-4.107-3.34-7.447-7.447-7.447H31.055V4.297l3.123 1.666a1.61 1.61 0 0 0 1.517 0l4.735-2.526 4.734 2.526a1.61 1.61 0 0 0 1.517 0l4.735-2.526 4.735 2.526a1.61 1.61 0 0 0 1.516 0l4.735-2.526 4.735 2.526a1.61 1.61 0 0 0 1.517 0l3.123-1.666z"/><path fill="#21558A" d="M29.491 23.957c-7.35 0-13.33 5.98-13.33 13.33s5.98 13.33 13.33 13.33 13.33-5.98 13.33-13.33-5.98-13.33-13.33-13.33m0 23.437c-5.573 0-10.107-4.534-10.107-10.107S23.918 27.18 29.49 27.18 39.6 31.714 39.6 37.287 35.064 47.394 29.49 47.394"/><path fill="#21558A" d="M28.012 41.858c-.428 0-.838-.17-1.14-.472l-2.697-2.697a1.611 1.611 0 1 1 2.279-2.28l1.558 1.559 3.945-3.946a1.611 1.611 0 0 1 2.28 2.279l-5.086 5.085a1.6 1.6 0 0 1-1.14.472M36.107 57.209H22.876a1.611 1.611 0 0 1 0-3.223h13.23a1.611 1.611 0 0 1 0 3.223"/></g><defs><clipPath id="a"><path fill="#fff" d="M0 0h75v75H0z"/></clipPath></defs></svg>