<svg xmlns="http://www.w3.org/2000/svg" width="45" height="45" fill="none"><circle cx="22.5" cy="22.5" r="22.5" fill="#21558A"/><path fill="#fff" d="M32.333 11A2.667 2.667 0 0 1 35 13.667v18.666A2.667 2.667 0 0 1 32.333 35H13.667A2.667 2.667 0 0 1 11 32.333V13.667A2.667 2.667 0 0 1 13.667 11zm-.666 20.667V24.6a4.347 4.347 0 0 0-4.347-4.347c-1.133 0-2.453.694-3.093 1.734v-1.48h-3.72v11.16h3.72v-6.574a1.86 1.86 0 0 1 1.853-1.866 1.866 1.866 0 0 1 1.867 1.866v6.574zM16.173 18.413a2.24 2.24 0 0 0 2.24-2.24c0-1.24-1-2.253-2.24-2.253a2.253 2.253 0 0 0-2.253 2.253c0 1.24 1.013 2.24 2.253 2.24m1.854 13.254v-11.16h-3.694v11.16z"/></svg>