<svg xmlns="http://www.w3.org/2000/svg" width="24" height="24" fill="none"><g clip-path="url(#a)"><path fill="#000" fill-rule="evenodd" d="M9.055 14.947c3.08 3.08 5.936 3.418 6.774 3.45 1.013.036 2.047-.79 2.494-1.638-.713-.836-1.642-1.485-2.659-2.189-.6.6-1.34 1.713-2.324 1.314-.56-.225-1.944-.862-3.152-2.07-1.21-1.209-1.846-2.592-2.072-3.15-.4-.987.718-1.728 1.318-2.328-.704-1.034-1.342-1.987-2.177-2.664-.859.45-1.69 1.475-1.653 2.501.031.838.369 3.693 3.45 6.774m6.715 5.05c-1.154-.042-4.424-.494-7.85-3.917-3.423-3.424-3.875-6.693-3.918-7.848-.064-1.76 1.284-3.468 2.841-4.135a1.18 1.18 0 0 1 1.158.127c1.289.94 2.177 2.363 2.94 3.479a1.205 1.205 0 0 1-.14 1.532l-1.088 1.088c.253.556.767 1.516 1.608 2.358.841.84 1.801 1.354 2.36 1.607l1.085-1.087a1.205 1.205 0 0 1 1.537-.137c1.138.789 2.475 1.664 3.449 2.912a1.18 1.18 0 0 1 .152 1.19c-.671 1.564-2.369 2.897-4.134 2.832" clip-rule="evenodd"/></g><defs><clipPath id="a"><path fill="#fff" d="M0 0h24v24H0z"/></clipPath></defs></svg>