<svg xmlns="http://www.w3.org/2000/svg" width="18" height="18" fill="none"><path fill="#fff" d="M14.333 11.333c-.8 0-1.666-.133-2.4-.4h-.2c-.2 0-.333.067-.466.2L9.8 12.6c-1.867-1-3.467-2.533-4.4-4.4l1.467-1.467c.2-.2.266-.466.133-.666a9.5 9.5 0 0 1-.333-2.4C6.667 3.333 6.333 3 6 3H3.667C3.333 3 3 3.333 3 3.667A11.324 11.324 0 0 0 14.333 15c.334 0 .667-.333.667-.667V12c0-.333-.333-.667-.667-.667m-10-7h1c.067.6.2 1.2.334 1.734l-.8.8C4.6 6.067 4.4 5.2 4.333 4.333m9.334 9.334a10.7 10.7 0 0 1-2.534-.534l.8-.8c.534.134 1.134.267 1.734.267z"/></svg>