<svg xmlns="http://www.w3.org/2000/svg" width="333" height="1031" fill="none"><path stroke="#21558A" stroke-opacity=".3" stroke-width=".5" d="M658.529 276.992c23.551 54.09 14.812 116.172-18.396 172.831-33.208 56.66-90.877 107.879-165.143 140.215s-151.049 39.658-215.149 25.367c-64.101-14.291-115.5-50.188-139.051-104.278s-14.813-116.172 18.395-172.831c33.208-56.66 90.877-107.88 165.144-140.216 74.266-32.336 151.049-39.657 215.149-25.367 64.1 14.291 115.499 50.189 139.051 104.279Z"/><path stroke="#21558A" stroke-opacity=".3" stroke-width=".5" d="M693.659 357.675c23.551 54.091 14.813 116.172-18.395 172.832S584.386 638.386 510.12 670.722s-151.049 39.658-215.149 25.367c-64.101-14.291-115.5-50.188-139.051-104.278s-14.813-116.172 18.395-172.832S265.193 311.1 339.459 278.764s151.049-39.658 215.149-25.367c64.101 14.291 115.5 50.188 139.051 104.278Z"/><path stroke="#21558A" stroke-opacity=".3" stroke-width=".5" d="M728.789 438.359c23.551 54.091 14.813 116.172-18.395 172.832S619.516 719.07 545.25 751.406s-151.049 39.658-215.149 25.367-115.499-50.188-139.051-104.279-14.813-116.171 18.396-172.831c33.207-56.66 90.877-107.879 165.143-140.215s151.049-39.658 215.149-25.367c64.101 14.291 115.5 50.188 139.051 104.278Z"/><path stroke="#21558A" stroke-opacity=".3" stroke-width=".5" d="M623.398 196.308c23.552 54.09 14.813 116.172-18.395 172.831-33.208 56.66-90.877 107.88-165.143 140.216s-151.05 39.657-215.15 25.367c-64.1-14.291-115.499-50.189-139.05-104.279s-14.813-116.172 18.395-172.831c33.208-56.66 90.877-107.879 165.143-140.215s151.049-39.658 215.15-25.367c64.1 14.291 115.499 50.188 139.05 104.278ZM799.05 599.727c23.551 54.09 14.812 116.172-18.396 172.831-33.208 56.66-90.877 107.879-165.143 140.215s-151.049 39.658-215.15 25.367c-64.1-14.291-115.499-50.188-139.05-104.278S246.498 717.69 279.706 661.03s90.877-107.879 165.144-140.215c74.266-32.336 151.049-39.658 215.149-25.367s115.499 50.189 139.051 104.279Z"/><path stroke="#21558A" stroke-opacity=".3" stroke-width=".5" d="M763.919 519.043c23.552 54.09 14.813 116.172-18.395 172.831-33.208 56.66-90.877 107.879-165.144 140.215-74.266 32.336-151.049 39.658-215.149 25.367S249.732 807.268 226.18 753.178s-14.812-116.172 18.396-172.831c33.208-56.66 90.877-107.88 165.143-140.216s151.049-39.657 215.15-25.366c64.1 14.29 115.499 50.188 139.05 104.278Z"/></svg>