<svg xmlns="http://www.w3.org/2000/svg" width="240" height="1010" fill="none"><path stroke="#21558A" stroke-opacity=".3" stroke-width=".5" d="M59.283 286.447c18.735 55.941 4.605 117.021-33.427 170.563S-74.1 556.536-150.907 582.259c-76.808 25.723-153.937 26.308-216.543 6.471-62.607-19.838-110.672-60.089-129.407-116.03s-4.606-117.022 33.426-170.563 99.956-99.526 176.764-125.249c76.807-25.723 153.936-26.308 216.542-6.471 62.607 19.838 110.673 60.089 129.408 116.03Z"/><path stroke="#21558A" stroke-opacity=".3" stroke-width=".5" d="M87.229 369.891c18.735 55.942 4.605 117.022-33.427 170.563-38.031 53.542-99.956 99.526-176.763 125.249-76.808 25.724-153.937 26.308-216.543 6.471-62.607-19.837-110.673-60.088-129.408-116.029s-4.605-117.022 33.427-170.563 99.956-99.526 176.763-125.249c76.808-25.723 153.937-26.308 216.543-6.471C20.428 273.699 68.494 313.95 87.23 369.891Z"/><path stroke="#21558A" stroke-opacity=".3" stroke-width=".5" d="M115.175 453.336c18.735 55.941 4.605 117.022-33.427 170.563s-99.956 99.526-176.763 125.249c-76.808 25.723-153.937 26.308-216.543 6.471-62.607-19.837-110.673-60.088-129.408-116.029-18.734-55.942-4.605-117.022 33.427-170.563 38.031-53.542 99.956-99.526 176.763-125.249 76.808-25.724 153.937-26.308 216.543-6.471 62.607 19.837 110.673 60.088 129.408 116.029Z"/><path stroke="#21558A" stroke-opacity=".3" stroke-width=".5" d="M31.337 203.002c18.735 55.941 4.605 117.022-33.427 170.563s-99.956 99.526-176.763 125.249c-76.808 25.723-153.937 26.308-216.543 6.471-62.607-19.837-110.673-60.088-129.407-116.03s-4.606-117.021 33.426-170.563 99.956-99.526 176.764-125.249c76.807-25.723 153.936-26.308 216.542-6.47C-35.464 106.81 12.602 147.06 31.337 203.002ZM171.066 620.226c18.735 55.941 4.606 117.021-33.426 170.563S37.684 890.314-39.123 916.038c-76.808 25.723-153.937 26.308-216.543 6.47-62.607-19.837-110.673-60.088-129.408-116.029s-4.605-117.022 33.427-170.563 99.956-99.526 176.763-125.249c76.808-25.723 153.937-26.308 216.543-6.471 62.607 19.837 110.673 60.088 129.407 116.03Z"/><path stroke="#21558A" stroke-opacity=".3" stroke-width=".5" d="M143.121 536.781c18.735 55.941 4.605 117.022-33.427 170.563S9.738 806.87-67.069 832.593c-76.808 25.723-153.937 26.308-216.543 6.471-62.607-19.837-110.673-60.088-129.408-116.03s-4.605-117.021 33.427-170.563 99.956-99.525 176.763-125.249c76.808-25.723 153.937-26.308 216.543-6.47 62.607 19.837 110.673 60.088 129.408 116.029Z"/></svg>